  0
SECTION
  2
BLOCKS
  0
ENDSEC
  0
SECTION
  2
ENTITIES
  0
LINE
  8
0
 10
127
 20
63.5
 11
-63.5
 21
63.5
  0
LINE
  8
0
 10
-63.5
 20
63.5
 11
-63.5
 21
-63.5
  0
LINE
  8
0
 10
-63.5
 20
-63.5
 11
127
 21
-63.5
  0
LINE
  8
0
 10
127
 20
-63.5
 11
127
 21
63.5
  0
LINE
  8
0
 10
-4.48035
 20
-42.6277
 11
-8.91161
 21
-41.9258
  0
LINE
  8
0
 10
-8.91161
 20
-41.9258
 11
-13.2452
 21
-40.7646
  0
LINE
  8
0
 10
-13.2452
 20
-40.7646
 11
-17.4337
 21
-39.1568
  0
LINE
  8
0
 10
-17.4337
 20
-39.1568
 11
-21.4312
 21
-37.12
  0
LINE
  8
0
 10
-21.4312
 20
-37.12
 11
-25.1939
 21
-34.6765
  0
LINE
  8
0
 10
-25.1939
 20
-34.6765
 11
-28.6806
 21
-31.853
  0
LINE
  8
0
 10
-28.6806
 20
-31.853
 11
-31.853
 21
-28.6806
  0
LINE
  8
0
 10
-31.853
 20
-28.6806
 11
-34.6765
 21
-25.1939
  0
LINE
  8
0
 10
-34.6765
 20
-25.1939
 11
-37.12
 21
-21.4312
  0
LINE
  8
0
 10
-37.12
 20
-21.4312
 11
-39.1568
 21
-17.4337
  0
LINE
  8
0
 10
-39.1568
 20
-17.4337
 11
-40.7646
 21
-13.2452
  0
LINE
  8
0
 10
-40.7646
 20
-13.2452
 11
-41.9258
 21
-8.91161
  0
LINE
  8
0
 10
-41.9258
 20
-8.91161
 11
-42.6277
 21
-4.48035
  0
LINE
  8
0
 10
-42.6277
 20
-4.48035
 11
-42.8625
 21
0
  0
LINE
  8
0
 10
-42.8625
 20
0
 11
-42.6277
 21
4.48035
  0
LINE
  8
0
 10
-42.6277
 20
4.48035
 11
-41.9258
 21
8.91161
  0
LINE
  8
0
 10
-41.9258
 20
8.91161
 11
-40.7646
 21
13.2452
  0
LINE
  8
0
 10
-40.7646
 20
13.2452
 11
-39.1568
 21
17.4337
  0
LINE
  8
0
 10
-39.1568
 20
17.4337
 11
-37.12
 21
21.4312
  0
LINE
  8
0
 10
-37.12
 20
21.4312
 11
-34.6765
 21
25.1939
  0
LINE
  8
0
 10
-34.6765
 20
25.1939
 11
-31.853
 21
28.6806
  0
LINE
  8
0
 10
-31.853
 20
28.6806
 11
-28.6806
 21
31.853
  0
LINE
  8
0
 10
-28.6806
 20
31.853
 11
-25.1939
 21
34.6765
  0
LINE
  8
0
 10
-25.1939
 20
34.6765
 11
-21.4312
 21
37.12
  0
LINE
  8
0
 10
-21.4312
 20
37.12
 11
-17.4337
 21
39.1568
  0
LINE
  8
0
 10
-17.4337
 20
39.1568
 11
-13.2452
 21
40.7646
  0
LINE
  8
0
 10
-13.2452
 20
40.7646
 11
-8.91161
 21
41.9258
  0
LINE
  8
0
 10
-8.91161
 20
41.9258
 11
-4.48035
 21
42.6277
  0
LINE
  8
0
 10
-4.48035
 20
42.6277
 11
0
 21
42.8625
  0
LINE
  8
0
 10
0
 20
42.8625
 11
4.48035
 21
42.6277
  0
LINE
  8
0
 10
4.48035
 20
42.6277
 11
8.91161
 21
41.9258
  0
LINE
  8
0
 10
8.91161
 20
41.9258
 11
13.2452
 21
40.7646
  0
LINE
  8
0
 10
13.2452
 20
40.7646
 11
17.4337
 21
39.1568
  0
LINE
  8
0
 10
17.4337
 20
39.1568
 11
21.4312
 21
37.12
  0
LINE
  8
0
 10
21.4312
 20
37.12
 11
25.1939
 21
34.6765
  0
LINE
  8
0
 10
25.1939
 20
34.6765
 11
28.6806
 21
31.853
  0
LINE
  8
0
 10
28.6806
 20
31.853
 11
31.853
 21
28.6806
  0
LINE
  8
0
 10
31.853
 20
28.6806
 11
34.6765
 21
25.1939
  0
LINE
  8
0
 10
34.6765
 20
25.1939
 11
37.12
 21
21.4312
  0
LINE
  8
0
 10
37.12
 20
21.4312
 11
39.1568
 21
17.4337
  0
LINE
  8
0
 10
39.1568
 20
17.4337
 11
40.7646
 21
13.2452
  0
LINE
  8
0
 10
40.7646
 20
13.2452
 11
41.9258
 21
8.91161
  0
LINE
  8
0
 10
41.9258
 20
8.91161
 11
42.6277
 21
4.48035
  0
LINE
  8
0
 10
42.6277
 20
4.48035
 11
42.8625
 21
0
  0
LINE
  8
0
 10
42.8625
 20
0
 11
42.6277
 21
-4.48035
  0
LINE
  8
0
 10
42.6277
 20
-4.48035
 11
41.9258
 21
-8.91161
  0
LINE
  8
0
 10
41.9258
 20
-8.91161
 11
40.7646
 21
-13.2452
  0
LINE
  8
0
 10
40.7646
 20
-13.2452
 11
39.1568
 21
-17.4337
  0
LINE
  8
0
 10
39.1568
 20
-17.4337
 11
37.12
 21
-21.4312
  0
LINE
  8
0
 10
37.12
 20
-21.4312
 11
34.6765
 21
-25.1939
  0
LINE
  8
0
 10
34.6765
 20
-25.1939
 11
31.853
 21
-28.6806
  0
LINE
  8
0
 10
31.853
 20
-28.6806
 11
28.6806
 21
-31.853
  0
LINE
  8
0
 10
28.6806
 20
-31.853
 11
25.1939
 21
-34.6765
  0
LINE
  8
0
 10
25.1939
 20
-34.6765
 11
21.4312
 21
-37.12
  0
LINE
  8
0
 10
21.4312
 20
-37.12
 11
17.4337
 21
-39.1568
  0
LINE
  8
0
 10
17.4337
 20
-39.1568
 11
13.2452
 21
-40.7646
  0
LINE
  8
0
 10
13.2452
 20
-40.7646
 11
8.91161
 21
-41.9258
  0
LINE
  8
0
 10
8.91161
 20
-41.9258
 11
4.48035
 21
-42.6277
  0
LINE
  8
0
 10
4.48035
 20
-42.6277
 11
0
 21
-42.8625
  0
LINE
  8
0
 10
0
 20
-42.8625
 11
-4.48035
 21
-42.6277
  0
ENDSEC
  0
SECTION
  2
OBJECTS
  0
DICTIONARY
  0
ENDSEC
  0
EOF
