solid Wall Mount
facet normal 0.0 0.0 1.0
outer loop
vertex 6.90138325311386 8.69535105642084 18.63406471623525
vertex 6.613479831634081 11.146719911852239 18.63406471623525
vertex 6.596067126211219 9.90208388188566 18.63406471623525
endloop
endfacet
facet normal 0.0 0.0 1.0
outer loop
vertex 6.613479831634081 11.146719911852239 18.63406471623525
vertex 6.90138325311386 8.69535105642084 18.63406471623525
vertex 6.952434722283726 12.344439257736656 18.63406471623525
endloop
endfacet
facet normal 0.0 0.0 1.0
outer loop
vertex 6.952434722283726 12.344439257736656 18.63406471623525
vertex 6.90138325311386 8.69535105642084 18.63406471623525
vertex 7.50862142285234 7.608758283292943 18.63406471623525
endloop
endfacet
facet normal 0.0 0.0 1.0
outer loop
vertex 6.952434722283726 12.344439257736656 18.63406471623525
vertex 7.50862142285234 7.608758283292943 18.63406471623525
vertex 7.589832582511834 13.413619325441696 18.63406471623525
endloop
endfacet
facet normal 0.0 0.0 1.0
outer loop
vertex 7.589832582511834 13.413619325441696 18.63406471623525
vertex 7.50862142285234 7.608758283292943 18.63406471623525
vertex 8.376399357667497 6.716355064311171 18.63406471623525
endloop
endfacet
facet normal 0.0 0.0 1.0
outer loop
vertex 7.589832582511834 13.413619325441696 18.63406471623525
vertex 8.376399357667497 6.716355064311171 18.63406471623525
vertex 8.482235801493603 14.281397260256847 18.63406471623525
endloop
endfacet
facet normal 0.0 0.0 1.0
outer loop
vertex 8.482235801493603 14.281397260256847 18.63406471623525
vertex 8.376399357667497 6.716355064311171 18.63406471623525
vertex 9.445579425372545 6.078957204083067 18.63406471623525
endloop
endfacet
facet normal 0.0 0.0 1.0
outer loop
vertex 8.482235801493603 14.281397260256847 18.63406471623525
vertex 9.445579425372545 6.078957204083067 18.63406471623525
vertex 9.568828574621497 14.888635429995317 18.63406471623525
endloop
endfacet
facet normal 0.0 0.0 1.0
outer loop
vertex 9.568828574621497 14.888635429995317 18.63406471623525
vertex 9.445579425372545 6.078957204083067 18.63406471623525
vertex 10.643298771256953 5.740002313433425 18.63406471623525
endloop
endfacet
facet normal 0.0 0.0 1.0
outer loop
vertex 9.568828574621497 14.888635429995317 18.63406471623525
vertex 10.643298771256953 5.740002313433425 18.63406471623525
vertex 10.775561400086312 15.193951556897956 18.63406471623525
endloop
endfacet
facet normal 0.0 0.0 1.0
outer loop
vertex 10.775561400086312 15.193951556897956 18.63406471623525
vertex 10.643298771256953 5.740002313433425 18.63406471623525
vertex 11.887934801223526 5.722589608010564 18.63406471623525
endloop
endfacet
facet normal 0.0 0.0 1.0
outer loop
vertex 10.775561400086312 15.193951556897956 18.63406471623525
vertex 11.887934801223526 5.722589608010564 18.63406471623525
vertex 12.020197430052892 15.176538851475096 18.63406471623525
endloop
endfacet
facet normal 0.0 0.0 1.0
outer loop
vertex 12.020197430052892 15.176538851475096 18.63406471623525
vertex 11.887934801223526 5.722589608010564 18.63406471623525
vertex 13.094667626688329 6.027905734913198 18.63406471623525
endloop
endfacet
facet normal 0.0 0.0 1.0
outer loop
vertex 12.020197430052892 15.176538851475096 18.63406471623525
vertex 13.094667626688329 6.027905734913198 18.63406471623525
vertex 13.217916775937308 14.837583960825448 18.63406471623525
endloop
endfacet
facet normal 0.0 0.0 1.0
outer loop
vertex 13.217916775937308 14.837583960825448 18.63406471623525
vertex 13.094667626688329 6.027905734913198 18.63406471623525
vertex 14.181260399816237 6.635143904651685 18.63406471623525
endloop
endfacet
facet normal 0.0 0.0 1.0
outer loop
vertex 13.217916775937308 14.837583960825448 18.63406471623525
vertex 14.181260399816237 6.635143904651685 18.63406471623525
vertex 14.287096843642342 14.200186100597351 18.63406471623525
endloop
endfacet
facet normal 0.0 0.0 1.0
outer loop
vertex 14.287096843642342 14.200186100597351 18.63406471623525
vertex 14.181260399816237 6.635143904651685 18.63406471623525
vertex 15.073663618798003 7.502921839466837 18.63406471623525
endloop
endfacet
facet normal 0.0 0.0 1.0
outer loop
vertex 14.287096843642342 14.200186100597351 18.63406471623525
vertex 15.073663618798003 7.502921839466837 18.63406471623525
vertex 15.154874778457495 13.307782881615584 18.63406471623525
endloop
endfacet
facet normal 0.0 0.0 1.0
outer loop
vertex 15.154874778457495 13.307782881615584 18.63406471623525
vertex 15.073663618798003 7.502921839466837 18.63406471623525
vertex 15.711061479026109 8.572101907171882 18.63406471623525
endloop
endfacet
facet normal 0.0 0.0 1.0
outer loop
vertex 15.154874778457495 13.307782881615584 18.63406471623525
vertex 15.711061479026109 8.572101907171882 18.63406471623525
vertex 15.762112948195984 12.221190108487672 18.63406471623525
endloop
endfacet
facet normal 0.0 0.0 1.0
outer loop
vertex 15.762112948195984 12.221190108487672 18.63406471623525
vertex 15.711061479026109 8.572101907171882 18.63406471623525
vertex 16.05001636967576 9.769821253056296 18.63406471623525
endloop
endfacet
facet normal 0.0 0.0 1.0
outer loop
vertex 15.762112948195984 12.221190108487672 18.63406471623525
vertex 16.05001636967576 9.769821253056296 18.63406471623525
vertex 16.06742907509862 11.014457283022882 18.63406471623525
endloop
endfacet
facet normal 0.0 0.0 1.0
outer loop
vertex 2.969466269110383 7.1307726380792165 9.884064716235255
vertex 2.4260506287447634 11.757713747357244 9.884064716235255
vertex 2.3931842723144503 9.408472179577139 9.884064716235255
endloop
endfacet
facet normal 0.0 0.0 1.0
outer loop
vertex 2.4260506287447634 11.757713747357244 9.884064716235255
vertex 2.969466269110383 7.1307726380792165 9.884064716235255
vertex 3.065825550524823 14.018400410880577 9.884064716235255
endloop
endfacet
facet normal 0.0 0.0 1.0
outer loop
vertex 3.065825550524823 14.018400410880577 9.884064716235255
vertex 2.969466269110383 7.1307726380792165 9.884064716235255
vertex 4.115623953401949 5.079836582540108 9.884064716235255
endloop
endfacet
facet normal 0.0 0.0 1.0
outer loop
vertex 3.065825550524823 14.018400410880577 9.884064716235255
vertex 4.115623953401949 5.079836582540108 9.884064716235255
vertex 4.268909434013363 16.036470109989374 9.884064716235255
endloop
endfacet
facet normal 0.0 0.0 1.0
outer loop
vertex 4.268909434013363 16.036470109989374 9.884064716235255
vertex 4.115623953401949 5.079836582540108 9.884064716235255
vertex 5.75354857311981 3.3954319158127078 9.884064716235255
endloop
endfacet
facet normal 0.0 0.0 1.0
outer loop
vertex 4.268909434013363 16.036470109989374 9.884064716235255
vertex 5.75354857311981 3.3954319158127078 9.884064716235255
vertex 5.953314100740759 17.67439472970723 9.884064716235255
endloop
endfacet
facet normal 0.0 0.0 1.0
outer loop
vertex 5.953314100740759 17.67439472970723 9.884064716235255
vertex 5.75354857311981 3.3954319158127078 9.884064716235255
vertex 6.596067126211219 9.90208388188566 9.884064716235255
endloop
endfacet
facet normal 0.0 0.0 1.0
outer loop
vertex 6.596067126211219 9.90208388188566 9.884064716235255
vertex 5.75354857311981 3.3954319158127078 9.884064716235255
vertex 7.7716182722286025 2.192348032324169 9.884064716235255
endloop
endfacet
facet normal 0.0 0.0 1.0
outer loop
vertex 6.596067126211219 9.90208388188566 9.884064716235255
vertex 7.7716182722286025 2.192348032324169 9.884064716235255
vertex 6.90138325311386 8.69535105642084 9.884064716235255
endloop
endfacet
facet normal 0.0 0.0 1.0
outer loop
vertex 6.90138325311386 8.69535105642084 9.884064716235255
vertex 7.7716182722286025 2.192348032324169 9.884064716235255
vertex 7.50862142285234 7.608758283292943 9.884064716235255
endloop
endfacet
facet normal 0.0 0.0 1.0
outer loop
vertex 7.50862142285234 7.608758283292943 9.884064716235255
vertex 7.7716182722286025 2.192348032324169 9.884064716235255
vertex 8.376399357667497 6.716355064311171 9.884064716235255
endloop
endfacet
facet normal 0.0 0.0 1.0
outer loop
vertex 8.376399357667497 6.716355064311171 9.884064716235255
vertex 7.7716182722286025 2.192348032324169 9.884064716235255
vertex 10.03230493575194 1.5525731105441078 9.884064716235255
endloop
endfacet
facet normal 0.0 0.0 1.0
outer loop
vertex 8.376399357667497 6.716355064311171 9.884064716235255
vertex 10.03230493575194 1.5525731105441078 9.884064716235255
vertex 9.445579425372545 6.078957204083067 9.884064716235255
endloop
endfacet
facet normal 0.0 0.0 1.0
outer loop
vertex 9.445579425372545 6.078957204083067 9.884064716235255
vertex 10.03230493575194 1.5525731105441078 9.884064716235255
vertex 10.643298771256953 5.740002313433425 9.884064716235255
endloop
endfacet
facet normal 0.0 0.0 1.0
outer loop
vertex 10.643298771256953 5.740002313433425 9.884064716235255
vertex 10.03230493575194 1.5525731105441078 9.884064716235255
vertex 12.381546503532045 1.5197067541137947 9.884064716235255
endloop
endfacet
facet normal 0.0 0.0 1.0
outer loop
vertex 10.643298771256953 5.740002313433425 9.884064716235255
vertex 12.381546503532045 1.5197067541137947 9.884064716235255
vertex 11.887934801223526 5.722589608010564 9.884064716235255
endloop
endfacet
facet normal 0.0 0.0 1.0
outer loop
vertex 11.887934801223526 5.722589608010564 9.884064716235255
vertex 12.381546503532045 1.5197067541137947 9.884064716235255
vertex 13.094667626688329 6.027905734913198 9.884064716235255
endloop
endfacet
facet normal 0.0 0.0 1.0
outer loop
vertex 13.094667626688329 6.027905734913198 9.884064716235255
vertex 12.381546503532045 1.5197067541137947 9.884064716235255
vertex 14.659246045029962 2.0959887509097257 9.884064716235255
endloop
endfacet
facet normal 0.0 0.0 1.0
outer loop
vertex 13.094667626688329 6.027905734913198 9.884064716235255
vertex 14.659246045029962 2.0959887509097257 9.884064716235255
vertex 14.181260399816237 6.635143904651685 9.884064716235255
endloop
endfacet
facet normal 0.0 0.0 1.0
outer loop
vertex 14.181260399816237 6.635143904651685 9.884064716235255
vertex 14.659246045029962 2.0959887509097257 9.884064716235255
vertex 15.073663618798003 7.502921839466837 9.884064716235255
endloop
endfacet
facet normal 0.0 0.0 1.0
outer loop
vertex 15.073663618798003 7.502921839466837 9.884064716235255
vertex 14.659246045029962 2.0959887509097257 9.884064716235255
vertex 16.710182100569074 3.2421464352012954 9.884064716235255
endloop
endfacet
facet normal 0.0 0.0 1.0
outer loop
vertex 15.073663618798003 7.502921839466837 9.884064716235255
vertex 16.710182100569074 3.2421464352012954 9.884064716235255
vertex 15.711061479026109 8.572101907171882 9.884064716235255
endloop
endfacet
facet normal 0.0 0.0 1.0
outer loop
vertex 15.711061479026109 8.572101907171882 9.884064716235255
vertex 16.710182100569074 3.2421464352012954 9.884064716235255
vertex 16.05001636967576 9.769821253056296 9.884064716235255
endloop
endfacet
facet normal 0.0 0.0 1.0
outer loop
vertex 16.05001636967576 9.769821253056296 9.884064716235255
vertex 16.710182100569074 3.2421464352012954 9.884064716235255
vertex 16.06742907509862 11.014457283022882 9.884064716235255
endloop
endfacet
facet normal 0.0 0.0 1.0
outer loop
vertex 5.953314100740759 17.67439472970723 9.884064716235255
vertex 6.613479831634081 11.146719911852239 9.884064716235255
vertex 8.004250156279872 18.82055241399879 9.884064716235255
endloop
endfacet
facet normal 0.0 0.0 1.0
outer loop
vertex 6.613479831634081 11.146719911852239 9.884064716235255
vertex 5.953314100740759 17.67439472970723 9.884064716235255
vertex 6.596067126211219 9.90208388188566 9.884064716235255
endloop
endfacet
facet normal 0.0 0.0 1.0
outer loop
vertex 8.004250156279872 18.82055241399879 9.884064716235255
vertex 6.613479831634081 11.146719911852239 9.884064716235255
vertex 6.952434722283726 12.344439257736656 9.884064716235255
endloop
endfacet
facet normal 0.0 0.0 1.0
outer loop
vertex 8.004250156279872 18.82055241399879 9.884064716235255
vertex 6.952434722283726 12.344439257736656 9.884064716235255
vertex 7.589832582511834 13.413619325441696 9.884064716235255
endloop
endfacet
facet normal 0.0 0.0 1.0
outer loop
vertex 8.004250156279872 18.82055241399879 9.884064716235255
vertex 7.589832582511834 13.413619325441696 9.884064716235255
vertex 8.482235801493603 14.281397260256847 9.884064716235255
endloop
endfacet
facet normal 0.0 0.0 1.0
outer loop
vertex 8.004250156279872 18.82055241399879 9.884064716235255
vertex 8.482235801493603 14.281397260256847 9.884064716235255
vertex 10.281949697777788 19.396834410794725 9.884064716235255
endloop
endfacet
facet normal 0.0 0.0 1.0
outer loop
vertex 10.281949697777788 19.396834410794725 9.884064716235255
vertex 8.482235801493603 14.281397260256847 9.884064716235255
vertex 9.568828574621497 14.888635429995317 9.884064716235255
endloop
endfacet
facet normal 0.0 0.0 1.0
outer loop
vertex 10.281949697777788 19.396834410794725 9.884064716235255
vertex 9.568828574621497 14.888635429995317 9.884064716235255
vertex 10.775561400086312 15.193951556897956 9.884064716235255
endloop
endfacet
facet normal 0.0 0.0 1.0
outer loop
vertex 10.281949697777788 19.396834410794725 9.884064716235255
vertex 10.775561400086312 15.193951556897956 9.884064716235255
vertex 12.631191265557893 19.363968054364413 9.884064716235255
endloop
endfacet
facet normal 0.0 0.0 1.0
outer loop
vertex 12.631191265557893 19.363968054364413 9.884064716235255
vertex 10.775561400086312 15.193951556897956 9.884064716235255
vertex 12.020197430052892 15.176538851475096 9.884064716235255
endloop
endfacet
facet normal 0.0 0.0 1.0
outer loop
vertex 12.631191265557893 19.363968054364413 9.884064716235255
vertex 12.020197430052892 15.176538851475096 9.884064716235255
vertex 13.217916775937308 14.837583960825448 9.884064716235255
endloop
endfacet
facet normal 0.0 0.0 1.0
outer loop
vertex 12.631191265557893 19.363968054364413 9.884064716235255
vertex 13.217916775937308 14.837583960825448 9.884064716235255
vertex 14.891877929081227 18.724193132584354 9.884064716235255
endloop
endfacet
facet normal 0.0 0.0 1.0
outer loop
vertex 14.891877929081227 18.724193132584354 9.884064716235255
vertex 13.217916775937308 14.837583960825448 9.884064716235255
vertex 14.287096843642342 14.200186100597351 9.884064716235255
endloop
endfacet
facet normal 0.0 0.0 1.0
outer loop
vertex 14.891877929081227 18.724193132584354 9.884064716235255
vertex 14.287096843642342 14.200186100597351 9.884064716235255
vertex 15.154874778457495 13.307782881615584 9.884064716235255
endloop
endfacet
facet normal 0.0 0.0 1.0
outer loop
vertex 14.891877929081227 18.724193132584354 9.884064716235255
vertex 15.154874778457495 13.307782881615584 9.884064716235255
vertex 16.90994762819002 17.521109249095822 9.884064716235255
endloop
endfacet
facet normal 0.0 0.0 1.0
outer loop
vertex 16.90994762819002 17.521109249095822 9.884064716235255
vertex 15.154874778457495 13.307782881615584 9.884064716235255
vertex 15.762112948195984 12.221190108487672 9.884064716235255
endloop
endfacet
facet normal 0.0 0.0 1.0
outer loop
vertex 16.90994762819002 17.521109249095822 9.884064716235255
vertex 15.762112948195984 12.221190108487672 9.884064716235255
vertex 16.06742907509862 11.014457283022882 9.884064716235255
endloop
endfacet
facet normal 0.0 0.0 1.0
outer loop
vertex 16.90994762819002 17.521109249095822 9.884064716235255
vertex 16.06742907509862 11.014457283022882 9.884064716235255
vertex 16.710182100569074 3.2421464352012954 9.884064716235255
endloop
endfacet
facet normal 0.0 0.0 1.0
outer loop
vertex 16.90994762819002 17.521109249095822 9.884064716235255
vertex 16.710182100569074 3.2421464352012954 9.884064716235255
vertex 18.39458676729647 4.880071054919155 9.884064716235255
endloop
endfacet
facet normal 0.0 0.0 1.0
outer loop
vertex 16.90994762819002 17.521109249095822 9.884064716235255
vertex 18.39458676729647 4.880071054919155 9.884064716235255
vertex 18.54787224790788 15.836704582368426 9.884064716235255
endloop
endfacet
facet normal 0.0 0.0 1.0
outer loop
vertex 18.54787224790788 15.836704582368426 9.884064716235255
vertex 18.39458676729647 4.880071054919155 9.884064716235255
vertex 19.59767065078501 6.898140754027949 9.884064716235255
endloop
endfacet
facet normal 0.0 0.0 1.0
outer loop
vertex 18.54787224790788 15.836704582368426 9.884064716235255
vertex 19.59767065078501 6.898140754027949 9.884064716235255
vertex 19.694029932199452 13.785768526829315 9.884064716235255
endloop
endfacet
facet normal 0.0 0.0 1.0
outer loop
vertex 19.694029932199452 13.785768526829315 9.884064716235255
vertex 19.59767065078501 6.898140754027949 9.884064716235255
vertex 20.237445572565075 9.15882741755129 9.884064716235255
endloop
endfacet
facet normal 0.0 0.0 1.0
outer loop
vertex 19.694029932199452 13.785768526829315 9.884064716235255
vertex 20.237445572565075 9.15882741755129 9.884064716235255
vertex 20.270311928995387 11.508068985331398 9.884064716235255
endloop
endfacet
facet normal -0.9931737587044966 -0.11664426698634744 0.0
outer loop
vertex 2.3931842723144503 9.408472179577139 9.884064716235255
vertex 2.969466269110383 7.1307726380792165 4.274417716235254
vertex 2.969466269110383 7.1307726380792165 9.884064716235255
endloop
endfacet
facet normal -0.9291424257271709 -0.3697219938194493 0.0
outer loop
vertex 2.969466269110383 7.1307726380792165 4.274417716235254
vertex 2.3931842723144503 9.408472179577139 9.884064716235255
vertex 2.3931842723144503 9.408472179577139 4.274417716235254
endloop
endfacet
facet normal -0.7847598518490619 0.619799947503901 0.0
outer loop
vertex 4.268909434013363 16.036470109989374 9.884064716235255
vertex 3.065825550524823 14.018400410880577 4.274417716235254
vertex 3.065825550524823 14.018400410880577 9.884064716235255
endloop
endfacet
facet normal -0.918435838903344 0.3955699809362571 0.0
outer loop
vertex 3.065825550524823 14.018400410880577 4.274417716235254
vertex 4.268909434013363 16.036470109989374 9.884064716235255
vertex 4.268909434013363 16.036470109989374 4.274417716235254
endloop
endfacet
facet normal -0.39556998093625734 -0.9184358389033439 0.0
outer loop
vertex 7.7716182722286025 2.192348032324169 9.884064716235255
vertex 5.75354857311981 3.3954319158127078 4.274417716235254
vertex 7.7716182722286025 2.192348032324169 4.274417716235254
endloop
endfacet
facet normal -0.6197999475039012 -0.7847598518490617 0.0
outer loop
vertex 5.75354857311981 3.3954319158127078 4.274417716235254
vertex 7.7716182722286025 2.192348032324169 9.884064716235255
vertex 5.75354857311981 3.3954319158127078 9.884064716235255
endloop
endfacet
facet normal -0.8017915719169966 -0.5976037777682398 0.0
outer loop
vertex 4.115623953401949 5.079836582540108 9.884064716235255
vertex 5.75354857311981 3.3954319158127078 4.274417716235254
vertex 5.75354857311981 3.3954319158127078 9.884064716235255
endloop
endfacet
facet normal -0.6197999475039012 -0.7847598518490617 0.0
outer loop
vertex 5.75354857311981 3.3954319158127078 4.274417716235254
vertex 4.115623953401949 5.079836582540108 9.884064716235255
vertex 4.115623953401949 5.079836582540108 4.274417716235254
endloop
endfacet
facet normal -0.9291424257271709 -0.3697219938194493 0.0
outer loop
vertex 2.969466269110383 7.1307726380792165 9.884064716235255
vertex 4.115623953401949 5.079836582540108 4.274417716235254
vertex 4.115623953401949 5.079836582540108 9.884064716235255
endloop
endfacet
facet normal -0.8017915719169966 -0.5976037777682398 0.0
outer loop
vertex 4.115623953401949 5.079836582540108 4.274417716235254
vertex 2.969466269110383 7.1307726380792165 9.884064716235255
vertex 2.969466269110383 7.1307726380792165 4.274417716235254
endloop
endfacet
facet normal -0.9895219413233506 0.14438257387810863 0.0
outer loop
vertex 2.4260506287447634 11.757713747357244 9.884064716235255
vertex 2.3931842723144503 9.408472179577139 4.274417716235254
vertex 2.3931842723144503 9.408472179577139 9.884064716235255
endloop
endfacet
facet normal -0.9931737587044966 -0.11664426698634744 0.0
outer loop
vertex 2.3931842723144503 9.408472179577139 4.274417716235254
vertex 2.4260506287447634 11.757713747357244 9.884064716235255
vertex 2.4260506287447634 11.757713747357244 4.274417716235254
endloop
endfacet
facet normal -0.918435838903344 0.3955699809362571 0.0
outer loop
vertex 3.065825550524823 14.018400410880577 9.884064716235255
vertex 2.4260506287447634 11.757713747357244 4.274417716235254
vertex 2.4260506287447634 11.757713747357244 9.884064716235255
endloop
endfacet
facet normal -0.9895219413233506 0.14438257387810863 0.0
outer loop
vertex 2.4260506287447634 11.757713747357244 4.274417716235254
vertex 3.065825550524823 14.018400410880577 9.884064716235255
vertex 3.065825550524823 14.018400410880577 4.274417716235254
endloop
endfacet
facet normal -0.7847598518490619 0.619799947503901 0.0
outer loop
vertex 4.268909434013363 16.036470109989374 9.884064716235255
vertex 5.953314100740759 17.67439472970723 4.274417716235254
vertex 4.268909434013363 16.036470109989374 4.274417716235254
endloop
endfacet
facet normal -0.5976037777682386 0.8017915719169977 0.0
outer loop
vertex 5.953314100740759 17.67439472970723 4.274417716235254
vertex 4.268909434013363 16.036470109989374 9.884064716235255
vertex 5.953314100740759 17.67439472970723 9.884064716235255
endloop
endfacet
facet normal -0.5976037777682386 0.8017915719169977 0.0
outer loop
vertex 5.953314100740759 17.67439472970723 9.884064716235255
vertex 8.004250156279872 18.82055241399879 4.274417716235254
vertex 5.953314100740759 17.67439472970723 4.274417716235254
endloop
endfacet
facet normal -0.3697219938194483 0.9291424257271712 0.0
outer loop
vertex 8.004250156279872 18.82055241399879 4.274417716235254
vertex 5.953314100740759 17.67439472970723 9.884064716235255
vertex 8.004250156279872 18.82055241399879 9.884064716235255
endloop
endfacet
facet normal -0.3697219938194483 0.9291424257271712 0.0
outer loop
vertex 8.004250156279872 18.82055241399879 9.884064716235255
vertex 10.281949697777788 19.396834410794725 4.274417716235254
vertex 8.004250156279872 18.82055241399879 4.274417716235254
endloop
endfacet
facet normal -0.11664426698634847 0.9931737587044966 0.0
outer loop
vertex 10.281949697777788 19.396834410794725 4.274417716235254
vertex 8.004250156279872 18.82055241399879 9.884064716235255
vertex 10.281949697777788 19.396834410794725 9.884064716235255
endloop
endfacet
facet normal -0.11664426698634847 0.9931737587044966 0.0
outer loop
vertex 10.281949697777788 19.396834410794725 9.884064716235255
vertex 12.631191265557893 19.363968054364413 4.274417716235254
vertex 10.281949697777788 19.396834410794725 4.274417716235254
endloop
endfacet
facet normal 0.1443825738781083 0.9895219413233508 0.0
outer loop
vertex 12.631191265557893 19.363968054364413 4.274417716235254
vertex 10.281949697777788 19.396834410794725 9.884064716235255
vertex 12.631191265557893 19.363968054364413 9.884064716235255
endloop
endfacet
facet normal 0.1443825738781083 0.9895219413233508 0.0
outer loop
vertex 12.631191265557893 19.363968054364413 9.884064716235255
vertex 14.891877929081227 18.724193132584354 4.274417716235254
vertex 12.631191265557893 19.363968054364413 4.274417716235254
endloop
endfacet
facet normal 0.3955699809362559 0.9184358389033445 0.0
outer loop
vertex 14.891877929081227 18.724193132584354 4.274417716235254
vertex 12.631191265557893 19.363968054364413 9.884064716235255
vertex 14.891877929081227 18.724193132584354 9.884064716235255
endloop
endfacet
facet normal 0.3955699809362559 0.9184358389033445 0.0
outer loop
vertex 14.891877929081227 18.724193132584354 9.884064716235255
vertex 16.90994762819002 17.521109249095822 4.274417716235254
vertex 14.891877929081227 18.724193132584354 4.274417716235254
endloop
endfacet
facet normal 0.6197999475039001 0.7847598518490628 0.0
outer loop
vertex 16.90994762819002 17.521109249095822 4.274417716235254
vertex 14.891877929081227 18.724193132584354 9.884064716235255
vertex 16.90994762819002 17.521109249095822 9.884064716235255
endloop
endfacet
facet normal 0.6197999475039001 0.7847598518490628 0.0
outer loop
vertex 16.90994762819002 17.521109249095822 4.274417716235254
vertex 18.54787224790788 15.836704582368426 9.884064716235255
vertex 18.54787224790788 15.836704582368426 4.274417716235254
endloop
endfacet
facet normal 0.8017915719169958 0.5976037777682409 0.0
outer loop
vertex 18.54787224790788 15.836704582368426 9.884064716235255
vertex 16.90994762819002 17.521109249095822 4.274417716235254
vertex 16.90994762819002 17.521109249095822 9.884064716235255
endloop
endfacet
facet normal 0.8017915719169958 0.5976037777682409 0.0
outer loop
vertex 18.54787224790788 15.836704582368426 4.274417716235254
vertex 19.694029932199452 13.785768526829315 9.884064716235255
vertex 19.694029932199452 13.785768526829315 4.274417716235254
endloop
endfacet
facet normal 0.9291424257271702 0.36972199381945103 0.0
outer loop
vertex 19.694029932199452 13.785768526829315 9.884064716235255
vertex 18.54787224790788 15.836704582368426 4.274417716235254
vertex 18.54787224790788 15.836704582368426 9.884064716235255
endloop
endfacet
facet normal 0.9291424257271702 0.36972199381945103 0.0
outer loop
vertex 19.694029932199452 13.785768526829315 4.274417716235254
vertex 20.270311928995387 11.508068985331398 9.884064716235255
vertex 20.270311928995387 11.508068985331398 4.274417716235254
endloop
endfacet
facet normal 0.9931737587044966 0.1166442669863485 0.0
outer loop
vertex 20.270311928995387 11.508068985331398 9.884064716235255
vertex 19.694029932199452 13.785768526829315 4.274417716235254
vertex 19.694029932199452 13.785768526829315 9.884064716235255
endloop
endfacet
facet normal 0.9931737587044966 0.1166442669863485 0.0
outer loop
vertex 20.270311928995387 11.508068985331398 4.274417716235254
vertex 20.237445572565075 9.15882741755129 9.884064716235255
vertex 20.237445572565075 9.15882741755129 4.274417716235254
endloop
endfacet
facet normal 0.9895219413233507 -0.14438257387810935 0.0
outer loop
vertex 20.237445572565075 9.15882741755129 9.884064716235255
vertex 20.270311928995387 11.508068985331398 4.274417716235254
vertex 20.270311928995387 11.508068985331398 9.884064716235255
endloop
endfacet
facet normal 0.9895219413233507 -0.14438257387810935 0.0
outer loop
vertex 20.237445572565075 9.15882741755129 4.274417716235254
vertex 19.59767065078501 6.898140754027949 9.884064716235255
vertex 19.59767065078501 6.898140754027949 4.274417716235254
endloop
endfacet
facet normal 0.9184358389033437 -0.3955699809362581 0.0
outer loop
vertex 19.59767065078501 6.898140754027949 9.884064716235255
vertex 20.237445572565075 9.15882741755129 4.274417716235254
vertex 20.237445572565075 9.15882741755129 9.884064716235255
endloop
endfacet
facet normal 0.9184358389033437 -0.3955699809362581 0.0
outer loop
vertex 19.59767065078501 6.898140754027949 4.274417716235254
vertex 18.39458676729647 4.880071054919155 9.884064716235255
vertex 18.39458676729647 4.880071054919155 4.274417716235254
endloop
endfacet
facet normal 0.784759851849062 -0.6197999475039009 0.0
outer loop
vertex 18.39458676729647 4.880071054919155 9.884064716235255
vertex 19.59767065078501 6.898140754027949 4.274417716235254
vertex 19.59767065078501 6.898140754027949 9.884064716235255
endloop
endfacet
facet normal 0.784759851849062 -0.6197999475039009 0.0
outer loop
vertex 18.39458676729647 4.880071054919155 9.884064716235255
vertex 16.710182100569074 3.2421464352012954 4.274417716235254
vertex 18.39458676729647 4.880071054919155 4.274417716235254
endloop
endfacet
facet normal 0.5976037777682404 -0.8017915719169961 0.0
outer loop
vertex 16.710182100569074 3.2421464352012954 4.274417716235254
vertex 18.39458676729647 4.880071054919155 9.884064716235255
vertex 16.710182100569074 3.2421464352012954 9.884064716235255
endloop
endfacet
facet normal 0.5976037777682404 -0.8017915719169961 0.0
outer loop
vertex 16.710182100569074 3.2421464352012954 9.884064716235255
vertex 14.659246045029962 2.0959887509097257 4.274417716235254
vertex 16.710182100569074 3.2421464352012954 4.274417716235254
endloop
endfacet
facet normal 0.3697219938194496 -0.9291424257271708 0.0
outer loop
vertex 14.659246045029962 2.0959887509097257 4.274417716235254
vertex 16.710182100569074 3.2421464352012954 9.884064716235255
vertex 14.659246045029962 2.0959887509097257 9.884064716235255
endloop
endfacet
facet normal 0.3697219938194496 -0.9291424257271708 0.0
outer loop
vertex 14.659246045029962 2.0959887509097257 9.884064716235255
vertex 12.381546503532045 1.5197067541137947 4.274417716235254
vertex 14.659246045029962 2.0959887509097257 4.274417716235254
endloop
endfacet
facet normal 0.11664426698634738 -0.9931737587044966 0.0
outer loop
vertex 12.381546503532045 1.5197067541137947 4.274417716235254
vertex 14.659246045029962 2.0959887509097257 9.884064716235255
vertex 12.381546503532045 1.5197067541137947 9.884064716235255
endloop
endfacet
facet normal 0.11664426698634738 -0.9931737587044966 0.0
outer loop
vertex 12.381546503532045 1.5197067541137947 9.884064716235255
vertex 10.03230493575194 1.5525731105441078 4.274417716235254
vertex 12.381546503532045 1.5197067541137947 4.274417716235254
endloop
endfacet
facet normal -0.1443825738781088 -0.9895219413233506 0.0
outer loop
vertex 10.03230493575194 1.5525731105441078 4.274417716235254
vertex 12.381546503532045 1.5197067541137947 9.884064716235255
vertex 10.03230493575194 1.5525731105441078 9.884064716235255
endloop
endfacet
facet normal -0.1443825738781088 -0.9895219413233506 0.0
outer loop
vertex 10.03230493575194 1.5525731105441078 9.884064716235255
vertex 7.7716182722286025 2.192348032324169 4.274417716235254
vertex 10.03230493575194 1.5525731105441078 4.274417716235254
endloop
endfacet
facet normal -0.39556998093625734 -0.9184358389033439 0.0
outer loop
vertex 7.7716182722286025 2.192348032324169 4.274417716235254
vertex 10.03230493575194 1.5525731105441078 9.884064716235255
vertex 7.7716182722286025 2.192348032324169 9.884064716235255
endloop
endfacet
facet normal 0.92914242572717 0.3697219938194515 0.0
outer loop
vertex 15.762112948195984 12.221190108487672 9.884064716235255
vertex 16.06742907509862 11.014457283022882 18.63406471623525
vertex 16.06742907509862 11.014457283022882 9.884064716235255
endloop
endfacet
facet normal 0.9931737587044965 0.11664426698634847 0.0
outer loop
vertex 16.06742907509862 11.014457283022882 18.63406471623525
vertex 15.762112948195984 12.221190108487672 9.884064716235255
vertex 15.762112948195984 12.221190108487672 18.63406471623525
endloop
endfacet
facet normal 0.8017915719169956 0.5976037777682411 0.0
outer loop
vertex 15.154874778457495 13.307782881615584 9.884064716235255
vertex 15.762112948195984 12.221190108487672 18.63406471623525
vertex 15.762112948195984 12.221190108487672 9.884064716235255
endloop
endfacet
facet normal 0.92914242572717 0.3697219938194515 0.0
outer loop
vertex 15.762112948195984 12.221190108487672 18.63406471623525
vertex 15.154874778457495 13.307782881615584 9.884064716235255
vertex 15.154874778457495 13.307782881615584 18.63406471623525
endloop
endfacet
facet normal 0.6197999475038999 0.7847598518490627 0.0
outer loop
vertex 14.287096843642342 14.200186100597351 9.884064716235255
vertex 15.154874778457495 13.307782881615584 18.63406471623525
vertex 15.154874778457495 13.307782881615584 9.884064716235255
endloop
endfacet
facet normal 0.8017915719169956 0.5976037777682411 0.0
outer loop
vertex 15.154874778457495 13.307782881615584 18.63406471623525
vertex 14.287096843642342 14.200186100597351 9.884064716235255
vertex 14.287096843642342 14.200186100597351 18.63406471623525
endloop
endfacet
facet normal 0.3955699809362564 0.9184358389033442 0.0
outer loop
vertex 13.217916775937308 14.837583960825448 18.63406471623525
vertex 14.287096843642342 14.200186100597351 9.884064716235255
vertex 13.217916775937308 14.837583960825448 9.884064716235255
endloop
endfacet
facet normal 0.6197999475038999 0.7847598518490627 0.0
outer loop
vertex 14.287096843642342 14.200186100597351 9.884064716235255
vertex 13.217916775937308 14.837583960825448 18.63406471623525
vertex 14.287096843642342 14.200186100597351 18.63406471623525
endloop
endfacet
facet normal 0.1443825738781092 0.9895219413233506 0.0
outer loop
vertex 12.020197430052892 15.176538851475096 18.63406471623525
vertex 13.217916775937308 14.837583960825448 9.884064716235255
vertex 12.020197430052892 15.176538851475096 9.884064716235255
endloop
endfacet
facet normal 0.3955699809362564 0.9184358389033442 0.0
outer loop
vertex 13.217916775937308 14.837583960825448 9.884064716235255
vertex 12.020197430052892 15.176538851475096 18.63406471623525
vertex 13.217916775937308 14.837583960825448 18.63406471623525
endloop
endfacet
facet normal -0.11664426698634739 0.9931737587044966 0.0
outer loop
vertex 10.775561400086312 15.193951556897956 18.63406471623525
vertex 12.020197430052892 15.176538851475096 9.884064716235255
vertex 10.775561400086312 15.193951556897956 9.884064716235255
endloop
endfacet
facet normal 0.1443825738781092 0.9895219413233506 0.0
outer loop
vertex 12.020197430052892 15.176538851475096 9.884064716235255
vertex 10.775561400086312 15.193951556897956 18.63406471623525
vertex 12.020197430052892 15.176538851475096 18.63406471623525
endloop
endfacet
facet normal -0.36972199381944737 0.9291424257271718 0.0
outer loop
vertex 9.568828574621497 14.888635429995317 18.63406471623525
vertex 10.775561400086312 15.193951556897956 9.884064716235255
vertex 9.568828574621497 14.888635429995317 9.884064716235255
endloop
endfacet
facet normal -0.11664426698634739 0.9931737587044966 0.0
outer loop
vertex 10.775561400086312 15.193951556897956 9.884064716235255
vertex 9.568828574621497 14.888635429995317 18.63406471623525
vertex 10.775561400086312 15.193951556897956 18.63406471623525
endloop
endfacet
facet normal -0.5976037777682375 0.8017915719169983 0.0
outer loop
vertex 8.482235801493603 14.281397260256847 18.63406471623525
vertex 9.568828574621497 14.888635429995317 9.884064716235255
vertex 8.482235801493603 14.281397260256847 9.884064716235255
endloop
endfacet
facet normal -0.36972199381944737 0.9291424257271718 0.0
outer loop
vertex 9.568828574621497 14.888635429995317 9.884064716235255
vertex 8.482235801493603 14.281397260256847 18.63406471623525
vertex 9.568828574621497 14.888635429995317 18.63406471623525
endloop
endfacet
facet normal -0.7847598518490606 0.6197999475039025 0.0
outer loop
vertex 7.589832582511834 13.413619325441696 18.63406471623525
vertex 8.482235801493603 14.281397260256847 9.884064716235255
vertex 7.589832582511834 13.413619325441696 9.884064716235255
endloop
endfacet
facet normal -0.5976037777682375 0.8017915719169983 0.0
outer loop
vertex 8.482235801493603 14.281397260256847 9.884064716235255
vertex 7.589832582511834 13.413619325441696 18.63406471623525
vertex 8.482235801493603 14.281397260256847 18.63406471623525
endloop
endfacet
facet normal -0.7847598518490606 0.6197999475039025 0.0
outer loop
vertex 7.589832582511834 13.413619325441696 18.63406471623525
vertex 6.952434722283726 12.344439257736656 9.884064716235255
vertex 6.952434722283726 12.344439257736656 18.63406471623525
endloop
endfacet
facet normal -0.9184358389033437 0.39556998093625817 0.0
outer loop
vertex 6.952434722283726 12.344439257736656 9.884064716235255
vertex 7.589832582511834 13.413619325441696 18.63406471623525
vertex 7.589832582511834 13.413619325441696 9.884064716235255
endloop
endfacet
facet normal -0.9184358389033437 0.39556998093625817 0.0
outer loop
vertex 6.952434722283726 12.344439257736656 18.63406471623525
vertex 6.613479831634081 11.146719911852239 9.884064716235255
vertex 6.613479831634081 11.146719911852239 18.63406471623525
endloop
endfacet
facet normal -0.9895219413233507 0.14438257387810907 0.0
outer loop
vertex 6.613479831634081 11.146719911852239 9.884064716235255
vertex 6.952434722283726 12.344439257736656 18.63406471623525
vertex 6.952434722283726 12.344439257736656 9.884064716235255
endloop
endfacet
facet normal -0.9895219413233507 0.14438257387810907 0.0
outer loop
vertex 6.613479831634081 11.146719911852239 18.63406471623525
vertex 6.596067126211219 9.90208388188566 9.884064716235255
vertex 6.596067126211219 9.90208388188566 18.63406471623525
endloop
endfacet
facet normal -0.9931737587044968 -0.11664426698634685 0.0
outer loop
vertex 6.596067126211219 9.90208388188566 9.884064716235255
vertex 6.613479831634081 11.146719911852239 18.63406471623525
vertex 6.613479831634081 11.146719911852239 9.884064716235255
endloop
endfacet
facet normal -0.9931737587044968 -0.11664426698634685 0.0
outer loop
vertex 6.596067126211219 9.90208388188566 18.63406471623525
vertex 6.90138325311386 8.69535105642084 9.884064716235255
vertex 6.90138325311386 8.69535105642084 18.63406471623525
endloop
endfacet
facet normal -0.9291424257271704 -0.3697219938194503 0.0
outer loop
vertex 6.90138325311386 8.69535105642084 9.884064716235255
vertex 6.596067126211219 9.90208388188566 18.63406471623525
vertex 6.596067126211219 9.90208388188566 9.884064716235255
endloop
endfacet
facet normal -0.9291424257271704 -0.3697219938194503 0.0
outer loop
vertex 6.90138325311386 8.69535105642084 18.63406471623525
vertex 7.50862142285234 7.608758283292943 9.884064716235255
vertex 7.50862142285234 7.608758283292943 18.63406471623525
endloop
endfacet
facet normal -0.8017915719169958 -0.597603777768241 0.0
outer loop
vertex 7.50862142285234 7.608758283292943 9.884064716235255
vertex 6.90138325311386 8.69535105642084 18.63406471623525
vertex 6.90138325311386 8.69535105642084 9.884064716235255
endloop
endfacet
facet normal -0.8017915719169958 -0.597603777768241 0.0
outer loop
vertex 7.50862142285234 7.608758283292943 18.63406471623525
vertex 8.376399357667497 6.716355064311171 9.884064716235255
vertex 8.376399357667497 6.716355064311171 18.63406471623525
endloop
endfacet
facet normal -0.6197999475038997 -0.784759851849063 0.0
outer loop
vertex 8.376399357667497 6.716355064311171 9.884064716235255
vertex 7.50862142285234 7.608758283292943 18.63406471623525
vertex 7.50862142285234 7.608758283292943 9.884064716235255
endloop
endfacet
facet normal -0.3955699809362549 -0.918435838903345 0.0
outer loop
vertex 9.445579425372545 6.078957204083067 18.63406471623525
vertex 8.376399357667497 6.716355064311171 9.884064716235255
vertex 9.445579425372545 6.078957204083067 9.884064716235255
endloop
endfacet
facet normal -0.6197999475038997 -0.784759851849063 0.0
outer loop
vertex 8.376399357667497 6.716355064311171 9.884064716235255
vertex 9.445579425372545 6.078957204083067 18.63406471623525
vertex 8.376399357667497 6.716355064311171 18.63406471623525
endloop
endfacet
facet normal -0.14438257387810838 -0.9895219413233508 0.0
outer loop
vertex 10.643298771256953 5.740002313433425 18.63406471623525
vertex 9.445579425372545 6.078957204083067 9.884064716235255
vertex 10.643298771256953 5.740002313433425 9.884064716235255
endloop
endfacet
facet normal -0.3955699809362549 -0.918435838903345 0.0
outer loop
vertex 9.445579425372545 6.078957204083067 9.884064716235255
vertex 10.643298771256953 5.740002313433425 18.63406471623525
vertex 9.445579425372545 6.078957204083067 18.63406471623525
endloop
endfacet
facet normal 0.11664426698634649 -0.9931737587044969 0.0
outer loop
vertex 11.887934801223526 5.722589608010564 18.63406471623525
vertex 10.643298771256953 5.740002313433425 9.884064716235255
vertex 11.887934801223526 5.722589608010564 9.884064716235255
endloop
endfacet
facet normal -0.14438257387810838 -0.9895219413233508 0.0
outer loop
vertex 10.643298771256953 5.740002313433425 9.884064716235255
vertex 11.887934801223526 5.722589608010564 18.63406471623525
vertex 10.643298771256953 5.740002313433425 18.63406471623525
endloop
endfacet
facet normal 0.3697219938194501 -0.9291424257271707 0.0
outer loop
vertex 13.094667626688329 6.027905734913198 18.63406471623525
vertex 11.887934801223526 5.722589608010564 9.884064716235255
vertex 13.094667626688329 6.027905734913198 9.884064716235255
endloop
endfacet
facet normal 0.11664426698634649 -0.9931737587044969 0.0
outer loop
vertex 11.887934801223526 5.722589608010564 9.884064716235255
vertex 13.094667626688329 6.027905734913198 18.63406471623525
vertex 11.887934801223526 5.722589608010564 18.63406471623525
endloop
endfacet
facet normal 0.5976037777682413 -0.8017915719169956 0.0
outer loop
vertex 14.181260399816237 6.635143904651685 18.63406471623525
vertex 13.094667626688329 6.027905734913198 9.884064716235255
vertex 14.181260399816237 6.635143904651685 9.884064716235255
endloop
endfacet
facet normal 0.3697219938194501 -0.9291424257271707 0.0
outer loop
vertex 13.094667626688329 6.027905734913198 9.884064716235255
vertex 14.181260399816237 6.635143904651685 18.63406471623525
vertex 13.094667626688329 6.027905734913198 18.63406471623525
endloop
endfacet
facet normal 0.7847598518490625 -0.6197999475039004 0.0
outer loop
vertex 15.073663618798003 7.502921839466837 18.63406471623525
vertex 14.181260399816237 6.635143904651685 9.884064716235255
vertex 15.073663618798003 7.502921839466837 9.884064716235255
endloop
endfacet
facet normal 0.5976037777682413 -0.8017915719169956 0.0
outer loop
vertex 14.181260399816237 6.635143904651685 9.884064716235255
vertex 15.073663618798003 7.502921839466837 18.63406471623525
vertex 14.181260399816237 6.635143904651685 18.63406471623525
endloop
endfacet
facet normal 0.9184358389033435 -0.39556998093625856 0.0
outer loop
vertex 15.711061479026109 8.572101907171882 9.884064716235255
vertex 15.073663618798003 7.502921839466837 18.63406471623525
vertex 15.073663618798003 7.502921839466837 9.884064716235255
endloop
endfacet
facet normal 0.7847598518490625 -0.6197999475039004 0.0
outer loop
vertex 15.073663618798003 7.502921839466837 18.63406471623525
vertex 15.711061479026109 8.572101907171882 9.884064716235255
vertex 15.711061479026109 8.572101907171882 18.63406471623525
endloop
endfacet
facet normal 0.9895219413233505 -0.14438257387811074 0.0
outer loop
vertex 16.05001636967576 9.769821253056296 9.884064716235255
vertex 15.711061479026109 8.572101907171882 18.63406471623525
vertex 15.711061479026109 8.572101907171882 9.884064716235255
endloop
endfacet
facet normal 0.9184358389033435 -0.39556998093625856 0.0
outer loop
vertex 15.711061479026109 8.572101907171882 18.63406471623525
vertex 16.05001636967576 9.769821253056296 9.884064716235255
vertex 16.05001636967576 9.769821253056296 18.63406471623525
endloop
endfacet
facet normal 0.9931737587044965 0.11664426698634847 0.0
outer loop
vertex 16.06742907509862 11.014457283022882 9.884064716235255
vertex 16.05001636967576 9.769821253056296 18.63406471623525
vertex 16.05001636967576 9.769821253056296 9.884064716235255
endloop
endfacet
facet normal 0.9895219413233505 -0.14438257387811074 0.0
outer loop
vertex 16.05001636967576 9.769821253056296 18.63406471623525
vertex 16.06742907509862 11.014457283022882 9.884064716235255
vertex 16.06742907509862 11.014457283022882 18.63406471623525
endloop
endfacet
facet normal 0.0 0.0 -1.0
outer loop
vertex 2.4260506287447634 11.757713747357244 4.274417716235254
vertex 2.969466269110383 7.1307726380792165 4.274417716235254
vertex 2.3931842723144503 9.408472179577139 4.274417716235254
endloop
endfacet
facet normal 0.0 0.0 -1.0
outer loop
vertex 2.969466269110383 7.1307726380792165 4.274417716235254
vertex 2.4260506287447634 11.757713747357244 4.274417716235254
vertex 3.065825550524823 14.018400410880577 4.274417716235254
endloop
endfacet
facet normal 0.0 0.0 -1.0
outer loop
vertex 2.969466269110383 7.1307726380792165 4.274417716235254
vertex 3.065825550524823 14.018400410880577 4.274417716235254
vertex 4.115623953401949 5.079836582540108 4.274417716235254
endloop
endfacet
facet normal 0.0 0.0 -1.0
outer loop
vertex 4.115623953401949 5.079836582540108 4.274417716235254
vertex 3.065825550524823 14.018400410880577 4.274417716235254
vertex 4.268909434013363 16.036470109989374 4.274417716235254
endloop
endfacet
facet normal 0.0 0.0 -1.0
outer loop
vertex 4.115623953401949 5.079836582540108 4.274417716235254
vertex 4.268909434013363 16.036470109989374 4.274417716235254
vertex 5.75354857311981 3.3954319158127078 4.274417716235254
endloop
endfacet
facet normal 0.0 0.0 -1.0
outer loop
vertex 5.75354857311981 3.3954319158127078 4.274417716235254
vertex 4.268909434013363 16.036470109989374 4.274417716235254
vertex 5.953314100740759 17.67439472970723 4.274417716235254
endloop
endfacet
facet normal 0.0 0.0 -1.0
outer loop
vertex 5.75354857311981 3.3954319158127078 4.274417716235254
vertex 5.953314100740759 17.67439472970723 4.274417716235254
vertex 7.7716182722286025 2.192348032324169 4.274417716235254
endloop
endfacet
facet normal 0.0 0.0 -1.0
outer loop
vertex 7.7716182722286025 2.192348032324169 4.274417716235254
vertex 5.953314100740759 17.67439472970723 4.274417716235254
vertex 8.004250156279872 18.82055241399879 4.274417716235254
endloop
endfacet
facet normal 0.0 0.0 -1.0
outer loop
vertex 7.7716182722286025 2.192348032324169 4.274417716235254
vertex 8.004250156279872 18.82055241399879 4.274417716235254
vertex 10.03230493575194 1.5525731105441078 4.274417716235254
endloop
endfacet
facet normal 0.0 0.0 -1.0
outer loop
vertex 10.03230493575194 1.5525731105441078 4.274417716235254
vertex 8.004250156279872 18.82055241399879 4.274417716235254
vertex 10.281949697777788 19.396834410794725 4.274417716235254
endloop
endfacet
facet normal 0.0 0.0 -1.0
outer loop
vertex 10.03230493575194 1.5525731105441078 4.274417716235254
vertex 10.281949697777788 19.396834410794725 4.274417716235254
vertex 12.381546503532045 1.5197067541137947 4.274417716235254
endloop
endfacet
facet normal 0.0 0.0 -1.0
outer loop
vertex 12.381546503532045 1.5197067541137947 4.274417716235254
vertex 10.281949697777788 19.396834410794725 4.274417716235254
vertex 12.631191265557893 19.363968054364413 4.274417716235254
endloop
endfacet
facet normal 0.0 0.0 -1.0
outer loop
vertex 12.381546503532045 1.5197067541137947 4.274417716235254
vertex 12.631191265557893 19.363968054364413 4.274417716235254
vertex 14.659246045029962 2.0959887509097257 4.274417716235254
endloop
endfacet
facet normal 0.0 0.0 -1.0
outer loop
vertex 14.659246045029962 2.0959887509097257 4.274417716235254
vertex 12.631191265557893 19.363968054364413 4.274417716235254
vertex 14.891877929081227 18.724193132584354 4.274417716235254
endloop
endfacet
facet normal 0.0 0.0 -1.0
outer loop
vertex 14.659246045029962 2.0959887509097257 4.274417716235254
vertex 14.891877929081227 18.724193132584354 4.274417716235254
vertex 16.710182100569074 3.2421464352012954 4.274417716235254
endloop
endfacet
facet normal 0.0 0.0 -1.0
outer loop
vertex 16.710182100569074 3.2421464352012954 4.274417716235254
vertex 14.891877929081227 18.724193132584354 4.274417716235254
vertex 16.90994762819002 17.521109249095822 4.274417716235254
endloop
endfacet
facet normal 0.0 0.0 -1.0
outer loop
vertex 16.710182100569074 3.2421464352012954 4.274417716235254
vertex 16.90994762819002 17.521109249095822 4.274417716235254
vertex 18.39458676729647 4.880071054919155 4.274417716235254
endloop
endfacet
facet normal 0.0 0.0 -1.0
outer loop
vertex 18.39458676729647 4.880071054919155 4.274417716235254
vertex 16.90994762819002 17.521109249095822 4.274417716235254
vertex 18.54787224790788 15.836704582368426 4.274417716235254
endloop
endfacet
facet normal 0.0 0.0 -1.0
outer loop
vertex 18.39458676729647 4.880071054919155 4.274417716235254
vertex 18.54787224790788 15.836704582368426 4.274417716235254
vertex 19.59767065078501 6.898140754027949 4.274417716235254
endloop
endfacet
facet normal 0.0 0.0 -1.0
outer loop
vertex 19.59767065078501 6.898140754027949 4.274417716235254
vertex 18.54787224790788 15.836704582368426 4.274417716235254
vertex 19.694029932199452 13.785768526829315 4.274417716235254
endloop
endfacet
facet normal 0.0 0.0 -1.0
outer loop
vertex 19.59767065078501 6.898140754027949 4.274417716235254
vertex 19.694029932199452 13.785768526829315 4.274417716235254
vertex 20.237445572565075 9.15882741755129 4.274417716235254
endloop
endfacet
facet normal 0.0 0.0 -1.0
outer loop
vertex 20.237445572565075 9.15882741755129 4.274417716235254
vertex 19.694029932199452 13.785768526829315 4.274417716235254
vertex 20.270311928995387 11.508068985331398 4.274417716235254
endloop
endfacet
facet normal 0.0 0.0 1.0
outer loop
vertex 1.5 -1.4210854715202004e-14 3.5
vertex 0.0 23.69974746830583 3.5
vertex 0.0 -1.4210854715202004e-14 3.5
endloop
endfacet
facet normal 0.0 0.0 1.0
outer loop
vertex 0.0 23.69974746830583 3.5
vertex 1.5 -1.4210854715202004e-14 3.5
vertex 1.5 23.69974746830583 3.5
endloop
endfacet
facet normal 1.0 0.0 0.0
outer loop
vertex 1.5 23.69974746830583 2.220446049250313e-16
vertex 1.5 -1.4210854715202004e-14 3.5
vertex 1.5 -1.4210854715202004e-14 2.220446049250313e-16
endloop
endfacet
facet normal 1.0 0.0 0.0
outer loop
vertex 1.5 -1.4210854715202004e-14 3.5
vertex 1.5 23.69974746830583 2.220446049250313e-16
vertex 1.5 23.69974746830583 3.5
endloop
endfacet
facet normal 0.0 1.0 0.0
outer loop
vertex 0.0 23.69974746830583 3.5
vertex 1.5 23.69974746830583 2.220446049250313e-16
vertex 0.0 23.69974746830583 2.220446049250313e-16
endloop
endfacet
facet normal 0.0 1.0 0.0
outer loop
vertex 1.5 23.69974746830583 2.220446049250313e-16
vertex 0.0 23.69974746830583 3.5
vertex 1.5 23.69974746830583 3.5
endloop
endfacet
facet normal -0.0 -1.0 -0.0
outer loop
vertex 1.5 -1.4210854715202004e-14 3.5
vertex 0.0 -1.4210854715202004e-14 2.220446049250313e-16
vertex 1.5 -1.4210854715202004e-14 2.220446049250313e-16
endloop
endfacet
facet normal -0.0 -1.0 -0.0
outer loop
vertex 0.0 -1.4210854715202004e-14 2.220446049250313e-16
vertex 1.5 -1.4210854715202004e-14 3.5
vertex 0.0 -1.4210854715202004e-14 3.5
endloop
endfacet
facet normal -1.0 0.0 0.0
outer loop
vertex 0.0 23.69974746830583 3.5
vertex 0.0 -1.4210854715202004e-14 2.220446049250313e-16
vertex 0.0 -1.4210854715202004e-14 3.5
endloop
endfacet
facet normal -1.0 0.0 0.0
outer loop
vertex 0.0 -1.4210854715202004e-14 2.220446049250313e-16
vertex 0.0 23.69974746830583 3.5
vertex 0.0 23.69974746830583 2.220446049250313e-16
endloop
endfacet
facet normal 0.0 0.0 -1.0
outer loop
vertex 1.5 23.69974746830583 2.220446049250313e-16
vertex 0.0 -1.4210854715202004e-14 2.220446049250313e-16
vertex 0.0 23.69974746830583 2.220446049250313e-16
endloop
endfacet
facet normal 0.0 0.0 -1.0
outer loop
vertex 0.0 -1.4210854715202004e-14 2.220446049250313e-16
vertex 1.5 23.69974746830583 2.220446049250313e-16
vertex 1.5 -1.4210854715202004e-14 2.220446049250313e-16
endloop
endfacet
facet normal 0.0 -1.0 0.0
outer loop
vertex 23.124999999999993 -1.5543122344752192e-15 6.5
vertex 3.552713678800501e-15 -1.5543122344752192e-15 3.5
vertex 23.124999999999993 -1.5543122344752192e-15 3.5
endloop
endfacet
facet normal 0.0 -1.0 0.0
outer loop
vertex 3.552713678800501e-15 -1.5543122344752192e-15 3.5
vertex 23.124999999999993 -1.5543122344752192e-15 6.5
vertex 3.552713678800501e-15 -1.5543122344752192e-15 6.5
endloop
endfacet
facet normal -1.0 -0.0 -0.0
outer loop
vertex 3.552713678800501e-15 1.4999999999999984 6.5
vertex 3.552713678800501e-15 -1.5543122344752192e-15 3.5
vertex 3.552713678800501e-15 -1.5543122344752192e-15 6.5
endloop
endfacet
facet normal -1.0 -0.0 -0.0
outer loop
vertex 3.552713678800501e-15 -1.5543122344752192e-15 3.5
vertex 3.552713678800501e-15 1.4999999999999984 6.5
vertex 3.552713678800501e-15 1.4999999999999984 3.5
endloop
endfacet
facet normal 0.0 0.0 -1.0
outer loop
vertex 23.124999999999993 1.4999999999999984 3.5
vertex 3.552713678800501e-15 -1.5543122344752192e-15 3.5
vertex 3.552713678800501e-15 1.4999999999999984 3.5
endloop
endfacet
facet normal 0.0 0.0 -1.0
outer loop
vertex 3.552713678800501e-15 -1.5543122344752192e-15 3.5
vertex 23.124999999999993 1.4999999999999984 3.5
vertex 23.124999999999993 -1.5543122344752192e-15 3.5
endloop
endfacet
facet normal 0.0 0.0 1.0
outer loop
vertex 23.124999999999993 -1.5543122344752192e-15 6.5
vertex 3.552713678800501e-15 1.4999999999999984 6.5
vertex 3.552713678800501e-15 -1.5543122344752192e-15 6.5
endloop
endfacet
facet normal 0.0 0.0 1.0
outer loop
vertex 3.552713678800501e-15 1.4999999999999984 6.5
vertex 23.124999999999993 -1.5543122344752192e-15 6.5
vertex 23.124999999999993 1.4999999999999984 6.5
endloop
endfacet
facet normal 0.0 1.0 0.0
outer loop
vertex 3.552713678800501e-15 1.4999999999999984 6.5
vertex 23.124999999999993 1.4999999999999984 3.5
vertex 3.552713678800501e-15 1.4999999999999984 3.5
endloop
endfacet
facet normal 0.0 1.0 0.0
outer loop
vertex 23.124999999999993 1.4999999999999984 3.5
vertex 3.552713678800501e-15 1.4999999999999984 6.5
vertex 23.124999999999993 1.4999999999999984 6.5
endloop
endfacet
facet normal 1.0 0.0 0.0
outer loop
vertex 23.124999999999993 1.4999999999999984 3.5
vertex 23.124999999999993 -1.5543122344752192e-15 6.5
vertex 23.124999999999993 -1.5543122344752192e-15 3.5
endloop
endfacet
facet normal 1.0 0.0 0.0
outer loop
vertex 23.124999999999993 -1.5543122344752192e-15 6.5
vertex 23.124999999999993 1.4999999999999984 3.5
vertex 23.124999999999993 1.4999999999999984 6.5
endloop
endfacet
facet normal 1.0 -2.9605947323337506e-16 0.0
outer loop
vertex 1.5 0.0 -24.0
vertex 1.5 -3.0 26.69974746830583
vertex 1.5 -3.0 -24.0
endloop
endfacet
facet normal 1.0 -2.9605947323337506e-16 0.0
outer loop
vertex 1.5 -3.0 26.69974746830583
vertex 1.5 0.0 -24.0
vertex 1.5 0.0 26.69974746830583
endloop
endfacet
facet normal 0.0 1.0 0.0
outer loop
vertex 0.0 0.0 26.69974746830583
vertex 1.5 0.0 -24.0
vertex 0.0 0.0 -24.0
endloop
endfacet
facet normal 0.0 1.0 0.0
outer loop
vertex 1.5 0.0 -24.0
vertex 0.0 0.0 26.69974746830583
vertex 1.5 0.0 26.69974746830583
endloop
endfacet
facet normal 2.9605947323337506e-16 -1.0 0.0
outer loop
vertex 1.5 -3.0 26.69974746830583
vertex 0.0 -3.0000000000000004 -24.0
vertex 1.5 -3.0 -24.0
endloop
endfacet
facet normal 2.9605947323337506e-16 -1.0 0.0
outer loop
vertex 0.0 -3.0000000000000004 -24.0
vertex 1.5 -3.0 26.69974746830583
vertex 0.0 -3.0000000000000004 26.69974746830583
endloop
endfacet
facet normal -1.0 3.053113317719179e-16 0.0
outer loop
vertex 0.0 0.0 26.69974746830583
vertex 0.0 -3.0000000000000004 -24.0
vertex 0.0 -3.0000000000000004 26.69974746830583
endloop
endfacet
facet normal -1.0 3.053113317719179e-16 0.0
outer loop
vertex 0.0 -3.0000000000000004 -24.0
vertex 0.0 0.0 26.69974746830583
vertex 0.0 0.0 -24.0
endloop
endfacet
facet normal -0.0 -0.0 -1.0
outer loop
vertex 1.5 0.0 -24.0
vertex 0.0 -3.0000000000000004 -24.0
vertex 0.0 0.0 -24.0
endloop
endfacet
facet normal -0.0 -0.0 -1.0
outer loop
vertex 0.0 -3.0000000000000004 -24.0
vertex 1.5 0.0 -24.0
vertex 1.5 -3.0 -24.0
endloop
endfacet
facet normal 0.0 0.0 1.0
outer loop
vertex 1.5 -3.0 26.69974746830583
vertex 0.0 0.0 26.69974746830583
vertex 0.0 -3.0000000000000004 26.69974746830583
endloop
endfacet
facet normal 0.0 0.0 1.0
outer loop
vertex 0.0 0.0 26.69974746830583
vertex 1.5 -3.0 26.69974746830583
vertex 1.5 0.0 26.69974746830583
endloop
endfacet
facet normal 1.0 -2.9605947323337506e-16 0.0
outer loop
vertex 23.125 1.4654943925052066e-14 -24.000000000000004
vertex 23.125 -2.9999999999999853 26.699747468305826
vertex 23.125 -2.9999999999999853 -24.000000000000004
endloop
endfacet
facet normal 1.0 -2.9605947323337506e-16 0.0
outer loop
vertex 23.125 -2.9999999999999853 26.699747468305826
vertex 23.125 1.4654943925052066e-14 -24.000000000000004
vertex 23.125 1.4654943925052066e-14 26.699747468305826
endloop
endfacet
facet normal 0.0 1.0 0.0
outer loop
vertex 21.625 1.4654943925052066e-14 26.699747468305826
vertex 23.125 1.4654943925052066e-14 -24.000000000000004
vertex 21.625 1.4654943925052066e-14 -24.000000000000004
endloop
endfacet
facet normal 0.0 1.0 0.0
outer loop
vertex 23.125 1.4654943925052066e-14 -24.000000000000004
vertex 21.625 1.4654943925052066e-14 26.699747468305826
vertex 23.125 1.4654943925052066e-14 26.699747468305826
endloop
endfacet
facet normal 2.9605947323337506e-16 -1.0 0.0
outer loop
vertex 23.125 -2.9999999999999853 26.699747468305826
vertex 21.625 -2.999999999999986 -24.000000000000004
vertex 23.125 -2.9999999999999853 -24.000000000000004
endloop
endfacet
facet normal 2.9605947323337506e-16 -1.0 0.0
outer loop
vertex 21.625 -2.999999999999986 -24.000000000000004
vertex 23.125 -2.9999999999999853 26.699747468305826
vertex 21.625 -2.999999999999986 26.699747468305826
endloop
endfacet
facet normal -1.0 3.053113317719179e-16 0.0
outer loop
vertex 21.625 1.4654943925052066e-14 26.699747468305826
vertex 21.625 -2.999999999999986 -24.000000000000004
vertex 21.625 -2.999999999999986 26.699747468305826
endloop
endfacet
facet normal -1.0 3.053113317719179e-16 0.0
outer loop
vertex 21.625 -2.999999999999986 -24.000000000000004
vertex 21.625 1.4654943925052066e-14 26.699747468305826
vertex 21.625 1.4654943925052066e-14 -24.000000000000004
endloop
endfacet
facet normal -0.0 -0.0 -1.0
outer loop
vertex 23.125 1.4654943925052066e-14 -24.000000000000004
vertex 21.625 -2.999999999999986 -24.000000000000004
vertex 21.625 1.4654943925052066e-14 -24.000000000000004
endloop
endfacet
facet normal -0.0 -0.0 -1.0
outer loop
vertex 21.625 -2.999999999999986 -24.000000000000004
vertex 23.125 1.4654943925052066e-14 -24.000000000000004
vertex 23.125 -2.9999999999999853 -24.000000000000004
endloop
endfacet
facet normal 0.0 0.0 1.0
outer loop
vertex 23.125 -2.9999999999999853 26.699747468305826
vertex 21.625 1.4654943925052066e-14 26.699747468305826
vertex 21.625 -2.999999999999986 26.699747468305826
endloop
endfacet
facet normal 0.0 0.0 1.0
outer loop
vertex 21.625 1.4654943925052066e-14 26.699747468305826
vertex 23.125 -2.9999999999999853 26.699747468305826
vertex 23.125 1.4654943925052066e-14 26.699747468305826
endloop
endfacet
facet normal 3.264655812951812e-16 -1.0 -1.4890639390601558e-16
outer loop
vertex 25.375000000000004 -3.75 26.699747468305826
vertex -1.4999999999999998 -3.7500000000000004 -24.0
vertex 25.375000000000004 -3.749999999999985 -24.000000000000004
endloop
endfacet
facet normal 3.264655812951812e-16 -1.0 -1.4890639390601558e-16
outer loop
vertex -1.4999999999999998 -3.7500000000000004 -24.0
vertex 25.375000000000004 -3.75 26.699747468305826
vertex -1.4999999999999998 -3.7500000000000004 26.699747468305826
endloop
endfacet
facet normal -3.264655812951812e-16 1.0 1.4890639390601558e-16
outer loop
vertex -1.5000000000000002 -3.0000000000000004 -24.0
vertex 25.375000000000004 -3.0 26.699747468305826
vertex 25.375000000000004 -2.999999999999985 -24.000000000000004
endloop
endfacet
facet normal -3.264655812951812e-16 1.0 1.4890639390601558e-16
outer loop
vertex 25.375000000000004 -3.0 26.699747468305826
vertex -1.5000000000000002 -3.0000000000000004 -24.0
vertex -1.5000000000000002 -3.0000000000000004 26.699747468305826
endloop
endfacet
facet normal 1.0 3.2646558129518114e-16 9.72256248901932e-32
outer loop
vertex 25.375000000000004 -3.749999999999985 -24.000000000000004
vertex 25.375000000000004 -3.0 26.699747468305826
vertex 25.375000000000004 -3.75 26.699747468305826
endloop
endfacet
facet normal 1.0 3.2646558129518114e-16 9.72256248901932e-32
outer loop
vertex 25.375000000000004 -3.0 26.699747468305826
vertex 25.375000000000004 -3.749999999999985 -24.000000000000004
vertex 25.375000000000004 -2.999999999999985 -24.000000000000004
endloop
endfacet
facet normal 0.0 -1.4890639390601558e-16 1.0
outer loop
vertex -1.4999999999999998 -3.7500000000000004 26.699747468305826
vertex 25.375000000000004 -3.0 26.699747468305826
vertex -1.5000000000000002 -3.0000000000000004 26.699747468305826
endloop
endfacet
facet normal 0.0 -1.4890639390601558e-16 1.0
outer loop
vertex 25.375000000000004 -3.0 26.699747468305826
vertex -1.4999999999999998 -3.7500000000000004 26.699747468305826
vertex 25.375000000000004 -3.75 26.699747468305826
endloop
endfacet
facet normal -1.0 -3.2646558129518114e-16 0.0
outer loop
vertex -1.5000000000000002 -3.0000000000000004 26.699747468305826
vertex -1.4999999999999998 -3.7500000000000004 -24.0
vertex -1.4999999999999998 -3.7500000000000004 26.699747468305826
endloop
endfacet
facet normal -1.0 -3.2646558129518114e-16 0.0
outer loop
vertex -1.4999999999999998 -3.7500000000000004 -24.0
vertex -1.5000000000000002 -3.0000000000000004 26.699747468305826
vertex -1.5000000000000002 -3.0000000000000004 -24.0
endloop
endfacet
facet normal -1.5363086178596771e-16 1.4890639390601553e-16 -1.0
outer loop
vertex 25.375000000000004 -2.999999999999985 -24.000000000000004
vertex -1.4999999999999998 -3.7500000000000004 -24.0
vertex -1.5000000000000002 -3.0000000000000004 -24.0
endloop
endfacet
facet normal -1.5363086178596771e-16 1.4890639390601553e-16 -1.0
outer loop
vertex -1.4999999999999998 -3.7500000000000004 -24.0
vertex 25.375000000000004 -2.999999999999985 -24.000000000000004
vertex 25.375000000000004 -3.749999999999985 -24.000000000000004
endloop
endfacet
facet normal -1.11886304751648e-16 0.7071067811865475 0.7071067811865476
outer loop
vertex 25.375 -2.999999999999986 26.699747468305826
vertex 23.875 23.699747468305844 0.0
vertex 23.875 -2.999999999999986 26.699747468305826
endloop
endfacet
facet normal -1.11886304751648e-16 0.7071067811865475 0.7071067811865476
outer loop
vertex 23.875 23.699747468305844 0.0
vertex 25.375 -2.999999999999986 26.699747468305826
vertex 25.375 23.699747468305844 1.3801612461200086e-16
endloop
endfacet
facet normal 9.201074974133358e-17 1.1214946133455421e-15 -1.0
outer loop
vertex 25.375 23.699747468305844 1.3801612461200086e-16
vertex 23.875 18.74999999999996 -5.551115123125783e-15
vertex 23.875 23.699747468305844 0.0
endloop
endfacet
facet normal 9.201074974133358e-17 1.1214946133455421e-15 -1.0
outer loop
vertex 23.875 18.74999999999996 -5.551115123125783e-15
vertex 25.375 23.699747468305844 1.3801612461200086e-16
vertex 25.375 18.74999999999996 -5.413098998513782e-15
endloop
endfacet
facet normal 1.0 6.622037988225621e-17 9.201074974133366e-17
outer loop
vertex 25.375 -2.999999999999985 21.749999999999986
vertex 25.375 23.699747468305844 1.3801612461200086e-16
vertex 25.375 -2.999999999999986 26.699747468305826
endloop
endfacet
facet normal 1.0 6.622037988225621e-17 9.201074974133366e-17
outer loop
vertex 25.375 23.699747468305844 1.3801612461200086e-16
vertex 25.375 -2.999999999999985 21.749999999999986
vertex 25.375 18.74999999999996 -5.413098998513782e-15
endloop
endfacet
facet normal 6.622037988225622e-17 -1.0 -1.7943913813528827e-16
outer loop
vertex 25.375 -2.999999999999986 26.699747468305826
vertex 23.875 -2.999999999999985 21.749999999999986
vertex 25.375 -2.999999999999985 21.749999999999986
endloop
endfacet
facet normal 6.622037988225622e-17 -1.0 -1.7943913813528827e-16
outer loop
vertex 23.875 -2.999999999999985 21.749999999999986
vertex 25.375 -2.999999999999986 26.699747468305826
vertex 23.875 -2.999999999999986 26.699747468305826
endloop
endfacet
facet normal -1.0 -6.622037988225621e-17 -9.201074974133366e-17
outer loop
vertex 23.875 23.699747468305844 0.0
vertex 23.875 -2.999999999999985 21.749999999999986
vertex 23.875 -2.999999999999986 26.699747468305826
endloop
endfacet
facet normal -1.0 -6.622037988225621e-17 -9.201074974133366e-17
outer loop
vertex 23.875 -2.999999999999985 21.749999999999986
vertex 23.875 23.699747468305844 0.0
vertex 23.875 18.74999999999996 -5.551115123125783e-15
endloop
endfacet
facet normal 1.11886304751648e-16 -0.7071067811865483 -0.7071067811865468
outer loop
vertex 25.375 18.74999999999996 -5.413098998513782e-15
vertex 23.875 -2.999999999999985 21.749999999999986
vertex 23.875 18.74999999999996 -5.551115123125783e-15
endloop
endfacet
facet normal 1.11886304751648e-16 -0.7071067811865483 -0.7071067811865468
outer loop
vertex 23.875 -2.999999999999985 21.749999999999986
vertex 25.375 18.74999999999996 -5.413098998513782e-15
vertex 25.375 -2.999999999999985 21.749999999999986
endloop
endfacet
facet normal -1.11886304751648e-16 0.7071067811865475 0.7071067811865476
outer loop
vertex -8.881784197001252e-16 -3.0000000000000004 26.699747468305826
vertex -1.5 23.69974746830583 8.402848031303044e-17
vertex -1.5000000000000009 -3.0000000000000004 26.699747468305826
endloop
endfacet
facet normal -1.11886304751648e-16 0.7071067811865475 0.7071067811865476
outer loop
vertex -1.5 23.69974746830583 8.402848031303044e-17
vertex -8.881784197001252e-16 -3.0000000000000004 26.699747468305826
vertex 0.0 23.69974746830583 2.220446049250313e-16
endloop
endfacet
facet normal 9.201074974133358e-17 1.1214946133455421e-15 -1.0
outer loop
vertex 0.0 23.69974746830583 2.220446049250313e-16
vertex -1.5 18.749999999999947 -5.467086642812752e-15
vertex -1.5 23.69974746830583 8.402848031303044e-17
endloop
endfacet
facet normal 9.201074974133358e-17 1.1214946133455421e-15 -1.0
outer loop
vertex -1.5 18.749999999999947 -5.467086642812752e-15
vertex 0.0 23.69974746830583 2.220446049250313e-16
vertex 0.0 18.749999999999947 -5.329070518200751e-15
endloop
endfacet
facet normal 1.0 6.622037988225621e-17 9.201074974133366e-17
outer loop
vertex -2.220446049250313e-16 -2.9999999999999996 21.749999999999986
vertex 0.0 23.69974746830583 2.220446049250313e-16
vertex -8.881784197001252e-16 -3.0000000000000004 26.699747468305826
endloop
endfacet
facet normal 1.0 6.622037988225621e-17 9.201074974133366e-17
outer loop
vertex 0.0 23.69974746830583 2.220446049250313e-16
vertex -2.220446049250313e-16 -2.9999999999999996 21.749999999999986
vertex 0.0 18.749999999999947 -5.329070518200751e-15
endloop
endfacet
facet normal 6.622037988225622e-17 -1.0 -1.7943913813528827e-16
outer loop
vertex -8.881784197001252e-16 -3.0000000000000004 26.699747468305826
vertex -1.5000000000000002 -2.9999999999999996 21.749999999999986
vertex -2.220446049250313e-16 -2.9999999999999996 21.749999999999986
endloop
endfacet
facet normal 6.622037988225622e-17 -1.0 -1.7943913813528827e-16
outer loop
vertex -1.5000000000000002 -2.9999999999999996 21.749999999999986
vertex -8.881784197001252e-16 -3.0000000000000004 26.699747468305826
vertex -1.5000000000000009 -3.0000000000000004 26.699747468305826
endloop
endfacet
facet normal -1.0 -6.622037988225621e-17 -9.201074974133366e-17
outer loop
vertex -1.5 23.69974746830583 8.402848031303044e-17
vertex -1.5000000000000002 -2.9999999999999996 21.749999999999986
vertex -1.5000000000000009 -3.0000000000000004 26.699747468305826
endloop
endfacet
facet normal -1.0 -6.622037988225621e-17 -9.201074974133366e-17
outer loop
vertex -1.5000000000000002 -2.9999999999999996 21.749999999999986
vertex -1.5 23.69974746830583 8.402848031303044e-17
vertex -1.5 18.749999999999947 -5.467086642812752e-15
endloop
endfacet
facet normal 1.11886304751648e-16 -0.7071067811865483 -0.7071067811865468
outer loop
vertex 0.0 18.749999999999947 -5.329070518200751e-15
vertex -1.5000000000000002 -2.9999999999999996 21.749999999999986
vertex -1.5 18.749999999999947 -5.467086642812752e-15
endloop
endfacet
facet normal 1.11886304751648e-16 -0.7071067811865483 -0.7071067811865468
outer loop
vertex -1.5000000000000002 -2.9999999999999996 21.749999999999986
vertex 0.0 18.749999999999947 -5.329070518200751e-15
vertex -2.220446049250313e-16 -2.9999999999999996 21.749999999999986
endloop
endfacet
facet normal 0.0 0.0 1.0
outer loop
vertex 21.625 0.0 3.5
vertex 23.125 23.699747468305844 3.5
vertex 23.125 0.0 3.5
endloop
endfacet
facet normal 0.0 0.0 1.0
outer loop
vertex 23.125 23.699747468305844 3.5
vertex 21.625 0.0 3.5
vertex 21.625 23.699747468305844 3.5
endloop
endfacet
facet normal -1.0 0.0 0.0
outer loop
vertex 21.625 23.699747468305844 0.0
vertex 21.625 0.0 3.5
vertex 21.625 0.0 0.0
endloop
endfacet
facet normal -1.0 0.0 0.0
outer loop
vertex 21.625 0.0 3.5
vertex 21.625 23.699747468305844 0.0
vertex 21.625 23.699747468305844 3.5
endloop
endfacet
facet normal 0.0 1.0 0.0
outer loop
vertex 23.125 23.699747468305844 3.5
vertex 21.625 23.699747468305844 0.0
vertex 23.125 23.699747468305844 0.0
endloop
endfacet
facet normal 0.0 1.0 0.0
outer loop
vertex 21.625 23.699747468305844 0.0
vertex 23.125 23.699747468305844 3.5
vertex 21.625 23.699747468305844 3.5
endloop
endfacet
facet normal 0.0 -1.0 0.0
outer loop
vertex 21.625 0.0 3.5
vertex 23.125 0.0 0.0
vertex 21.625 0.0 0.0
endloop
endfacet
facet normal 0.0 -1.0 0.0
outer loop
vertex 23.125 0.0 0.0
vertex 21.625 0.0 3.5
vertex 23.125 0.0 3.5
endloop
endfacet
facet normal 1.0 0.0 0.0
outer loop
vertex 23.125 23.699747468305844 3.5
vertex 23.125 0.0 0.0
vertex 23.125 0.0 3.5
endloop
endfacet
facet normal 1.0 0.0 0.0
outer loop
vertex 23.125 0.0 0.0
vertex 23.125 23.699747468305844 3.5
vertex 23.125 23.699747468305844 0.0
endloop
endfacet
facet normal 0.0 0.0 -1.0
outer loop
vertex 21.625 23.699747468305844 0.0
vertex 23.125 0.0 0.0
vertex 23.125 23.699747468305844 0.0
endloop
endfacet
facet normal 0.0 0.0 -1.0
outer loop
vertex 23.125 0.0 0.0
vertex 21.625 23.699747468305844 0.0
vertex 21.625 0.0 0.0
endloop
endfacet
facet normal 0.0 0.0 -1.0
outer loop
vertex 23.125 23.699747468305844 3.5
vertex 0.0 1.4999999999999991 3.5
vertex 0.0 23.699747468305844 3.5
endloop
endfacet
facet normal 0.0 0.0 -1.0
outer loop
vertex 0.0 1.4999999999999991 3.5
vertex 23.125 23.699747468305844 3.5
vertex 23.125 1.5 3.5
endloop
endfacet
facet normal 0.0 0.0 1.0
outer loop
vertex 23.125 1.5 4.25
vertex 0.0 23.699747468305844 4.25
vertex 0.0 1.4999999999999991 4.25
endloop
endfacet
facet normal 0.0 0.0 1.0
outer loop
vertex 0.0 23.699747468305844 4.25
vertex 23.125 1.5 4.25
vertex 23.125 23.699747468305844 4.25
endloop
endfacet
facet normal 0.0 1.0 0.0
outer loop
vertex 0.0 23.699747468305844 4.25
vertex 23.125 23.699747468305844 3.5
vertex 0.0 23.699747468305844 3.5
endloop
endfacet
facet normal 0.0 1.0 0.0
outer loop
vertex 23.125 23.699747468305844 3.5
vertex 0.0 23.699747468305844 4.25
vertex 23.125 23.699747468305844 4.25
endloop
endfacet
facet normal -1.0 -0.0 -0.0
outer loop
vertex 0.0 23.699747468305844 4.25
vertex 0.0 1.4999999999999991 3.5
vertex 0.0 1.4999999999999991 4.25
endloop
endfacet
facet normal -1.0 -0.0 -0.0
outer loop
vertex 0.0 1.4999999999999991 3.5
vertex 0.0 23.699747468305844 4.25
vertex 0.0 23.699747468305844 3.5
endloop
endfacet
facet normal 3.8407715446491904e-17 -1.0 0.0
outer loop
vertex 23.125 1.5 4.25
vertex 0.0 1.4999999999999991 3.5
vertex 23.125 1.5 3.5
endloop
endfacet
facet normal 3.8407715446491904e-17 -1.0 0.0
outer loop
vertex 0.0 1.4999999999999991 3.5
vertex 23.125 1.5 4.25
vertex 0.0 1.4999999999999991 4.25
endloop
endfacet
facet normal 1.0 0.0 0.0
outer loop
vertex 23.125 23.699747468305844 3.5
vertex 23.125 1.5 4.25
vertex 23.125 1.5 3.5
endloop
endfacet
facet normal 1.0 0.0 0.0
outer loop
vertex 23.125 1.5 4.25
vertex 23.125 23.699747468305844 3.5
vertex 23.125 23.699747468305844 4.25
endloop
endfacet
facet normal 1.0 0.0 0.0
outer loop
vertex 21.625 23.699747468305844 0.0
vertex 21.625 22.199747468305844 3.5
vertex 21.625 22.199747468305844 0.0
endloop
endfacet
facet normal 1.0 0.0 0.0
outer loop
vertex 21.625 22.199747468305844 3.5
vertex 21.625 23.699747468305844 0.0
vertex 21.625 23.699747468305844 3.5
endloop
endfacet
facet normal -1.0 0.0 0.0
outer loop
vertex 1.5 23.699747468305844 3.5
vertex 1.5 22.199747468305844 0.0
vertex 1.5 22.199747468305844 3.5
endloop
endfacet
facet normal -1.0 0.0 0.0
outer loop
vertex 1.5 22.199747468305844 0.0
vertex 1.5 23.699747468305844 3.5
vertex 1.5 23.699747468305844 0.0
endloop
endfacet
facet normal 0.0 0.0 1.0
outer loop
vertex 21.625 22.199747468305844 3.5
vertex 1.5 23.699747468305844 3.5
vertex 1.5 22.199747468305844 3.5
endloop
endfacet
facet normal 0.0 0.0 1.0
outer loop
vertex 1.5 23.699747468305844 3.5
vertex 21.625 22.199747468305844 3.5
vertex 21.625 23.699747468305844 3.5
endloop
endfacet
facet normal -0.0 -1.0 -0.0
outer loop
vertex 21.625 22.199747468305844 3.5
vertex 1.5 22.199747468305844 0.0
vertex 21.625 22.199747468305844 0.0
endloop
endfacet
facet normal -0.0 -1.0 -0.0
outer loop
vertex 1.5 22.199747468305844 0.0
vertex 21.625 22.199747468305844 3.5
vertex 1.5 22.199747468305844 3.5
endloop
endfacet
facet normal 0.0 0.0 -1.0
outer loop
vertex 21.625 23.699747468305844 0.0
vertex 1.5 22.199747468305844 0.0
vertex 1.5 23.699747468305844 0.0
endloop
endfacet
facet normal 0.0 0.0 -1.0
outer loop
vertex 1.5 22.199747468305844 0.0
vertex 21.625 23.699747468305844 0.0
vertex 21.625 22.199747468305844 0.0
endloop
endfacet
facet normal 0.0 1.0 0.0
outer loop
vertex 1.5 23.699747468305844 3.5
vertex 21.625 23.699747468305844 0.0
vertex 1.5 23.699747468305844 0.0
endloop
endfacet
facet normal 0.0 1.0 0.0
outer loop
vertex 21.625 23.699747468305844 0.0
vertex 1.5 23.699747468305844 3.5
vertex 21.625 23.699747468305844 3.5
endloop
endfacet
facet normal 0.0 0.0 -1.0
outer loop
vertex 23.875 23.699747468305844 0.0
vertex 23.125 -2.999999999999986 0.0
vertex 23.125 23.699747468305844 0.0
endloop
endfacet
facet normal 0.0 0.0 -1.0
outer loop
vertex 23.125 -2.999999999999986 0.0
vertex 23.875 23.699747468305844 0.0
vertex 23.875 -2.999999999999986 0.0
endloop
endfacet
facet normal 0.0 -1.0 1.663271199014982e-17
outer loop
vertex 23.875 -2.9999999999999853 26.699747468305823
vertex 23.125 -2.999999999999986 0.0
vertex 23.875 -2.999999999999986 0.0
endloop
endfacet
facet normal 0.0 -1.0 1.663271199014982e-17
outer loop
vertex 23.125 -2.999999999999986 0.0
vertex 23.875 -2.9999999999999853 26.699747468305823
vertex 23.125 -2.9999999999999853 26.699747468305823
endloop
endfacet
facet normal 0.0 0.0 1.0
outer loop
vertex 23.875 -2.9999999999999853 26.699747468305823
vertex 23.125 23.699747468305844 26.699747468305823
vertex 23.125 -2.9999999999999853 26.699747468305823
endloop
endfacet
facet normal 0.0 0.0 1.0
outer loop
vertex 23.125 23.699747468305844 26.699747468305823
vertex 23.875 -2.9999999999999853 26.699747468305823
vertex 23.875 23.699747468305844 26.699747468305823
endloop
endfacet
facet normal 0.0 1.0 0.0
outer loop
vertex 23.125 23.699747468305844 26.699747468305823
vertex 23.875 23.699747468305844 0.0
vertex 23.125 23.699747468305844 0.0
endloop
endfacet
facet normal 0.0 1.0 0.0
outer loop
vertex 23.875 23.699747468305844 0.0
vertex 23.125 23.699747468305844 26.699747468305823
vertex 23.875 23.699747468305844 26.699747468305823
endloop
endfacet
facet normal 1.0 0.0 0.0
outer loop
vertex 23.875 23.699747468305844 0.0
vertex 23.875 -2.9999999999999853 26.699747468305823
vertex 23.875 -2.999999999999986 0.0
endloop
endfacet
facet normal 1.0 0.0 0.0
outer loop
vertex 23.875 -2.9999999999999853 26.699747468305823
vertex 23.875 23.699747468305844 0.0
vertex 23.875 23.699747468305844 26.699747468305823
endloop
endfacet
facet normal -1.0 0.0 0.0
outer loop
vertex 23.125 -2.9999999999999853 26.699747468305823
vertex 23.125 23.699747468305844 0.0
vertex 23.125 -2.999999999999986 0.0
endloop
endfacet
facet normal -1.0 0.0 0.0
outer loop
vertex 23.125 23.699747468305844 0.0
vertex 23.125 -2.9999999999999853 26.699747468305823
vertex 23.125 23.699747468305844 26.699747468305823
endloop
endfacet
endsolid Wall Mount
