999
DXF generated by OpenJsCad
  0
SECTION
  2
HEADER
  0
ENDSEC
  0
SECTION
  2
TABLES
  0
TABLE
  2
LTYPE
  70
1
  0
LTYPE
  2
CONTINUOUS
  3
Solid Line
  72
65
  73
0
  40
0.0
  0
ENDTAB
  0
TABLE
  2
LAYER
  70
1
  0
LAYER
  2
OpenJsCad
  62
7
  6
continuous
  0
ENDTAB
  0
TABLE
  2
STYLE
  70
0
  0
ENDTAB
  0
TABLE
  2
VIEW
  70
0
  0
ENDTAB
  0
ENDSEC
  0
SECTION
  2
BLOCKS
  0
ENDSEC
  0
SECTION
  2
ENTITIES
  0
LWPOLYLINE
  8
OpenJsCad
  90
9
  70
1
 10
71.53339978567534
 20
-24.254752159099624
 30
0.0
 10
71.33550323332244
 20
-19.554093276555037
 30
0.0
 10
70.49348603542683
 20
-16.0896781745993
 30
0.0
 10
72.75527069526109
 20
-13.333685592470452
 30
0.0
 10
74.97310878027088
 20
-9.184402376762169
 30
0.0
 10
75.15421850535495
 20
-8.587363625817705
 30
0.0
 10
74.5396813106455
 20
-14.826864473225783
 30
0.0
 10
71.37943918070447
 20
-25.244786608915593
 30
0.0
 10
71.53339978567534
 20
-24.254752159099624
 30
0.0
  0
LWPOLYLINE
  8
OpenJsCad
  90
19
  70
1
 10
68.24265930282556
 20
-10.715253139490319
 30
0.0
 10
65.46656818244371
 20
-6.916743554558931
 30
0.0
 10
62.00276641640947
 20
-3.7328097768090487
 30
0.0
 10
57.98436596406913
 20
-1.2858085957489678
 30
0.0
 10
54.46869188194131
 20
2.4868995751603507e-14
 30
0.0
 10
57.98436596406912
 20
1.2858085957490069
 30
0.0
 10
62.002766416409465
 20
3.7328097768090913
 30
0.0
 10
65.46656818244371
 20
6.916743554558973
 30
0.0
 10
68.24265930282554
 20
10.715253139490354
 30
0.0
 10
69.71952025791755
 20
13.895320429119739
 30
0.0
 10
71.09233147065599
 20
12.22254512643125
 30
0.0
 10
73.1253497152483
 20
8.419035512031975
 30
0.0
 10
74.37727616887106
 20
4.2919870843548225
 30
0.0
 10
74.8
 20
0
 30
0.0
 10
74.37727616887106
 20
-4.291987084354833
 30
0.0
 10
73.1253497152483
 20
-8.41903551203199
 30
0.0
 10
71.09233147065599
 20
-12.222545126431248
 30
0.0
 10
69.71952025791757
 20
-13.895320429119723
 30
0.0
 10
68.24265930282556
 20
-10.715253139490319
 30
0.0
  0
LWPOLYLINE
  8
OpenJsCad
  90
13
  70
1
 10
39.64445873832373
 20
-0.2558614980062188
 30
0.0
 10
35.37734793933102
 20
-2.2375583478292267
 30
0.0
 10
31.578838354399643
 20
-5.013649468211069
 30
0.0
 10
31.475680827785908
 20
-5.125874548192762
 30
0.0
 10
31.222723831128928
 20
-4.2919870843548225
 30
0.0
 10
30.799999999999997
 20
3.552713678800501e-15
 30
0.0
 10
31.222723831128928
 20
4.29198708435483
 30
0.0
 10
31.4756808277859
 20
5.125874548192748
 30
0.0
 10
31.57883835439963
 20
5.013649468211094
 30
0.0
 10
35.37734793933101
 20
2.237558347829255
 30
0.0
 10
39.64445873832371
 20
0.25586149800624547
 30
0.0
 10
40.69718122417928
 20
1.2434497875801753e-14
 30
0.0
 10
39.64445873832373
 20
-0.2558614980062188
 30
0.0
  0
LWPOLYLINE
  8
OpenJsCad
  90
57
  70
1
 10
28.394904576649765
 20
-8.4774512342453
 30
0.0
 10
25.947903395589677
 20
-12.495851686585652
 30
0.0
 10
24.331871694313467
 20
-16.914425949393607
 30
0.0
 10
23.98743007525617
 20
-19.129337152694326
 30
0.0
 10
21.904696790920227
 20
-19.95800701081904
 30
0.0
 10
17.956506293531522
 20
-22.516746695079256
 30
0.0
 10
14.583364518422547
 20
-25.796574669301872
 30
0.0
 10
13.312019388140664
 20
-27.64269309105989
 30
0.0
 10
11.075995162272546
 20
-27.485634730007014
 30
0.0
 10
6.408602897941853
 20
-28.077923870836518
 30
0.0
 10
1.9464431464294876
 20
-29.56939540172863
 30
0.0
 10
1.3322676295501878e-13
 20
-30.68107464735837
 30
0.0
 10
-1.9464431464294645
 20
-29.569395401728634
 30
0.0
 10
-6.40860289794183
 20
-28.07792387083652
 30
0.0
 10
-11.075995162272525
 20
-27.485634730007025
 30
0.0
 10
-13.312019388140698
 20
-27.642693091059492
 30
0.0
 10
-14.583364518422549
 20
-25.796574669301872
 30
0.0
 10
-17.956506293531525
 20
-22.516746695079256
 30
0.0
 10
-21.904696790920227
 20
-19.95800701081903
 30
0.0
 10
-23.98743007525627
 20
-19.12933715269422
 30
0.0
 10
-24.331871694313453
 20
-16.914425949393628
 30
0.0
 10
-25.94790339558967
 20
-12.495851686585674
 30
0.0
 10
-28.39490457664975
 20
-8.477451234245326
 30
0.0
 10
-29.911836049443437
 20
-6.827181385313397
 30
0.0
 10
-29.261153270322467
 20
-4.682167728387082
 30
0.0
 10
-28.799999999999997
 20
-2.5730897256124008e-17
 30
0.0
 10
-29.261153270322467
 20
4.682167728387082
 30
0.0
 10
-29.911836049443572
 20
6.82718138531357
 30
0.0
 10
-28.39490457664975
 20
8.477451234245326
 30
0.0
 10
-25.947903395589666
 20
12.495851686585672
 30
0.0
 10
-24.33187169431345
 20
16.914425949393625
 30
0.0
 10
-23.987430075256558
 20
19.12933715269441
 30
0.0
 10
-21.904696790920237
 20
19.958007010819024
 30
0.0
 10
-17.956506293531536
 20
22.516746695079245
 30
0.0
 10
-14.58336451842256
 20
25.796574669301865
 30
0.0
 10
-13.312019388140394
 20
27.642693091059716
 30
0.0
 10
-11.07599516227255
 20
27.485634730007014
 30
0.0
 10
-6.408602897941856
 20
28.077923870836518
 30
0.0
 10
-1.9464431464294911
 20
29.56939540172863
 30
0.0
 10
7.815970093361102e-14
 20
30.68107464735805
 30
0.0
 10
1.9464431464294876
 20
29.569395401728634
 30
0.0
 10
6.408602897941852
 20
28.077923870836518
 30
0.0
 10
11.075995162272546
 20
27.485634730007018
 30
0.0
 10
13.312019388140678
 20
27.64269309105977
 30
0.0
 10
14.583364518422545
 20
25.796574669301876
 30
0.0
 10
17.956506293531522
 20
22.51674669507926
 30
0.0
 10
21.904696790920227
 20
19.95800701081904
 30
0.0
 10
23.98743007525629
 20
19.1293371526942
 30
0.0
 10
24.331871694313453
 20
16.914425949393628
 30
0.0
 10
25.94790339558967
 20
12.495851686585675
 30
0.0
 10
28.39490457664975
 20
8.477451234245327
 30
0.0
 10
29.91183604944341
 20
6.827181385313386
 30
0.0
 10
29.261153270322467
 20
4.6821677283870855
 30
0.0
 10
28.799999999999997
 20
3.552713678800501e-15
 30
0.0
 10
29.261153270322467
 20
-4.682167728387078
 30
0.0
 10
29.911836049443565
 20
-6.827181385313526
 30
0.0
 10
28.394904576649765
 20
-8.4774512342453
 30
0.0
  0
LWPOLYLINE
  8
OpenJsCad
  90
13
  70
1
 10
23.608912664820146
 20
-21.563370691714447
 30
0.0
 10
23.80680921717305
 20
-26.26402957425903
 30
0.0
 10
24.917956297846928
 20
-30.83575891233106
 30
0.0
 10
25.374277457672605
 20
-31.81833752877026
 30
0.0
 10
24.517875149261474
 20
-31.154812981721474
 30
0.0
 10
20.308022096788903
 20
-29.05421919612989
 30
0.0
 10
15.769254672207072
 20
-27.815289318762627
 30
0.0
 10
15.617195905726266
 20
-27.80460870968385
 30
0.0
 10
16.11143927006576
 20
-27.08691863638605
 30
0.0
 10
19.20348589724899
 20
-24.080409660015317
 30
0.0
 10
22.8226605198553
 20
-21.734898282776783
 30
0.0
 10
23.63233609964367
 20
-21.412747696872962
 30
0.0
 10
23.608912664820146
 20
-21.563370691714447
 30
0.0
  0
LWPOLYLINE
  8
OpenJsCad
  90
19
  70
1
 10
37.15794648642637
 20
-44.5323142550651
 30
0.0
 10
41.57652074923432
 20
-46.148345956341316
 30
0.0
 10
46.22546549155516
 20
-46.87130498583464
 30
0.0
 10
50.92612437409974
 20
-46.673408433481725
 30
0.0
 10
54.33320884176196
 20
-45.845325299091996
 30
0.0
 10
53.88131423804484
 20
-47.9615906667235
 30
0.0
 10
52.1751768201337
 20
-51.92251779062726
 30
0.0
 10
49.72908380621648
 20
-55.4744859122379
 30
0.0
 10
46.63703717903326
 20
-58.480994888608635
 30
0.0
 10
43.017862556426934
 20
-60.82650626584717
 30
0.0
 10
39.01064278948779
 20
-62.42088335710418
 30
0.0
 10
34.769373086584565
 20
-63.202855144899594
 30
0.0
 10
32.60561090082796
 20
-63.172506461323
 30
0.0
 10
34.171079879963784
 20
-60.035110547095805
 30
0.0
 10
35.41000975733105
 20
-55.49634312251397
 30
0.0
 10
35.739664346086656
 20
-50.80308361257943
 30
0.0
 10
35.14737520525716
 20
-46.13569134824874
 30
0.0
 10
33.960673908975934
 20
-42.58533812215241
 30
0.0
 10
37.15794648642637
 20
-44.5323142550651
 30
0.0
  0
LWPOLYLINE
  8
OpenJsCad
  90
10
  70
1
 10
59.764964511164465
 20
-43.58056450298484
 30
0.0
 10
63.563474096095845
 20
-40.80447338260301
 30
0.0
 10
64.48727415777223
 20
-39.79947123480124
 30
0.0
 10
63.19169053499343
 20
-42.22333770948977
 30
0.0
 10
53.74011537017759
 20
-53.74011537017763
 30
0.0
 10
52.8203096922976
 20
-54.49498038169751
 30
0.0
 10
53.9256236639512
 20
-52.889955564837734
 30
0.0
 10
55.78686448349063
 20
-48.56894415694274
 30
0.0
 10
56.53138658024015
 20
-45.08227643436535
 30
0.0
 10
59.764964511164465
 20
-43.58056450298484
 30
0.0
  0
LWPOLYLINE
  8
OpenJsCad
  90
19
  70
1
 10
68.8738337119375
 20
-28.404143945086012
 30
0.0
 10
67.39247131910098
 20
-32.4545036859933
 30
0.0
 10
65.14938690312923
 20
-36.13803743397196
 30
0.0
 10
62.230780940191835
 20
-39.313189052836684
 30
0.0
 10
58.74881382067141
 20
-41.857939246520026
 30
0.0
 10
56.786163653452675
 20
-42.769417255152966
 30
0.0
 10
56.835337396963986
 20
-39.26348967601005
 30
0.0
 10
55.98227726482351
 20
-34.6366500001156
 30
0.0
 10
54.24295680163405
 20
-30.265137527091078
 30
0.0
 10
51.684217117373834
 20
-26.316947029702376
 30
0.0
 10
49.07459566099827
 20
-23.633079698578854
 30
0.0
 10
52.8
 20
-24
 30
0.0
 10
57.482167728387076
 20
-23.53884672967753
 30
0.0
 10
61.984402376762155
 20
-22.17310878027088
 30
0.0
 10
66.13368559247044
 20
-19.955270695261092
 30
0.0
 10
68.84407082149885
 20
-17.730915022822217
 30
0.0
 10
69.35514098264954
 20
-19.833673955626033
 30
0.0
 10
69.53654615563971
 20
-24.142611264625238
 30
0.0
 10
68.8738337119375
 20
-28.404143945086012
 30
0.0
  0
LWPOLYLINE
  8
OpenJsCad
  90
27
  70
1
 10
63.97528385267738
 20
-8.249436710462938
 30
0.0
 10
66.52003404636075
 20
-11.731403829983378
 30
0.0
 10
68.31293181356013
 20
-15.591980902904348
 30
0.0
 10
65.02254512643124
 20
-18.292331470656
 30
0.0
 10
61.21903551203198
 20
-20.325349715248304
 30
0.0
 10
57.09198708435482
 20
-21.57727616887107
 30
0.0
 10
52.8
 20
-22
 30
0.0
 10
48.50801291564517
 20
-21.577276168871066
 30
0.0
 10
44.77625478737389
 20
-20.445259716635228
 30
0.0
 10
44.529514828666876
 20
-20.275340148501897
 30
0.0
 10
43.28240703343056
 20
-19.738158522316272
 30
0.0
 10
40.57745487356875
 20
-18.292331470655995
 30
0.0
 10
37.24365081389595
 20
-15.556349186104043
 30
0.0
 10
34.507668529344
 20
-12.222545126431243
 30
0.0
 10
32.47465028475169
 20
-8.419035512031973
 30
0.0
 10
32.1464869154279
 20
-7.337225863014748
 30
0.0
 10
32.91153151030365
 20
-6.504933797977402
 30
0.0
 10
36.39349862982409
 20
-3.960183604294045
 30
0.0
 10
40.305016862234055
 20
-2.143628158622958
 30
0.0
 10
44.49576875546674
 20
-1.125076668005235
 30
0.0
 10
47.56016728795871
 20
-0.996066263343155
 30
0.0
 10
48.91684695894032
 20
-1.0531821350205313
 30
0.0
 10
49.21287731777399
 20
-1.0071463499584565
 30
0.0
 10
53.06623874492672
 20
-1.6063839387172827
 30
0.0
 10
57.11659848583401
 20
-3.087746331553806
 30
0.0
 10
60.80013223381266
 20
-5.33083074752555
 30
0.0
 10
63.97528385267738
 20
-8.249436710462938
 30
0.0
  0
LWPOLYLINE
  8
OpenJsCad
  90
13
  70
1
 10
27.74984113139452
 20
-13.363619164820767
 30
0.0
 10
29.992925547366262
 20
-9.680085416842113
 30
0.0
 10
30.58264213708557
 20
-9.038532700135523
 30
0.0
 10
30.626891219729114
 20
-9.184402376762153
 30
0.0
 10
32.844729304738905
 20
-13.333685592470447
 30
0.0
 10
35.829437251522855
 20
-16.97056274847714
 30
0.0
 10
36.66689329436847
 20
-17.657845161091828
 30
0.0
 10
35.60740896462052
 20
-17.43160923687416
 30
0.0
 10
30.90304893983918
 20
-17.365626415489118
 30
0.0
 10
26.276209263944743
 20
-18.218686547629588
 30
0.0
 10
26.13457490665076
 20
-18.275039477525652
 30
0.0
 10
26.26847873855799
 20
-17.41397890572806
 30
0.0
 10
27.74984113139452
 20
-13.363619164820767
 30
0.0
  0
LWPOLYLINE
  8
OpenJsCad
  90
27
  70
1
 10
25.787171467845948
 20
-25.984448895188034
 30
0.0
 10
25.605766294855783
 20
-21.67551158618883
 30
0.0
 10
25.779480931038133
 20
-20.558450021704267
 30
0.0
 10
26.829880286794438
 20
-20.140521191519788
 30
0.0
 10
31.07114998969768
 20
-19.358549403724357
 30
0.0
 10
35.3834800124139
 20
-19.419033656660645
 30
0.0
 10
39.60114993055265
 20
-20.319649574408267
 30
0.0
 10
42.41805312393416
 20
-21.533007909596446
 30
0.0
 10
43.61559762323783
 20
-22.173108780270876
 30
0.0
 10
43.902285939056746
 20
-22.260074730103526
 30
0.0
 10
47.11404517606705
 20
-24.47188000623662
 30
0.0
 10
50.12055415243778
 20
-27.563926633419843
 30
0.0
 10
52.466065529676314
 20
-31.183101256026152
 30
0.0
 10
54.060442620933316
 20
-35.19032102296529
 30
0.0
 10
54.84241440872874
 20
-39.431590725868546
 30
0.0
 10
54.78271786475668
 20
-43.68775966779611
 30
0.0
 10
50.64654369502874
 20
-44.69304618280884
 30
0.0
 10
46.337606386029556
 20
-44.874451355798996
 30
0.0
 10
42.076073705568774
 20
-44.21173891209679
 30
0.0
 10
38.025713964661485
 20
-42.73037651926026
 30
0.0
 10
34.34218021668283
 20
-40.48729210328852
 30
0.0
 10
31.471145851607208
 20
-37.84823135169394
 30
0.0
 10
31.322566167915635
 20
-37.58808265488496
 30
0.0
 10
30.43203524204415
 20
-36.56299894000295
 30
0.0
 10
28.622278404134757
 20
-34.0867190208307
 30
0.0
 10
26.80572295846366
 20
-30.175200788420725
 30
0.0
 10
25.787171467845948
 20
-25.984448895188034
 30
0.0
  0
LWPOLYLINE
  8
OpenJsCad
  90
27
  70
1
 10
28.87452331543222
 20
-37.805073254343
 30
0.0
 10
29.675744268051776
 20
-38.901379296255136
 30
0.0
 10
29.89630840390661
 20
-39.104122308050655
 30
0.0
 10
31.830337144242407
 20
-42.490420110608376
 30
0.0
 10
33.19751938089351
 20
-46.58073321616137
 30
0.0
 10
33.74045109332055
 20
-50.85917612513118
 30
0.0
 10
33.438267720294576
 20
-55.16133067590449
 30
0.0
 10
32.30258199937459
 20
-59.32186748177118
 30
0.0
 10
30.402114776894827
 20
-63.13064183527014
 30
0.0
 10
26.239373145729587
 20
-62.241754974215695
 30
0.0
 10
22.27844602182585
 20
-60.53561755630456
 30
0.0
 10
18.72647790021519
 20
-58.08952454238734
 30
0.0
 10
15.719968923844462
 20
-54.997477915204115
 30
0.0
 10
13.374457546605925
 20
-51.37830329259779
 30
0.0
 10
11.932790511655167
 20
-47.75489658945417
 30
0.0
 10
11.911799131544294
 20
-47.45604440388661
 30
0.0
 10
11.55422564655103
 20
-46.146089001866294
 30
0.0
 10
10.998108667553499
 20
-43.129813822755416
 30
0.0
 10
11.058592920489785
 20
-38.8174838000392
 30
0.0
 10
11.959208838237409
 20
-34.599813881900445
 30
0.0
 10
13.665346256148542
 20
-30.6388867579967
 30
0.0
 10
14.3065325836709
 20
-29.70782102075197
 30
0.0
 10
15.434242225597597
 20
-29.787031355799098
 30
0.0
 10
19.59477903146428
 20
-30.92271707671909
 30
0.0
 10
23.453810996230796
 20
-32.84826138017804
 30
0.0
 10
26.86303768566123
 20
-35.4896666784517
 30
0.0
 10
28.87452331543222
 20
-37.805073254343
 30
0.0
  0
LWPOLYLINE
  8
OpenJsCad
  90
27
  70
1
 10
49.21287731777399
 20
1.0071463499584912
 30
0.0
 10
48.91684695894034
 20
1.0531821350205632
 30
0.0
 10
47.5601672879587
 20
0.9960662633431862
 30
0.0
 10
44.49576875546674
 20
1.1250766680052635
 30
0.0
 10
40.30501686223405
 20
2.143628158622981
 30
0.0
 10
36.39349862982407
 20
3.960183604294075
 30
0.0
 10
32.91153151030364
 20
6.504933797977426
 30
0.0
 10
32.14648691542787
 20
7.337225863014748
 30
0.0
 10
32.47465028475169
 20
8.419035512031975
 30
0.0
 10
34.507668529344
 20
12.22254512643125
 30
0.0
 10
37.243650813895954
 20
15.556349186104043
 30
0.0
 10
40.577454873568755
 20
18.292331470655995
 30
0.0
 10
43.282407033430424
 20
19.7381585223162
 30
0.0
 10
44.529514828666876
 20
20.27534014850188
 30
0.0
 10
44.776254787373944
 20
20.44525971663525
 30
0.0
 10
48.508012915645175
 20
21.577276168871066
 30
0.0
 10
52.8
 20
22
 30
0.0
 10
57.09198708435482
 20
21.577276168871066
 30
0.0
 10
61.21903551203197
 20
20.325349715248308
 30
0.0
 10
65.02254512643125
 20
18.292331470655995
 30
0.0
 10
68.31293181356011
 20
15.591980902904359
 30
0.0
 10
66.52003404636072
 20
11.731403829983414
 30
0.0
 10
63.97528385267738
 20
8.249436710462987
 30
0.0
 10
60.800132233812654
 20
5.330830747525589
 30
0.0
 10
57.116598485834004
 20
3.087746331553845
 30
0.0
 10
53.06623874492671
 20
1.6063839387173147
 30
0.0
 10
49.21287731777399
 20
1.0071463499584912
 30
0.0
  0
LWPOLYLINE
  8
OpenJsCad
  90
13
  70
1
 10
11.914899412331035
 20
-29.671448983786213
 30
0.0
 10
10.053658592791612
 20
-33.99246039168121
 30
0.0
 10
9.0711685007033
 20
-38.59355484783258
 30
0.0
 10
9.055974775393762
 20
-39.67681792257439
 30
0.0
 10
8.572275468585449
 20
-38.7074239268322
 30
0.0
 10
5.690742415923275
 20
-34.988267538362635
 30
0.0
 10
2.139005795421963
 20
-31.90273290817804
 30
0.0
 10
2.0066397233342563
 20
-31.82713418574151
 30
0.0
 10
2.7633316603014793
 20
-31.394961931851267
 30
0.0
 10
6.853644765854481
 20
-30.027779695200163
 30
0.0
 10
11.132087674824284
 20
-29.48484798277312
 30
0.0
 10
12.001356066085297
 20
-29.545905402128014
 30
0.0
 10
11.914899412331035
 20
-29.671448983786213
 30
0.0
  0
LWPOLYLINE
  8
OpenJsCad
  90
19
  70
1
 10
14.156305958908401
 20
-56.24445751892158
 30
0.0
 10
17.436133933131014
 20
-59.61759929403055
 30
0.0
 10
21.311008247615362
 20
-62.286064400122065
 30
0.0
 10
25.632019655510348
 20
-64.14730521966149
 30
0.0
 10
29.060988497837137
 20
-64.87950664385994
 30
0.0
 10
27.735632397641986
 20
-66.59012613596812
 30
0.0
 10
24.479873828849115
 20
-69.418532880304
 30
0.0
 10
20.7348789654853
 20
-71.5574255945493
 30
0.0
 10
16.644565859932303
 20
-72.9246078312004
 30
0.0
 10
12.366122950962493
 20
-73.46753954362745
 30
0.0
 10
8.063968400189172
 20
-73.16535617060147
 30
0.0
 10
3.9034315943225018
 20
-72.02967044968148
 30
0.0
 10
1.9671170277188708
 20
-71.0635060028799
 30
0.0
 10
4.738820911944284
 20
-68.91604149201694
 30
0.0
 10
7.82435554212889
 20
-65.36430487151561
 30
0.0
 10
10.157693048578297
 20
-61.27885592966418
 30
0.0
 10
11.649164579470408
 20
-56.81669617815182
 30
0.0
 10
12.12042418894832
 20
-53.103048055736096
 30
0.0
 10
14.156305958908401
 20
-56.24445751892158
 30
0.0
  0
LWPOLYLINE
  8
OpenJsCad
  90
9
  70
1
 10
34.93747413644306
 20
-65.19577813313484
 30
0.0
 10
39.56431381233749
 20
-64.34271800099438
 30
0.0
 10
41.54221409550612
 20
-63.555758691626735
 30
0.0
 10
29.083940859746832
 20
-70.21484447085778
 30
0.0
 10
24.850239160262525
 20
-71.49912384077912
 30
0.0
 10
25.63721642120872
 20
-71.04965461822253
 30
0.0
 10
29.188953041710036
 20
-67.96411998803794
 30
0.0
 10
31.372552700879154
 20
-65.14577694846881
 30
0.0
 10
34.93747413644306
 20
-65.19577813313484
 30
0.0
  0
LWPOLYLINE
  8
OpenJsCad
  90
27
  70
1
 10
9.612040041519204
 20
-46.58938019226923
 30
0.0
 10
9.85824581145873
 20
-47.924754548508346
 30
0.0
 10
9.969000335202045
 20
-48.20311888230108
 30
0.0
 10
10.242240467533795
 20
-52.09321140126939
 30
0.0
 10
9.69930875510676
 20
-56.371654310239194
 30
0.0
 10
8.332126518455654
 20
-60.461967415792195
 30
0.0
 10
6.1932338042103705
 20
-64.206962279156
 30
0.0
 10
3.3648270598744823
 20
-67.46272084794889
 30
0.0
 10
7.993605777301127e-15
 20
-70.06972614075674
 30
0.0
 10
-3.364827059874452
 20
-67.46272084794887
 30
0.0
 10
-6.19323380421033
 20
-64.20696227915602
 30
0.0
 10
-8.332126518455627
 20
-60.4619674157922
 30
0.0
 10
-9.699308755106728
 20
-56.3716543102392
 30
0.0
 10
-10.242240467533772
 20
-52.093211401269386
 30
0.0
 10
-9.969000335202008
 20
-48.20311888230093
 30
0.0
 10
-9.858245811458755
 20
-47.92475454850835
 30
0.0
 10
-9.612040041519334
 20
-46.58938019226981
 30
0.0
 10
-8.804371373587804
 20
-43.63052004462939
 30
0.0
 10
-6.8788270701288585
 20
-39.77148807986288
 30
0.0
 10
-4.237421771855195
 20
-36.362261390432444
 30
0.0
 10
-0.9816632030623316
 20
-33.53385464609656
 30
0.0
 10
0
 20
-32.97319372412486
 30
0.0
 10
0.9816632030623502
 20
-33.53385464609656
 30
0.0
 10
4.237421771855223
 20
-36.362261390432444
 30
0.0
 10
6.878827070128878
 20
-39.77148807986287
 30
0.0
 10
8.804371373587827
 20
-43.63052004462939
 30
0.0
 10
9.612040041519204
 20
-46.58938019226923
 30
0.0
  0
LWPOLYLINE
  8
OpenJsCad
  90
13
  70
1
 10
-2.1390057954219426
 20
-31.902732908178038
 30
0.0
 10
-5.690742415923251
 20
-34.988267538362635
 30
0.0
 10
-8.572275468585426
 20
-38.707423926832206
 30
0.0
 10
-9.055974775393778
 20
-39.67681792257448
 30
0.0
 10
-9.071168500703315
 20
-38.593554847832586
 30
0.0
 10
-10.053658592791622
 20
-33.99246039168121
 30
0.0
 10
-11.914899412331046
 20
-29.671448983786217
 30
0.0
 10
-12.00135606608531
 20
-29.545905402128025
 30
0.0
 10
-11.132087674824263
 20
-29.484847982773125
 30
0.0
 10
-6.853644765854458
 20
-30.027779695200167
 30
0.0
 10
-2.7633316603014544
 20
-31.39496193185127
 30
0.0
 10
-2.006639723334237
 20
-31.827134185741528
 30
0.0
 10
-2.1390057954219426
 20
-31.902732908178038
 30
0.0
  0
LWPOLYLINE
  8
OpenJsCad
  90
19
  70
1
 10
-11.649164579470376
 20
-56.81669617815183
 30
0.0
 10
-10.157693048578263
 20
-61.27885592966419
 30
0.0
 10
-7.824355542128853
 20
-65.36430487151563
 30
0.0
 10
-4.738820911944261
 20
-68.91604149201692
 30
0.0
 10
-1.9671170277188117
 20
-71.0635060028799
 30
0.0
 10
-3.903431594322461
 20
-72.02967044968149
 30
0.0
 10
-8.063968400189145
 20
-73.16535617060147
 30
0.0
 10
-12.366122950962463
 20
-73.46753954362745
 30
0.0
 10
-16.644565859932264
 20
-72.92460783120042
 30
0.0
 10
-20.734878965485276
 20
-71.5574255945493
 30
0.0
 10
-24.479873828849087
 20
-69.41853288030401
 30
0.0
 10
-27.735632397641947
 20
-66.59012613596813
 30
0.0
 10
-29.060988497837123
 20
-64.87950664385991
 30
0.0
 10
-25.632019655510398
 20
-64.14730521966148
 30
0.0
 10
-21.31100824761539
 20
-62.28606440012206
 30
0.0
 10
-17.43613393313104
 20
-59.617599294030555
 30
0.0
 10
-14.156305958908426
 20
-56.24445751892157
 30
0.0
 10
-12.120424188948292
 20
-53.10304805573602
 30
0.0
 10
-11.649164579470376
 20
-56.81669617815183
 30
0.0
  0
LWPOLYLINE
  8
OpenJsCad
  90
9
  70
1
 10
3.1901885289978775
 20
-73.89816833027069
 30
0.0
 10
7.728955953579698
 20
-75.13709820763795
 30
0.0
 10
8.331487946737646
 20
-75.17942006007252
 30
0.0
 10
-1.4210854715202004e-14
 20
-76
 30
0.0
 10
-8.3314879467376
 20
-75.17942006007252
 30
0.0
 10
-7.728955953579675
 20
-75.13709820763795
 30
0.0
 10
-3.1901885289978367
 20
-73.89816833027068
 30
0.0
 10
2.842170943040401e-14
 20
-72.30635737740558
 30
0.0
 10
3.1901885289978775
 20
-73.89816833027069
 30
0.0
  0
LWPOLYLINE
  8
OpenJsCad
  90
27
  70
1
 10
-11.554225646551147
 20
-46.1460890018668
 30
0.0
 10
-11.911799131544266
 20
-47.456044403886594
 30
0.0
 10
-11.932790511655126
 20
-47.75489658945403
 30
0.0
 10
-13.374457546605953
 20
-51.37830329259779
 30
0.0
 10
-15.719968923844487
 20
-54.9974779152041
 30
0.0
 10
-18.72647790021522
 20
-58.08952454238734
 30
0.0
 10
-22.278446021825864
 20
-60.535617556304544
 30
0.0
 10
-26.239373145729623
 20
-62.241754974215695
 30
0.0
 10
-30.402114776894805
 20
-63.13064183527011
 30
0.0
 10
-32.30258199937455
 20
-59.321867481771186
 30
0.0
 10
-33.43826772029455
 20
-55.161330675904516
 30
0.0
 10
-33.74045109332052
 20
-50.85917612513119
 30
0.0
 10
-33.19751938089348
 20
-46.58073321616139
 30
0.0
 10
-31.830337144242378
 20
-42.49042011060838
 30
0.0
 10
-29.896308403906605
 20
-39.10412230805069
 30
0.0
 10
-29.67574426805176
 20
-38.90137929625516
 30
0.0
 10
-28.874523315432146
 20
-37.80507325434294
 30
0.0
 10
-26.86303768566121
 20
-35.489666678451705
 30
0.0
 10
-23.45381099623078
 20
-32.848261380178045
 30
0.0
 10
-19.594779031464256
 20
-30.922717076719103
 30
0.0
 10
-15.434242225597577
 20
-29.787031355799108
 30
0.0
 10
-14.306532583670913
 20
-29.707821020751986
 30
0.0
 10
-13.665346256148554
 20
-30.638886757996698
 30
0.0
 10
-11.959208838237416
 20
-34.599813881900445
 30
0.0
 10
-11.0585929204898
 20
-38.8174838000392
 30
0.0
 10
-10.99810866755352
 20
-43.12981382275542
 30
0.0
 10
-11.554225646551147
 20
-46.1460890018668
 30
0.0
  0
LWPOLYLINE
  8
OpenJsCad
  90
13
  70
1
 10
-15.769254672207051
 20
-27.815289318762634
 30
0.0
 10
-20.308022096788882
 20
-29.054219196129896
 30
0.0
 10
-24.517875149261453
 20
-31.154812981721477
 30
0.0
 10
-25.374277457672576
 20
-31.818337528770257
 30
0.0
 10
-24.917956297846914
 20
-30.83575891233108
 30
0.0
 10
-23.80680921717303
 20
-26.264029574259048
 30
0.0
 10
-23.60891266482013
 20
-21.563370691714468
 30
0.0
 10
-23.632336099643666
 20
-21.412747696872962
 30
0.0
 10
-22.822660519855305
 20
-21.73489828277678
 30
0.0
 10
-19.203485897248992
 20
-24.080409660015317
 30
0.0
 10
-16.111439270065766
 20
-27.08691863638605
 30
0.0
 10
-15.617195905726279
 20
-27.80460870968382
 30
0.0
 10
-15.769254672207051
 20
-27.815289318762634
 30
0.0
  0
LWPOLYLINE
  8
OpenJsCad
  90
19
  70
1
 10
-35.147375205257134
 20
-46.13569134824876
 30
0.0
 10
-35.739664346086634
 20
-50.80308361257945
 30
0.0
 10
-35.41000975733102
 20
-55.496343122513984
 30
0.0
 10
-34.171079879963756
 20
-60.03511054709581
 30
0.0
 10
-32.60561090082793
 20
-63.172506461322996
 30
0.0
 10
-34.76937308658459
 20
-63.20285514489959
 30
0.0
 10
-39.010642789487825
 20
-62.42088335710415
 30
0.0
 10
-43.01786255642697
 20
-60.82650626584715
 30
0.0
 10
-46.63703717903328
 20
-58.48099488860862
 30
0.0
 10
-49.72908380621651
 20
-55.47448591223788
 30
0.0
 10
-52.17517682013373
 20
-51.922517790627225
 30
0.0
 10
-53.88131423804486
 20
-47.96159066672348
 30
0.0
 10
-54.33320884176196
 20
-45.84532529909201
 30
0.0
 10
-50.92612437409973
 20
-46.673408433481754
 30
0.0
 10
-46.225465491555134
 20
-46.871304985834655
 30
0.0
 10
-41.576520749234284
 20
-46.14834595634134
 30
0.0
 10
-37.15794648642633
 20
-44.53231425506512
 30
0.0
 10
-33.960673908975906
 20
-42.58533812215244
 30
0.0
 10
-35.147375205257134
 20
-46.13569134824876
 30
0.0
  0
LWPOLYLINE
  8
OpenJsCad
  90
9
  70
1
 10
-29.18895304171
 20
-67.96411998803795
 30
0.0
 10
-25.6372164212087
 20
-71.04965461822253
 30
0.0
 10
-24.850239160262507
 20
-71.49912384077912
 30
0.0
 10
-29.083940859746864
 20
-70.21484447085778
 30
0.0
 10
-41.54221409550642
 20
-63.55575869162661
 30
0.0
 10
-39.56431381233753
 20
-64.34271800099435
 30
0.0
 10
-34.93747413644309
 20
-65.19577813313482
 30
0.0
 10
-31.372552700879126
 20
-65.14577694846881
 30
0.0
 10
-29.18895304171
 20
-67.96411998803795
 30
0.0
  0
LWPOLYLINE
  8
OpenJsCad
  90
27
  70
1
 10
-30.43203524204412
 20
-36.56299894000295
 30
0.0
 10
-31.32256616791561
 20
-37.58808265488496
 30
0.0
 10
-31.471145851607183
 20
-37.84823135169395
 30
0.0
 10
-34.342180216682806
 20
-40.48729210328854
 30
0.0
 10
-38.02571396466145
 20
-42.73037651926028
 30
0.0
 10
-42.076073705568746
 20
-44.211738912096806
 30
0.0
 10
-46.33760638602951
 20
-44.874451355799025
 30
0.0
 10
-50.646543695028726
 20
-44.69304618280887
 30
0.0
 10
-54.782717864756705
 20
-43.68775966779612
 30
0.0
 10
-54.84241440872876
 20
-39.4315907258685
 30
0.0
 10
-54.06044262093333
 20
-35.190321022965286
 30
0.0
 10
-52.46606552967633
 20
-31.183101256026134
 30
0.0
 10
-50.12055415243779
 20
-27.563926633419822
 30
0.0
 10
-47.11404517606705
 20
-24.471880006236592
 30
0.0
 10
-43.90228593905679
 20
-22.260074730103526
 30
0.0
 10
-43.615597623237846
 20
-22.173108780270873
 30
0.0
 10
-42.41805312393395
 20
-21.533007909596332
 30
0.0
 10
-39.60114993055266
 20
-20.319649574408245
 30
0.0
 10
-35.3834800124139
 20
-19.419033656660623
 30
0.0
 10
-31.07114998969768
 20
-19.35854940372435
 30
0.0
 10
-26.829880286794445
 20
-20.14052119151978
 30
0.0
 10
-25.7794809310381
 20
-20.55845002170426
 30
0.0
 10
-25.605766294855766
 20
-21.675511586188847
 30
0.0
 10
-25.787171467845926
 20
-25.984448895188052
 30
0.0
 10
-26.805722958463647
 20
-30.17520078842074
 30
0.0
 10
-28.622278404134743
 20
-34.086719020830714
 30
0.0
 10
-30.43203524204412
 20
-36.56299894000295
 30
0.0
  0
LWPOLYLINE
  8
OpenJsCad
  90
13
  70
1
 10
-26.276209263944743
 20
-18.218686547629577
 30
0.0
 10
-30.90304893983918
 20
-17.365626415489107
 30
0.0
 10
-35.60740896462052
 20
-17.431609236874145
 30
0.0
 10
-36.66689329436845
 20
-17.657845161091807
 30
0.0
 10
-35.82943725152286
 20
-16.97056274847714
 30
0.0
 10
-32.844729304738905
 20
-13.333685592470449
 30
0.0
 10
-30.626891219729117
 20
-9.184402376762154
 30
0.0
 10
-30.58264213708555
 20
-9.038532700135512
 30
0.0
 10
-29.99292554736625
 20
-9.680085416842136
 30
0.0
 10
-27.749841131394508
 20
-13.36361916482079
 30
0.0
 10
-26.268478738557974
 20
-17.41397890572808
 30
0.0
 10
-26.13457490665074
 20
-18.275039477525638
 30
0.0
 10
-26.276209263944743
 20
-18.218686547629577
 30
0.0
  0
LWPOLYLINE
  8
OpenJsCad
  90
19
  70
1
 10
-51.684217117373855
 20
-26.316947029702355
 30
0.0
 10
-54.24295680163407
 20
-30.26513752709106
 30
0.0
 10
-55.98227726482352
 20
-34.63665000011558
 30
0.0
 10
-56.83533739696399
 20
-39.26348967601001
 30
0.0
 10
-56.78616365345268
 20
-42.76941725515298
 30
0.0
 10
-58.74881382067137
 20
-41.85793924652006
 30
0.0
 10
-62.23078094019182
 20
-39.313189052836705
 30
0.0
 10
-65.14938690312921
 20
-36.13803743397199
 30
0.0
 10
-67.39247131910095
 20
-32.45450368599334
 30
0.0
 10
-68.8738337119375
 20
-28.40414394508604
 30
0.0
 10
-69.5365461556397
 20
-24.142611264625266
 30
0.0
 10
-69.35514098264953
 20
-19.833673955626075
 30
0.0
 10
-68.84407082149882
 20
-17.730915022822217
 30
0.0
 10
-66.13368559247046
 20
-19.955270695261078
 30
0.0
 10
-61.984402376762155
 20
-22.173108780270873
 30
0.0
 10
-57.482167728387076
 20
-23.538846729677523
 30
0.0
 10
-52.8
 20
-23.999999999999993
 30
0.0
 10
-49.07459566099831
 20
-23.633079698578854
 30
0.0
 10
-51.684217117373855
 20
-26.316947029702355
 30
0.0
  0
LWPOLYLINE
  8
OpenJsCad
  90
10
  70
1
 10
-55.78686448349065
 20
-48.56894415694272
 30
0.0
 10
-53.92562366395124
 20
-52.889955564837706
 30
0.0
 10
-52.82030969229764
 20
-54.494980381697474
 30
0.0
 10
-53.74011537017763
 20
-53.740115370177605
 30
0.0
 10
-63.191690534993455
 20
-42.22333770948975
 30
0.0
 10
-64.48727415777228
 20
-39.799471234801196
 30
0.0
 10
-63.56347409609583
 20
-40.80447338260303
 30
0.0
 10
-59.76496451116445
 20
-43.58056450298488
 30
0.0
 10
-56.53138658024015
 20
-45.08227643436538
 30
0.0
 10
-55.78686448349065
 20
-48.56894415694272
 30
0.0
  0
LWPOLYLINE
  8
OpenJsCad
  90
27
  70
1
 10
-43.28240703343035
 20
-19.738158522316162
 30
0.0
 10
-44.529514828666876
 20
-20.27534014850187
 30
0.0
 10
-44.77625478737395
 20
-20.445259716635245
 30
0.0
 10
-48.508012915645175
 20
-21.57727616887106
 30
0.0
 10
-52.8
 20
-21.999999999999993
 30
0.0
 10
-57.09198708435482
 20
-21.57727616887106
 30
0.0
 10
-61.21903551203197
 20
-20.3253497152483
 30
0.0
 10
-65.02254512643125
 20
-18.292331470655988
 30
0.0
 10
-68.31293181356011
 20
-15.59198090290435
 30
0.0
 10
-66.52003404636072
 20
-11.731403829983407
 30
0.0
 10
-63.97528385267738
 20
-8.24943671046298
 30
0.0
 10
-60.800132233812654
 20
-5.330830747525582
 30
0.0
 10
-57.116598485834004
 20
-3.087746331553838
 30
0.0
 10
-53.06623874492671
 20
-1.606383938717311
 30
0.0
 10
-49.21287731777386
 20
-1.007146349958469
 30
0.0
 10
-48.91684695894033
 20
-1.0531821350205206
 30
0.0
 10
-47.56016728795914
 20
-0.9960662633431641
 30
0.0
 10
-44.49576875546674
 20
-1.12507666800526
 30
0.0
 10
-40.30501686223405
 20
-2.1436281586229775
 30
0.0
 10
-36.39349862982407
 20
-3.9601836042940715
 30
0.0
 10
-32.91153151030364
 20
-6.504933797977422
 30
0.0
 10
-32.14648691542787
 20
-7.337225863014748
 30
0.0
 10
-32.47465028475169
 20
-8.419035512031972
 30
0.0
 10
-34.507668529344
 20
-12.222545126431246
 30
0.0
 10
-37.243650813895954
 20
-15.556349186104038
 30
0.0
 10
-40.577454873568755
 20
-18.29233147065599
 30
0.0
 10
-43.28240703343035
 20
-19.738158522316162
 30
0.0
  0
LWPOLYLINE
  8
OpenJsCad
  90
13
  70
1
 10
-31.57883835439963
 20
-5.01364946821109
 30
0.0
 10
-35.37734793933101
 20
-2.2375583478292516
 30
0.0
 10
-39.64445873832371
 20
-0.2558614980062419
 30
0.0
 10
-40.69718122417934
 20
5.440092820663267e-15
 30
0.0
 10
-39.64445873832372
 20
0.2558614980062508
 30
0.0
 10
-35.37734793933101
 20
2.237558347829255
 30
0.0
 10
-31.578838354399636
 20
5.013649468211096
 30
0.0
 10
-31.475680827785908
 20
5.125874548192776
 30
0.0
 10
-31.222723831128928
 20
4.291987084354826
 30
0.0
 10
-30.799999999999997
 20
2.1919846257334668e-16
 30
0.0
 10
-31.222723831128928
 20
-4.291987084354826
 30
0.0
 10
-31.475680827785915
 20
-5.125874548192746
 30
0.0
 10
-31.57883835439963
 20
-5.01364946821109
 30
0.0
  0
LWPOLYLINE
  8
OpenJsCad
  90
19
  70
1
 10
-57.98436596406912
 20
-1.2858085957489997
 30
0.0
 10
-62.002766416409465
 20
-3.732809776809084
 30
0.0
 10
-65.46656818244371
 20
-6.916743554558966
 30
0.0
 10
-68.24265930282553
 20
-10.715253139490343
 30
0.0
 10
-69.71952025791754
 20
-13.895320429119735
 30
0.0
 10
-71.09233147065599
 20
-12.22254512643124
 30
0.0
 10
-73.1253497152483
 20
-8.419035512031966
 30
0.0
 10
-74.37727616887106
 20
-4.291987084354814
 30
0.0
 10
-74.8
 20
9.160358057622202e-15
 30
0.0
 10
-74.37727616887106
 20
4.291987084354842
 30
0.0
 10
-73.1253497152483
 20
8.419035512031998
 30
0.0
 10
-71.09233147065599
 20
12.222545126431257
 30
0.0
 10
-69.71952025791755
 20
13.895320429119767
 30
0.0
 10
-68.24265930282554
 20
10.715253139490372
 30
0.0
 10
-65.4665681824437
 20
6.916743554558984
 30
0.0
 10
-62.00276641640946
 20
3.7328097768090984
 30
0.0
 10
-57.98436596406911
 20
1.2858085957490175
 30
0.0
 10
-54.468691881941254
 20
7.105427357601002e-15
 30
0.0
 10
-57.98436596406912
 20
-1.2858085957489997
 30
0.0
  0
LWPOLYLINE
  8
OpenJsCad
  90
9
  70
1
 10
-71.33550323332243
 20
-19.554093276555072
 30
0.0
 10
-71.53339978567534
 20
-24.254752159099645
 30
0.0
 10
-71.37943918070444
 20
-25.244786608915717
 30
0.0
 10
-74.5396813106455
 20
-14.826864473225752
 30
0.0
 10
-75.15421850535495
 20
-8.587363625817686
 30
0.0
 10
-74.97310878027088
 20
-9.184402376762142
 30
0.0
 10
-72.75527069526109
 20
-13.333685592470443
 30
0.0
 10
-70.4934860354268
 20
-16.089678174599328
 30
0.0
 10
-71.33550323332243
 20
-19.554093276555072
 30
0.0
  0
LWPOLYLINE
  8
OpenJsCad
  90
27
  70
1
 10
-47.56016728795915
 20
0.9960662633431775
 30
0.0
 10
-48.91684695894032
 20
1.0531821350205348
 30
0.0
 10
-49.21287731777385
 20
1.00714634995848
 30
0.0
 10
-53.066238744926714
 20
1.6063839387173289
 30
0.0
 10
-57.116598485834004
 20
3.0877463315538556
 30
0.0
 10
-60.80013223381265
 20
5.330830747525603
 30
0.0
 10
-63.975283852677364
 20
8.24943671046299
 30
0.0
 10
-66.52003404636073
 20
11.731403829983432
 30
0.0
 10
-68.3129318135601
 20
15.591980902904382
 30
0.0
 10
-65.02254512643124
 20
18.292331470656006
 30
0.0
 10
-61.21903551203198
 20
20.32534971524831
 30
0.0
 10
-57.09198708435482
 20
21.577276168871077
 30
0.0
 10
-52.8
 20
22.000000000000007
 30
0.0
 10
-48.50801291564517
 20
21.577276168871073
 30
0.0
 10
-44.77625478737401
 20
20.445259716635274
 30
0.0
 10
-44.52951482866689
 20
20.275340148501872
 30
0.0
 10
-43.28240703343016
 20
19.738158522316073
 30
0.0
 10
-40.57745487356875
 20
18.292331470656
 30
0.0
 10
-37.24365081389595
 20
15.556349186104049
 30
0.0
 10
-34.507668529344
 20
12.222545126431246
 30
0.0
 10
-32.47465028475169
 20
8.419035512031977
 30
0.0
 10
-32.14648691542789
 20
7.33722586301476
 30
0.0
 10
-32.91153151030364
 20
6.504933797977428
 30
0.0
 10
-36.39349862982408
 20
3.960183604294075
 30
0.0
 10
-40.30501686223405
 20
2.14362815862299
 30
0.0
 10
-44.49576875546674
 20
1.1250766680052706
 30
0.0
 10
-47.56016728795915
 20
0.9960662633431775
 30
0.0
  0
LWPOLYLINE
  8
OpenJsCad
  90
13
  70
1
 10
-30.626891219729114
 20
9.184402376762156
 30
0.0
 10
-32.844729304738905
 20
13.33368559247045
 30
0.0
 10
-35.829437251522855
 20
16.970562748477143
 30
0.0
 10
-36.666893294368414
 20
17.657845161091792
 30
0.0
 10
-35.607408964620525
 20
17.431609236874138
 30
0.0
 10
-30.903048939839188
 20
17.365626415489096
 30
0.0
 10
-26.276209263944754
 20
18.218686547629574
 30
0.0
 10
-26.134574906650737
 20
18.275039477525652
 30
0.0
 10
-26.268478738557974
 20
17.41397890572808
 30
0.0
 10
-27.749841131394504
 20
13.363619164820788
 30
0.0
 10
-29.99292554736625
 20
9.680085416842136
 30
0.0
 10
-30.58264213708555
 20
9.038532700135526
 30
0.0
 10
-30.626891219729114
 20
9.184402376762156
 30
0.0
  0
LWPOLYLINE
  8
OpenJsCad
  90
19
  70
1
 10
-52.8
 20
24.000000000000007
 30
0.0
 10
-57.482167728387076
 20
23.538846729677537
 30
0.0
 10
-61.984402376762155
 20
22.173108780270887
 30
0.0
 10
-66.13368559247044
 20
19.9552706952611
 30
0.0
 10
-68.84407082149882
 20
17.730915022822238
 30
0.0
 10
-69.35514098264953
 20
19.833673955626086
 30
0.0
 10
-69.53654615563968
 20
24.142611264625295
 30
0.0
 10
-68.87383371193746
 20
28.404143945086062
 30
0.0
 10
-67.39247131910093
 20
32.45450368599335
 30
0.0
 10
-65.14938690312918
 20
36.13803743397201
 30
0.0
 10
-62.2307809401918
 20
39.313189052836734
 30
0.0
 10
-58.74881382067137
 20
41.85793924652007
 30
0.0
 10
-56.7861636534527
 20
42.76941725515299
 30
0.0
 10
-56.83533739696401
 20
39.26348967601001
 30
0.0
 10
-55.98227726482353
 20
34.636650000115566
 30
0.0
 10
-54.24295680163408
 20
30.26513752709105
 30
0.0
 10
-51.68421711737385
 20
26.31694702970235
 30
0.0
 10
-49.07459566099832
 20
23.63307969857886
 30
0.0
 10
-52.8
 20
24.000000000000007
 30
0.0
  0
LWPOLYLINE
  8
OpenJsCad
  90
9
  70
1
 10
-72.75527069526109
 20
13.333685592470461
 30
0.0
 10
-74.97310878027088
 20
9.184402376762177
 30
0.0
 10
-75.15421850535495
 20
8.587363625817716
 30
0.0
 10
-74.5396813106455
 20
14.826864473225767
 30
0.0
 10
-71.37943918070441
 20
25.244786608915803
 30
0.0
 10
-71.53339978567531
 20
24.254752159099684
 30
0.0
 10
-71.33550323332241
 20
19.554093276555093
 30
0.0
 10
-70.4934860354268
 20
16.08967817459934
 30
0.0
 10
-72.75527069526109
 20
13.333685592470461
 30
0.0
  0
LWPOLYLINE
  8
OpenJsCad
  90
27
  70
1
 10
-42.418053123933824
 20
21.533007909596275
 30
0.0
 10
-43.61559762323783
 20
22.173108780270883
 30
0.0
 10
-43.90228593905684
 20
22.260074730103554
 30
0.0
 10
-47.114045176067066
 20
24.47188000623659
 30
0.0
 10
-50.12055415243779
 20
27.56392663341982
 30
0.0
 10
-52.46606552967633
 20
31.183101256026127
 30
0.0
 10
-54.06044262093333
 20
35.190321022965264
 30
0.0
 10
-54.84241440872877
 20
39.43159072586851
 30
0.0
 10
-54.782717864756705
 20
43.687759667796136
 30
0.0
 10
-50.646543695028704
 20
44.69304618280888
 30
0.0
 10
-46.33760638602951
 20
44.87445135579904
 30
0.0
 10
-42.07607370556873
 20
44.21173891209682
 30
0.0
 10
-38.025713964661435
 20
42.73037651926029
 30
0.0
 10
-34.34218021668279
 20
40.48729210328854
 30
0.0
 10
-31.47114585160728
 20
37.84823135169407
 30
0.0
 10
-31.32256616791564
 20
37.58808265488495
 30
0.0
 10
-30.432035242043806
 20
36.56299894000255
 30
0.0
 10
-28.622278404134725
 20
34.08671902083072
 30
0.0
 10
-26.80572295846363
 20
30.17520078842074
 30
0.0
 10
-25.787171467845923
 20
25.984448895188052
 30
0.0
 10
-25.605766294855762
 20
21.67551158618885
 30
0.0
 10
-25.77948093103808
 20
20.55845002170429
 30
0.0
 10
-26.82988028679445
 20
20.140521191519774
 30
0.0
 10
-31.071149989697687
 20
19.35854940372434
 30
0.0
 10
-35.38348001241391
 20
19.419033656660623
 30
0.0
 10
-39.601149930552666
 20
20.319649574408245
 30
0.0
 10
-42.418053123933824
 20
21.533007909596275
 30
0.0
  0
LWPOLYLINE
  8
OpenJsCad
  90
13
  70
1
 10
-23.608912664820124
 20
21.563370691714464
 30
0.0
 10
-23.806809217173026
 20
26.264029574259048
 30
0.0
 10
-24.917956297846903
 20
30.83575891233108
 30
0.0
 10
-25.37427745767254
 20
31.818337528770197
 30
0.0
 10
-24.517875149261478
 20
31.15481298172147
 30
0.0
 10
-20.308022096788907
 20
29.054219196129885
 30
0.0
 10
-15.769254672207076
 20
27.815289318762627
 30
0.0
 10
-15.617195905726284
 20
27.804608709683848
 30
0.0
 10
-16.111439270065777
 20
27.086918636386038
 30
0.0
 10
-19.203485897249003
 20
24.080409660015306
 30
0.0
 10
-22.822660519855315
 20
21.73489828277677
 30
0.0
 10
-23.63233609964368
 20
21.412747696872962
 30
0.0
 10
-23.608912664820124
 20
21.563370691714464
 30
0.0
  0
LWPOLYLINE
  8
OpenJsCad
  90
19
  70
1
 10
-37.157946486426326
 20
44.53231425506513
 30
0.0
 10
-41.57652074923428
 20
46.148345956341345
 30
0.0
 10
-46.22546549155512
 20
46.87130498583467
 30
0.0
 10
-50.9261243740997
 20
46.67340843348177
 30
0.0
 10
-54.33320884176198
 20
45.84532529909202
 30
0.0
 10
-53.881314238044865
 20
47.961590666723474
 30
0.0
 10
-52.17517682013373
 20
51.922517790627225
 30
0.0
 10
-49.72908380621651
 20
55.47448591223788
 30
0.0
 10
-46.637037179033285
 20
58.48099488860861
 30
0.0
 10
-43.01786255642697
 20
60.82650626584715
 30
0.0
 10
-39.010642789487825
 20
62.42088335710415
 30
0.0
 10
-34.769373086584594
 20
63.20285514489958
 30
0.0
 10
-32.60561090082798
 20
63.17250646132299
 30
0.0
 10
-34.17107987996379
 20
60.035110547095805
 30
0.0
 10
-35.41000975733105
 20
55.49634312251396
 30
0.0
 10
-35.73966434608666
 20
50.80308361257943
 30
0.0
 10
-35.14737520525716
 20
46.13569134824874
 30
0.0
 10
-33.960673908975956
 20
42.58533812215247
 30
0.0
 10
-37.157946486426326
 20
44.53231425506513
 30
0.0
  0
LWPOLYLINE
  8
OpenJsCad
  90
10
  70
1
 10
-59.76496451116443
 20
43.58056450298489
 30
0.0
 10
-63.56347409609581
 20
40.804473382603064
 30
0.0
 10
-64.48727415777223
 20
39.79947123480127
 30
0.0
 10
-63.19169053499345
 20
42.22333770948977
 30
0.0
 10
-53.740115370177605
 20
53.74011537017762
 30
0.0
 10
-52.820309692297606
 20
54.49498038169752
 30
0.0
 10
-53.925623663951235
 20
52.889955564837706
 30
0.0
 10
-55.78686448349066
 20
48.568944156942706
 30
0.0
 10
-56.53138658024016
 20
45.08227643436536
 30
0.0
 10
-59.76496451116443
 20
43.58056450298489
 30
0.0
  0
LWPOLYLINE
  8
OpenJsCad
  90
27
  70
1
 10
-28.87452331543185
 20
37.80507325434257
 30
0.0
 10
-29.675744268051737
 20
38.90137929625516
 30
0.0
 10
-29.896308403906694
 20
39.10412230805079
 30
0.0
 10
-31.83033714424241
 20
42.49042011060837
 30
0.0
 10
-33.19751938089352
 20
46.58073321616137
 30
0.0
 10
-33.74045109332056
 20
50.85917612513117
 30
0.0
 10
-33.43826772029458
 20
55.16133067590449
 30
0.0
 10
-32.302581999374596
 20
59.32186748177118
 30
0.0
 10
-30.402114776894837
 20
63.13064183527012
 30
0.0
 10
-26.239373145729623
 20
62.241754974215674
 30
0.0
 10
-22.278446021825886
 20
60.535617556304544
 30
0.0
 10
-18.726477900215226
 20
58.08952454238733
 30
0.0
 10
-15.71996892384449
 20
54.99747791520411
 30
0.0
 10
-13.374457546605953
 20
51.37830329259779
 30
0.0
 10
-11.932790511655114
 20
47.75489658945397
 30
0.0
 10
-11.911799131544257
 20
47.456044403886615
 30
0.0
 10
-11.55422564655119
 20
46.146089001867004
 30
0.0
 10
-10.998108667553522
 20
43.129813822755416
 30
0.0
 10
-11.058592920489803
 20
38.81748380003919
 30
0.0
 10
-11.959208838237426
 20
34.59981388190044
 30
0.0
 10
-13.66534625614856
 20
30.638886757996694
 30
0.0
 10
-14.306532583670936
 20
29.70782102075198
 30
0.0
 10
-15.4342422255976
 20
29.787031355799098
 30
0.0
 10
-19.594779031464284
 20
30.922717076719085
 30
0.0
 10
-23.4538109962308
 20
32.84826138017804
 30
0.0
 10
-26.863037685661233
 20
35.4896666784517
 30
0.0
 10
-28.87452331543185
 20
37.80507325434257
 30
0.0
  0
LWPOLYLINE
  8
OpenJsCad
  90
13
  70
1
 10
-11.91489941233105
 20
29.671448983786213
 30
0.0
 10
-10.053658592791631
 20
33.992460391681206
 30
0.0
 10
-9.07116850070332
 20
38.59355484783258
 30
0.0
 10
-9.055974775393782
 20
39.67681792257451
 30
0.0
 10
-8.57227546858542
 20
38.70742392683221
 30
0.0
 10
-5.690742415923248
 20
34.98826753836264
 30
0.0
 10
-2.139005795421939
 20
31.902732908178045
 30
0.0
 10
-2.0066397233342457
 20
31.827134185741528
 30
0.0
 10
-2.763331660301483
 20
31.394961931851267
 30
0.0
 10
-6.853644765854485
 20
30.027779695200163
 30
0.0
 10
-11.132087674824287
 20
29.48484798277312
 30
0.0
 10
-12.001356066085282
 20
29.545905402128007
 30
0.0
 10
-11.91489941233105
 20
29.671448983786213
 30
0.0
  0
LWPOLYLINE
  8
OpenJsCad
  90
19
  70
1
 10
-14.15630595890843
 20
56.24445751892158
 30
0.0
 10
-17.43613393313105
 20
59.61759929403055
 30
0.0
 10
-21.311008247615398
 20
62.28606440012206
 30
0.0
 10
-25.632019655510383
 20
64.14730521966148
 30
0.0
 10
-29.06098849783718
 20
64.87950664385991
 30
0.0
 10
-27.735632397641993
 20
66.59012613596812
 30
0.0
 10
-24.479873828849122
 20
69.418532880304
 30
0.0
 10
-20.734878965485308
 20
71.5574255945493
 30
0.0
 10
-16.64456585993231
 20
72.9246078312004
 30
0.0
 10
-12.3661229509625
 20
73.46753954362745
 30
0.0
 10
-8.063968400189179
 20
73.16535617060147
 30
0.0
 10
-3.903431594322509
 20
72.02967044968148
 30
0.0
 10
-1.9671170277188317
 20
71.06350600287988
 30
0.0
 10
-4.738820911944236
 20
68.91604149201694
 30
0.0
 10
-7.82435554212884
 20
65.36430487151563
 30
0.0
 10
-10.15769304857825
 20
61.27885592966419
 30
0.0
 10
-11.649164579470366
 20
56.81669617815183
 30
0.0
 10
-12.120424188948288
 20
53.10304805573601
 30
0.0
 10
-14.15630595890843
 20
56.24445751892158
 30
0.0
  0
LWPOLYLINE
  8
OpenJsCad
  90
9
  70
1
 10
-34.9374741364431
 20
65.19577813313482
 30
0.0
 10
-39.564313812337524
 20
64.34271800099435
 30
0.0
 10
-41.54221409550639
 20
63.555758691626615
 30
0.0
 10
-29.083940859746814
 20
70.21484447085778
 30
0.0
 10
-24.850239160262532
 20
71.49912384077912
 30
0.0
 10
-25.63721642120873
 20
71.04965461822253
 30
0.0
 10
-29.188953041710043
 20
67.96411998803794
 30
0.0
 10
-31.372552700879197
 20
65.14577694846882
 30
0.0
 10
-34.9374741364431
 20
65.19577813313482
 30
0.0
  0
LWPOLYLINE
  8
OpenJsCad
  90
27
  70
1
 10
-9.61204004151937
 20
46.589380192269985
 30
0.0
 10
-9.858245811458755
 20
47.92475454850834
 30
0.0
 10
-9.969000335201994
 20
48.20311888230088
 30
0.0
 10
-10.24224046753376
 20
52.0932114012694
 30
0.0
 10
-9.699308755106717
 20
56.3716543102392
 30
0.0
 10
-8.332126518455611
 20
60.4619674157922
 30
0.0
 10
-6.193233804210321
 20
64.20696227915602
 30
0.0
 10
-3.3648270598744308
 20
67.46272084794889
 30
0.0
 10
7.549516567451064e-15
 20
70.06972614075673
 30
0.0
 10
3.364827059874445
 20
67.46272084794887
 30
0.0
 10
6.1932338042103225
 20
64.20696227915602
 30
0.0
 10
8.332126518455622
 20
60.4619674157922
 30
0.0
 10
9.699308755106722
 20
56.3716543102392
 30
0.0
 10
10.242240467533767
 20
52.09321140126939
 30
0.0
 10
9.969000335202002
 20
48.203118882300934
 30
0.0
 10
9.858245811458747
 20
47.92475454850836
 30
0.0
 10
9.612040041519311
 20
46.58938019226974
 30
0.0
 10
8.804371373587799
 20
43.6305200446294
 30
0.0
 10
6.878827070128853
 20
39.77148807986288
 30
0.0
 10
4.237421771855192
 20
36.362261390432444
 30
0.0
 10
0.981663203062328
 20
33.53385464609656
 30
0.0
 10
1.2434497875801753e-14
 20
32.973193724124904
 30
0.0
 10
-0.9816632030623254
 20
33.533854646096565
 30
0.0
 10
-4.237421771855195
 20
36.36226139043245
 30
0.0
 10
-6.878827070128848
 20
39.771488079862884
 30
0.0
 10
-8.804371373587793
 20
43.63052004462941
 30
0.0
 10
-9.61204004151937
 20
46.589380192269985
 30
0.0
  0
LWPOLYLINE
  8
OpenJsCad
  90
13
  70
1
 10
2.139005795421939
 20
31.902732908178038
 30
0.0
 10
5.690742415923247
 20
34.98826753836264
 30
0.0
 10
8.57227546858542
 20
38.707423926832206
 30
0.0
 10
9.055974775393771
 20
39.67681792257448
 30
0.0
 10
9.07116850070331
 20
38.593554847832586
 30
0.0
 10
10.053658592791617
 20
33.99246039168121
 30
0.0
 10
11.91489941233104
 20
29.67144898378622
 30
0.0
 10
12.00135606608531
 20
29.545905402128014
 30
0.0
 10
11.132087674824284
 20
29.484847982773122
 30
0.0
 10
6.853644765854481
 20
30.027779695200163
 30
0.0
 10
2.7633316603014793
 20
31.39496193185127
 30
0.0
 10
2.006639723334267
 20
31.82713418574152
 30
0.0
 10
2.139005795421939
 20
31.902732908178038
 30
0.0
  0
LWPOLYLINE
  8
OpenJsCad
  90
19
  70
1
 10
11.649164579470371
 20
56.81669617815183
 30
0.0
 10
10.157693048578258
 20
61.27885592966419
 30
0.0
 10
7.8243555421288455
 20
65.36430487151563
 30
0.0
 10
4.738820911944252
 20
68.91604149201693
 30
0.0
 10
1.9671170277188328
 20
71.06350600287989
 30
0.0
 10
3.903431594322516
 20
72.02967044968148
 30
0.0
 10
8.063968400189202
 20
73.16535617060147
 30
0.0
 10
12.366122950962518
 20
73.46753954362745
 30
0.0
 10
16.64456585993232
 20
72.9246078312004
 30
0.0
 10
20.73487896548533
 20
71.5574255945493
 30
0.0
 10
24.479873828849144
 20
69.418532880304
 30
0.0
 10
27.735632397642
 20
66.59012613596812
 30
0.0
 10
29.06098849783715
 20
64.87950664385993
 30
0.0
 10
25.632019655510387
 20
64.14730521966149
 30
0.0
 10
21.31100824761538
 20
62.286064400122065
 30
0.0
 10
17.43613393313103
 20
59.61759929403055
 30
0.0
 10
14.156305958908419
 20
56.24445751892158
 30
0.0
 10
12.120424188948288
 20
53.103048055736025
 30
0.0
 10
11.649164579470371
 20
56.81669617815183
 30
0.0
  0
LWPOLYLINE
  8
OpenJsCad
  90
9
  70
1
 10
-3.1901885289978846
 20
73.89816833027069
 30
0.0
 10
-7.7289559535797085
 20
75.13709820763795
 30
0.0
 10
-8.331487946737575
 20
75.1794200600725
 30
0.0
 10
0
 20
76
 30
0.0
 10
8.331487946737653
 20
75.17942006007252
 30
0.0
 10
7.728955953579732
 20
75.13709820763795
 30
0.0
 10
3.1901885289978917
 20
73.89816833027069
 30
0.0
 10
3.552713678800501e-15
 20
72.30635737740556
 30
0.0
 10
-3.1901885289978846
 20
73.89816833027069
 30
0.0
  0
LWPOLYLINE
  8
OpenJsCad
  90
27
  70
1
 10
11.554225646551123
 20
46.14608900186673
 30
0.0
 10
11.911799131544262
 20
47.456044403886594
 30
0.0
 10
11.932790511655124
 20
47.75489658945405
 30
0.0
 10
13.374457546605942
 20
51.3783032925978
 30
0.0
 10
15.719968923844476
 20
54.99747791520411
 30
0.0
 10
18.726477900215208
 20
58.08952454238733
 30
0.0
 10
22.278446021825854
 20
60.53561755630455
 30
0.0
 10
26.239373145729616
 20
62.241754974215695
 30
0.0
 10
30.402114776894845
 20
63.130641835270126
 30
0.0
 10
32.3025819993746
 20
59.321867481771164
 30
0.0
 10
33.43826772029459
 20
55.161330675904495
 30
0.0
 10
33.740451093320566
 20
50.85917612513117
 30
0.0
 10
33.197519380893524
 20
46.58073321616137
 30
0.0
 10
31.830337144242414
 20
42.49042011060836
 30
0.0
 10
29.8963084039067
 20
39.10412230805079
 30
0.0
 10
29.675744268051755
 20
38.901379296255165
 30
0.0
 10
28.874523315431865
 20
37.805073254342574
 30
0.0
 10
26.863037685661237
 20
35.48966667845169
 30
0.0
 10
23.453810996230803
 20
32.84826138017803
 30
0.0
 10
19.59477903146428
 20
30.92271707671909
 30
0.0
 10
15.434242225597602
 20
29.787031355799098
 30
0.0
 10
14.306532583670911
 20
29.70782102075197
 30
0.0
 10
13.665346256148549
 20
30.638886757996698
 30
0.0
 10
11.959208838237412
 20
34.599813881900445
 30
0.0
 10
11.058592920489797
 20
38.8174838000392
 30
0.0
 10
10.998108667553515
 20
43.12981382275542
 30
0.0
 10
11.554225646551123
 20
46.14608900186673
 30
0.0
  0
LWPOLYLINE
  8
OpenJsCad
  90
13
  70
1
 10
15.769254672207074
 20
27.815289318762623
 30
0.0
 10
20.308022096788907
 20
29.054219196129885
 30
0.0
 10
24.517875149261478
 20
31.154812981721463
 30
0.0
 10
25.374277457672555
 20
31.818337528770208
 30
0.0
 10
24.91795629784691
 20
30.83575891233108
 30
0.0
 10
23.80680921717303
 20
26.26402957425905
 30
0.0
 10
23.60891266482013
 20
21.563370691714468
 30
0.0
 10
23.632336099643666
 20
21.412747696872955
 30
0.0
 10
22.822660519855305
 20
21.734898282776783
 30
0.0
 10
19.20348589724899
 20
24.08040966001532
 30
0.0
 10
16.111439270065762
 20
27.086918636386052
 30
0.0
 10
15.6171959057263
 20
27.80460870968383
 30
0.0
 10
15.769254672207074
 20
27.815289318762623
 30
0.0
  0
LWPOLYLINE
  8
OpenJsCad
  90
19
  70
1
 10
35.14737520525717
 20
46.13569134824874
 30
0.0
 10
35.73966434608667
 20
50.80308361257943
 30
0.0
 10
35.41000975733106
 20
55.49634312251396
 30
0.0
 10
34.171079879963806
 20
60.03511054709578
 30
0.0
 10
32.605610900827976
 20
63.172506461322996
 30
0.0
 10
34.76937308658458
 20
63.20285514489959
 30
0.0
 10
39.01064278948782
 20
62.42088335710417
 30
0.0
 10
43.01786255642696
 20
60.82650626584716
 30
0.0
 10
46.63703717903327
 20
58.48099488860863
 30
0.0
 10
49.7290838062165
 20
55.47448591223789
 30
0.0
 10
52.17517682013373
 20
51.92251779062724
 30
0.0
 10
53.88131423804485
 20
47.961590666723495
 30
0.0
 10
54.33320884176196
 20
45.845325299092025
 30
0.0
 10
50.92612437409972
 20
46.67340843348177
 30
0.0
 10
46.22546549155513
 20
46.87130498583467
 30
0.0
 10
41.576520749234284
 20
46.148345956341345
 30
0.0
 10
37.15794648642633
 20
44.53231425506513
 30
0.0
 10
33.960673908975956
 20
42.58533812215248
 30
0.0
 10
35.14737520525717
 20
46.13569134824874
 30
0.0
  0
LWPOLYLINE
  8
OpenJsCad
  90
9
  70
1
 10
29.18895304171005
 20
67.96411998803794
 30
0.0
 10
25.637216421208755
 20
71.04965461822253
 30
0.0
 10
24.850239160262525
 20
71.49912384077913
 30
0.0
 10
29.083940859746825
 20
70.2148444708578
 30
0.0
 10
41.542214095506246
 20
63.55575869162668
 30
0.0
 10
39.564313812337524
 20
64.34271800099435
 30
0.0
 10
34.937474136443086
 20
65.19577813313484
 30
0.0
 10
31.372552700879165
 20
65.14577694846884
 30
0.0
 10
29.18895304171005
 20
67.96411998803794
 30
0.0
  0
LWPOLYLINE
  8
OpenJsCad
  90
27
  70
1
 10
30.432035242043856
 20
36.56299894000259
 30
0.0
 10
31.32256616791564
 20
37.588082654884936
 30
0.0
 10
31.47114585160729
 20
37.84823135169406
 30
0.0
 10
34.3421802166828
 20
40.48729210328854
 30
0.0
 10
38.02571396466145
 20
42.73037651926029
 30
0.0
 10
42.07607370556874
 20
44.21173891209682
 30
0.0
 10
46.33760638602951
 20
44.87445135579903
 30
0.0
 10
50.646543695028726
 20
44.69304618280887
 30
0.0
 10
54.78271786475669
 20
43.68775966779612
 30
0.0
 10
54.84241440872876
 20
39.43159072586852
 30
0.0
 10
54.06044262093332
 20
35.19032102296529
 30
0.0
 10
52.46606552967633
 20
31.183101256026138
 30
0.0
 10
50.12055415243779
 20
27.563926633419833
 30
0.0
 10
47.11404517606705
 20
24.471880006236603
 30
0.0
 10
43.90228593905679
 20
22.26007473010354
 30
0.0
 10
43.615597623237846
 20
22.17310878027088
 30
0.0
 10
42.41805312393402
 20
21.53300790959637
 30
0.0
 10
39.60114993055265
 20
20.319649574408253
 30
0.0
 10
35.3834800124139
 20
19.41903365666063
 30
0.0
 10
31.07114998969768
 20
19.358549403724354
 30
0.0
 10
26.82988028679444
 20
20.140521191519785
 30
0.0
 10
25.779480931038094
 20
20.558450021704225
 30
0.0
 10
25.605766294855766
 20
21.675511586188847
 30
0.0
 10
25.787171467845923
 20
25.984448895188056
 30
0.0
 10
26.805722958463647
 20
30.175200788420742
 30
0.0
 10
28.62227840413474
 20
34.086719020830714
 30
0.0
 10
30.432035242043856
 20
36.56299894000259
 30
0.0
  0
LWPOLYLINE
  8
OpenJsCad
  90
13
  70
1
 10
26.276209263944743
 20
18.21868654762958
 30
0.0
 10
30.90304893983918
 20
17.36562641548911
 30
0.0
 10
35.60740896462052
 20
17.43160923687415
 30
0.0
 10
36.66689329436844
 20
17.65784516109181
 30
0.0
 10
35.82943725152286
 20
16.970562748477143
 30
0.0
 10
32.844729304738905
 20
13.333685592470452
 30
0.0
 10
30.626891219729117
 20
9.184402376762158
 30
0.0
 10
30.58264213708555
 20
9.038532700135514
 30
0.0
 10
29.99292554736625
 20
9.68008541684214
 30
0.0
 10
27.749841131394508
 20
13.363619164820792
 30
0.0
 10
26.268478738557974
 20
17.413978905728083
 30
0.0
 10
26.134574906650748
 20
18.275039477525638
 30
0.0
 10
26.276209263944743
 20
18.21868654762958
 30
0.0
  0
LWPOLYLINE
  8
OpenJsCad
  90
19
  70
1
 10
51.68421711737385
 20
26.316947029702362
 30
0.0
 10
54.242956801634065
 20
30.265137527091063
 30
0.0
 10
55.98227726482352
 20
34.63665000011559
 30
0.0
 10
56.83533739696399
 20
39.26348967601002
 30
0.0
 10
56.786163653452675
 20
42.76941725515298
 30
0.0
 10
58.74881382067137
 20
41.85793924652006
 30
0.0
 10
62.23078094019182
 20
39.31318905283671
 30
0.0
 10
65.14938690312921
 20
36.138037433971995
 30
0.0
 10
67.39247131910095
 20
32.454503685993345
 30
0.0
 10
68.8738337119375
 20
28.404143945086048
 30
0.0
 10
69.5365461556397
 20
24.142611264625273
 30
0.0
 10
69.35514098264953
 20
19.833673955626082
 30
0.0
 10
68.84407082149882
 20
17.730915022822224
 30
0.0
 10
66.13368559247046
 20
19.955270695261085
 30
0.0
 10
61.984402376762155
 20
22.17310878027088
 30
0.0
 10
57.482167728387076
 20
23.53884672967753
 30
0.0
 10
52.8
 20
24
 30
0.0
 10
49.074595660998305
 20
23.63307969857886
 30
0.0
 10
51.68421711737385
 20
26.316947029702362
 30
0.0
  0
LWPOLYLINE
  8
OpenJsCad
  90
10
  70
1
 10
55.786864483490646
 20
48.568944156942734
 30
0.0
 10
53.925623663951235
 20
52.88995556483772
 30
0.0
 10
52.82030969229765
 20
54.49498038169747
 30
0.0
 10
53.74011537017762
 20
53.74011537017759
 30
0.0
 10
63.19169053499343
 20
42.22333770948977
 30
0.0
 10
64.48727415777225
 20
39.79947123480124
 30
0.0
 10
63.56347409609583
 20
40.80447338260304
 30
0.0
 10
59.76496451116444
 20
43.580564502984885
 30
0.0
 10
56.53138658024015
 20
45.08227643436537
 30
0.0
 10
55.786864483490646
 20
48.568944156942734
 30
0.0
  0
LWPOLYLINE
  8
OpenJsCad
  90
9
  70
1
 10
71.33550323332243
 20
19.554093276555086
 30
0.0
 10
71.53339978567534
 20
24.25475215909966
 30
0.0
 10
71.37943918070445
 20
25.24478660891571
 30
0.0
 10
74.53968131064549
 20
14.826864473225752
 30
0.0
 10
75.15421850535495
 20
8.587363625817694
 30
0.0
 10
74.97310878027088
 20
9.18440237676215
 30
0.0
 10
72.75527069526109
 20
13.333685592470452
 30
0.0
 10
70.4934860354268
 20
16.08967817459934
 30
0.0
 10
71.33550323332243
 20
19.554093276555086
 30
0.0
  0
LWPOLYLINE
  8
OpenJsCad
  90
33
  70
1
 10
80
 20
0
 30
0.0
 10
78.46282243225843
 20
15.607225761290266
 30
0.0
 10
73.91036260090294
 20
30.614674589207183
 30
0.0
 10
66.51756898420362
 20
44.445618641568174
 30
0.0
 10
56.568542494923804
 20
56.568542494923804
 30
0.0
 10
44.44561864156819
 20
66.51756898420362
 30
0.0
 10
30.614674589207183
 20
73.91036260090294
 30
0.0
 10
15.607225761290266
 20
78.46282243225843
 30
0.0
 10
0
 20
80
 30
0.0
 10
-15.607225761290252
 20
78.46282243225843
 30
0.0
 10
-30.614674589207176
 20
73.91036260090294
 30
0.0
 10
-44.44561864156816
 20
66.51756898420362
 30
0.0
 10
-56.5685424949238
 20
56.568542494923804
 30
0.0
 10
-66.51756898420362
 20
44.445618641568174
 30
0.0
 10
-73.91036260090294
 20
30.614674589207198
 30
0.0
 10
-78.46282243225843
 20
15.607225761290294
 30
0.0
 10
-80
 20
1.4210854715202004e-14
 30
0.0
 10
-78.46282243225843
 20
-15.607225761290266
 30
0.0
 10
-73.91036260090294
 20
-30.61467458920717
 30
0.0
 10
-66.51756898420363
 20
-44.44561864156816
 30
0.0
 10
-56.56854249492382
 20
-56.5685424949238
 30
0.0
 10
-44.445618641568174
 20
-66.51756898420362
 30
0.0
 10
-30.614674589207226
 20
-73.91036260090291
 30
0.0
 10
-15.607225761290294
 20
-78.46282243225842
 30
0.0
 10
-1.4210854715202004e-14
 20
-80
 30
0.0
 10
15.607225761290266
 20
-78.46282243225843
 30
0.0
 10
30.614674589207198
 20
-73.91036260090293
 30
0.0
 10
44.445618641568146
 20
-66.51756898420363
 30
0.0
 10
56.568542494923804
 20
-56.56854249492382
 30
0.0
 10
66.51756898420362
 20
-44.445618641568174
 30
0.0
 10
73.91036260090291
 20
-30.614674589207233
 30
0.0
 10
78.4628224322584
 20
-15.607225761290294
 30
0.0
 10
80
 20
0
 30
0.0
  0
ENDSEC
  0
EOF
