<?xml version="1.0" encoding="UTF-8" standalone="no"?>
<!-- Created with Inkscape (http://www.inkscape.org/) -->

<svg
   xmlns:dc="http://purl.org/dc/elements/1.1/"
   xmlns:cc="http://creativecommons.org/ns#"
   xmlns:rdf="http://www.w3.org/1999/02/22-rdf-syntax-ns#"
   xmlns:svg="http://www.w3.org/2000/svg"
   xmlns="http://www.w3.org/2000/svg"
   xmlns:sodipodi="http://sodipodi.sourceforge.net/DTD/sodipodi-0.dtd"
   xmlns:inkscape="http://www.inkscape.org/namespaces/inkscape"
   width="210mm"
   height="297mm"
   viewBox="0 0 744.09448819 1052.3622047"
   id="svg2"
   version="1.1"
   inkscape:version="0.91 r13725"
   sodipodi:docname="rose_window.svg">
  <defs
     id="defs4">
    <marker
       style="overflow:visible"
       refY="0.0"
       refX="0.0"
       orient="auto"
       id="DistanceX">
      <path
         id="path3362"
         style="stroke:#000000; stroke-width:0.5"
         d="M 3,-3 L -3,3 M 0,-5 L  0,5" />
    </marker>
    <pattern
       y="0"
       x="0"
       width="8"
       patternUnits="userSpaceOnUse"
       id="Hatch"
       height="8">
      <path
         id="path3365"
         stroke-width="0.25"
         stroke="#000000"
         linecap="square"
         d="M8 4 l-4,4" />
      <path
         id="path3367"
         stroke-width="0.25"
         stroke="#000000"
         linecap="square"
         d="M6 2 l-4,4" />
      <path
         id="path3369"
         stroke-width="0.25"
         stroke="#000000"
         linecap="square"
         d="M4 0 l-4,4" />
    </pattern>
  </defs>
  <sodipodi:namedview
     id="base"
     pagecolor="#ffffff"
     bordercolor="#666666"
     borderopacity="1.0"
     inkscape:pageopacity="0.0"
     inkscape:pageshadow="2"
     inkscape:zoom="0.5"
     inkscape:cx="277.96745"
     inkscape:cy="647.02067"
     inkscape:document-units="px"
     inkscape:current-layer="layer1"
     showgrid="false"
     inkscape:window-width="1880"
     inkscape:window-height="1155"
     inkscape:window-x="0"
     inkscape:window-y="0"
     inkscape:window-maximized="1" />
  <metadata
     id="metadata7">
    <rdf:RDF>
      <cc:Work
         rdf:about="">
        <dc:format>image/svg+xml</dc:format>
        <dc:type
           rdf:resource="http://purl.org/dc/dcmitype/StillImage" />
        <dc:title></dc:title>
      </cc:Work>
    </rdf:RDF>
  </metadata>
  <g
     inkscape:label="Layer 1"
     inkscape:groupmode="layer"
     id="layer1">
    <g
       id="g3561"
       transform="matrix(4,0,0,4,367.61579,-3765.658)">
      <g
         id="g3371"
         inkscape:label="OpenJsCad">
        <path
           id="path3373"
           style="fill:none;stroke:#000000"
           d="m 44.478477,1074.3326 0.430509,-0.894 1.862668,0.1834 4.147589,-0.4085 3.9882,-1.2098 3.675546,-1.9646 2.400932,-1.9704 0.45272,1.8627 0.160693,3.817 -0.587048,3.775 -1.312231,3.5879 -1.986984,3.2629 -2.585379,2.8127 -3.08442,2.2542 -1.738568,0.8074 0.04356,-3.1056 -0.755663,-4.0986 -1.540737,-3.8724 -2.2666,-3.4974 -1.304786,-1.3419 0,0 z"
           inkscape:connector-curvature="0" />
        <path
           id="path3375"
           style="fill:none;stroke:#000000"
           d="m 37.498962,1071.4039 0.149147,0.072 0.987755,0.5279 0.253956,0.077 2.845063,1.9593 2.663246,2.739 2.077716,3.2059 1.412342,3.5497 0.692692,3.7571 -0.05288,3.7702 -3.663934,0.8905 -3.816972,0.1607 -3.774979,-0.5871 -3.587918,-1.3122 -3.262972,-1.987 -2.543239,-2.3377 -0.131616,-0.2305 -0.734526,-0.8455 -0.103213,-0.1294 -1.554249,-2.1267 -1.609153,-3.4649 -0.90226,-3.7123 -0.160694,-3.8169 0.153881,-0.9896 0.930472,-0.3702 3.75703,-0.6927 3.819978,0.054 3.736125,0.7978 2.419203,1.042 0,0 z"
           inkscape:connector-curvature="0" />
        <path
           id="path3377"
           style="fill:none;stroke:#000000"
           d="m 24.275813,1065.036 5.701358,2.7456 -2.602423,-0.036 -4.098578,0.7557 -0.125464,0.05 0.118616,-0.7627 1.006491,-2.752 0,0 z"
           inkscape:connector-curvature="0" />
        <path
           id="path3379"
           style="fill:none;stroke:#000000"
           d="m 15.481311,1060.8008 7.198297,3.4665 -1.125785,3.0782 -0.305115,1.962 -1.844941,0.734 -2.750449,1.7826 -4.974527,-6.2379 0.848691,-0.6965 2.203279,-2.6847 0.75055,-1.4042 0,0 z"
           inkscape:connector-curvature="0" />
        <path
           id="path3381"
           style="fill:none;stroke:#000000"
           d="m -23.4483,1042.0533 7.131098,3.4341 -0.05074,0.095 -1.008173,3.3235 -0.253172,2.5705 -7.969768,0 -0.321256,-3.2618 -0.576392,-1.9001 1.343738,-1.4618 1.704667,-2.7994 0,0 z"
           inkscape:connector-curvature="0" />
        <path
           id="path3383"
           style="fill:none;stroke:#000000"
           d="m -30.745862,1038.539 5.701358,2.7456 -1.524032,2.5027 -0.522387,0.5683 -0.0392,-0.1292 -1.964621,-3.6755 -1.651121,-2.0119 0,0 z"
           inkscape:connector-curvature="0" />
        <path
           id="path3385"
           style="fill:none;stroke:#000000"
           d="m -38.4168,1034.8448 0.149147,0.072 2.323057,1.2417 2.953173,2.4236 2.423606,2.9531 1.800902,3.3693 0.290696,0.9583 -0.677697,0.7373 -3.084419,2.2542 -3.464928,1.6091 -3.71228,0.9023 -2.631756,0.1108 -0.165541,0 -1.119013,-0.047 -0.262231,0.041 -3.413411,-0.5308 -3.587917,-1.3122 -3.262973,-1.987 -2.812634,-2.5854 -2.254208,-3.0844 -1.588197,-3.4198 2.914713,-2.392 3.36925,-1.8009 3.65585,-1.109 3.801957,-0.3745 3.801958,0.3745 3.305691,1.0027 0.218569,0.1506 1.028636,0.443 0,0 z"
           inkscape:connector-curvature="0" />
        <path
           id="path3387"
           style="fill:none;stroke:#000000"
           d="m -37.498962,1033.3205 -0.149147,-0.072 -0.987755,-0.5279 -0.253956,-0.077 -2.845063,-1.9592 -2.663246,-2.7391 -2.077716,-3.2059 -1.412342,-3.5497 -0.692692,-3.7571 0.05288,-3.7702 3.663934,-0.8905 3.816972,-0.1607 3.774979,0.5871 3.587918,1.3122 3.262972,1.987 2.543239,2.3377 0.131616,0.2305 0.734526,0.8455 0.103213,0.1294 1.554249,2.1267 1.609153,3.4649 0.90226,3.7123 0.160694,3.817 -0.153881,0.9895 -0.930472,0.3702 -3.75703,0.6927 -3.819978,-0.054 -3.736125,-0.7978 -2.419203,-1.042 0,0 z"
           inkscape:connector-curvature="0" />
        <path
           id="path3389"
           style="fill:none;stroke:#000000"
           d="m -24.275813,1039.6884 -5.701358,-2.7456 2.602423,0.036 4.098578,-0.7557 0.125464,-0.05 -0.118616,0.7627 -1.006491,2.752 0,0 z"
           inkscape:connector-curvature="0" />
        <path
           id="path3391"
           style="fill:none;stroke:#000000"
           d="m -15.481311,1043.9236 -7.198297,-3.4665 1.125785,-3.0781 0.305115,-1.9621 1.844941,-0.734 2.750449,-1.7825 4.974527,6.2378 -0.848691,0.6965 -2.203279,2.6847 -0.75055,1.4042 0,0 z"
           inkscape:connector-curvature="0" />
        <path
           id="path3393"
           style="fill:none;stroke:#000000"
           d="m 23.4483,1062.6711 -7.131098,-3.4341 0.05074,-0.095 1.008173,-3.3235 0.253172,-2.5705 7.969768,0 0.321256,3.2618 0.576392,1.9001 -1.343738,1.4619 -1.704667,2.7993 0,0 z"
           inkscape:connector-curvature="0" />
        <path
           id="path3395"
           style="fill:none;stroke:#000000"
           d="m 30.745862,1066.1854 -5.701358,-2.7456 1.524032,-2.5027 0.522387,-0.5683 0.0392,0.1292 1.964621,3.6755 1.651121,2.0119 0,0 z"
           inkscape:connector-curvature="0" />
        <path
           id="path3397"
           style="fill:none;stroke:#000000"
           d="m 38.4168,1069.8796 -0.149147,-0.072 -2.323057,-1.2417 -2.953173,-2.4236 -2.423606,-2.9531 -1.800902,-3.3693 -0.290696,-0.9583 0.677697,-0.7373 3.084419,-2.2542 3.464928,-1.6091 3.71228,-0.9023 2.631756,-0.1108 0.165541,0 1.119013,0.047 0.262231,-0.041 3.413411,0.5308 3.587917,1.3122 3.262973,1.987 2.812634,2.5854 2.254208,3.0844 1.588197,3.4198 -2.914713,2.392 -3.36925,1.8009 -3.65585,1.109 -3.801957,0.3745 -3.801958,-0.3745 -3.305691,-1.0027 -0.218569,-0.1506 -1.028636,-0.443 0,0 z"
           inkscape:connector-curvature="0" />
        <path
           id="path3399"
           style="fill:none;stroke:#000000"
           d="m 30.541146,1091.4553 0.775751,-0.6186 1.598607,0.9734 3.914091,1.4315 4.11816,0.6405 4.163969,-0.1753 3.018087,-0.7336 -0.4003,1.8747 -1.511343,3.5087 -2.166814,3.1464 -2.739018,2.6632 -3.205962,2.0778 -3.549702,1.4123 -3.75703,0.6927 -1.916719,-0.027 1.386734,-2.7792 1.097478,-4.0205 0.292016,-4.1575 -0.524665,-4.1345 -0.59334,-1.7751 0,0 z"
           inkscape:connector-curvature="0" />
        <path
           id="path3401"
           style="fill:none;stroke:#000000"
           d="m -25.523495,1018.936 -0.103213,-0.1294 -0.660861,-0.9043 -0.195381,-0.1796 -1.713215,-2.9996 -1.211086,-3.6234 -0.480944,-3.7899 0.267682,-3.811 1.006021,-3.68549 1.683485,-3.37392 3.687468,0.7874 3.508695,1.51134 3.146429,2.16677 2.663246,2.7391 2.077716,3.2059 1.277068,3.2097 0.01859,0.2648 0.294933,1.0804 0.03684,0.1614 0.477603,2.5905 -0.053579,3.8199 -0.797789,3.7362 -1.511343,3.5087 -0.56798,0.8247 -0.998955,-0.07 -3.685515,-1.0061 -3.418434,-1.7057 -3.019984,-2.3398 -1.727497,-1.9885 0,0 z"
           inkscape:connector-curvature="0" />
        <path
           id="path3403"
           style="fill:none;stroke:#000000"
           d="m -16.372792,1030.4106 -3.945462,-4.9474 2.328864,1.162 4.020562,1.0975 0.134698,0.01 -0.437814,0.6358 -2.100848,2.0427 0,0 z"
           inkscape:connector-curvature="0" />
        <path
           id="path3405"
           style="fill:none;stroke:#000000"
           d="m -10.30915,1038.0142 -4.959034,-6.2184 2.349849,-2.2849 1.126192,-1.6353 1.98073,0.1391 3.25147,-0.4126 1.777188,7.7864 -1.99707,0.6058 -3.062955,1.6371 -0.46637,0.3828 0,0 z"
           inkscape:connector-curvature="0" />
        <path
           id="path3407"
           style="fill:none;stroke:#000000"
           d="m 21.703389,1078.1566 -3.945463,-4.9474 2.458998,-1.5936 0.717232,-0.2854 -0.02075,0.1334 0.175302,4.164 0.61468,2.529 0,0 z"
           inkscape:connector-curvature="0" />
        <path
           id="path3409"
           style="fill:none;stroke:#000000"
           d="m 10.554767,1100.8352 0.967346,-0.2208 1.017922,1.5707 2.905359,2.988 3.432468,2.3638 3.827667,1.6487 3.037473,0.6486 -1.174036,1.5153 -2.884038,2.5055 -3.317417,1.8947 -3.623309,1.2111 -3.789959,0.4809 -3.810964,-0.2677 -3.685515,-1.006 -1.715239,-0.8558 2.455249,-1.9023 2.73325,-3.1462 2.066932,-3.619 1.321186,-3.9527 0.235625,-1.8568 0,0 z"
           inkscape:connector-curvature="0" />
        <path
           id="path3411"
           style="fill:none;stroke:#000000"
           d="m -11.522113,1100.6144 0.967346,0.2208 0.235625,1.8568 1.321186,3.9527 2.066932,3.619 2.73325,3.1462 2.455249,1.9023 -1.715239,0.8558 -3.685515,1.006 -3.810964,0.2677 -3.789959,-0.4809 -3.623309,-1.2111 -3.317417,-1.8947 -2.884038,-2.5055 -1.174036,-1.5153 3.037473,-0.6486 3.827667,-1.6487 3.432468,-2.3638 2.905359,-2.988 1.017922,-1.5707 0,0 z"
           inkscape:connector-curvature="0" />
        <path
           id="path3413"
           style="fill:none;stroke:#000000"
           d="m 26.908629,1020.0406 0.103213,-0.1294 0.734526,-0.8455 0.131616,-0.2305 2.543239,-2.3377 3.262972,-1.987 3.587918,-1.3122 3.774979,-0.5871 3.816972,0.1607 3.663934,0.8905 0.05288,3.7702 -0.692692,3.7571 -1.412342,3.5497 -2.077716,3.2059 -2.663246,2.7391 -2.845063,1.9592 -0.253956,0.077 -0.987755,0.5279 -0.149147,0.072 -2.419203,1.042 -3.736125,0.7978 -3.819978,0.054 -3.75703,-0.6927 -0.930472,-0.3702 -0.153881,-0.9895 0.160694,-3.817 0.90226,-3.7123 1.609153,-3.4649 1.554249,-2.1267 0,0 z"
           inkscape:connector-curvature="0" />
        <path
           id="path3415"
           style="fill:none;stroke:#000000"
           d="m 17.757926,1031.5152 3.945463,-4.9474 -0.61468,2.529 -0.175302,4.164 0.02075,0.1334 -0.717232,-0.2853 -2.458998,-1.5937 0,0 z"
           inkscape:connector-curvature="0" />
        <path
           id="path3417"
           style="fill:none;stroke:#000000"
           d="m 11.678791,1039.1382 4.974527,-6.2378 2.750449,1.7825 1.844941,0.734 0.305115,1.9621 1.125785,3.0781 -7.198297,3.4665 -0.75055,-1.4042 -2.203279,-2.6847 -0.848691,-0.6965 0,0 z"
           inkscape:connector-curvature="0" />
        <path
           id="path3419"
           style="fill:none;stroke:#000000"
           d="m -15.268184,1072.9287 4.959034,-6.2185 0.46637,0.3828 3.062955,1.6371 1.99707,0.6059 -1.777188,7.7863 -3.25147,-0.4126 -1.98073,0.1391 -1.126192,-1.6353 -2.349849,-2.2848 0,0 z"
           inkscape:connector-curvature="0" />
        <path
           id="path3421"
           style="fill:none;stroke:#000000"
           d="m -20.318254,1079.2612 3.945462,-4.9474 2.100848,2.0427 0.437814,0.6358 -0.134698,0.01 -4.020562,1.0975 -2.328864,1.162 0,0 z"
           inkscape:connector-curvature="0" />
        <path
           id="path3423"
           style="fill:none;stroke:#000000"
           d="m -25.626708,1085.9178 0.103213,-0.1294 1.727497,-1.9885 3.019984,-2.3398 3.418434,-1.7057 3.685515,-1.006 0.998955,-0.07 0.56798,0.8248 1.511343,3.5086 0.797789,3.7362 0.053579,3.8199 -0.477603,2.5905 -0.03684,0.1614 -0.294933,1.0804 -0.01859,0.2648 -1.277068,3.2097 -2.077716,3.2059 -2.663246,2.7391 -3.146429,2.1668 -3.508695,1.5113 -3.687468,0.7874 -1.683485,-3.3739 -1.006021,-3.6855 -0.267682,-3.811 0.480944,-3.7899 1.211086,-3.6233 1.713215,-2.9997 0.195381,-0.1796 0.660861,-0.9043 0,0 z"
           inkscape:connector-curvature="0" />
        <path
           id="path3425"
           style="fill:none;stroke:#000000"
           d="m -44.908986,1073.4386 0.430509,0.894 -1.304786,1.3419 -2.2666,3.4974 -1.540737,3.8724 -0.755663,4.0986 0.04356,3.1056 -1.738568,-0.8074 -3.08442,-2.2542 -2.585379,-2.8127 -1.986984,-3.2629 -1.312231,-3.5879 -0.587048,-3.775 0.160693,-3.817 0.45272,-1.8627 2.400932,1.9704 3.675546,1.9646 3.9882,1.2098 4.147589,0.4085 1.862668,-0.1834 0,0 z"
           inkscape:connector-curvature="0" />
        <path
           id="path3427"
           style="fill:none;stroke:#000000"
           d="m -38.267653,1069.8077 -0.149147,0.072 -1.028636,0.443 -0.218569,0.1506 -3.305691,1.0027 -3.801958,0.3745 -3.801957,-0.3745 -3.65585,-1.109 -3.36925,-1.8009 -2.914713,-2.392 1.588197,-3.4198 2.254208,-3.0844 2.812634,-2.5854 3.262973,-1.987 3.587917,-1.3122 3.413411,-0.5308 0.262231,0.041 1.119013,-0.047 0.165541,0 2.631756,0.1108 3.71228,0.9023 3.464928,1.6091 3.084419,2.2542 0.677697,0.7373 -0.290696,0.9583 -1.800902,3.3693 -2.423606,2.9531 -2.953173,2.4236 -2.323057,1.2417 0,0 z"
           inkscape:connector-curvature="0" />
        <path
           id="path3429"
           style="fill:none;stroke:#000000"
           d="m -25.044504,1063.4398 -5.701358,2.7456 1.651121,-2.0119 1.964621,-3.6755 0.0392,-0.1292 0.522387,0.5683 1.524032,2.5027 0,0 z"
           inkscape:connector-curvature="0" />
        <path
           id="path3431"
           style="fill:none;stroke:#000000"
           d="m -16.317202,1059.237 -7.131098,3.4341 -1.704667,-2.7993 -1.343738,-1.4619 0.576392,-1.9001 0.321256,-3.2618 7.969768,0 0.253172,2.5705 1.008173,3.3235 0.05074,0.095 0,0 z"
           inkscape:connector-curvature="0" />
        <path
           id="path3433"
           style="fill:none;stroke:#000000"
           d="m 29.977171,1036.9428 -5.701358,2.7456 -1.006491,-2.752 -0.118616,-0.7627 0.125464,0.05 4.098578,0.7557 2.602423,-0.036 0,0 z"
           inkscape:connector-curvature="0" />
        <path
           id="path3435"
           style="fill:none;stroke:#000000"
           d="m 38.267653,1034.9167 0.149147,-0.072 1.028636,-0.443 0.218569,-0.1506 3.305691,-1.0027 3.801958,-0.3745 3.801957,0.3745 3.65585,1.109 3.36925,1.8009 2.914713,2.392 -1.588197,3.4198 -2.254208,3.0844 -2.812634,2.5854 -3.262973,1.987 -3.587917,1.3122 -3.413411,0.5308 -0.262231,-0.041 -1.119013,0.047 -0.165541,0 -2.631756,-0.1108 -3.71228,-0.9023 -3.464928,-1.6091 -3.084419,-2.2542 -0.677697,-0.7373 0.290696,-0.9583 1.800902,-3.3693 2.423606,-2.9531 2.953173,-2.4236 2.323057,-1.2417 0,0 z"
           inkscape:connector-curvature="0" />
        <path
           id="path3437"
           style="fill:none;stroke:#000000"
           d="m 25.044504,1041.2846 5.701358,-2.7456 -1.651121,2.0119 -1.964621,3.6755 -0.0392,0.1292 -0.522387,-0.5683 -1.524032,-2.5027 0,0 z"
           inkscape:connector-curvature="0" />
        <path
           id="path3439"
           style="fill:none;stroke:#000000"
           d="m 16.317202,1045.4874 7.131098,-3.4341 1.704667,2.7994 1.343738,1.4618 -0.576392,1.9001 -0.321256,3.2618 -7.969768,0 -0.253172,-2.5705 -1.008173,-3.3235 -0.05074,-0.095 0,0 z"
           inkscape:connector-curvature="0" />
        <path
           id="path3441"
           style="fill:none;stroke:#000000"
           d="m -22.679608,1064.2673 7.198297,-3.4665 0.75055,1.4042 2.203279,2.6847 0.848691,0.6965 -4.974527,6.2379 -2.750449,-1.7826 -1.844941,-0.734 -0.305115,-1.962 -1.125785,-3.0782 0,0 z"
           inkscape:connector-curvature="0" />
        <path
           id="path3443"
           style="fill:none;stroke:#000000"
           d="m -29.977171,1067.7816 5.701358,-2.7456 1.006491,2.752 0.118616,0.7627 -0.125464,-0.05 -4.098578,-0.7557 -2.602423,0.036 0,0 z"
           inkscape:connector-curvature="0" />
        <path
           id="path3445"
           style="fill:none;stroke:#000000"
           d="m -37.648109,1071.4758 0.149147,-0.072 2.419203,-1.042 3.736125,-0.7978 3.819978,-0.054 3.75703,0.6927 0.930472,0.3702 0.153881,0.9896 -0.160694,3.8169 -0.90226,3.7123 -1.609153,3.4649 -1.554249,2.1267 -0.103213,0.1294 -0.734526,0.8455 -0.131616,0.2305 -2.543239,2.3377 -3.262972,1.987 -3.587918,1.3122 -3.774979,0.5871 -3.816972,-0.1607 -3.663934,-0.8905 -0.05288,-3.7702 0.692692,-3.7571 1.412342,-3.5497 2.077716,-3.2059 2.663246,-2.739 2.845063,-1.9593 0.253956,-0.077 0.987755,-0.5279 0,0 z"
           inkscape:connector-curvature="0" />
        <path
           id="path3447"
           style="fill:none;stroke:#000000"
           d="m -49.606299,1051.8661 0,0.9922 -1.757805,0.6429 -3.559606,2.1676 -3.068329,2.8204 -2.459136,3.3649 -1.308243,2.817 -1.216072,-1.4818 -1.800902,-3.3693 -1.10899,-3.6558 -0.374461,-3.802 0.374461,-3.802 1.10899,-3.6558 1.800902,-3.3693 1.216072,-1.4817 1.308243,2.8169 2.459136,3.3649 3.068329,2.8204 3.559606,2.1676 1.757805,0.6429 0,0 z"
           inkscape:connector-curvature="0" />
        <path
           id="path3449"
           style="fill:none;stroke:#000000"
           d="m -30.541146,1013.2691 -0.775751,0.6187 -1.598607,-0.9735 -3.914091,-1.4315 -4.11816,-0.6405 -4.163969,0.1753 -3.018087,0.7336 0.4003,-1.8747 1.511343,-3.5087 2.166814,-3.1464 2.739018,-2.6632 3.205962,-2.07774 3.549702,-1.41234 3.75703,-0.6927 1.916719,0.0269 -1.386734,2.77919 -1.097478,4.02059 -0.292016,4.1574 0.524665,4.1345 0.59334,1.7751 0,0 z"
           inkscape:connector-curvature="0" />
        <path
           id="path3451"
           style="fill:none;stroke:#000000"
           d="m -10.554767,1003.8892 -0.967346,0.2208 -1.017922,-1.5706 -2.905359,-2.98806 -3.432468,-2.3638 -3.827667,-1.64874 -3.037473,-0.6486 1.174036,-1.51531 2.884038,-2.50548 3.317417,-1.89469 3.623309,-1.21108 3.789959,-0.48095 3.810964,0.26768 3.685515,1.00602 1.715239,0.85586 -2.455249,1.90228 -2.73325,3.14622 -2.066932,3.619 -1.321186,3.95275 -0.235625,1.8567 0,0 z"
           inkscape:connector-curvature="0" />
        <path
           id="path3453"
           style="fill:none;stroke:#000000"
           d="m 11.522113,1004.11 -0.967346,-0.2208 -0.235625,-1.8567 -1.321186,-3.95275 -2.066932,-3.619 -2.73325,-3.14622 -2.455249,-1.90228 1.715239,-0.85586 3.685515,-1.00602 3.810964,-0.26768 3.789959,0.48095 3.623309,1.21108 3.317417,1.89469 2.884038,2.50548 1.174036,1.51531 -3.037473,0.6486 -3.827667,1.64874 -3.432468,2.3638 -2.905359,2.98806 -1.017922,1.5706 0,0 z"
           inkscape:connector-curvature="0" />
        <path
           id="path3455"
           style="fill:none;stroke:#000000"
           d="m 31.316897,1013.8878 -0.775751,-0.6187 0.59334,-1.7751 0.524665,-4.1345 -0.292016,-4.1574 -1.097478,-4.0206 -1.386734,-2.77919 1.916719,-0.0269 3.75703,0.6927 3.549702,1.41234 3.205962,2.07775 2.739018,2.6632 2.166814,3.1464 1.511343,3.5087 0.4003,1.8747 -3.018087,-0.7336 -4.163969,-0.1753 -4.11816,0.6405 -3.914091,1.4315 -1.598607,0.9735 0,0 z"
           inkscape:connector-curvature="0" />
        <path
           id="path3457"
           style="fill:none;stroke:#000000"
           d="m 44.908986,1031.2858 -0.430509,-0.8939 1.304786,-1.342 2.2666,-3.4974 1.540737,-3.8724 0.755663,-4.0985 -0.04356,-3.1057 1.738568,0.8074 3.08442,2.2542 2.585379,2.8127 1.986984,3.2629 1.312231,3.588 0.587048,3.7749 -0.160693,3.817 -0.45272,1.8627 -2.400932,-1.9704 -3.675546,-1.9646 -3.9882,-1.2098 -4.147589,-0.4085 -1.862668,0.1834 0,0 z"
           inkscape:connector-curvature="0" />
        <path
           id="path3459"
           style="fill:none;stroke:#000000"
           d="m 49.606299,1052.8583 0,-0.9922 1.757805,-0.6429 3.559606,-2.1676 3.068329,-2.8204 2.459136,-3.3649 1.308243,-2.8169 1.216072,1.4817 1.800902,3.3693 1.10899,3.6558 0.374461,3.802 -0.374461,3.802 -1.10899,3.6558 -1.800902,3.3693 -1.216072,1.4818 -1.308243,-2.817 -2.459136,-3.3649 -3.068329,-2.8204 -3.559606,-2.1676 -1.757805,-0.6429 0,0 z"
           inkscape:connector-curvature="0" />
        <path
           id="path3461"
           style="fill:none;stroke:#000000"
           d="m -33.698741,1053.248 6.32803,0 -0.287214,2.9162 -0.224076,0.7386 -0.09138,-0.099 -3.364822,-2.4591 -2.360539,-1.0963 0,0 z"
           inkscape:connector-curvature="0" />
        <path
           id="path3463"
           style="fill:none;stroke:#000000"
           d="m 27.370711,1053.248 6.32803,0 -2.360539,1.0963 -3.364822,2.4591 -0.09138,0.099 -0.224076,-0.7386 -0.287214,-2.9162 0,0 z"
           inkscape:connector-curvature="0" />
        <path
           id="path3465"
           style="fill:none;stroke:#000000"
           d="m 25.523495,1085.7884 0.103213,0.1294 0.660861,0.9043 0.195381,0.1796 1.713215,2.9997 1.211086,3.6233 0.480944,3.7899 -0.267682,3.811 -1.006021,3.6855 -1.683485,3.3739 -3.687468,-0.7874 -3.508695,-1.5113 -3.146429,-2.1668 -2.663246,-2.7391 -2.077716,-3.2059 -1.277068,-3.2097 -0.01859,-0.2648 -0.294933,-1.0804 -0.03684,-0.1614 -0.477603,-2.5905 0.053579,-3.8199 0.797789,-3.7362 1.511343,-3.5086 0.56798,-0.8248 0.998955,0.07 3.685515,1.006 3.418434,1.7057 3.019984,2.3398 1.727497,1.9885 0,0 z"
           inkscape:connector-curvature="0" />
        <path
           id="path3467"
           style="fill:none;stroke:#000000"
           d="m 16.372792,1074.3138 3.945462,4.9474 -2.328864,-1.162 -4.020562,-1.0975 -0.134698,-0.01 0.437814,-0.6358 2.100848,-2.0427 0,0 z"
           inkscape:connector-curvature="0" />
        <path
           id="path3469"
           style="fill:none;stroke:#000000"
           d="m 10.30915,1066.7102 4.959034,6.2185 -2.349849,2.2848 -1.126192,1.6353 -1.98073,-0.1391 -3.25147,0.4126 -1.777188,-7.7863 1.99707,-0.6059 3.062955,-1.6371 0.46637,-0.3828 0,0 z"
           inkscape:connector-curvature="0" />
        <path
           id="path3471"
           style="fill:none;stroke:#000000"
           d="m -21.703389,1026.5678 3.945463,4.9474 -2.458998,1.5937 -0.717232,0.2853 0.02075,-0.1334 -0.175302,-4.164 -0.61468,-2.529 0,0 z"
           inkscape:connector-curvature="0" />
        <path
           id="path3473"
           style="fill:none;stroke:#000000"
           d="m 8.492787,1093.5524 0.036836,0.1614 0.203075,1.1014 0.098109,0.2466 0.242044,3.446 -0.480944,3.7899 -1.211086,3.6233 -1.894689,3.3175 -2.505478,2.884 L 0,1114.4318 l -2.980654,-2.3093 -2.505478,-2.884 -1.894689,-3.3175 -1.211086,-3.6233 -0.480944,-3.7899 0.242044,-3.446 0.098109,-0.2466 0.203075,-1.1014 0.036836,-0.1614 0.693639,-2.5411 1.705699,-3.4184 2.339827,-3.02 2.884038,-2.5055 L 0,1081.5707 l 0.869584,0.4967 2.884038,2.5055 2.339827,3.02 1.705699,3.4184 0.693639,2.5411 0,0 z"
           inkscape:connector-curvature="0" />
        <path
           id="path3475"
           style="fill:none;stroke:#000000"
           d="m 5.226939,1079.2438 1.408119,6.1694 -1.594046,-2.0575 -3.146223,-2.7332 -0.117254,-0.067 0.670298,-0.3828 2.779106,-0.9289 0,0 z"
           inkscape:connector-curvature="0" />
        <path
           id="path3477"
           style="fill:none;stroke:#000000"
           d="m 3.066149,1069.7768 1.76656,7.7398 -3.108498,1.039 L 0,1079.5403 l -1.724211,-0.9847 -3.108498,-1.039 1.76656,-7.7398 3.066149,0.3019 3.066149,-0.3019 0,0 z"
           inkscape:connector-curvature="0" />
        <path
           id="path3479"
           style="fill:none;stroke:#000000"
           d="m -8.362293,1019.7055 1.40812,6.1694 -2.906928,0.3688 -0.770021,-0.054 0.07658,-0.1113 1.648737,-3.8276 0.543507,-2.5453 0,0 z"
           inkscape:connector-curvature="0" />
        <path
           id="path3481"
           style="fill:none;stroke:#000000"
           d="m -8.492787,1011.172 -0.036836,-0.1614 -0.203075,-1.1014 -0.098109,-0.2466 -0.242044,-3.446 0.480944,-3.7899 1.211086,-3.62333 1.894689,-3.31741 2.505478,-2.88404 L 0,990.29256 l 2.980654,2.30936 2.505478,2.88404 1.894689,3.31741 1.211086,3.62333 0.480944,3.7899 -0.242044,3.446 -0.098109,0.2466 -0.203075,1.1014 -0.036836,0.1614 -0.693639,2.5411 -1.705699,3.4185 -2.339827,3.0199 -2.884038,2.5055 L 0,1023.1537 l -0.869584,-0.4967 -2.884038,-2.5055 -2.339827,-3.0199 -1.705699,-3.4185 -0.693639,-2.5411 0,0 z"
           inkscape:connector-curvature="0" />
        <path
           id="path3483"
           style="fill:none;stroke:#000000"
           d="m -5.226939,1025.4806 -1.408119,-6.1694 1.594046,2.0575 3.146223,2.7332 0.117254,0.067 -0.670298,0.3828 -2.779106,0.9289 0,0 z"
           inkscape:connector-curvature="0" />
        <path
           id="path3485"
           style="fill:none;stroke:#000000"
           d="m -3.066149,1034.9477 -1.76656,-7.7398 3.108498,-1.0391 L 0,1025.1841 l 1.724211,0.9847 3.108498,1.0391 -1.76656,7.7398 L 0,1034.6457 l -3.066149,0.302 0,0 z"
           inkscape:connector-curvature="0" />
        <path
           id="path3487"
           style="fill:none;stroke:#000000"
           d="m 8.362293,1085.0189 -1.40812,-6.1693 2.906928,-0.3689 0.770021,0.054 -0.07658,0.1112 -1.648737,3.8276 -0.543507,2.5453 0,0 z"
           inkscape:connector-curvature="0" />
        <path
           id="path3489"
           style="fill:none;stroke:#000000"
           d="m -6.954173,1078.8496 -1.40812,6.1693 -0.543507,-2.5453 -1.648737,-3.8276 -0.07658,-0.1112 0.770021,-0.054 2.906928,0.3689 0,0 z"
           inkscape:connector-curvature="0" />
        <path
           id="path3491"
           style="fill:none;stroke:#000000"
           d="m 6.635058,1019.3112 -1.408119,6.1694 -2.779106,-0.9289 -0.670298,-0.3828 0.117254,-0.067 3.146223,-2.7332 1.594046,-2.0575 0,0 z"
           inkscape:connector-curvature="0" />
        <path
           id="path3493"
           style="fill:none;stroke:#000000"
           d="m 10.220022,1011.5662 0.03684,-0.1614 0.294933,-1.0804 0.01859,-0.2648 1.277068,-3.2097 2.077716,-3.2059 2.663246,-2.7391 3.146429,-2.16677 3.508695,-1.51134 3.687468,-0.7874 1.683485,3.37392 1.006021,3.68549 0.267682,3.811 -0.480944,3.7899 -1.211086,3.6234 -1.713215,2.9996 -0.195381,0.1796 -0.660861,0.9043 -0.103213,0.1294 -1.727497,1.9885 -3.019984,2.3398 -3.418434,1.7057 -3.685515,1.0061 -0.998955,0.07 -0.56798,-0.8247 -1.511343,-3.5087 -0.797789,-3.7362 -0.053579,-3.8199 0.477603,-2.5905 0,0 z"
           inkscape:connector-curvature="0" />
        <path
           id="path3495"
           style="fill:none;stroke:#000000"
           d="m 6.954173,1025.8749 1.40812,-6.1694 0.543507,2.5453 1.648737,3.8276 0.07658,0.1113 -0.770021,0.054 -2.906928,-0.3688 0,0 z"
           inkscape:connector-curvature="0" />
        <path
           id="path3497"
           style="fill:none;stroke:#000000"
           d="m 4.782755,1035.3885 1.777188,-7.7864 3.25147,0.4126 1.98073,-0.1391 1.126192,1.6353 2.349849,2.2849 -4.959034,6.2184 -0.46637,-0.3828 -3.062955,-1.6371 -1.99707,-0.6058 0,0 z"
           inkscape:connector-curvature="0" />
        <path
           id="path3499"
           style="fill:none;stroke:#000000"
           d="m -6.635058,1085.4132 1.408119,-6.1694 2.779106,0.9289 0.670298,0.3828 -0.117254,0.067 -3.146223,2.7332 -1.594046,2.0575 0,0 z"
           inkscape:connector-curvature="0" />
        <path
           id="path3501"
           style="fill:none;stroke:#000000"
           d="m -31.316897,1090.8367 0.775751,0.6186 -0.59334,1.7751 -0.524665,4.1345 0.292016,4.1575 1.097478,4.0205 1.386734,2.7792 -1.916719,0.027 -3.75703,-0.6927 -3.549702,-1.4123 -3.205962,-2.0778 -2.739018,-2.6632 -2.166814,-3.1464 -1.511343,-3.5087 -0.4003,-1.8747 3.018087,0.7336 4.163969,0.1753 4.11816,-0.6405 3.914091,-1.4315 1.598607,-0.9734 0,0 z"
           inkscape:connector-curvature="0" />
        <path
           id="path3503"
           style="fill:none;stroke:#000000"
           d="m -17.757926,1073.2092 -3.945463,4.9474 0.61468,-2.529 0.175302,-4.164 -0.02075,-0.1334 0.717232,0.2854 2.458998,1.5936 0,0 z"
           inkscape:connector-curvature="0" />
        <path
           id="path3505"
           style="fill:none;stroke:#000000"
           d="m 20.318254,1025.4632 -3.945462,4.9474 -2.100848,-2.0427 -0.437814,-0.6358 0.134698,-0.01 4.020562,-1.0975 2.328864,-1.162 0,0 z"
           inkscape:connector-curvature="0" />
        <path
           id="path3507"
           style="fill:none;stroke:#000000"
           d="m -44.478477,1030.3919 -0.430509,0.8939 -1.862668,-0.1834 -4.147589,0.4085 -3.9882,1.2098 -3.675546,1.9646 -2.400932,1.9704 -0.45272,-1.8627 -0.160693,-3.817 0.587048,-3.7749 1.312231,-3.588 1.986984,-3.2629 2.585379,-2.8127 3.08442,-2.2542 1.738568,-0.8074 -0.04356,3.1057 0.755663,4.0985 1.540737,3.8724 2.2666,3.4974 1.304786,1.342 0,0 z"
           inkscape:connector-curvature="0" />
        <path
           id="path3509"
           style="fill:none;stroke:#000000"
           d="m -27.370711,1051.4764 -6.32803,0 2.360539,-1.0963 3.364822,-2.4591 0.09138,-0.099 0.224076,0.7386 0.287214,2.9162 0,0 z"
           inkscape:connector-curvature="0" />
        <path
           id="path3511"
           style="fill:none;stroke:#000000"
           d="m 33.698741,1051.4764 -6.32803,0 0.287214,-2.9162 0.224076,-0.7386 0.09138,0.099 3.364822,2.4591 2.360539,1.0963 0,0 z"
           inkscape:connector-curvature="0" />
        <path
           id="path3513"
           style="fill:none;stroke:#000000"
           d="m 63.366201,1073.8477 -0.175302,-4.164 -0.745882,-3.0688 2.00355,-2.4414 1.96462,-3.6755 0.160432,-0.5289 -0.544374,5.5271 -2.799427,9.2285 0.136383,-0.877 0,0 z"
           inkscape:connector-curvature="0" />
        <path
           id="path3515"
           style="fill:none;stroke:#000000"
           d="m 52.941406,1090.967 3.364821,-2.4591 0.818327,-0.8903 -1.147663,2.1472 -8.372458,10.2018 -0.814789,0.6687 0.979117,-1.4218 1.648737,-3.8276 0.659518,-3.0886 2.86439,-1.3303 0,0 z"
           inkscape:connector-curvature="0" />
        <path
           id="path3517"
           style="fill:none;stroke:#000000"
           d="m 30.94855,1110.1144 4.098578,-0.7557 1.752077,-0.6971 -11.035872,5.8988 -3.750326,1.1376 0.697126,-0.3981 3.146223,-2.7333 1.934291,-2.4965 3.157903,0.044 0,0 z"
           inkscape:connector-curvature="0" />
        <path
           id="path3519"
           style="fill:none;stroke:#000000"
           d="m 2.825954,1117.8232 4.020562,1.0975 0.533739,0.037 L 0,1119.685 l -7.380255,-0.7269 0.533739,-0.037 4.020562,-1.0975 L 0,1116.4131 l 2.825954,1.4101 0,0 z"
           inkscape:connector-curvature="0" />
        <path
           id="path3521"
           style="fill:none;stroke:#000000"
           d="m -25.856356,1112.5666 3.146223,2.7333 0.697126,0.3981 -3.750326,-1.1376 -11.035872,-5.8988 1.752077,0.6971 4.098578,0.7557 3.157903,-0.044 1.934291,2.4965 0,0 z"
           inkscape:connector-curvature="0" />
        <path
           id="path3523"
           style="fill:none;stroke:#000000"
           d="m -49.417498,1095.3859 1.648737,3.8276 0.979117,1.4218 -0.814789,-0.6687 -8.372458,-10.2018 -1.147663,-2.1472 0.818327,0.8903 3.364821,2.4591 2.86439,1.3303 0.659518,3.0886 0,0 z"
           inkscape:connector-curvature="0" />
        <path
           id="path3525"
           style="fill:none;stroke:#000000"
           d="m -63.190899,1069.6837 -0.175302,4.164 0.136383,0.877 -2.799427,-9.2285 -0.544374,-5.5271 0.160432,0.5289 1.96462,3.6755 2.00355,2.4414 -0.745882,3.0688 0,0 z"
           inkscape:connector-curvature="0" />
        <path
           id="path3527"
           style="fill:none;stroke:#000000"
           d="m -64.448567,1040.5509 -1.96462,3.6755 -0.160432,0.5289 0.544374,-5.5271 2.799427,-9.2285 -0.136383,0.877 0.175302,4.164 0.745882,3.0688 -2.00355,2.4414 0,0 z"
           inkscape:connector-curvature="0" />
        <path
           id="path3529"
           style="fill:none;stroke:#000000"
           d="m -52.941406,1013.7574 -3.364821,2.4591 -0.818327,0.8903 1.147663,-2.1472 8.372458,-10.2018 0.814789,-0.6687 -0.979117,1.4218 -1.648737,3.8276 -0.659518,3.0886 -2.86439,1.3303 0,0 z"
           inkscape:connector-curvature="0" />
        <path
           id="path3531"
           style="fill:none;stroke:#000000"
           d="m -30.94855,994.61004 -4.098578,0.75566 -1.752077,0.69711 11.035872,-5.89879 3.750326,-1.13765 -0.697126,0.39815 -3.146223,2.73325 -1.934291,2.49656 -3.157903,-0.0443 0,0 z"
           inkscape:connector-curvature="0" />
        <path
           id="path3533"
           style="fill:none;stroke:#000000"
           d="m -2.825954,986.90123 -4.020562,-1.09748 -0.533739,-0.0375 L 0,985.03937 l 7.380255,0.72689 -0.533739,0.0375 -4.020562,1.09748 L 0,988.3113 l -2.825954,-1.41007 0,0 z"
           inkscape:connector-curvature="0" />
        <path
           id="path3535"
           style="fill:none;stroke:#000000"
           d="m 25.856356,992.15777 -3.146223,-2.73325 -0.697126,-0.39815 3.750326,1.13765 11.035872,5.89879 -1.752077,-0.69711 -4.098578,-0.75566 -3.157903,0.0443 -1.934291,-2.49656 0,0 z"
           inkscape:connector-curvature="0" />
        <path
           id="path3537"
           style="fill:none;stroke:#000000"
           d="m 49.417498,1009.3385 -1.648737,-3.8276 -0.979117,-1.4218 0.814789,0.6687 8.372458,10.2018 1.147663,2.1472 -0.818327,-0.8903 -3.364821,-2.4591 -2.86439,-1.3303 -0.659518,-3.0886 0,0 z"
           inkscape:connector-curvature="0" />
        <path
           id="path3539"
           style="fill:none;stroke:#000000"
           d="m 63.190899,1035.0407 0.175302,-4.164 -0.136383,-0.877 2.799427,9.2285 0.544374,5.5271 -0.160432,-0.5289 -1.96462,-3.6755 -2.00355,-2.4414 0.745882,-3.0688 0,0 z"
           inkscape:connector-curvature="0" />
        <path
           id="path3541"
           style="fill:none;stroke:#000000"
           d="m 70.866142,1052.3622 -1.361673,-13.8253 -4.032691,-13.294 -6.548735,-12.2518 -8.813114,-10.7388 -10.73881,-8.81314 -12.251821,-6.54873 -13.294,-4.03269 L 0,981.49606 l -13.825298,1.36168 -13.294,4.03269 -12.251821,6.54873 -10.73881,8.81314 -8.813114,10.7388 -6.548735,12.2518 -4.032691,13.294 -1.361673,13.8253 1.361673,13.8253 4.032691,13.294 6.548735,12.2518 8.813114,10.7388 10.73881,8.8131 12.251821,6.5488 13.294,4.0327 L 0,1123.2283 l 13.825298,-1.3616 13.294,-4.0327 12.251821,-6.5488 10.73881,-8.8131 8.813114,-10.7388 6.548735,-12.2518 4.032691,-13.294 1.361673,-13.8253 0,0 z"
           inkscape:connector-curvature="0" />
        <path
           id="path3543"
           style="fill:none;stroke:#000000"
           d="m 11.310142,1043.7165 1.467204,2.3594 0.489352,1.3002 -0.733602,-1.1797 -0.949659,-1.014 -1.129223,-0.8092 -1.265389,-0.5733 -1.352929,-0.3155 -1.388475,-0.045 -1.370664,0.2263 -1.300179,0.4893 -1.179728,0.7336 -0.711801,0.6667 -0.2831,-0.9332 -0.654874,-1.2252 -0.881311,-1.0739 -1.073881,-0.8813 -1.225182,-0.6549 -1.3294,-0.4033 -1.38253,-0.1361 -1.38253,0.1361 -1.3294,0.4033 -1.225182,0.6549 -0.356937,0.2929 0.676927,-0.634 2.359456,-1.4672 2.600357,-0.9787 2.741328,-0.4526 2.776951,0.091 2.705858,0.6309 2.530779,1.1467 2.258445,1.6184 1.899319,2.0279 0,0 z"
           inkscape:connector-curvature="0" />
        <path
           id="path3545"
           style="fill:none;stroke:#000000"
           d="m -12.208612,1045.258 1.618378,-2.2585 0.33919,-0.3177 -0.58649,0.7147 -0.654873,1.2252 -0.403269,1.3294 -0.136167,1.3825 0.136167,1.3825 0.403269,1.3294 0.654873,1.2252 0.881312,1.0739 1.073881,0.8813 1.225182,0.6549 0.933257,0.2831 -0.666674,0.7118 -0.733602,1.1797 -0.489353,1.3002 -0.226297,1.3706 0.045454,1.3885 0.315459,1.3529 0.57334,1.2654 0.809189,1.1293 1.013942,0.9496 1.179728,0.7336 0.865235,0.3257 -0.45259,-0.1056 -2.530779,-1.1466 -2.258445,-1.6184 -1.899319,-2.0279 -1.467204,-2.3595 -0.978706,-2.6003 -0.452595,-2.7413 0.09091,-2.777 0.630918,-2.7059 1.146681,-2.5307 0,0 z"
           inkscape:connector-curvature="0" />
        <path
           id="path3547"
           style="fill:none;stroke:#000000"
           d="m 0.992737,1066.4875 -2.776951,-0.091 -0.903242,-0.2106 0.455582,0.075 1.388476,-0.045 1.352929,-0.3154 1.265389,-0.5734 1.129222,-0.8092 0.94966,-1.0139 0.733602,-1.1797 0.489353,-1.3002 0.226297,-1.3707 -0.045454,-1.3885 -0.221456,-0.9497 0.949775,0.2214 1.388475,0.045 1.370664,-0.2263 1.300179,-0.4894 1.179728,-0.7336 1.013941,-0.9496 0.809189,-1.1293 0.573341,-1.2653 0.315459,-1.353 0.04545,-1.3885 0.226297,1.3707 -0.09091,2.777 -0.630917,2.7058 -1.146681,2.5308 -1.618379,2.2584 -2.027883,1.8994 -2.359456,1.4672 -2.600357,0.9787 -2.741328,0.4526 0,0 z"
           inkscape:connector-curvature="0" />
      </g>
      <g
         id="g3549"
         inkscape:label="0" />
    </g>
  </g>
</svg>
