<?xml version="1.0" encoding="UTF-8" standalone="no"?>
<!-- Created with Inkscape (http://www.inkscape.org/) -->

<svg
   xmlns:dc="http://purl.org/dc/elements/1.1/"
   xmlns:cc="http://creativecommons.org/ns#"
   xmlns:rdf="http://www.w3.org/1999/02/22-rdf-syntax-ns#"
   xmlns:svg="http://www.w3.org/2000/svg"
   xmlns="http://www.w3.org/2000/svg"
   xmlns:sodipodi="http://sodipodi.sourceforge.net/DTD/sodipodi-0.dtd"
   xmlns:inkscape="http://www.inkscape.org/namespaces/inkscape"
   width="210mm"
   height="297mm"
   viewBox="0 0 744.09448819 1052.3622047"
   id="svg2"
   version="1.1"
   inkscape:version="0.91 r13725"
   sodipodi:docname="rose_window3.svg">
  <defs
     id="defs4">
    <marker
       style="overflow:visible"
       refY="0.0"
       refX="0.0"
       orient="auto"
       id="DistanceX">
      <path
         id="path3362"
         style="stroke:#000000; stroke-width:0.5"
         d="M 3,-3 L -3,3 M 0,-5 L  0,5" />
    </marker>
    <pattern
       y="0"
       x="0"
       width="8"
       patternUnits="userSpaceOnUse"
       id="Hatch"
       height="8">
      <path
         id="path3365"
         stroke-width="0.25"
         stroke="#000000"
         linecap="square"
         d="M8 4 l-4,4" />
      <path
         id="path3367"
         stroke-width="0.25"
         stroke="#000000"
         linecap="square"
         d="M6 2 l-4,4" />
      <path
         id="path3369"
         stroke-width="0.25"
         stroke="#000000"
         linecap="square"
         d="M4 0 l-4,4" />
    </pattern>
    <marker
       style="overflow:visible"
       refY="0.0"
       refX="0.0"
       orient="auto"
       id="DistanceX-8">
      <path
         id="path3698"
         style="stroke:#000000; stroke-width:0.5"
         d="M 3,-3 L -3,3 M 0,-5 L  0,5" />
    </marker>
    <pattern
       y="0"
       x="0"
       width="8"
       patternUnits="userSpaceOnUse"
       id="Hatch-6"
       height="8">
      <path
         id="path3701"
         stroke-width="0.25"
         stroke="#000000"
         linecap="square"
         d="M8 4 l-4,4" />
      <path
         id="path3703"
         stroke-width="0.25"
         stroke="#000000"
         linecap="square"
         d="M6 2 l-4,4" />
      <path
         id="path3705"
         stroke-width="0.25"
         stroke="#000000"
         linecap="square"
         d="M4 0 l-4,4" />
    </pattern>
    <marker
       style="overflow:visible"
       refY="0.0"
       refX="0.0"
       orient="auto"
       id="DistanceX-1">
      <path
         id="path4028"
         style="stroke:#000000; stroke-width:0.5"
         d="M 3,-3 L -3,3 M 0,-5 L  0,5" />
    </marker>
    <pattern
       y="0"
       x="0"
       width="8"
       patternUnits="userSpaceOnUse"
       id="Hatch-5"
       height="8">
      <path
         id="path4031"
         stroke-width="0.25"
         stroke="#000000"
         linecap="square"
         d="M8 4 l-4,4" />
      <path
         id="path4033"
         stroke-width="0.25"
         stroke="#000000"
         linecap="square"
         d="M6 2 l-4,4" />
      <path
         id="path4035"
         stroke-width="0.25"
         stroke="#000000"
         linecap="square"
         d="M4 0 l-4,4" />
    </pattern>
  </defs>
  <sodipodi:namedview
     id="base"
     pagecolor="#ffffff"
     bordercolor="#666666"
     borderopacity="1.0"
     inkscape:pageopacity="0.0"
     inkscape:pageshadow="2"
     inkscape:zoom="0.5"
     inkscape:cx="277.96745"
     inkscape:cy="647.02067"
     inkscape:document-units="px"
     inkscape:current-layer="layer1"
     showgrid="false"
     inkscape:window-width="1880"
     inkscape:window-height="1155"
     inkscape:window-x="0"
     inkscape:window-y="0"
     inkscape:window-maximized="1" />
  <metadata
     id="metadata7">
    <rdf:RDF>
      <cc:Work
         rdf:about="">
        <dc:format>image/svg+xml</dc:format>
        <dc:type
           rdf:resource="http://purl.org/dc/dcmitype/StillImage" />
        <dc:title></dc:title>
      </cc:Work>
    </rdf:RDF>
  </metadata>
  <g
     inkscape:label="Layer 1"
     inkscape:groupmode="layer"
     id="layer1">
    <g
       id="g4167"
       transform="translate(327.97538,-670.00002)">
      <g
         id="g4037"
         inkscape:label="OpenJsCad">
        <path
           id="path4039"
           style="fill:none;stroke:#000000"
           d="m 253.4648,1138.3042 -0.70121,-16.6558 -2.98352,-12.2755 8.0142,-9.7654 7.85848,-14.7021 0.64172,-2.1155 -2.17749,22.1084 -11.19771,36.9139 0.54553,-3.508 0,0 z"
           inkscape:connector-curvature="0" />
        <path
           id="path4041"
           style="fill:none;stroke:#000000"
           d="m 241.8047,1090.3296 -9.83655,-13.4592 -12.27331,-11.2817 -14.23843,-8.6705 -12.45711,-4.556 12.45711,-4.556 14.23843,-8.6705 12.27331,-11.2816 9.83655,-13.4593 5.23297,-11.268 4.86429,5.9272 7.20361,13.477 4.43596,14.6234 1.49784,15.2078 -1.49784,15.2078 -4.43596,14.6234 -7.20361,13.477 -4.86429,5.9272 -5.23297,-11.268 0,0 z"
           inkscape:connector-curvature="0" />
        <path
           id="path4043"
           style="fill:none;stroke:#000000"
           d="m 140.47249,1053.2688 -15.11968,7.0218 -13.45929,9.8365 -0.36552,0.3977 -0.8963,-2.9548 -1.49784,-15.2078 1.49784,-15.2078 0.8963,-2.9547 0.36552,0.3976 13.45929,9.8365 15.11968,7.0218 3.73012,0.9066 -3.73012,0.9066 0,0 z"
           inkscape:connector-curvature="0" />
        <path
           id="path4045"
           style="fill:none;stroke:#000000"
           d="m 100.61187,1082.4004 -8.67048,14.2384 -5.726097,15.6564 -1.220462,7.8481 -7.379764,2.9363 -13.989651,9.0664 -11.952077,11.6214 -4.504766,6.5414 -7.922921,-0.5566 -16.538004,2.0987 -15.810802,5.2848 -6.896846,3.939 -6.896846,-3.939 -15.810802,-5.2848 -16.538004,-2.0987 -7.922921,0.5566 -4.504766,-6.5414 -11.952077,-11.6214 -13.989651,-9.0664 -7.379764,-2.9363 -1.220462,-7.8481 -5.726097,-15.6564 -8.67048,-14.2384 -5.37495,-5.8474 2.30557,-7.6004 1.63401,-16.5904 -1.63401,-16.5904 -2.30557,-7.6004 5.37495,-5.8474 8.67048,-14.2384 5.726097,-15.6564 1.220462,-7.84811 7.379764,-2.93623 13.989651,-9.0664 11.952077,-11.62144 4.504766,-6.54137 7.922921,0.55651 16.538004,-2.09866 15.810802,-5.28474 L 0,943.64974 l 6.896846,3.93902 15.810802,5.28474 16.538004,2.09866 7.922921,-0.55651 4.504766,6.54137 11.952077,11.62144 13.989651,9.0664 7.379764,2.93623 1.220462,7.84811 5.726097,15.6564 8.67048,14.2384 5.37495,5.8474 -2.30557,7.6004 -1.63401,16.5904 1.63401,16.5904 2.30557,7.6004 -5.37495,5.8474 0,0 z"
           inkscape:connector-curvature="0" />
        <path
           id="path4047"
           style="fill:none;stroke:#000000"
           d="m 83.653628,1128.7678 0.701208,16.6559 3.937135,16.1991 1.616886,3.4815 -3.034496,-2.351 -14.916802,-7.4431 -16.082247,-4.3899 -0.538791,-0.038 1.751256,-2.543 10.956071,-10.653 12.823847,-8.3109 2.868929,-1.1415 -0.083,0.5337 0,0 z"
           inkscape:connector-curvature="0" />
        <path
           id="path4049"
           style="fill:none;stroke:#000000"
           d="m 131.66201,1210.1539 15.65637,5.7261 16.47264,2.5616 16.65588,-0.7012 12.07234,-2.9341 -1.6012,7.4985 -6.04537,14.0348 -8.66726,12.5857 -10.95607,10.653 -12.82384,8.3109 -14.19881,5.6494 -15.02812,2.7707 -7.66688,-0.1075 5.54694,-11.1168 4.38991,-16.0822 1.16807,-16.6297 -2.09867,-16.538 -4.20484,-12.58 11.32891,6.8988 0,0 z"
           inkscape:connector-curvature="0" />
        <path
           id="path4051"
           style="fill:none;stroke:#000000"
           d="m 211.76562,1206.7815 13.45929,-9.8365 3.27331,-3.561 -4.59066,8.5885 -33.48983,40.8074 -3.25915,2.6748 3.91646,-5.6871 6.59495,-15.3107 2.63807,-12.3543 11.45756,-5.3211 0,0 z"
           inkscape:connector-curvature="0" />
        <path
           id="path4053"
           style="fill:none;stroke:#000000"
           d="m 244.04114,1153.0068 -5.24892,14.3517 -7.94794,13.0519 -10.34151,11.2505 -12.33768,9.0168 -6.95427,3.2297 0.17423,-12.4226 -3.02265,-16.3943 -6.16295,-15.4896 -9.0664,-13.9897 -9.24669,-9.5097 13.20025,1.3001 16.59036,-1.634 15.9528,-4.8393 14.70219,-7.8584 9.60372,-7.8816 1.81088,7.4507 0.64278,15.2679 -2.3482,15.0999 0,0 z"
           inkscape:connector-curvature="0" />
        <path
           id="path4055"
           style="fill:none;stroke:#000000"
           d="m 226.68408,1081.5925 9.01683,12.3377 6.35278,13.6792 -11.65885,9.5682 -13.477,7.2036 -14.6234,4.4359 -15.20783,1.4979 -15.20782,-1.4979 -13.22277,-4.0111 -0.87428,-0.602 -4.41888,-1.9034 -9.58448,-5.123 -11.81269,-9.6945 -9.69442,-11.8127 -7.20361,-13.477 -1.16278,-3.8332 2.71078,-2.949 12.33768,-9.0168 13.85971,-6.4367 14.84912,-3.609 10.85811,-0.4571 4.80713,0.2024 1.04893,-0.1632 13.65364,2.1233 14.35167,5.2489 13.05189,7.948 11.25054,10.3415 0,0 z"
           inkscape:connector-curvature="0" />
        <path
           id="path4057"
           style="fill:none;stroke:#000000"
           d="m 98.326209,1099.7136 7.947941,-13.0519 2.08954,-2.2732 0.15679,0.5169 7.85848,14.7021 10.57574,12.8866 2.96736,2.4353 -3.75407,-0.8017 -16.669,-0.2337 -16.394312,3.0226 -0.501854,0.1997 0.474463,-3.051 5.248922,-14.3517 0,0 z"
           inkscape:connector-curvature="0" />
        <path
           id="path4059"
           style="fill:none;stroke:#000000"
           d="m 91.371867,1144.4331 -0.642774,-15.2679 0.615524,-3.9581 3.721888,-1.4808 15.028125,-2.7708 15.2799,0.2143 14.94451,3.1912 9.98115,4.2993 4.24327,2.268 1.01582,0.3082 11.38025,7.8371 10.65298,10.9561 8.31087,12.8238 5.64937,14.1988 2.77077,15.0281 -0.21153,15.081 -14.65573,3.562 -15.26789,0.6428 -15.09992,-2.3482 -14.35167,-5.2489 -13.05189,-7.948 -10.17296,-9.351 -0.52646,-0.9218 -3.15542,-3.6322 -6.41253,-8.7742 -6.436612,-13.8597 -3.609041,-14.8491 0,0 z"
           inkscape:connector-curvature="0" />
        <path
           id="path4061"
           style="fill:none;stroke:#000000"
           d="m 102.3113,1186.3172 2.83897,3.8845 0.78153,0.7184 6.85286,11.9987 4.84435,14.4932 1.92377,15.1599 -1.07073,15.2438 -4.02408,14.7421 -6.73394,13.4957 -14.749873,-3.1496 -14.034781,-6.0454 -12.585714,-8.6673 -10.652985,-10.956 -8.310867,-12.8239 -5.108269,-12.8388 -0.07438,-1.059 -1.266992,-4.6415 -1.970494,-10.6876 0.214315,-15.2799 3.191158,-14.9445 6.045369,-14.0348 2.27192,-3.2991 3.995822,0.2807 14.742059,4.0241 13.673736,6.8228 12.079937,9.3593 7.127309,8.2042 0,0 z"
           inkscape:connector-curvature="0" />
        <path
           id="path4063"
           style="fill:none;stroke:#000000"
           d="m 174.37634,1048.7936 -1.04893,-0.1631 -4.80713,0.2023 -10.85811,-0.4571 -14.84912,-3.609 -13.85971,-6.4366 -12.33768,-9.0169 -2.71078,-2.949 1.16278,-3.8332 7.20361,-13.477 9.69442,-11.81272 11.81269,-9.69442 9.58448,-5.12301 4.41888,-1.9034 0.87428,-0.60208 13.22277,-4.01108 15.20782,-1.49784 15.20783,1.49784 14.6234,4.43596 13.477,7.20361 11.65885,9.56817 -6.35278,13.67917 -9.01683,12.3377 -11.25054,10.3415 -13.05189,7.948 -14.35167,5.2489 -13.65364,2.1233 0,0 z"
           inkscape:connector-curvature="0" />
        <path
           id="path4065"
           style="fill:none;stroke:#000000"
           d="m 42.218148,1157.4973 -6.594948,15.3106 -3.481264,16.3031 -0.05384,3.8384 -1.713896,-3.4349 -10.210156,-13.1781 -12.584894,-10.933 -0.469013,-0.2679 2.681192,-1.5313 14.493235,-4.8444 15.159837,-1.9237 3.080085,0.2163 -0.306342,0.4449 0,0 z"
           inkscape:connector-curvature="0" />
        <path
           id="path4067"
           style="fill:none;stroke:#000000"
           d="m 50.160139,1251.6536 11.621438,11.9521 13.72987,9.4552 15.31067,6.5949 12.149893,2.5944 -4.696147,6.0613 -11.536153,10.0219 -13.269666,7.5787 -14.493236,4.8444 -15.159837,1.9238 -15.243855,-1.0708 -14.742059,-4.0241 -6.860957,-3.4234 9.820998,-7.6091 10.932996,-12.5849 8.267732,-14.476 5.284741,-15.8108 1.669818,-13.1586 7.213754,11.131 0,0 z"
           inkscape:connector-curvature="0" />
        <path
           id="path4069"
           style="fill:none;stroke:#000000"
           d="m 123.7942,1283.3709 16.39431,-3.0227 7.00831,-2.7884 -44.14349,23.5952 -15.001301,4.5506 2.788502,-1.5927 12.584889,-10.9329 7.73717,-9.9863 12.63161,0.1772 0,0 z"
           inkscape:connector-curvature="0" />
        <path
           id="path4071"
           style="fill:none;stroke:#000000"
           d="m 34.05841,1217.4427 0.872382,4.7316 0.392438,0.9864 0.968173,13.7838 -1.923774,15.1598 -4.844346,14.4932 -7.578754,13.2697 -10.021913,11.5361 L 0,1300.6408 l -11.922616,-9.2375 -10.021913,-11.5361 -7.578754,-13.2697 -4.844346,-14.4932 -1.923774,-15.1598 0.968173,-13.7838 0.392438,-0.9864 0.872382,-4.7316 2.861819,-10.4842 6.822794,-13.6737 9.35931,-12.0799 11.536153,-10.022 L 0,1169.1964 l 3.478334,1.9865 11.536153,10.022 9.35931,12.0799 6.822794,13.6737 2.861819,10.4842 0,0 z"
           inkscape:connector-curvature="0" />
        <path
           id="path4073"
           style="fill:none;stroke:#000000"
           d="m -7.579154,1165.4034 -12.584894,10.933 -10.210156,13.1781 -1.713896,3.4349 -0.05384,-3.8384 -3.481264,-16.3031 -6.594948,-15.3106 -0.306342,-0.4449 3.080085,-0.2163 15.159837,1.9237 14.493235,4.8444 2.681192,1.5313 -0.469013,0.2679 0,0 z"
           inkscape:connector-curvature="0" />
        <path
           id="path4075"
           style="fill:none;stroke:#000000"
           d="m -41.276567,1253.6812 5.284741,15.8108 8.267732,14.476 10.932996,12.5849 9.820998,7.6091 -6.860957,3.4234 -14.742059,4.0241 -15.243855,1.0708 -15.159837,-1.9238 -14.493236,-4.8444 -13.269666,-7.5787 -11.536153,-10.0219 -4.696147,-6.0613 12.149893,-2.5944 15.31067,-6.5949 13.72987,-9.4552 11.621438,-11.9521 7.213754,-11.131 1.669818,13.1586 0,0 z"
           inkscape:connector-curvature="0" />
        <path
           id="path4077"
           style="fill:none;stroke:#000000"
           d="m 11.303818,1314.2061 16.082246,4.3899 2.134956,0.15 L 0,1321.6535 l -29.52102,-2.9075 2.134956,-0.15 16.082246,-4.3899 L 0,1308.5658 l 11.303818,5.6403 0,0 z"
           inkscape:connector-curvature="0" />
        <path
           id="path4079"
           style="fill:none;stroke:#000000"
           d="m -40.94017,1215.872 -1.266992,4.6415 -0.07438,1.059 -5.108269,12.8388 -8.310867,12.8239 -10.652985,10.956 -12.585714,8.6673 -14.034781,6.0454 -14.749872,3.1496 -6.73394,-13.4957 -4.02408,-14.7421 -1.07073,-15.2438 1.92377,-15.1599 4.84435,-14.4932 6.85286,-11.9987 0.78153,-0.7184 2.83897,-3.8845 7.127307,-8.2042 12.079937,-9.3593 13.673736,-6.8228 14.742059,-4.0241 3.995822,-0.2807 2.27192,3.2991 6.045369,14.0348 3.191158,14.9445 0.214315,15.2799 -1.970494,10.6876 0,0 z"
           inkscape:connector-curvature="0" />
        <path
           id="path4081"
           style="fill:none;stroke:#000000"
           d="m -55.875312,1150.9203 -16.082247,4.3899 -14.916802,7.4431 -3.034496,2.351 1.616886,-3.4815 3.937135,-16.1991 0.701208,-16.6559 -0.083,-0.5337 2.868929,1.1415 12.823847,8.3109 10.956071,10.653 1.751256,2.543 -0.538791,0.038 0,0 z"
           inkscape:connector-curvature="0" />
        <path
           id="path4083"
           style="fill:none;stroke:#000000"
           d="m -124.53794,1215.8351 -2.09867,16.538 1.16807,16.6297 4.38991,16.0822 5.54694,11.1168 -7.66688,0.1075 -15.02812,-2.7707 -14.19881,-5.6494 -12.82384,-8.3109 -10.95607,-10.653 -8.66726,-12.5857 -6.04537,-14.0348 -1.6012,-7.4985 12.07234,2.9341 16.65588,0.7012 16.47264,-2.5616 15.65637,-5.7261 11.32891,-6.8988 -4.20484,12.58 0,0 z"
           inkscape:connector-curvature="0" />
        <path
           id="path4085"
           style="fill:none;stroke:#000000"
           d="m -103.42542,1293.18 12.584889,10.9329 2.788502,1.5927 -15.001301,-4.5506 -44.14349,-23.5952 7.00831,2.7884 16.39431,3.0227 12.63161,-0.1772 7.73717,9.9863 0,0 z"
           inkscape:connector-curvature="0" />
        <path
           id="path4087"
           style="fill:none;stroke:#000000"
           d="m -107.83005,1181.9161 -3.15542,3.6322 -0.52646,0.9218 -10.17296,9.351 -13.05189,7.948 -14.35167,5.2489 -15.09992,2.3482 -15.26789,-0.6428 -14.65573,-3.562 -0.21153,-15.081 2.77077,-15.0281 5.64937,-14.1988 8.31087,-12.8238 10.65298,-10.9561 11.38025,-7.8371 1.01582,-0.3082 4.24327,-2.268 9.98115,-4.2993 14.94451,-3.1912 15.2799,-0.2143 15.028125,2.7708 3.721888,1.4808 0.615524,3.9581 -0.642774,15.2679 -3.609041,14.8491 -6.436612,13.8597 -6.41253,8.7742 0,0 z"
           inkscape:connector-curvature="0" />
        <path
           id="path4089"
           style="fill:none;stroke:#000000"
           d="m -93.104678,1116.9166 -16.394312,-3.0226 -16.669,0.2337 -3.75407,0.8017 2.96736,-2.4353 10.57574,-12.8866 7.85848,-14.7021 0.15679,-0.5169 2.08954,2.2732 7.947941,13.0519 5.248922,14.3517 0.474463,3.051 -0.501854,-0.1997 0,0 z"
           inkscape:connector-curvature="0" />
        <path
           id="path4091"
           style="fill:none;stroke:#000000"
           d="m -183.13305,1145.6112 -9.0664,13.9897 -6.16295,15.4896 -3.02265,16.3943 0.17423,12.4226 -6.95427,-3.2297 -12.33768,-9.0168 -10.34151,-11.2505 -7.94794,-13.0519 -5.24892,-14.3517 -2.3482,-15.0999 0.64278,-15.2679 1.81088,-7.4507 9.60372,7.8816 14.70219,7.8584 15.9528,4.8393 16.59036,1.634 13.20025,-1.3001 -9.24669,9.5097 0,0 z"
           inkscape:connector-curvature="0" />
        <path
           id="path4093"
           style="fill:none;stroke:#000000"
           d="m -197.66999,1224.4569 6.59495,15.3107 3.91646,5.6871 -3.25915,-2.6748 -33.48983,-40.8074 -4.59066,-8.5885 3.27331,3.561 13.45929,9.8365 11.45756,5.3211 2.63807,12.3543 0,0 z"
           inkscape:connector-curvature="0" />
        <path
           id="path4095"
           style="fill:none;stroke:#000000"
           d="m -153.36286,1122.3006 -4.41888,1.9034 -0.87428,0.602 -13.22277,4.0111 -15.20782,1.4979 -15.20783,-1.4979 -14.6234,-4.4359 -13.477,-7.2036 -11.65885,-9.5682 6.35278,-13.6792 9.01683,-12.3377 11.25054,-10.3415 13.05189,-7.948 14.35167,-5.2489 13.65364,-2.1233 1.04893,0.1632 4.80713,-0.2024 10.85811,0.4571 14.84912,3.609 13.85971,6.4367 12.33768,9.0168 2.71078,2.949 -1.16278,3.8332 -7.20361,13.477 -9.69442,11.8127 -11.81269,9.6945 -9.58448,5.123 0,0 z"
           inkscape:connector-curvature="0" />
        <path
           id="path4097"
           style="fill:none;stroke:#000000"
           d="m -111.89352,1070.1271 -13.45929,-9.8365 -15.11968,-7.0218 -3.73012,-0.9066 3.73012,-0.9066 15.11968,-7.0218 13.45929,-9.8365 0.36552,-0.3976 0.8963,2.9547 1.49784,15.2078 -1.49784,15.2078 -0.8963,2.9548 -0.36552,-0.3977 0,0 z"
           inkscape:connector-curvature="0" />
        <path
           id="path4099"
           style="fill:none;stroke:#000000"
           d="m -205.45641,1056.9182 -14.23843,8.6705 -12.27331,11.2817 -9.83655,13.4592 -5.23297,11.268 -4.86429,-5.9272 -7.20361,-13.477 -4.43596,-14.6234 -1.49784,-15.2078 1.49784,-15.2078 4.43596,-14.6234 7.20361,-13.477 4.86429,-5.9272 5.23297,11.268 9.83655,13.4593 12.27331,11.2816 14.23843,8.6705 12.45711,4.556 -12.45711,4.556 0,0 z"
           inkscape:connector-curvature="0" />
        <path
           id="path4101"
           style="fill:none;stroke:#000000"
           d="m -252.76359,1121.6484 -0.70121,16.6558 0.54553,3.508 -11.19771,-36.9139 -2.17749,-22.1084 0.64172,2.1155 7.85848,14.7021 8.0142,9.7654 -2.98352,12.2755 0,0 z"
           inkscape:connector-curvature="0" />
        <path
           id="path4103"
           style="fill:none;stroke:#000000"
           d="m -168.52028,1048.8328 -4.80713,-0.2023 -1.04893,0.1631 -13.65364,-2.1233 -14.35167,-5.2489 -13.05189,-7.948 -11.25054,-10.3415 -9.01683,-12.3377 -6.35278,-13.67917 11.65885,-9.56817 13.477,-7.20361 14.6234,-4.43596 15.20783,-1.49784 15.20782,1.49784 13.22277,4.01108 0.87428,0.60208 4.41888,1.9034 9.58448,5.12301 11.81269,9.69442 9.69442,11.81272 7.20361,13.477 1.16278,3.8332 -2.71078,2.949 -12.33768,9.0169 -13.85971,6.4366 -14.84912,3.609 -10.85811,0.4571 0,0 z"
           inkscape:connector-curvature="0" />
        <path
           id="path4105"
           style="fill:none;stroke:#000000"
           d="m -108.52048,1019.819 -7.85848,-14.7021 -10.57574,-12.88661 -2.96736,-2.43525 3.75407,0.80162 16.669,0.2338 16.394312,-3.02266 0.501854,-0.19967 -0.474463,3.051 -5.248922,14.35167 -7.947941,13.0519 -2.08954,2.2732 -0.15679,-0.5169 0,0 z"
           inkscape:connector-curvature="0" />
        <path
           id="path4107"
           style="fill:none;stroke:#000000"
           d="m -187.08661,967.32284 -16.59036,1.634 -15.9528,4.83923 -14.70219,7.85848 -9.60372,7.88158 -1.81088,-7.45072 -0.64278,-15.26789 2.3482,-15.09992 5.24892,-14.35167 7.94794,-13.05189 10.34151,-11.25054 12.33768,-9.01683 6.95427,-3.22965 -0.17423,12.42258 3.02265,16.39432 6.16295,15.48961 9.0664,13.98965 9.24669,9.50977 -13.20025,-1.30011 0,0 z"
           inkscape:connector-curvature="0" />
        <path
           id="path4109"
           style="fill:none;stroke:#000000"
           d="m -257.79427,1005.1169 -7.85848,14.7021 -0.64172,2.1155 2.17749,-22.10843 11.19771,-36.9139 -0.54553,3.508 0.70121,16.65588 2.98352,12.27548 -8.0142,9.76537 0,0 z"
           inkscape:connector-curvature="0" />
        <path
           id="path4111"
           style="fill:none;stroke:#000000"
           d="m -150.30019,976.06415 -4.24327,-2.26808 -1.01582,-0.30815 -11.38025,-7.8371 -10.65298,-10.95607 -8.31087,-12.82385 -5.64937,-14.19881 -2.77077,-15.02812 0.21153,-15.08091 14.65573,-3.56204 15.26789,-0.64278 15.09992,2.3482 14.35167,5.24892 13.05189,7.94794 10.17296,9.351 0.52646,0.92178 3.15542,3.63219 6.41253,8.77422 6.436612,13.85971 3.609041,14.84912 0.642774,15.26789 -0.615524,3.95809 -3.721888,1.48085 -15.028125,2.77077 -15.2799,-0.21431 -14.94451,-3.19116 -9.98115,-4.2993 0,0 z"
           inkscape:connector-curvature="0" />
        <path
           id="path4113"
           style="fill:none;stroke:#000000"
           d="m -83.653628,975.95656 -0.701208,-16.65588 -3.937135,-16.19904 -1.616886,-3.48158 3.034496,2.35107 14.916802,7.44305 16.082247,4.38991 0.538791,0.0379 -1.751256,2.54299 -10.956071,10.65299 -12.823847,8.31087 -2.868929,1.14147 0.083,-0.5337 0,0 z"
           inkscape:connector-curvature="0" />
        <path
           id="path4115"
           style="fill:none;stroke:#000000"
           d="m -131.66201,894.57054 -15.65637,-5.7261 -16.47264,-2.56166 -16.65588,0.70121 -12.07234,2.93415 1.6012,-7.49858 6.04537,-14.03478 8.66726,-12.58571 10.95607,-10.65299 12.82384,-8.31087 14.19881,-5.64936 15.02812,-2.77077 7.66688,0.10753 -5.54694,11.11676 -4.38991,16.08225 -1.16807,16.62966 2.09867,16.538 4.20484,12.57999 -11.32891,-6.89873 0,0 z"
           inkscape:connector-curvature="0" />
        <path
           id="path4117"
           style="fill:none;stroke:#000000"
           d="m -211.76562,897.94288 -13.45929,9.83654 -3.27331,3.56104 4.59066,-8.58851 33.48983,-40.80748 3.25915,-2.67471 -3.91646,5.68709 -6.59495,15.31067 -2.63807,12.35433 -11.45756,5.32103 0,0 z"
           inkscape:connector-curvature="0" />
        <path
           id="path4119"
           style="fill:none;stroke:#000000"
           d="m -102.3113,918.40722 -2.83897,-3.88455 -0.78153,-0.71838 -6.85286,-11.99869 -4.84435,-14.49324 -1.92377,-15.15983 1.07073,-15.24386 4.02408,-14.74206 6.73394,-13.49566 14.749873,3.1496 14.034781,6.04537 12.585714,8.66726 10.652985,10.95607 8.310867,12.82385 5.108269,12.83884 0.07438,1.05893 1.266992,4.64157 1.970494,10.68759 -0.214315,15.27991 -3.191158,14.9445 -6.045369,14.03478 -2.27192,3.29905 -3.995822,-0.28067 -14.742059,-4.02408 -13.673736,-6.82279 -12.079937,-9.35931 -7.127309,-8.2042 0,0 z"
           inkscape:connector-curvature="0" />
        <path
           id="path4121"
           style="fill:none;stroke:#000000"
           d="m -42.218148,947.22715 6.594948,-15.31067 3.481264,-16.30309 0.05384,-3.83834 1.713896,3.43487 10.210156,13.17811 12.584894,10.93299 0.469013,0.26787 -2.681192,1.53132 -14.493235,4.84435 -15.159837,1.92377 -3.080085,-0.21634 0.306342,-0.44484 0,0 z"
           inkscape:connector-curvature="0" />
        <path
           id="path4123"
           style="fill:none;stroke:#000000"
           d="m -50.160139,853.07082 -11.621438,-11.95208 -13.72987,-9.45519 -15.31067,-6.59495 -12.149893,-2.59441 4.696147,-6.06125 11.536153,-10.02191 13.269666,-7.57876 14.493236,-4.84434 15.159837,-1.92378 15.243855,1.07073 14.742059,4.02408 6.860957,3.42342 -9.820998,7.60913 -10.932996,12.58489 -8.267732,14.476 -5.284741,15.8108 -1.669818,13.1586 -7.213754,-11.13098 0,0 z"
           inkscape:connector-curvature="0" />
        <path
           id="path4125"
           style="fill:none;stroke:#000000"
           d="m -123.7942,821.35354 -16.39431,3.02266 -7.00831,2.78843 44.14349,-23.59518 15.001301,-4.5506 -2.788502,1.59261 -12.584889,10.933 -7.73717,9.98625 -12.63161,-0.17717 0,0 z"
           inkscape:connector-curvature="0" />
        <path
           id="path4127"
           style="fill:none;stroke:#000000"
           d="m -34.05841,887.28172 -0.872382,-4.73164 -0.392438,-0.98633 -0.968173,-13.78379 1.923774,-15.15984 4.844346,-14.49323 7.578754,-13.26967 10.021913,-11.53615 L 0,804.08365 l 11.922616,9.23742 10.021913,11.53615 7.578754,13.26967 4.844346,14.49323 1.923774,15.15984 -0.968173,13.78379 -0.392438,0.98633 -0.872382,4.73164 -2.861819,10.48415 -6.822794,13.67374 -9.35931,12.07994 L 3.478334,933.54146 0,935.52805 l -3.478334,-1.98659 -11.536153,-10.02191 -9.35931,-12.07994 -6.822794,-13.67374 -2.861819,-10.48415 0,0 z"
           inkscape:connector-curvature="0" />
        <path
           id="path4129"
           style="fill:none;stroke:#000000"
           d="m 7.579154,939.32102 12.584894,-10.93299 10.210156,-13.17811 1.713896,-3.43487 0.05384,3.83834 3.481264,16.30309 6.594948,15.31067 0.306342,0.44484 -3.080085,0.21634 -15.159837,-1.92377 -14.493235,-4.84435 -2.681192,-1.53132 0.469013,-0.26787 0,0 z"
           inkscape:connector-curvature="0" />
        <path
           id="path4131"
           style="fill:none;stroke:#000000"
           d="m 41.276567,851.0432 -5.284741,-15.8108 -8.267732,-14.476 -10.932996,-12.58489 -9.820998,-7.60913 6.860957,-3.42342 14.742059,-4.02408 15.243855,-1.07073 15.159837,1.92378 14.493236,4.84434 13.269666,7.57876 11.536153,10.02191 4.696147,6.06125 -12.149893,2.59441 -15.31067,6.59495 -13.72987,9.45519 -11.621438,11.95208 -7.213754,11.13098 -1.669818,-13.1586 0,0 z"
           inkscape:connector-curvature="0" />
        <path
           id="path4133"
           style="fill:none;stroke:#000000"
           d="M -11.303818,790.5183 -27.386064,786.12839 -29.52102,785.97843 0,783.07087 29.52102,785.97843 27.386064,786.12839 11.303818,790.5183 0,796.15858 l -11.303818,-5.64028 0,0 z"
           inkscape:connector-curvature="0" />
        <path
           id="path4135"
           style="fill:none;stroke:#000000"
           d="m 40.94017,888.85244 1.266992,-4.64157 0.07438,-1.05893 5.108269,-12.83884 8.310867,-12.82385 10.652985,-10.95607 12.585714,-8.66726 14.034781,-6.04537 14.749872,-3.1496 6.73394,13.49566 4.02408,14.74206 1.07073,15.24386 -1.92377,15.15983 -4.84435,14.49324 -6.85286,11.99869 -0.78153,0.71838 -2.83897,3.88455 -7.127307,8.2042 -12.079937,9.35931 -13.673736,6.82279 -14.742059,4.02408 -3.995822,0.28067 -2.27192,-3.29905 -6.045369,-14.03478 -3.191158,-14.9445 -0.214315,-15.27991 1.970494,-10.68759 0,0 z"
           inkscape:connector-curvature="0" />
        <path
           id="path4137"
           style="fill:none;stroke:#000000"
           d="m 55.875312,953.80409 16.082247,-4.38991 14.916802,-7.44305 3.034496,-2.35107 -1.616886,3.48158 -3.937135,16.19904 -0.701208,16.65588 0.083,0.5337 -2.868929,-1.14147 -12.823847,-8.31087 -10.956071,-10.65299 -1.751256,-2.54299 0.538791,-0.0379 0,0 z"
           inkscape:connector-curvature="0" />
        <path
           id="path4139"
           style="fill:none;stroke:#000000"
           d="m 124.53794,888.88928 2.09867,-16.538 -1.16807,-16.62966 -4.38991,-16.08225 -5.54694,-11.11676 7.66688,-0.10753 15.02812,2.77077 14.19881,5.64936 12.82384,8.31087 10.95607,10.65299 8.66726,12.58571 6.04537,14.03478 1.6012,7.49858 -12.07234,-2.93415 -16.65588,-0.70121 -16.47264,2.56166 -15.65637,5.7261 -11.32891,6.89873 4.20484,-12.57999 0,0 z"
           inkscape:connector-curvature="0" />
        <path
           id="path4141"
           style="fill:none;stroke:#000000"
           d="m 103.42542,811.54446 -12.584889,-10.933 -2.788502,-1.59261 15.001301,4.5506 44.14349,23.59518 -7.00831,-2.78843 -16.39431,-3.02266 -12.63161,0.17717 -7.73717,-9.98625 0,0 z"
           inkscape:connector-curvature="0" />
        <path
           id="path4143"
           style="fill:none;stroke:#000000"
           d="m 107.83005,922.80827 3.15542,-3.63219 0.52646,-0.92178 10.17296,-9.351 13.05189,-7.94794 14.35167,-5.24892 15.09992,-2.3482 15.26789,0.64278 14.65573,3.56204 0.21153,15.08091 -2.77077,15.02812 -5.64937,14.19881 -8.31087,12.82385 -10.65298,10.95607 -11.38025,7.8371 -1.01582,0.30815 -4.24327,2.26808 -9.98115,4.2993 -14.94451,3.19116 -15.2799,0.21431 -15.028125,-2.77077 -3.721888,-1.48085 -0.615524,-3.95809 0.642774,-15.26789 3.609041,-14.84912 6.436612,-13.85971 6.41253,-8.77422 0,0 z"
           inkscape:connector-curvature="0" />
        <path
           id="path4145"
           style="fill:none;stroke:#000000"
           d="m 93.104678,987.8078 16.394312,3.02266 16.669,-0.2338 3.75407,-0.80162 -2.96736,2.43525 -10.57574,12.88661 -7.85848,14.7021 -0.15679,0.5169 -2.08954,-2.2732 -7.947941,-13.0519 -5.248922,-14.35167 -0.474463,-3.051 0.501854,0.19967 0,0 z"
           inkscape:connector-curvature="0" />
        <path
           id="path4147"
           style="fill:none;stroke:#000000"
           d="m 183.13305,959.11318 9.0664,-13.98965 6.16295,-15.48961 3.02265,-16.39432 -0.17423,-12.42258 6.95427,3.22965 12.33768,9.01683 10.34151,11.25054 7.94794,13.05189 5.24892,14.35167 2.3482,15.09992 -0.64278,15.26789 -1.81088,7.45072 -9.60372,-7.88158 -14.70219,-7.85848 -15.9528,-4.83923 -16.59036,-1.634 -13.20025,1.30011 9.24669,-9.50977 0,0 z"
           inkscape:connector-curvature="0" />
        <path
           id="path4149"
           style="fill:none;stroke:#000000"
           d="m 197.66999,880.26752 -6.59495,-15.31067 -3.91646,-5.68709 3.25915,2.67471 33.48983,40.80748 4.59066,8.58851 -3.27331,-3.56104 -13.45929,-9.83654 -11.45756,-5.32103 -2.63807,-12.35433 0,0 z"
           inkscape:connector-curvature="0" />
        <path
           id="path4151"
           style="fill:none;stroke:#000000"
           d="m 252.76359,983.07605 0.70121,-16.65588 -0.54553,-3.508 11.19771,36.9139 2.17749,22.10843 -0.64172,-2.1155 -7.85848,-14.7021 -8.0142,-9.76537 2.98352,-12.27548 0,0 z"
           inkscape:connector-curvature="0" />
        <path
           id="path4153"
           style="fill:none;stroke:#000000"
           d="m 283.46457,1052.3622 -5.4467,-55.30119 -16.13076,-53.176 L 235.69217,894.87773 200.43972,851.92249 157.48448,816.67003 108.47719,790.47509 55.301194,774.34433 0,768.89764 l -55.301194,5.44669 -53.175996,16.13076 -49.00729,26.19494 -42.95524,35.25246 -35.25245,42.95524 -26.19494,49.00728 -16.13076,53.176 -5.4467,55.30119 5.4467,55.3012 16.13076,53.176 26.19494,49.0073 35.25245,42.9552 42.95524,35.2525 49.00729,26.1949 53.175996,16.1308 L 0,1335.8268 l 55.301194,-5.4467 53.175996,-16.1308 49.00729,-26.1949 42.95524,-35.2525 35.25245,-42.9552 26.19494,-49.0073 16.13076,-53.176 5.4467,-55.3012 0,0 z"
           inkscape:connector-curvature="0" />
      </g>
      <g
         id="g4155"
         inkscape:label="0" />
    </g>
  </g>
</svg>
