<?xml version="1.0" encoding="UTF-8" standalone="no"?>
<!-- Created with Inkscape (http://www.inkscape.org/) -->

<svg
   xmlns:dc="http://purl.org/dc/elements/1.1/"
   xmlns:cc="http://creativecommons.org/ns#"
   xmlns:rdf="http://www.w3.org/1999/02/22-rdf-syntax-ns#"
   xmlns:svg="http://www.w3.org/2000/svg"
   xmlns="http://www.w3.org/2000/svg"
   xmlns:sodipodi="http://sodipodi.sourceforge.net/DTD/sodipodi-0.dtd"
   xmlns:inkscape="http://www.inkscape.org/namespaces/inkscape"
   width="210mm"
   height="297mm"
   viewBox="0 0 744.09448819 1052.3622047"
   id="svg2"
   version="1.1"
   inkscape:version="0.91 r13725"
   sodipodi:docname="rose_window2.svg">
  <defs
     id="defs4">
    <marker
       style="overflow:visible"
       refY="0.0"
       refX="0.0"
       orient="auto"
       id="DistanceX">
      <path
         id="path3362"
         style="stroke:#000000; stroke-width:0.5"
         d="M 3,-3 L -3,3 M 0,-5 L  0,5" />
    </marker>
    <pattern
       y="0"
       x="0"
       width="8"
       patternUnits="userSpaceOnUse"
       id="Hatch"
       height="8">
      <path
         id="path3365"
         stroke-width="0.25"
         stroke="#000000"
         linecap="square"
         d="M8 4 l-4,4" />
      <path
         id="path3367"
         stroke-width="0.25"
         stroke="#000000"
         linecap="square"
         d="M6 2 l-4,4" />
      <path
         id="path3369"
         stroke-width="0.25"
         stroke="#000000"
         linecap="square"
         d="M4 0 l-4,4" />
    </pattern>
    <marker
       style="overflow:visible"
       refY="0.0"
       refX="0.0"
       orient="auto"
       id="DistanceX-8">
      <path
         id="path3698"
         style="stroke:#000000; stroke-width:0.5"
         d="M 3,-3 L -3,3 M 0,-5 L  0,5" />
    </marker>
    <pattern
       y="0"
       x="0"
       width="8"
       patternUnits="userSpaceOnUse"
       id="Hatch-6"
       height="8">
      <path
         id="path3701"
         stroke-width="0.25"
         stroke="#000000"
         linecap="square"
         d="M8 4 l-4,4" />
      <path
         id="path3703"
         stroke-width="0.25"
         stroke="#000000"
         linecap="square"
         d="M6 2 l-4,4" />
      <path
         id="path3705"
         stroke-width="0.25"
         stroke="#000000"
         linecap="square"
         d="M4 0 l-4,4" />
    </pattern>
  </defs>
  <sodipodi:namedview
     id="base"
     pagecolor="#ffffff"
     bordercolor="#666666"
     borderopacity="1.0"
     inkscape:pageopacity="0.0"
     inkscape:pageshadow="2"
     inkscape:zoom="0.5"
     inkscape:cx="277.96745"
     inkscape:cy="647.02067"
     inkscape:document-units="px"
     inkscape:current-layer="layer1"
     showgrid="false"
     inkscape:window-width="1880"
     inkscape:window-height="1155"
     inkscape:window-x="0"
     inkscape:window-y="0"
     inkscape:window-maximized="1" />
  <metadata
     id="metadata7">
    <rdf:RDF>
      <cc:Work
         rdf:about="">
        <dc:format>image/svg+xml</dc:format>
        <dc:type
           rdf:resource="http://purl.org/dc/dcmitype/StillImage" />
        <dc:title></dc:title>
      </cc:Work>
    </rdf:RDF>
  </metadata>
  <g
     inkscape:label="Layer 1"
     inkscape:groupmode="layer"
     id="layer1">
    <g
       id="g3893"
       transform="translate(357.9754,-652.00002)">
      <g
         id="g3707"
         inkscape:label="OpenJsCad">
        <path
           id="path3709"
           style="fill:none;stroke:#000000"
           d="m 177.91391,1140.2436 1.72203,-3.5759 7.45067,0.7339 16.59036,-1.634 15.9528,-4.8393 14.70219,-7.8584 9.60372,-7.8816 1.81088,7.4507 0.64278,15.2679 -2.3482,15.0999 -5.24892,14.3517 -7.94794,13.0519 -10.34151,11.2505 -12.33768,9.0168 -6.95427,3.2297 0.17423,-12.4226 -3.02265,-16.3943 -6.16295,-15.4896 -9.0664,-13.9897 -5.21914,-5.3676 0,0 z"
           inkscape:connector-curvature="0" />
        <path
           id="path3711"
           style="fill:none;stroke:#000000"
           d="m 149.99585,1128.5292 0.59658,0.2873 3.95103,2.1118 1.01582,0.3082 11.38025,7.8371 10.65298,10.9561 8.31087,12.8238 5.64937,14.1988 2.77077,15.0281 -0.21153,15.081 -14.65573,3.562 -15.26789,0.6428 -15.09992,-2.3482 -14.35167,-5.2489 -13.05189,-7.948 -10.17296,-9.351 -0.52646,-0.9218 -2.9381,-3.382 -0.41285,-0.5177 -6.217,-8.5067 -6.436612,-13.8597 -3.609041,-14.8491 -0.642774,-15.2679 0.615524,-3.9581 3.721888,-1.4808 15.028125,-2.7708 15.2799,0.2143 14.94451,3.1912 9.67681,4.1682 0,0 z"
           inkscape:connector-curvature="0" />
        <path
           id="path3713"
           style="fill:none;stroke:#000000"
           d="m 97.10325,1103.0574 22.80543,10.9826 -10.40969,-0.146 -16.394312,3.0226 -0.501854,0.1997 0.474463,-3.051 4.025963,-11.0079 0,0 z"
           inkscape:connector-curvature="0" />
        <path
           id="path3715"
           style="fill:none;stroke:#000000"
           d="m 61.925243,1086.1166 28.793189,13.8661 -4.503139,12.3125 -1.220462,7.8481 -7.379764,2.9363 -11.001793,7.13 -19.898109,-24.9515 3.394764,-2.786 8.813114,-10.7388 3.0022,-5.6167 0,0 z"
           inkscape:connector-curvature="0" />
        <path
           id="path3717"
           style="fill:none;stroke:#000000"
           d="m -93.793198,1011.1266 28.52439,13.7366 -0.20297,0.3797 -4.032691,13.294 -1.012687,10.282 -31.879074,0 -1.28502,-13.0471 -2.30557,-7.6004 5.37495,-5.8474 6.818672,-11.1974 0,0 z"
           inkscape:connector-curvature="0" />
        <path
           id="path3719"
           style="fill:none;stroke:#000000"
           d="m -122.98345,997.06927 22.80543,10.98253 -6.09613,10.0109 -2.08954,2.2732 -0.15679,-0.5169 -7.85848,-14.7021 -6.60449,-8.04763 0,0 z"
           inkscape:connector-curvature="0" />
        <path
           id="path3721"
           style="fill:none;stroke:#000000"
           d="m -153.6672,982.29276 0.59659,0.2873 9.29223,4.9668 11.81269,9.69442 9.69442,11.81272 7.20361,13.477 1.16278,3.8332 -2.71078,2.949 -12.33768,9.0169 -13.85971,6.4366 -14.84912,3.609 -10.52703,0.4432 -0.66216,0 -4.47605,-0.1884 -1.04893,0.1631 -13.65364,-2.1233 -14.35167,-5.2489 -13.05189,-7.948 -11.25054,-10.3415 -9.01683,-12.3377 -6.35278,-13.67917 11.65885,-9.56817 13.477,-7.20361 14.6234,-4.43596 15.20783,-1.49784 15.20782,1.49784 13.22277,4.01108 0.87428,0.60208 4.11454,1.77231 0,0 z"
           inkscape:connector-curvature="0" />
        <path
           id="path3723"
           style="fill:none;stroke:#000000"
           d="m -149.99585,976.19524 -0.59658,-0.2873 -3.95103,-2.11187 -1.01582,-0.30815 -11.38025,-7.8371 -10.65298,-10.95607 -8.31087,-12.82385 -5.64937,-14.19881 -2.77077,-15.02812 0.21153,-15.08091 14.65573,-3.56204 15.26789,-0.64278 15.09992,2.3482 14.35167,5.24892 13.05189,7.94794 10.17296,9.351 0.52646,0.92178 2.9381,3.38203 0.41285,0.5177 6.217,8.50668 6.436612,13.85971 3.609041,14.84912 0.642774,15.26789 -0.615524,3.95809 -3.721888,1.48085 -15.028125,2.77077 -15.2799,-0.21431 -14.94451,-3.19116 -9.67681,-4.16821 0,0 z"
           inkscape:connector-curvature="0" />
        <path
           id="path3725"
           style="fill:none;stroke:#000000"
           d="m -97.10325,1001.667 -22.80543,-10.98255 10.40969,0.14601 16.394312,-3.02266 0.501854,-0.19967 -0.474463,3.051 -4.025963,11.00787 0,0 z"
           inkscape:connector-curvature="0" />
        <path
           id="path3727"
           style="fill:none;stroke:#000000"
           d="m -61.925243,1018.6078 -28.793189,-13.8661 4.503139,-12.3125 1.220462,-7.84811 7.379764,-2.93623 11.001793,-7.13004 19.898109,24.95144 -3.394764,2.78604 -8.813114,10.7388 -3.0022,5.6167 0,0 z"
           inkscape:connector-curvature="0" />
        <path
           id="path3729"
           style="fill:none;stroke:#000000"
           d="m 93.793198,1093.5979 -28.52439,-13.7367 0.20297,-0.3797 4.032691,-13.294 1.012687,-10.282 31.879074,0 1.28502,13.0471 2.30557,7.6004 -5.37495,5.8474 -6.818672,11.1975 0,0 z"
           inkscape:connector-curvature="0" />
        <path
           id="path3731"
           style="fill:none;stroke:#000000"
           d="m 122.98345,1107.6551 -22.80543,-10.9825 6.09613,-10.0109 2.08954,-2.2732 0.15679,0.5169 7.85848,14.7021 6.60449,8.0476 0,0 z"
           inkscape:connector-curvature="0" />
        <path
           id="path3733"
           style="fill:none;stroke:#000000"
           d="m 153.6672,1122.4317 -0.59659,-0.2873 -9.29223,-4.9668 -11.81269,-9.6945 -9.69442,-11.8127 -7.20361,-13.477 -1.16278,-3.8332 2.71078,-2.949 12.33768,-9.0168 13.85971,-6.4367 14.84912,-3.609 10.52703,-0.4432 0.66216,0 4.47605,0.1885 1.04893,-0.1632 13.65364,2.1233 14.35167,5.2489 13.05189,7.948 11.25054,10.3415 9.01683,12.3377 6.35278,13.6792 -11.65885,9.5682 -13.477,7.2036 -14.6234,4.4359 -15.20783,1.4979 -15.20782,-1.4979 -13.22277,-4.0111 -0.87428,-0.602 -4.11454,-1.7723 0,0 z"
           inkscape:connector-curvature="0" />
        <path
           id="path3735"
           style="fill:none;stroke:#000000"
           d="m 122.16459,1208.7346 3.103,-2.4746 6.39442,3.8939 15.65637,5.7261 16.47264,2.5616 16.65588,-0.7012 12.07234,-2.9341 -1.6012,7.4985 -6.04537,14.0348 -8.66726,12.5857 -10.95607,10.653 -12.82384,8.3109 -14.19881,5.6494 -15.02812,2.7707 -7.66688,-0.1075 5.54694,-11.1168 4.38991,-16.0822 1.16807,-16.6297 -2.09867,-16.538 -2.37335,-7.1005 0,0 z"
           inkscape:connector-curvature="0" />
        <path
           id="path3737"
           style="fill:none;stroke:#000000"
           d="m -102.09398,918.65738 -0.41285,-0.5177 -2.64344,-3.61701 -0.78153,-0.71838 -6.85286,-11.99869 -4.84435,-14.49324 -1.92377,-15.15983 1.07073,-15.24386 4.02408,-14.74206 6.73394,-13.49566 14.749873,3.1496 14.034781,6.04537 12.585714,8.66726 10.652985,10.95607 8.310867,12.82385 5.108269,12.83884 0.07438,1.05893 1.179731,4.32189 0.147345,0.64556 1.91041,10.36171 -0.214315,15.27991 -3.191158,14.9445 -6.045369,14.03478 -2.27192,3.29905 -3.995822,-0.28067 -14.742059,-4.02408 -13.673736,-6.82279 -12.079937,-9.35931 -6.909989,-7.95404 0,0 z"
           inkscape:connector-curvature="0" />
        <path
           id="path3739"
           style="fill:none;stroke:#000000"
           d="m -65.491167,964.55585 -15.781849,-19.78981 9.315457,4.64814 16.082247,4.38991 0.538791,0.0379 -1.751256,2.54299 -8.40339,8.17092 0,0 z"
           inkscape:connector-curvature="0" />
        <path
           id="path3741"
           style="fill:none;stroke:#000000"
           d="m -41.236599,994.97012 -19.836137,-24.87373 9.399397,-9.13937 4.504766,-6.54137 7.922921,0.55651 13.005878,-1.65044 7.108754,31.14549 -7.988278,2.42322 -12.251821,6.54873 -1.86548,1.53096 0,0 z"
           inkscape:connector-curvature="0" />
        <path
           id="path3743"
           style="fill:none;stroke:#000000"
           d="m 86.813554,1155.5399 -15.781849,-19.7898 9.83599,-6.3745 2.868929,-1.1415 -0.083,0.5337 0.701208,16.6559 2.458718,10.1162 0,0 z"
           inkscape:connector-curvature="0" />
        <path
           id="path3745"
           style="fill:none;stroke:#000000"
           d="m 42.219069,1246.254 3.869382,-0.8831 4.071688,6.2827 11.621438,11.9521 13.72987,9.4552 15.31067,6.5949 12.149893,2.5944 -4.696147,6.0613 -11.536153,10.0219 -13.269666,7.5787 -14.493236,4.8444 -15.159837,1.9238 -15.243855,-1.0708 -14.742059,-4.0241 -6.860957,-3.4234 9.820998,-7.6091 10.932996,-12.5849 8.267732,-14.476 5.284741,-15.8108 0.942502,-7.4272 0,0 z"
           inkscape:connector-curvature="0" />
        <path
           id="path3747"
           style="fill:none;stroke:#000000"
           d="m -46.088451,1245.3709 3.869382,0.8831 0.942502,7.4272 5.284741,15.8108 8.267732,14.476 10.932996,12.5849 9.820998,7.6091 -6.860957,3.4234 -14.742059,4.0241 -15.243855,1.0708 -15.159837,-1.9238 -14.493236,-4.8444 -13.269666,-7.5787 -11.536153,-10.0219 -4.696147,-6.0613 12.149893,-2.5944 15.31067,-6.5949 13.72987,-9.4552 11.621438,-11.9521 4.071688,-6.2827 0,0 z"
           inkscape:connector-curvature="0" />
        <path
           id="path3749"
           style="fill:none;stroke:#000000"
           d="m 107.63452,923.07581 0.41285,-0.5177 2.9381,-3.38203 0.52646,-0.92178 10.17296,-9.351 13.05189,-7.94794 14.35167,-5.24892 15.09992,-2.3482 15.26789,0.64278 14.65573,3.56204 0.21153,15.08091 -2.77077,15.02812 -5.64937,14.19881 -8.31087,12.82385 -10.65298,10.95607 -11.38025,7.8371 -1.01582,0.30815 -3.95103,2.11187 -0.59658,0.2873 -9.67681,4.16821 -14.94451,3.19116 -15.2799,0.21431 -15.028125,-2.77077 -3.721888,-1.48085 -0.615524,-3.95809 0.642774,-15.26789 3.609041,-14.84912 6.436612,-13.85971 6.217,-8.50668 0,0 z"
           inkscape:connector-curvature="0" />
        <path
           id="path3751"
           style="fill:none;stroke:#000000"
           d="m 71.031705,968.97429 15.781849,-19.78982 -2.458718,10.11621 -0.701208,16.65588 0.083,0.5337 -2.868929,-1.14147 -9.83599,-6.3745 0,0 z"
           inkscape:connector-curvature="0" />
        <path
           id="path3753"
           style="fill:none;stroke:#000000"
           d="m 46.715165,999.46626 19.898109,-24.95144 11.001793,7.13004 7.379764,2.93623 1.220462,7.84811 4.503139,12.3125 -28.793189,13.8661 -3.0022,-5.6167 -8.813114,-10.7388 -3.394764,-2.78604 0,0 z"
           inkscape:connector-curvature="0" />
        <path
           id="path3755"
           style="fill:none;stroke:#000000"
           d="m -61.072736,1134.628 19.836137,-24.8737 1.86548,1.5309 12.251821,6.5488 7.988278,2.4232 -7.108754,31.1455 -13.005878,-1.6505 -7.922921,0.5566 -4.504766,-6.5414 -9.399397,-9.1394 0,0 z"
           inkscape:connector-curvature="0" />
        <path
           id="path3757"
           style="fill:none;stroke:#000000"
           d="m -81.273016,1159.9584 15.781849,-19.7898 8.40339,8.1709 1.751256,2.543 -0.538791,0.038 -16.082247,4.3899 -9.315457,4.6482 0,0 z"
           inkscape:connector-curvature="0" />
        <path
           id="path3759"
           style="fill:none;stroke:#000000"
           d="m -102.50683,1186.5847 0.41285,-0.5177 6.909988,-7.954 12.079937,-9.3593 13.673736,-6.8228 14.742059,-4.0241 3.995822,-0.2807 2.27192,3.2991 6.045369,14.0348 3.191158,14.9445 0.214315,15.2799 -1.91041,10.3617 -0.147345,0.6455 -1.179731,4.3219 -0.07438,1.059 -5.108269,12.8388 -8.310867,12.8239 -10.652985,10.956 -12.585714,8.6673 -14.034781,6.0454 -14.749872,3.1496 -6.73394,-13.4957 -4.02408,-14.7421 -1.07073,-15.2438 1.92377,-15.1599 4.84435,-14.4932 6.85286,-11.9987 0.78153,-0.7184 2.64344,-3.617 0,0 z"
           inkscape:connector-curvature="0" />
        <path
           id="path3761"
           style="fill:none;stroke:#000000"
           d="m -179.63594,1136.6677 1.72203,3.5759 -5.21914,5.3676 -9.0664,13.9897 -6.16295,15.4896 -3.02265,16.3943 0.17423,12.4226 -6.95427,-3.2297 -12.33768,-9.0168 -10.34151,-11.2505 -7.94794,-13.0519 -5.24892,-14.3517 -2.3482,-15.0999 0.64278,-15.2679 1.81088,-7.4507 9.60372,7.8816 14.70219,7.8584 15.9528,4.8393 16.59036,1.634 7.45067,-0.7339 0,0 z"
           inkscape:connector-curvature="0" />
        <path
           id="path3763"
           style="fill:none;stroke:#000000"
           d="m -153.07061,1122.1444 -0.59659,0.2873 -4.11454,1.7723 -0.87428,0.602 -13.22277,4.0111 -15.20782,1.4979 -15.20783,-1.4979 -14.6234,-4.4359 -13.477,-7.2036 -11.65885,-9.5682 6.35278,-13.6792 9.01683,-12.3377 11.25054,-10.3415 13.05189,-7.948 14.35167,-5.2489 13.65364,-2.1233 1.04893,0.1632 4.47605,-0.1885 0.66216,0 10.52703,0.4432 14.84912,3.609 13.85971,6.4367 12.33768,9.0168 2.71078,2.949 -1.16278,3.8332 -7.20361,13.477 -9.69442,11.8127 -11.81269,9.6945 -9.29223,4.9668 0,0 z"
           inkscape:connector-curvature="0" />
        <path
           id="path3765"
           style="fill:none;stroke:#000000"
           d="m -100.17802,1096.6726 -22.80543,10.9825 6.60449,-8.0476 7.85848,-14.7021 0.15679,-0.5169 2.08954,2.2732 6.09613,10.0109 0,0 z"
           inkscape:connector-curvature="0" />
        <path
           id="path3767"
           style="fill:none;stroke:#000000"
           d="m -65.268808,1079.8612 -28.52439,13.7367 -6.818672,-11.1975 -5.37495,-5.8474 2.30557,-7.6004 1.28502,-13.0471 31.879074,0 1.012687,10.282 4.032691,13.294 0.20297,0.3797 0,0 z"
           inkscape:connector-curvature="0" />
        <path
           id="path3769"
           style="fill:none;stroke:#000000"
           d="m 119.90868,990.68445 -22.80543,10.98255 -4.025963,-11.00787 -0.474463,-3.051 0.501854,0.19967 16.394312,3.02266 10.40969,-0.14601 0,0 z"
           inkscape:connector-curvature="0" />
        <path
           id="path3771"
           style="fill:none;stroke:#000000"
           d="m 153.07061,982.58006 0.59659,-0.2873 4.11454,-1.77231 0.87428,-0.60208 13.22277,-4.01108 15.20782,-1.49784 15.20783,1.49784 14.6234,4.43596 13.477,7.20361 11.65885,9.56817 -6.35278,13.67917 -9.01683,12.3377 -11.25054,10.3415 -13.05189,7.948 -14.35167,5.2489 -13.65364,2.1233 -1.04893,-0.1631 -4.47605,0.1884 -0.66216,0 -10.52703,-0.4432 -14.84912,-3.609 -13.85971,-6.4366 -12.33768,-9.0169 -2.71078,-2.949 1.16278,-3.8332 7.20361,-13.477 9.69442,-11.81272 11.81269,-9.69442 9.29223,-4.9668 0,0 z"
           inkscape:connector-curvature="0" />
        <path
           id="path3773"
           style="fill:none;stroke:#000000"
           d="m 100.17802,1008.0518 22.80543,-10.98253 -6.60449,8.04763 -7.85848,14.7021 -0.15679,0.5169 -2.08954,-2.2732 -6.09613,-10.0109 0,0 z"
           inkscape:connector-curvature="0" />
        <path
           id="path3775"
           style="fill:none;stroke:#000000"
           d="m 65.268808,1024.8632 28.52439,-13.7366 6.818672,11.1974 5.37495,5.8474 -2.30557,7.6004 -1.28502,13.0471 -31.879074,0 -1.012687,-10.282 -4.032691,-13.294 -0.20297,-0.3797 0,0 z"
           inkscape:connector-curvature="0" />
        <path
           id="path3777"
           style="fill:none;stroke:#000000"
           d="m -90.718432,1099.9827 28.793189,-13.8661 3.0022,5.6167 8.813114,10.7388 3.394764,2.786 -19.898109,24.9515 -11.001793,-7.13 -7.379764,-2.9363 -1.220462,-7.8481 -4.503139,-12.3125 0,0 z"
           inkscape:connector-curvature="0" />
        <path
           id="path3779"
           style="fill:none;stroke:#000000"
           d="m -119.90868,1114.04 22.80543,-10.9826 4.025963,11.0079 0.474463,3.051 -0.501854,-0.1997 -16.394312,-3.0226 -10.40969,0.146 0,0 z"
           inkscape:connector-curvature="0" />
        <path
           id="path3781"
           style="fill:none;stroke:#000000"
           d="m -150.59243,1128.8165 0.59658,-0.2873 9.67681,-4.1682 14.94451,-3.1912 15.2799,-0.2143 15.028125,2.7708 3.721888,1.4808 0.615524,3.9581 -0.642774,15.2679 -3.609041,14.8491 -6.436612,13.8597 -6.217,8.5067 -0.41285,0.5177 -2.9381,3.382 -0.52646,0.9218 -10.17296,9.351 -13.05189,7.948 -14.35167,5.2489 -15.09992,2.3482 -15.26789,-0.6428 -14.65573,-3.562 -0.21153,-15.081 2.77077,-15.0281 5.64937,-14.1988 8.31087,-12.8238 10.65298,-10.9561 11.38025,-7.8371 1.01582,-0.3082 3.95103,-2.1118 0,0 z"
           inkscape:connector-curvature="0" />
        <path
           id="path3783"
           style="fill:none;stroke:#000000"
           d="m -198.4252,1050.3778 0,3.9689 -7.03121,2.5715 -14.23843,8.6705 -12.27331,11.2817 -9.83655,13.4592 -5.23297,11.268 -4.86429,-5.9272 -7.20361,-13.477 -4.43596,-14.6234 -1.49784,-15.2078 1.49784,-15.2078 4.43596,-14.6234 7.20361,-13.477 4.86429,-5.9272 5.23297,11.268 9.83655,13.4593 12.27331,11.2816 14.23843,8.6705 7.03121,2.5716 0,0 z"
           inkscape:connector-curvature="0" />
        <path
           id="path3785"
           style="fill:none;stroke:#000000"
           d="m -122.16459,895.98986 -3.103,2.47456 -6.39442,-3.89388 -15.65637,-5.7261 -16.47264,-2.56166 -16.65588,0.70121 -12.07234,2.93415 1.6012,-7.49858 6.04537,-14.03478 8.66726,-12.58571 10.95607,-10.65299 12.82384,-8.31087 14.19881,-5.64936 15.02812,-2.77077 7.66688,0.10753 -5.54694,11.11676 -4.38991,16.08225 -1.16807,16.62966 2.09867,16.538 2.37335,7.10058 0,0 z"
           inkscape:connector-curvature="0" />
        <path
           id="path3787"
           style="fill:none;stroke:#000000"
           d="m -42.219069,858.47036 -3.869382,0.88316 -4.071688,-6.2827 -11.621438,-11.95208 -13.72987,-9.45519 -15.31067,-6.59495 -12.149893,-2.59441 4.696147,-6.06125 11.536153,-10.02191 13.269666,-7.57876 14.493236,-4.84434 15.159837,-1.92378 15.243855,1.07073 14.742059,4.02408 6.860957,3.42342 -9.820998,7.60913 -10.932996,12.58489 -8.267732,14.476 -5.284741,15.8108 -0.942502,7.42716 0,0 z"
           inkscape:connector-curvature="0" />
        <path
           id="path3789"
           style="fill:none;stroke:#000000"
           d="m 46.088451,859.35352 -3.869382,-0.88316 -0.942502,-7.42716 -5.284741,-15.8108 -8.267732,-14.476 -10.932996,-12.58489 -9.820998,-7.60913 6.860957,-3.42342 14.742059,-4.02408 15.243855,-1.07073 15.159837,1.92378 14.493236,4.84434 13.269666,7.57876 11.536153,10.02191 4.696147,6.06125 -12.149893,2.59441 -15.31067,6.59495 -13.72987,9.45519 -11.621438,11.95208 -4.071688,6.2827 0,0 z"
           inkscape:connector-curvature="0" />
        <path
           id="path3791"
           style="fill:none;stroke:#000000"
           d="m 125.26759,898.46442 -3.103,-2.47456 2.37335,-7.10058 2.09867,-16.538 -1.16807,-16.62966 -4.38991,-16.08225 -5.54694,-11.11676 7.66688,-0.10753 15.02812,2.77077 14.19881,5.64936 12.82384,8.31087 10.95607,10.65299 8.66726,12.58571 6.04537,14.03478 1.6012,7.49858 -12.07234,-2.93415 -16.65588,-0.70121 -16.47264,2.56166 -15.65637,5.7261 -6.39442,3.89388 0,0 z"
           inkscape:connector-curvature="0" />
        <path
           id="path3793"
           style="fill:none;stroke:#000000"
           d="m 179.63594,968.05666 -1.72203,-3.57585 5.21914,-5.36763 9.0664,-13.98965 6.16295,-15.48961 3.02265,-16.39432 -0.17423,-12.42258 6.95427,3.22965 12.33768,9.01683 10.34151,11.25054 7.94794,13.05189 5.24892,14.35167 2.3482,15.09992 -0.64278,15.26789 -1.81088,7.45072 -9.60372,-7.88158 -14.70219,-7.85848 -15.9528,-4.83923 -16.59036,-1.634 -7.45067,0.73382 0,0 z"
           inkscape:connector-curvature="0" />
        <path
           id="path3795"
           style="fill:none;stroke:#000000"
           d="m 198.4252,1054.3467 0,-3.9689 7.03121,-2.5716 14.23843,-8.6705 12.27331,-11.2816 9.83655,-13.4593 5.23297,-11.268 4.86429,5.9272 7.20361,13.477 4.43596,14.6234 1.49784,15.2078 -1.49784,15.2078 -4.43596,14.6234 -7.20361,13.477 -4.86429,5.9272 -5.23297,-11.268 -9.83655,-13.4592 -12.27331,-11.2817 -14.23843,-8.6705 -7.03121,-2.5715 0,0 z"
           inkscape:connector-curvature="0" />
        <path
           id="path3797"
           style="fill:none;stroke:#000000"
           d="m -134.79496,1055.9055 25.31212,0 -1.14886,11.6645 -0.8963,2.9548 -0.36552,-0.3977 -13.45929,-9.8365 -9.44215,-4.3851 0,0 z"
           inkscape:connector-curvature="0" />
        <path
           id="path3799"
           style="fill:none;stroke:#000000"
           d="m 109.48284,1055.9055 25.31212,0 -9.44215,4.3851 -13.45929,9.8365 -0.36552,0.3977 -0.8963,-2.9548 -1.14886,-11.6645 0,0 z"
           inkscape:connector-curvature="0" />
        <path
           id="path3801"
           style="fill:none;stroke:#000000"
           d="m 102.09398,1186.067 0.41285,0.5177 2.64344,3.617 0.78153,0.7184 6.85286,11.9987 4.84435,14.4932 1.92377,15.1599 -1.07073,15.2438 -4.02408,14.7421 -6.73394,13.4957 -14.749873,-3.1496 -14.034781,-6.0454 -12.585714,-8.6673 -10.652985,-10.956 -8.310867,-12.8239 -5.108269,-12.8388 -0.07438,-1.059 -1.179731,-4.3219 -0.147345,-0.6455 -1.91041,-10.3617 0.214315,-15.2799 3.191158,-14.9445 6.045369,-14.0348 2.27192,-3.2991 3.995822,0.2807 14.742059,4.0241 13.673736,6.8228 12.079937,9.3593 6.909989,7.954 0,0 z"
           inkscape:connector-curvature="0" />
        <path
           id="path3803"
           style="fill:none;stroke:#000000"
           d="m 65.491167,1140.1686 15.781849,19.7898 -9.315457,-4.6482 -16.082247,-4.3899 -0.538791,-0.038 1.751256,-2.543 8.40339,-8.1709 0,0 z"
           inkscape:connector-curvature="0" />
        <path
           id="path3805"
           style="fill:none;stroke:#000000"
           d="m 41.236599,1109.7543 19.836137,24.8737 -9.399397,9.1394 -4.504766,6.5414 -7.922921,-0.5566 -13.005878,1.6505 -7.108754,-31.1455 7.988278,-2.4232 12.251821,-6.5488 1.86548,-1.5309 0,0 z"
           inkscape:connector-curvature="0" />
        <path
           id="path3807"
           style="fill:none;stroke:#000000"
           d="m -86.813554,949.18447 15.781849,19.78982 -9.83599,6.3745 -2.868929,1.14147 0.083,-0.5337 -0.701208,-16.65588 -2.458718,-10.11621 0,0 z"
           inkscape:connector-curvature="0" />
        <path
           id="path3809"
           style="fill:none;stroke:#000000"
           d="m 33.971148,1217.123 0.147345,0.6456 0.812299,4.4057 0.392438,0.9864 0.968173,13.7838 -1.923774,15.1598 -4.844346,14.4932 -7.578754,13.2697 -10.021913,11.5361 L 0,1300.6408 l -11.922616,-9.2375 -10.021913,-11.5361 -7.578754,-13.2697 -4.844346,-14.4932 -1.923774,-15.1598 0.968173,-13.7838 0.392438,-0.9864 0.812299,-4.4057 0.147345,-0.6456 2.774557,-10.1645 6.822794,-13.6737 9.35931,-12.0799 11.536153,-10.022 L 0,1169.1964 l 3.478334,1.9865 11.536153,10.022 9.35931,12.0799 6.822794,13.6737 2.774557,10.1645 0,0 z"
           inkscape:connector-curvature="0" />
        <path
           id="path3811"
           style="fill:none;stroke:#000000"
           d="m 20.907756,1159.8885 5.632476,24.6775 -6.376184,-8.2296 -12.584894,-10.933 -0.469013,-0.2679 2.681192,-1.5313 11.116423,-3.7157 0,0 z"
           inkscape:connector-curvature="0" />
        <path
           id="path3813"
           style="fill:none;stroke:#000000"
           d="m 12.264596,1122.0204 7.06624,30.9592 -12.43399,4.1561 -6.896846,3.939 -6.896846,-3.939 -12.43399,-4.1561 7.06624,-30.9592 L 0,1123.2283 l 12.264596,-1.2079 0,0 z"
           inkscape:connector-curvature="0" />
        <path
           id="path3815"
           style="fill:none;stroke:#000000"
           d="m -33.44917,921.73529 5.632476,24.67749 -11.627711,1.47555 -3.080085,-0.21634 0.306342,-0.44484 6.594948,-15.31067 2.17403,-10.18119 0,0 z"
           inkscape:connector-curvature="0" />
        <path
           id="path3817"
           style="fill:none;stroke:#000000"
           d="m -33.971148,887.6014 -0.147345,-0.64556 -0.812299,-4.40576 -0.392438,-0.98633 -0.968173,-13.78379 1.923774,-15.15984 4.844346,-14.49323 7.578754,-13.26967 10.021913,-11.53615 L 0,804.08365 l 11.922616,9.23742 10.021913,11.53615 7.578754,13.26967 4.844346,14.49323 1.923774,15.15984 -0.968173,13.78379 -0.392438,0.98633 -0.812299,4.40576 -0.147345,0.64556 -2.774557,10.16447 -6.822794,13.67374 -9.35931,12.07994 L 3.478334,933.54146 0,935.52805 l -3.478334,-1.98659 -11.536153,-10.02191 -9.35931,-12.07994 -6.822794,-13.67374 -2.774557,-10.16447 0,0 z"
           inkscape:connector-curvature="0" />
        <path
           id="path3819"
           style="fill:none;stroke:#000000"
           d="m -20.907756,944.83586 -5.632476,-24.67749 6.376184,8.22966 12.584894,10.93299 0.469013,0.26787 -2.681192,1.53132 -11.116423,3.71565 0,0 z"
           inkscape:connector-curvature="0" />
        <path
           id="path3821"
           style="fill:none;stroke:#000000"
           d="m -12.264596,982.70402 -7.06624,-30.95922 12.43399,-4.15604 L 0,943.64974 l 6.896846,3.93902 12.43399,4.15604 -7.06624,30.95922 L 0,981.49606 l -12.264596,1.20796 0,0 z"
           inkscape:connector-curvature="0" />
        <path
           id="path3823"
           style="fill:none;stroke:#000000"
           d="m 33.44917,1182.9891 -5.632476,-24.6775 11.627711,-1.4755 3.080085,0.2163 -0.306342,0.4449 -6.594948,15.3106 -2.17403,10.1812 0,0 z"
           inkscape:connector-curvature="0" />
        <path
           id="path3825"
           style="fill:none;stroke:#000000"
           d="m -27.816694,1158.3116 -5.632476,24.6775 -2.17403,-10.1812 -6.594948,-15.3106 -0.306342,-0.4449 3.080085,-0.2163 11.627711,1.4755 0,0 z"
           inkscape:connector-curvature="0" />
        <path
           id="path3827"
           style="fill:none;stroke:#000000"
           d="m 26.540232,920.15837 -5.632476,24.67749 -11.116423,-3.71565 -2.681192,-1.53132 0.469013,-0.26787 12.584894,-10.93299 6.376184,-8.22966 0,0 z"
           inkscape:connector-curvature="0" />
        <path
           id="path3829"
           style="fill:none;stroke:#000000"
           d="m 40.880086,889.17832 0.147345,-0.64556 1.179731,-4.32189 0.07438,-1.05893 5.108269,-12.83884 8.310867,-12.82385 10.652985,-10.95607 12.585714,-8.66726 14.034781,-6.04537 14.749872,-3.1496 6.73394,13.49566 4.02408,14.74206 1.07073,15.24386 -1.92377,15.15983 -4.84435,14.49324 -6.85286,11.99869 -0.78153,0.71838 -2.64344,3.61701 -0.41285,0.5177 -6.909987,7.95404 -12.079937,9.35931 -13.673736,6.82279 -14.742059,4.02408 -3.995822,0.28067 -2.27192,-3.29905 -6.045369,-14.03478 -3.191158,-14.9445 -0.214315,-15.27991 1.91041,-10.36171 0,0 z"
           inkscape:connector-curvature="0" />
        <path
           id="path3831"
           style="fill:none;stroke:#000000"
           d="m 27.816694,946.41278 5.632476,-24.67749 2.17403,10.18119 6.594948,15.31067 0.306342,0.44484 -3.080085,0.21634 -11.627711,-1.47555 0,0 z"
           inkscape:connector-curvature="0" />
        <path
           id="path3833"
           style="fill:none;stroke:#000000"
           d="m 19.13102,984.46721 7.108754,-31.14549 13.005878,1.65044 7.922921,-0.55651 4.504766,6.54137 9.399397,9.13937 -19.836137,24.87373 -1.86548,-1.53096 -12.251821,-6.54873 -7.988278,-2.42322 0,0 z"
           inkscape:connector-curvature="0" />
        <path
           id="path3835"
           style="fill:none;stroke:#000000"
           d="m -26.540232,1184.566 5.632476,-24.6775 11.116423,3.7157 2.681192,1.5313 -0.469013,0.2679 -12.584894,10.933 -6.376184,8.2296 0,0 z"
           inkscape:connector-curvature="0" />
        <path
           id="path3837"
           style="fill:none;stroke:#000000"
           d="m -125.26759,1206.26 3.103,2.4746 -2.37335,7.1005 -2.09867,16.538 1.16807,16.6297 4.38991,16.0822 5.54694,11.1168 -7.66688,0.1075 -15.02812,-2.7707 -14.19881,-5.6494 -12.82384,-8.3109 -10.95607,-10.653 -8.66726,-12.5857 -6.04537,-14.0348 -1.6012,-7.4985 12.07234,2.9341 16.65588,0.7012 16.47264,-2.5616 15.65637,-5.7261 6.39442,-3.8939 0,0 z"
           inkscape:connector-curvature="0" />
        <path
           id="path3839"
           style="fill:none;stroke:#000000"
           d="m -71.031705,1135.7501 -15.781849,19.7898 2.458718,-10.1162 0.701208,-16.6559 -0.083,-0.5337 2.868929,1.1415 9.83599,6.3745 0,0 z"
           inkscape:connector-curvature="0" />
        <path
           id="path3841"
           style="fill:none;stroke:#000000"
           d="m 81.273016,944.76604 -15.781849,19.78981 -8.40339,-8.17092 -1.751256,-2.54299 0.538791,-0.0379 16.082247,-4.38991 9.315457,-4.64814 0,0 z"
           inkscape:connector-curvature="0" />
        <path
           id="path3843"
           style="fill:none;stroke:#000000"
           d="m -177.91391,964.48081 -1.72203,3.57585 -7.45067,-0.73382 -16.59036,1.634 -15.9528,4.83923 -14.70219,7.85848 -9.60372,7.88158 -1.81088,-7.45072 -0.64278,-15.26789 2.3482,-15.09992 5.24892,-14.35167 7.94794,-13.05189 10.34151,-11.25054 12.33768,-9.01683 6.95427,-3.22965 -0.17423,12.42258 3.02265,16.39432 6.16295,15.48961 9.0664,13.98965 5.21914,5.36763 0,0 z"
           inkscape:connector-curvature="0" />
        <path
           id="path3845"
           style="fill:none;stroke:#000000"
           d="m -109.48284,1048.8189 -25.31212,0 9.44215,-4.3851 13.45929,-9.8365 0.36552,-0.3976 0.8963,2.9547 1.14886,11.6645 0,0 z"
           inkscape:connector-curvature="0" />
        <path
           id="path3847"
           style="fill:none;stroke:#000000"
           d="m 134.79496,1048.8189 -25.31212,0 1.14886,-11.6645 0.8963,-2.9547 0.36552,0.3976 13.45929,9.8365 9.44215,4.3851 0,0 z"
           inkscape:connector-curvature="0" />
        <path
           id="path3849"
           style="fill:none;stroke:#000000"
           d="m 253.4648,1138.3042 -0.70121,-16.6558 -2.98352,-12.2755 8.0142,-9.7654 7.85848,-14.7021 0.64172,-2.1155 -2.17749,22.1084 -11.19771,36.9139 0.54553,-3.508 0,0 z"
           inkscape:connector-curvature="0" />
        <path
           id="path3851"
           style="fill:none;stroke:#000000"
           d="m 211.76562,1206.7815 13.45929,-9.8365 3.27331,-3.561 -4.59066,8.5885 -33.48983,40.8074 -3.25915,2.6748 3.91646,-5.6871 6.59495,-15.3107 2.63807,-12.3543 11.45756,-5.3211 0,0 z"
           inkscape:connector-curvature="0" />
        <path
           id="path3853"
           style="fill:none;stroke:#000000"
           d="m 123.7942,1283.3709 16.39431,-3.0227 7.00831,-2.7884 -44.14349,23.5952 -15.001301,4.5506 2.788502,-1.5927 12.584889,-10.9329 7.73717,-9.9863 12.63161,0.1772 0,0 z"
           inkscape:connector-curvature="0" />
        <path
           id="path3855"
           style="fill:none;stroke:#000000"
           d="m 11.303818,1314.2061 16.082246,4.3899 2.134956,0.15 L 0,1321.6535 l -29.52102,-2.9075 2.134956,-0.15 16.082246,-4.3899 L 0,1308.5658 l 11.303818,5.6403 0,0 z"
           inkscape:connector-curvature="0" />
        <path
           id="path3857"
           style="fill:none;stroke:#000000"
           d="m -103.42542,1293.18 12.584889,10.9329 2.788502,1.5927 -15.001301,-4.5506 -44.14349,-23.5952 7.00831,2.7884 16.39431,3.0227 12.63161,-0.1772 7.73717,9.9863 0,0 z"
           inkscape:connector-curvature="0" />
        <path
           id="path3859"
           style="fill:none;stroke:#000000"
           d="m -197.66999,1224.4569 6.59495,15.3107 3.91646,5.6871 -3.25915,-2.6748 -33.48983,-40.8074 -4.59066,-8.5885 3.27331,3.561 13.45929,9.8365 11.45756,5.3211 2.63807,12.3543 0,0 z"
           inkscape:connector-curvature="0" />
        <path
           id="path3861"
           style="fill:none;stroke:#000000"
           d="m -252.76359,1121.6484 -0.70121,16.6558 0.54553,3.508 -11.19771,-36.9139 -2.17749,-22.1084 0.64172,2.1155 7.85848,14.7021 8.0142,9.7654 -2.98352,12.2755 0,0 z"
           inkscape:connector-curvature="0" />
        <path
           id="path3863"
           style="fill:none;stroke:#000000"
           d="m -257.79427,1005.1169 -7.85848,14.7021 -0.64172,2.1155 2.17749,-22.10843 11.19771,-36.9139 -0.54553,3.508 0.70121,16.65588 2.98352,12.27548 -8.0142,9.76537 0,0 z"
           inkscape:connector-curvature="0" />
        <path
           id="path3865"
           style="fill:none;stroke:#000000"
           d="m -211.76562,897.94288 -13.45929,9.83654 -3.27331,3.56104 4.59066,-8.58851 33.48983,-40.80748 3.25915,-2.67471 -3.91646,5.68709 -6.59495,15.31067 -2.63807,12.35433 -11.45756,5.32103 0,0 z"
           inkscape:connector-curvature="0" />
        <path
           id="path3867"
           style="fill:none;stroke:#000000"
           d="m -123.7942,821.35354 -16.39431,3.02266 -7.00831,2.78843 44.14349,-23.59518 15.001301,-4.5506 -2.788502,1.59261 -12.584889,10.933 -7.73717,9.98625 -12.63161,-0.17717 0,0 z"
           inkscape:connector-curvature="0" />
        <path
           id="path3869"
           style="fill:none;stroke:#000000"
           d="M -11.303818,790.5183 -27.386064,786.12839 -29.52102,785.97843 0,783.07087 29.52102,785.97843 27.386064,786.12839 11.303818,790.5183 0,796.15858 l -11.303818,-5.64028 0,0 z"
           inkscape:connector-curvature="0" />
        <path
           id="path3871"
           style="fill:none;stroke:#000000"
           d="m 103.42542,811.54446 -12.584889,-10.933 -2.788502,-1.59261 15.001301,4.5506 44.14349,23.59518 -7.00831,-2.78843 -16.39431,-3.02266 -12.63161,0.17717 -7.73717,-9.98625 0,0 z"
           inkscape:connector-curvature="0" />
        <path
           id="path3873"
           style="fill:none;stroke:#000000"
           d="m 197.66999,880.26752 -6.59495,-15.31067 -3.91646,-5.68709 3.25915,2.67471 33.48983,40.80748 4.59066,8.58851 -3.27331,-3.56104 -13.45929,-9.83654 -11.45756,-5.32103 -2.63807,-12.35433 0,0 z"
           inkscape:connector-curvature="0" />
        <path
           id="path3875"
           style="fill:none;stroke:#000000"
           d="m 252.76359,983.07605 0.70121,-16.65588 -0.54553,-3.508 11.19771,36.9139 2.17749,22.10843 -0.64172,-2.1155 -7.85848,-14.7021 -8.0142,-9.76537 2.98352,-12.27548 0,0 z"
           inkscape:connector-curvature="0" />
        <path
           id="path3877"
           style="fill:none;stroke:#000000"
           d="m 283.46457,1052.3622 -5.4467,-55.30119 -16.13076,-53.176 L 235.69217,894.87773 200.43972,851.92249 157.48448,816.67003 108.47719,790.47509 55.301194,774.34433 0,768.89764 l -55.301194,5.44669 -53.175996,16.13076 -49.00729,26.19494 -42.95524,35.25246 -35.25245,42.95524 -26.19494,49.00728 -16.13076,53.176 -5.4467,55.30119 5.4467,55.3012 16.13076,53.176 26.19494,49.0073 35.25245,42.9552 42.95524,35.2525 49.00729,26.1949 53.175996,16.1308 L 0,1335.8268 l 55.301194,-5.4467 53.175996,-16.1308 49.00729,-26.1949 42.95524,-35.2525 35.25245,-42.9552 26.19494,-49.0073 16.13076,-53.176 5.4467,-55.3012 0,0 z"
           inkscape:connector-curvature="0" />
        <path
           id="path3879"
           style="fill:none;stroke:#000000"
           d="m 55.603575,1041.302 1.089338,11.0602 -1.089338,11.0602 -3.226153,10.6352 -5.238987,9.8015 -7.050491,8.591 -8.591049,7.0505 -9.801456,5.239 -10.6352,3.2262 L 0,1109.0551 l -11.060239,-1.0893 -10.6352,-3.2262 -9.801456,-5.239 -8.591049,-7.0505 -7.050491,-8.591 -5.238987,-9.8015 -3.226153,-10.6352 -1.089338,-11.0602 1.089338,-11.0602 3.226153,-10.6352 5.238987,-9.8015 7.050491,-8.591 8.591049,-7.0505 9.801456,-5.23902 10.6352,-3.22615 L 0,995.66929 l 11.060239,1.08934 10.6352,3.22615 9.801456,5.23902 8.591049,7.0505 7.050491,8.591 5.238987,9.8015 3.226153,10.6352 0,0 z"
           inkscape:connector-curvature="0" />
      </g>
      <g
         id="g3881"
         inkscape:label="0" />
    </g>
  </g>
</svg>
