999
DXF generated by OpenJsCad
  0
SECTION
  2
HEADER
  0
ENDSEC
  0
SECTION
  2
TABLES
  0
TABLE
  2
LTYPE
  70
1
  0
LTYPE
  2
CONTINUOUS
  3
Solid Line
  72
65
  73
0
  40
0.0
  0
ENDTAB
  0
TABLE
  2
LAYER
  70
1
  0
LAYER
  2
OpenJsCad
  62
7
  6
continuous
  0
ENDTAB
  0
TABLE
  2
STYLE
  70
0
  0
ENDTAB
  0
TABLE
  2
VIEW
  70
0
  0
ENDTAB
  0
ENDSEC
  0
SECTION
  2
BLOCKS
  0
ENDSEC
  0
SECTION
  2
ENTITIES
  0
LWPOLYLINE
  8
OpenJsCad
  90
20
  70
1
 10
12.55281451392685
 20
-6.200520268101943
 30
0.0
 10
12.67431378734089
 20
-5.948224427189692
 30
0.0
 10
13.2
 20
-6
 30
0.0
 10
14.370541932096769
 20
-5.884711682419383
 30
0.0
 10
15.496100594190539
 20
-5.54327719506772
 30
0.0
 10
16.53342139811761
 20
-4.988817673815273
 30
0.0
 10
17.21101770537471
 20
-4.432728755705554
 30
0.0
 10
17.338785245662386
 20
-4.958418488906508
 30
0.0
 10
17.384136538909928
 20
-6.035652816156309
 30
0.0
 10
17.218458427984373
 20
-7.101035986271503
 30
0.0
 10
16.848117829775244
 20
-8.113625921498326
 30
0.0
 10
16.287346725782307
 20
-9.03450935849299
 30
0.0
 10
15.557695235047959
 20
-9.828297263209171
 30
0.0
 10
14.687203455167852
 20
-10.464484811630006
 30
0.0
 10
14.196540913363169
 20
-10.692354313788242
 30
0.0
 10
14.208834349240997
 20
-9.815872419002513
 30
0.0
 10
13.995569316205877
 20
-8.6591625000289
 30
0.0
 10
13.560739200408513
 20
-7.566284381772769
 30
0.0
 10
12.921054279343458
 20
-6.579236757425594
 30
0.0
 10
12.55281451392685
 20
-6.200520268101943
 30
0.0
  0
LWPOLYLINE
  8
OpenJsCad
  90
29
  70
1
 10
10.5830402932438
 20
-5.374002661087273
 30
0.0
 10
10.625132876538604
 20
-5.394273380842093
 30
0.0
 10
10.903899405809458
 20
-5.543277195067719
 30
0.0
 10
10.975571484764187
 20
-5.565018682525881
 30
0.0
 10
11.778511294016763
 20
-6.117970001559155
 30
0.0
 10
12.530138538109444
 20
-6.890981658354961
 30
0.0
 10
13.116516382419078
 20
-7.795775314006538
 30
0.0
 10
13.515110655233329
 20
-8.797580255741323
 30
0.0
 10
13.710603602182186
 20
-9.857897681467136
 30
0.0
 10
13.69567946618917
 20
-10.921939916949027
 30
0.0
 10
12.661635923757185
 20
-11.17326154570221
 30
0.0
 10
11.584401596507389
 20
-11.218612838949749
 30
0.0
 10
10.519018426392194
 20
-11.052934728024198
 30
0.0
 10
9.506428491165371
 20
-10.682594129815065
 30
0.0
 10
8.585545054170707
 20
-10.12182302582213
 30
0.0
 10
7.867786462901802
 20
-9.462057837923485
 30
0.0
 10
7.830641541978909
 20
-9.39702066372124
 30
0.0
 10
7.623342176019593
 20
-9.158399861257926
 30
0.0
 10
7.594213204583024
 20
-9.121873286399557
 30
0.0
 10
7.155569601033689
 20
-8.521679755207675
 30
0.0
 10
6.701430739615915
 20
-7.543800197105181
 30
0.0
 10
6.446792866961487
 20
-6.496112223797009
 30
0.0
 10
6.401441573713946
 20
-5.418877896547207
 30
0.0
 10
6.444870232759528
 20
-5.139612505426067
 30
0.0
 10
6.7074700716986095
 20
-5.035130297879947
 30
0.0
 10
7.76778749742442
 20
-4.839637350931089
 30
0.0
 10
8.845870003103474
 20
-4.854758414165161
 30
0.0
 10
9.900287482638163
 20
-5.079912393602067
 30
0.0
 10
10.5830402932438
 20
-5.374002661087273
 30
0.0
  0
LWPOLYLINE
  8
OpenJsCad
  90
7
  70
1
 10
6.851173770114467
 20
-3.5768304627706473
 30
0.0
 10
8.460223716843696
 20
-4.351708077509067
 30
0.0
 10
7.725762234959795
 20
-4.341406603872279
 30
0.0
 10
6.569052315986186
 20
-4.554671636907397
 30
0.0
 10
6.533643726662689
 20
-4.568759869381413
 30
0.0
 10
6.567119684639499
 20
-4.353494726432014
 30
0.0
 10
6.851173770114467
 20
-3.5768304627706473
 30
0.0
  0
LWPOLYLINE
  8
OpenJsCad
  90
10
  70
1
 10
4.369169892945026
 20
-2.3815603917439394
 30
0.0
 10
6.400689336163258
 20
-3.359888593211864
 30
0.0
 10
6.082967923578279
 20
-4.228606487348389
 30
0.0
 10
5.996857518814035
 20
-4.7823342881735815
 30
0.0
 10
5.4761741977300575
 20
-4.98950175270476
 30
0.0
 10
4.699936540390688
 20
-5.492565143279558
 30
0.0
 10
3.2960144107866647
 20
-3.7321024755891092
 30
0.0
 10
3.5355339059327378
 20
-3.5355339059327386
 30
0.0
 10
4.157348061512726
 20
-2.777851165098011
 30
0.0
 10
4.369169892945026
 20
-2.3815603917439394
 30
0.0
  0
LWPOLYLINE
  8
OpenJsCad
  90
10
  70
1
 10
-6.617631205721939
 20
2.909404159260858
 30
0.0
 10
-4.605077043455842
 20
1.9402091557380357
 30
0.0
 10
-4.619397662556434
 20
1.9134171618254499
 30
0.0
 10
-4.903926402016152
 20
0.9754516100806434
 30
0.0
 10
-4.97537714916071
 20
0.25000000000000144
 30
0.0
 10
-7.22462285083929
 20
0.25000000000000144
 30
0.0
 10
-7.315288317580615
 20
1.1705419320967725
 30
0.0
 10
-7.477959012360893
 20
1.7067953463283951
 30
0.0
 10
-7.098726144162438
 20
2.119362808561331
 30
0.0
 10
-6.617631205721939
 20
2.909404159260858
 30
0.0
  0
LWPOLYLINE
  8
OpenJsCad
  90
7
  70
1
 10
-8.677165586402339
 20
3.901223643558043
 30
0.0
 10
-7.068115639673147
 20
3.126346028819641
 30
0.0
 10
-7.498231386841564
 20
2.4200213542105335
 30
0.0
 10
-7.6456605342713875
 20
2.2596331750338816
 30
0.0
 10
-7.656722804932278
 20
2.296100594190539
 30
0.0
 10
-8.211182326184726
 20
3.3334213981176126
 30
0.0
 10
-8.677165586402339
 20
3.901223643558043
 30
0.0
  0
LWPOLYLINE
  8
OpenJsCad
  90
29
  70
1
 10
-10.84207474609761
 20
4.943788946891243
 30
0.0
 10
-10.799982162801987
 20
4.92351822713603
 30
0.0
 10
-10.144363718392187
 20
4.573082867664
 30
0.0
 10
-9.310912703473987
 20
3.889087296526012
 30
0.0
 10
-8.626917132336
 20
3.0556362816078115
 30
0.0
 10
-8.118662571187922
 20
2.104758878007994
 30
0.0
 10
-8.036621728856975
 20
1.83430646575369
 30
0.0
 10
-8.22788287757591
 20
1.626233449494357
 30
0.0
 10
-9.09837465745602
 20
0.9900459010735188
 30
0.0
 10
-10.076254215558512
 20
0.5359070396557475
 30
0.0
 10
-11.123942188866685
 20
0.28126916700131765
 30
0.0
 10
-11.866682200589542
 20
0.25000000000000144
 30
0.0
 10
-11.913401443390033
 20
0.25000000000000144
 30
0.0
 10
-12.22921173973508
 20
0.2632955337551337
 30
0.0
 10
-12.303219329443463
 20
0.25178658748962
 30
0.0
 10
-13.266559686231679
 20
0.4015959846793322
 30
0.0
 10
-14.279149621458501
 20
0.7719365828884639
 30
0.0
 10
-15.200033058453162
 20
1.3327076868814007
 30
0.0
 10
-15.993820963169341
 20
2.0623591776157477
 30
0.0
 10
-16.630008511590184
 20
2.932850957495858
 30
0.0
 10
-17.078232953390025
 20
3.8979952257260955
 30
0.0
 10
-16.25563628160781
 20
4.573082867664001
 30
0.0
 10
-15.304758878007995
 20
5.081337428812078
 30
0.0
 10
-14.272996771088705
 20
5.394319042217769
 30
0.0
 10
-13.2
 20
5.500000000000002
 30
0.0
 10
-12.127003228911292
 20
5.394319042217768
 30
0.0
 10
-11.194063696843502
 20
5.1113149291588185
 30
0.0
 10
-11.132378707166723
 20
5.068835037125468
 30
0.0
 10
-10.84207474609761
 20
4.943788946891243
 30
0.0
  0
LWPOLYLINE
  8
OpenJsCad
  90
29
  70
1
 10
-10.583040293243684
 20
5.3740026610872205
 30
0.0
 10
-10.625132876538565
 20
5.394273380842077
 30
0.0
 10
-10.903899405809458
 20
5.543277195067721
 30
0.0
 10
-10.97557148476421
 20
5.5650186825258885
 30
0.0
 10
-11.778511294016766
 20
6.117970001559147
 30
0.0
 10
-12.530138538109448
 20
6.890981658354955
 30
0.0
 10
-13.116516382419082
 20
7.795775314006532
 30
0.0
 10
-13.515110655233332
 20
8.797580255741316
 30
0.0
 10
-13.710603602182193
 20
9.857897681467128
 30
0.0
 10
-13.695679466189176
 20
10.921939916949034
 30
0.0
 10
-12.661635923757176
 20
11.17326154570222
 30
0.0
 10
-11.584401596507378
 20
11.21861283894976
 30
0.0
 10
-10.519018426392183
 20
11.052934728024205
 30
0.0
 10
-9.506428491165359
 20
10.682594129815072
 30
0.0
 10
-8.585545054170698
 20
10.121823025822135
 30
0.0
 10
-7.86778646290182
 20
9.462057837923517
 30
0.0
 10
-7.83064154197891
 20
9.397020663721237
 30
0.0
 10
-7.623342176020249
 20
9.15839986125735
 30
0.0
 10
-7.59421320458359
 20
9.121873286398872
 30
0.0
 10
-7.155569601033681
 20
8.52167975520768
 30
0.0
 10
-6.701430739615907
 20
7.543800197105185
 30
0.0
 10
-6.446792866961481
 20
6.496112223797013
 30
0.0
 10
-6.4014415737139405
 20
5.418877896547213
 30
0.0
 10
-6.44487023275952
 20
5.139612505426075
 30
0.0
 10
-6.707470071698612
 20
5.0351302978799435
 30
0.0
 10
-7.767787497424422
 20
4.839637350931085
 30
0.0
 10
-8.845870003103478
 20
4.854758414165156
 30
0.0
 10
-9.900287482638166
 20
5.079912393602061
 30
0.0
 10
-10.583040293243684
 20
5.3740026610872205
 30
0.0
  0
LWPOLYLINE
  8
OpenJsCad
  90
7
  70
1
 10
-6.8511737701144515
 20
3.5768304627706726
 30
0.0
 10
-8.460223716843679
 20
4.351708077509079
 30
0.0
 10
-7.725762234959797
 20
4.341406603872274
 30
0.0
 10
-6.569052315986188
 20
4.554671636907393
 30
0.0
 10
-6.533643726662684
 20
4.568759869381413
 30
0.0
 10
-6.5671196846394935
 20
4.35349472643202
 30
0.0
 10
-6.8511737701144515
 20
3.5768304627706726
 30
0.0
  0
LWPOLYLINE
  8
OpenJsCad
  90
10
  70
1
 10
-4.369169892945006
 20
2.3815603917439825
 30
0.0
 10
-6.400689336163243
 20
3.359888593211893
 30
0.0
 10
-6.082967923578484
 20
4.228606487348427
 30
0.0
 10
-5.996857518814139
 20
4.7823342881736055
 30
0.0
 10
-5.47617419773006
 20
4.989501752704754
 30
0.0
 10
-4.699936540391233
 20
5.492565143279117
 30
0.0
 10
-3.2960144107871465
 20
3.732102475588721
 30
0.0
 10
-3.5355339059327373
 20
3.5355339059327378
 30
0.0
 10
-4.157348061512726
 20
2.777851165098011
 30
0.0
 10
-4.369169892945006
 20
2.3815603917439825
 30
0.0
  0
LWPOLYLINE
  8
OpenJsCad
  90
10
  70
1
 10
6.617631205721992
 20
-2.9094041592607423
 30
0.0
 10
4.605077043455887
 20
-1.9402091557379322
 30
0.0
 10
4.619397662556432
 20
-1.913417161825452
 30
0.0
 10
4.90392640201615
 20
-0.9754516100806434
 30
0.0
 10
4.975377149160709
 20
-0.2500000000000016
 30
0.0
 10
7.22462285083929
 20
-0.2500000000000016
 30
0.0
 10
7.315288317580921
 20
-1.1705419320966772
 30
0.0
 10
7.477959012360891
 20
-1.706795346328382
 30
0.0
 10
7.098726144162441
 20
-2.119362808561325
 30
0.0
 10
6.617631205721992
 20
-2.9094041592607423
 30
0.0
  0
LWPOLYLINE
  8
OpenJsCad
  90
7
  70
1
 10
8.677165586402404
 20
-3.901223643557916
 30
0.0
 10
7.068115639673204
 20
-3.126346028819523
 30
0.0
 10
7.498231386841583
 20
-2.4200213542105433
 30
0.0
 10
7.6456605342714035
 20
-2.2596331750338874
 30
0.0
 10
7.656722804932278
 20
-2.296100594190538
 30
0.0
 10
8.211182326184726
 20
-3.3334213981176117
 30
0.0
 10
8.677165586402404
 20
-3.901223643557916
 30
0.0
  0
LWPOLYLINE
  8
OpenJsCad
  90
29
  70
1
 10
10.842074746097753
 20
-4.943788946891137
 30
0.0
 10
10.79998216280217
 20
-4.923518227135942
 30
0.0
 10
10.144363718392187
 20
-4.573082867663999
 30
0.0
 10
9.310912703473987
 20
-3.889087296526011
 30
0.0
 10
8.626917132336
 20
-3.0556362816078106
 30
0.0
 10
8.118662571187922
 20
-2.1047588780079933
 30
0.0
 10
8.03662172885698
 20
-1.8343064657536896
 30
0.0
 10
8.227882877575912
 20
-1.6262334494943504
 30
0.0
 10
9.098374657456022
 20
-0.9900459010735112
 30
0.0
 10
10.076254215558514
 20
-0.5359070396557395
 30
0.0
 10
11.123942188866685
 20
-0.2812691670013088
 30
0.0
 10
11.866682200589297
 20
-0.2500000000000016
 30
0.0
 10
11.913401443390063
 20
-0.2500000000000016
 30
0.0
 10
12.22921173973508
 20
-0.2632955337551328
 30
0.0
 10
12.303219329443497
 20
-0.25178658748961413
 30
0.0
 10
13.26655968623168
 20
-0.40159598467932067
 30
0.0
 10
14.279149621458503
 20
-0.7719365828884515
 30
0.0
 10
15.200033058453165
 20
-1.3327076868813874
 30
0.0
 10
15.993820963169345
 20
-2.0623591776157344
 30
0.0
 10
16.630008511590187
 20
-2.9328509574958446
 30
0.0
 10
17.07823295339003
 20
-3.897995225726087
 30
0.0
 10
16.25563628160781
 20
-4.573082867664
 30
0.0
 10
15.304758878007995
 20
-5.081337428812076
 30
0.0
 10
14.272996771088705
 20
-5.394319042217767
 30
0.0
 10
13.2
 20
-5.5
 30
0.0
 10
12.127003228911292
 20
-5.3943190422177665
 30
0.0
 10
11.194063696843472
 20
-5.111314929158807
 30
0.0
 10
11.132378707166719
 20
-5.068835037125474
 30
0.0
 10
10.842074746097753
 20
-4.943788946891137
 30
0.0
  0
LWPOLYLINE
  8
OpenJsCad
  90
20
  70
1
 10
8.619390163203455
 20
-11.03293782410954
 30
0.0
 10
8.83832428884109
 20
-10.85834368499529
 30
0.0
 10
9.289486621606592
 20
-11.133078563766276
 30
0.0
 10
10.39413018730858
 20
-11.537086489085329
 30
0.0
 10
11.55636637288879
 20
-11.71782624645866
 30
0.0
 10
12.731531093524936
 20
-11.668352108370431
 30
0.0
 10
13.58330221044049
 20
-11.461331324772999
 30
0.0
 10
13.47032855951121
 20
-11.990397666680876
 30
0.0
 10
13.043794205033425
 20
-12.980629447656815
 30
0.0
 10
12.43227095155412
 20
-13.868621478059476
 30
0.0
 10
11.659259294758314
 20
-14.620248722152159
 30
0.0
 10
10.754465639106733
 20
-15.206626566461793
 30
0.0
 10
9.752660697371947
 20
-15.605220839276045
 30
0.0
 10
8.692343271646141
 20
-15.800713786224899
 30
0.0
 10
8.15140272520699
 20
-15.79312661533075
 30
0.0
 10
8.542769969990946
 20
-15.008777636773951
 30
0.0
 10
8.852502439332763
 20
-13.874085780628493
 30
0.0
 10
8.934916086521664
 20
-12.700770903144857
 30
0.0
 10
8.78684380131429
 20
-11.533922837062185
 30
0.0
 10
8.619390163203455
 20
-11.03293782410954
 30
0.0
  0
LWPOLYLINE
  8
OpenJsCad
  90
29
  70
1
 10
-7.2032974633491555
 20
9.433618187328621
 30
0.0
 10
-7.232426434785758
 20
9.470144762187033
 30
0.0
 10
-7.418936067012934
 20
9.72534482406379
 30
0.0
 10
-7.4740771009766735
 20
9.776030577012698
 30
0.0
 10
-7.9575842860606025
 20
10.622605027652092
 30
0.0
 10
-8.29937984522338
 20
11.645183304040343
 30
0.0
 10
-8.43511277333014
 20
12.714794031282793
 30
0.0
 10
-8.359566930073646
 20
13.790332668976122
 30
0.0
 10
-8.075645499843649
 20
14.830466870442795
 30
0.0
 10
-7.600528694223709
 20
15.78266045881753
 30
0.0
 10
-6.559843286432406
 20
15.560438743553918
 30
0.0
 10
-5.569611505456471
 20
15.133904389076136
 30
0.0
 10
-4.6816194750538065
 20
14.522381135596833
 30
0.0
 10
-3.9299922309611226
 20
13.749369478801027
 30
0.0
 10
-3.3436143866514882
 20
12.844575823149448
 30
0.0
 10
-2.9831976279137784
 20
11.938724147363493
 30
0.0
 10
-2.977949782886064
 20
11.864011100971654
 30
0.0
 10
-2.894713193825235
 20
11.559077362699053
 30
0.0
 10
-2.884317184283569
 20
11.513529468856992
 30
0.0
 10
-2.7495271668883805
 20
10.782453455688854
 30
0.0
 10
-2.7646482301224506
 20
9.704370950009798
 30
0.0
 10
-2.9898022095593566
 20
8.64995347047511
 30
0.0
 10
-3.41633656403714
 20
7.6597216894991735
 30
0.0
 10
-3.576633145917734
 20
7.426955255187995
 30
0.0
 10
-3.8585605563994
 20
7.446757838949774
 30
0.0
 10
-4.898694757866071
 20
7.730679269179771
 30
0.0
 10
-5.8634527490577
 20
8.21206534504451
 30
0.0
 10
-6.715759421415308
 20
8.872416669612925
 30
0.0
 10
-7.2032974633491555
 20
9.433618187328621
 30
0.0
  0
LWPOLYLINE
  8
OpenJsCad
  90
7
  70
1
 10
-4.620765700086272
 20
6.195225785442755
 30
0.0
 10
-5.734262812148137
 20
7.591507000070332
 30
0.0
 10
-5.077005524197227
 20
7.263554799032471
 30
0.0
 10
-3.942313668051769
 20
6.953822329690657
 30
0.0
 10
-3.904298976431571
 20
6.951152177420962
 30
0.0
 10
-4.027859817516444
 20
6.7717296590965095
 30
0.0
 10
-4.620765700086272
 20
6.195225785442755
 30
0.0
  0
LWPOLYLINE
  8
OpenJsCad
  90
10
  70
1
 10
-2.909471168257782
 20
4.049330316470706
 30
0.0
 10
-4.309020799156908
 20
5.804310044208733
 30
0.0
 10
-3.6458411296054742
 20
6.4491436673253535
 30
0.0
 10
-3.328004847035081
 20
6.9106732727649165
 30
0.0
 10
-2.768998790568138
 20
6.871408682501752
 30
0.0
 10
-1.8513618022964482
 20
6.987856238780744
 30
0.0
 10
-1.3497997133950526
 20
4.7903691463610345
 30
0.0
 10
-1.9134171618254485
 20
4.619397662556434
 30
0.0
 10
-2.77785116509801
 20
4.157348061512726
 30
0.0
 10
-2.909471168257782
 20
4.049330316470706
 30
0.0
  0
LWPOLYLINE
  8
OpenJsCad
  90
7
  70
1
 10
6.125178553381924
 20
-7.279762099141167
 30
0.0
 10
5.011681441320049
 20
-5.883480884513577
 30
0.0
 10
5.705665129963826
 20
-5.433724570694199
 30
0.0
 10
5.908084024910918
 20
-5.353186924218243
 30
0.0
 10
5.902228166205036
 20
-5.390842672928612
 30
0.0
 10
5.951702304293263
 20
-6.566007393564758
 30
0.0
 10
6.125178553381924
 20
-7.279762099141167
 30
0.0
  0
LWPOLYLINE
  8
OpenJsCad
  90
20
  70
1
 10
2.978789880774494
 20
-13.680146733949567
 30
0.0
 10
3.251796270002318
 20
-13.617834807141499
 30
0.0
 10
3.5390764897271003
 20
-14.061114379730395
 30
0.0
 10
4.3590334832827535
 20
-14.904399823507637
 30
0.0
 10
5.3277520619038405
 20
-15.571516100030516
 30
0.0
 10
6.408004913877587
 20
-16.036826304915373
 30
0.0
 10
7.265247124459284
 20
-16.219876660964985
 30
0.0
 10
6.9339080994104965
 20
-16.64753153399203
 30
0.0
 10
6.119968457212279
 20
-17.354633220076
 30
0.0
 10
5.183719741371325
 20
-17.889356398637325
 30
0.0
 10
4.161141464983076
 20
-18.2311519578001
 30
0.0
 10
3.0915307377406234
 20
-18.366884885906863
 30
0.0
 10
2.015992100047293
 20
-18.291339042650367
 30
0.0
 10
0.9758578985806254
 20
-18.00741761242037
 30
0.0
 10
0.4917792569297177
 20
-17.765876500719976
 30
0.0
 10
1.184705227986071
 20
-17.229010373004236
 30
0.0
 10
1.9560888855322225
 20
-16.341076217878904
 30
0.0
 10
2.5394232621445743
 20
-15.319713982416046
 30
0.0
 10
2.912291144867602
 20
-14.204174044537956
 30
0.0
 10
2.978789880774494
 20
-13.680146733949567
 30
0.0
  0
LWPOLYLINE
  8
OpenJsCad
  90
20
  70
1
 10
-3.251796270002323
 20
-13.617834807141497
 30
0.0
 10
-2.978789880774485
 20
-13.680146733949567
 30
0.0
 10
-2.912291144867594
 20
-14.204174044537957
 30
0.0
 10
-2.539423262144566
 20
-15.319713982416047
 30
0.0
 10
-1.9560888855322132
 20
-16.341076217878907
 30
0.0
 10
-1.1847052279860653
 20
-17.22901037300423
 30
0.0
 10
-0.4917792569297029
 20
-17.765876500719976
 30
0.0
 10
-0.9758578985806152
 20
-18.007417612420372
 30
0.0
 10
-2.0159921000472862
 20
-18.291339042650367
 30
0.0
 10
-3.091530737740616
 20
-18.366884885906863
 30
0.0
 10
-4.161141464983066
 20
-18.231151957800105
 30
0.0
 10
-5.183719741371319
 20
-17.889356398637325
 30
0.0
 10
-6.119968457212272
 20
-17.354633220076003
 30
0.0
 10
-6.933908099410487
 20
-16.647531533992034
 30
0.0
 10
-7.265247124459281
 20
-16.219876660964978
 30
0.0
 10
-6.408004913877599
 20
-16.03682630491537
 30
0.0
 10
-5.327752061903848
 20
-15.571516100030514
 30
0.0
 10
-4.35903348328276
 20
-14.904399823507639
 30
0.0
 10
-3.5390764897271065
 20
-14.061114379730393
 30
0.0
 10
-3.251796270002323
 20
-13.617834807141497
 30
0.0
  0
LWPOLYLINE
  8
OpenJsCad
  90
29
  70
1
 10
7.594213204583122
 20
9.121873286399193
 30
0.0
 10
7.6233421760198326
 20
9.15839986125774
 30
0.0
 10
7.83064154197891
 20
9.397020663721234
 30
0.0
 10
7.867786462901822
 20
9.462057837923515
 30
0.0
 10
8.5855450541707
 20
10.121823025822135
 30
0.0
 10
9.506428491165362
 20
10.682594129815072
 30
0.0
 10
10.519018426392185
 20
11.052934728024205
 30
0.0
 10
11.584401596507378
 20
11.218612838949758
 30
0.0
 10
12.661635923757181
 20
11.173261545702218
 30
0.0
 10
13.695679466189173
 20
10.92193991694903
 30
0.0
 10
13.71060360218219
 20
9.85789768146713
 30
0.0
 10
13.51511065523333
 20
8.797580255741323
 30
0.0
 10
13.116516382419082
 20
7.7957753140065345
 30
0.0
 10
12.530138538109448
 20
6.890981658354958
 30
0.0
 10
11.778511294016763
 20
6.117970001559151
 30
0.0
 10
10.975571484764197
 20
5.565018682525885
 30
0.0
 10
10.903899405809462
 20
5.54327719506772
 30
0.0
 10
10.625132876538737
 20
5.394273380842094
 30
0.0
 10
10.583040293243627
 20
5.374002661087128
 30
0.0
 10
9.900287482638163
 20
5.079912393602063
 30
0.0
 10
8.845870003103474
 20
4.854758414165158
 30
0.0
 10
7.76778749742442
 20
4.839637350931088
 30
0.0
 10
6.70747007169861
 20
5.035130297879946
 30
0.0
 10
6.4448702327595235
 20
5.139612505426056
 30
0.0
 10
6.401441573713941
 20
5.418877896547212
 30
0.0
 10
6.446792866961481
 20
6.496112223797014
 30
0.0
 10
6.701430739615912
 20
7.543800197105186
 30
0.0
 10
7.155569601033685
 20
8.521679755207678
 30
0.0
 10
7.594213204583122
 20
9.121873286399193
 30
0.0
  0
LWPOLYLINE
  8
OpenJsCad
  90
7
  70
1
 10
5.011681441320248
 20
5.883480884513416
 30
0.0
 10
6.125178553382123
 20
7.2797620991409735
 30
0.0
 10
5.951702304293257
 20
6.566007393564763
 30
0.0
 10
5.902228166205033
 20
5.390842672928617
 30
0.0
 10
5.9080840249109166
 20
5.353186924218239
 30
0.0
 10
5.705665129963826
 20
5.433724570694196
 30
0.0
 10
5.011681441320248
 20
5.883480884513416
 30
0.0
  0
LWPOLYLINE
  8
OpenJsCad
  90
10
  70
1
 10
3.296014410786837
 20
3.7321024755889667
 30
0.0
 10
4.699936540390881
 20
5.4925651432794
 30
0.0
 10
5.476174197730033
 20
4.989501752704696
 30
0.0
 10
5.996857518814073
 20
4.78233428817355
 30
0.0
 10
6.082967923578364
 20
4.228606487348407
 30
0.0
 10
6.400689336163257
 20
3.35988859321186
 30
0.0
 10
4.369169892945015
 20
2.3815603917439594
 30
0.0
 10
4.157348061512726
 20
2.777851165098011
 30
0.0
 10
3.5355339059327378
 20
3.5355339059327378
 30
0.0
 10
3.296014410786837
 20
3.7321024755889667
 30
0.0
  0
LWPOLYLINE
  8
OpenJsCad
  90
10
  70
1
 10
-4.309020799156843
 20
-5.804310044208783
 30
0.0
 10
-2.9094711682576957
 20
-4.049330316470772
 30
0.0
 10
-2.777851165098011
 20
-4.157348061512726
 30
0.0
 10
-1.9134171618254516
 20
-4.619397662556432
 30
0.0
 10
-1.3497997133949575
 20
-4.790369146361055
 30
0.0
 10
-1.8513618022963396
 20
-6.987856238780767
 30
0.0
 10
-2.76899879056815
 20
-6.871408682501504
 30
0.0
 10
-3.3280048470351775
 20
-6.910673272764844
 30
0.0
 10
-3.6458411296056363
 20
-6.449143667325469
 30
0.0
 10
-4.309020799156843
 20
-5.804310044208783
 30
0.0
  0
LWPOLYLINE
  8
OpenJsCad
  90
7
  70
1
 10
-5.7342628121481
 20
-7.591507000070376
 30
0.0
 10
-4.62076570008621
 20
-6.195225785442799
 30
0.0
 10
-4.027859817516452
 20
-6.771729659096518
 30
0.0
 10
-3.9042989764315714
 20
-6.951152177420954
 30
0.0
 10
-3.9423136680517628
 20
-6.9538223296906585
 30
0.0
 10
-5.0770055241972205
 20
-7.263554799032474
 30
0.0
 10
-5.7342628121481
 20
-7.591507000070376
 30
0.0
  0
LWPOLYLINE
  8
OpenJsCad
  90
29
  70
1
 10
-7.232426434785786
 20
-9.470144762187111
 30
0.0
 10
-7.203297463349235
 20
-9.433618187328767
 30
0.0
 10
-6.715759421415303
 20
-8.872416669612926
 30
0.0
 10
-5.863452749057695
 20
-8.212065345044511
 30
0.0
 10
-4.898694757866064
 20
-7.730679269179776
 30
0.0
 10
-3.8585605563993943
 20
-7.446757838949777
 30
0.0
 10
-3.5766331459177283
 20
-7.4269552551879965
 30
0.0
 10
-3.4163365640371386
 20
-7.659721689499174
 30
0.0
 10
-2.989802209559354
 20
-8.649953470475111
 30
0.0
 10
-2.76464823012245
 20
-9.7043709500098
 30
0.0
 10
-2.74952716688838
 20
-10.782453455688856
 30
0.0
 10
-2.884317184283467
 20
-11.513529468857167
 30
0.0
 10
-2.894713193825043
 20
-11.559077362698835
 30
0.0
 10
-2.9779497828860664
 20
-11.864011100971648
 30
0.0
 10
-2.9831976279137815
 20
-11.938724147363507
 30
0.0
 10
-3.3436143866514882
 20
-12.844575823149448
 30
0.0
 10
-3.9299922309611217
 20
-13.749369478801025
 30
0.0
 10
-4.681619475053805
 20
-14.522381135596834
 30
0.0
 10
-5.569611505456466
 20
-15.133904389076136
 30
0.0
 10
-6.559843286432406
 20
-15.560438743553924
 30
0.0
 10
-7.600528694223701
 20
-15.782660458817528
 30
0.0
 10
-8.075645499843638
 20
-14.830466870442796
 30
0.0
 10
-8.359566930073637
 20
-13.790332668976129
 30
0.0
 10
-8.43511277333013
 20
-12.714794031282798
 30
0.0
 10
-8.29937984522337
 20
-11.645183304040348
 30
0.0
 10
-7.9575842860605945
 20
-10.622605027652096
 30
0.0
 10
-7.474077100976651
 20
-9.776030577012673
 30
0.0
 10
-7.41893606701294
 20
-9.72534482406379
 30
0.0
 10
-7.232426434785786
 20
-9.470144762187111
 30
0.0
  0
LWPOLYLINE
  8
OpenJsCad
  90
20
  70
1
 10
-12.674313787340889
 20
-5.948224427189691
 30
0.0
 10
-12.552814513926851
 20
-6.2005202681019345
 30
0.0
 10
-12.921054279343464
 20
-6.579236757425589
 30
0.0
 10
-13.560739200408518
 20
-7.566284381772765
 30
0.0
 10
-13.99556931620588
 20
-8.659162500028895
 30
0.0
 10
-14.208834349240998
 20
-9.815872419002503
 30
0.0
 10
-14.19654091336317
 20
-10.692354313788245
 30
0.0
 10
-14.687203455167843
 20
-10.464484811630015
 30
0.0
 10
-15.557695235047955
 20
-9.828297263209176
 30
0.0
 10
-16.287346725782303
 20
-9.034509358492997
 30
0.0
 10
-16.848117829775237
 20
-8.113625921498334
 30
0.0
 10
-17.218458427984373
 20
-7.10103598627151
 30
0.0
 10
-17.384136538909924
 20
-6.0356528161563165
 30
0.0
 10
-17.338785245662383
 20
-4.958418488906519
 30
0.0
 10
-17.211017705374704
 20
-4.432728755705554
 30
0.0
 10
-16.533421398117614
 20
-4.988817673815269
 30
0.0
 10
-15.496100594190539
 20
-5.543277195067718
 30
0.0
 10
-14.370541932096769
 20
-5.884711682419381
 30
0.0
 10
-13.2
 20
-5.999999999999998
 30
0.0
 10
-12.674313787340889
 20
-5.948224427189691
 30
0.0
  0
LWPOLYLINE
  8
OpenJsCad
  90
29
  70
1
 10
-10.799982162802323
 20
-4.92351822713595
 30
0.0
 10
-10.842074746097527
 20
-4.943788946890962
 30
0.0
 10
-11.132378707166719
 20
-5.068835037125467
 30
0.0
 10
-11.194063696843488
 20
-5.111314929158811
 30
0.0
 10
-12.127003228911294
 20
-5.394319042217765
 30
0.0
 10
-13.2
 20
-5.499999999999998
 30
0.0
 10
-14.272996771088705
 20
-5.394319042217765
 30
0.0
 10
-15.304758878007993
 20
-5.081337428812075
 30
0.0
 10
-16.255636281607813
 20
-4.573082867663997
 30
0.0
 10
-17.078232953390028
 20
-3.8979952257260875
 30
0.0
 10
-16.63000851159018
 20
-2.9328509574958517
 30
0.0
 10
-15.993820963169345
 20
-2.062359177615745
 30
0.0
 10
-15.200033058453164
 20
-1.3327076868813954
 30
0.0
 10
-14.279149621458501
 20
-0.7719365828884595
 30
0.0
 10
-13.266559686231677
 20
-0.4015959846793278
 30
0.0
 10
-12.303219329443465
 20
-0.25178658748961724
 30
0.0
 10
-12.229211739735083
 20
-0.26329553375513015
 30
0.0
 10
-11.913401443390079
 20
-0.2500000000000016
 30
0.0
 10
-11.866682200589493
 20
-0.2500000000000016
 30
0.0
 10
-11.123942188866685
 20
-0.281269167001315
 30
0.0
 10
-10.076254215558512
 20
-0.5359070396557444
 30
0.0
 10
-9.098374657456018
 20
-0.9900459010735179
 30
0.0
 10
-8.22788287757591
 20
-1.6262334494943556
 30
0.0
 10
-8.036621728856966
 20
-1.834306465753686
 30
0.0
 10
-8.118662571187922
 20
-2.104758878007993
 30
0.0
 10
-8.626917132336
 20
-3.0556362816078115
 30
0.0
 10
-9.310912703473988
 20
-3.8890872965260095
 30
0.0
 10
-10.144363718392189
 20
-4.573082867663998
 30
0.0
 10
-10.799982162802323
 20
-4.92351822713595
 30
0.0
  0
LWPOLYLINE
  8
OpenJsCad
  90
7
  70
1
 10
-7.06811563967322
 20
-3.1263460288194884
 30
0.0
 10
-8.677165586402438
 20
-3.90122364355788
 30
0.0
 10
-8.211182326184726
 20
-3.333421398117612
 30
0.0
 10
-7.656722804932279
 20
-2.2961005941905386
 30
0.0
 10
-7.6456605342713875
 20
-2.259633175033878
 30
0.0
 10
-7.498231386841562
 20
-2.420021354210535
 30
0.0
 10
-7.06811563967322
 20
-3.1263460288194884
 30
0.0
  0
LWPOLYLINE
  8
OpenJsCad
  90
10
  70
1
 10
-4.6050770434559
 20
-1.9402091557379109
 30
0.0
 10
-6.6176312057220095
 20
-2.9094041592607107
 30
0.0
 10
-7.098726144162409
 20
-2.119362808561303
 30
0.0
 10
-7.477959012360879
 20
-1.7067953463283652
 30
0.0
 10
-7.315288317580616
 20
-1.1705419320967714
 30
0.0
 10
-7.224622850839291
 20
-0.2500000000000016
 30
0.0
 10
-4.9753771491607095
 20
-0.2500000000000016
 30
0.0
 10
-4.903926402016152
 20
-0.9754516100806416
 30
0.0
 10
-4.619397662556434
 20
-1.913417161825448
 30
0.0
 10
-4.6050770434559
 20
-1.9402091557379109
 30
0.0
  0
LWPOLYLINE
  8
OpenJsCad
  90
7
  70
1
 10
8.460223716843695
 20
4.351708077509035
 30
0.0
 10
6.851173770114468
 20
3.576830462770638
 30
0.0
 10
6.5671196846394775
 20
4.353494726432018
 30
0.0
 10
6.533643726662687
 20
4.5687598693814095
 30
0.0
 10
6.569052315986186
 20
4.554671636907395
 30
0.0
 10
7.725762234959795
 20
4.341406603872278
 30
0.0
 10
8.460223716843695
 20
4.351708077509035
 30
0.0
  0
LWPOLYLINE
  8
OpenJsCad
  90
29
  70
1
 10
10.79998216280234
 20
4.92351822713596
 30
0.0
 10
10.84207474609756
 20
4.9437889468909795
 30
0.0
 10
11.132378707166719
 20
5.06883503712547
 30
0.0
 10
11.194063696843486
 20
5.111314929158812
 30
0.0
 10
12.127003228911294
 20
5.3943190422177665
 30
0.0
 10
13.2
 20
5.5
 30
0.0
 10
14.272996771088705
 20
5.3943190422177665
 30
0.0
 10
15.304758878007993
 20
5.081337428812077
 30
0.0
 10
16.255636281607813
 20
4.573082867663999
 30
0.0
 10
17.078232953390028
 20
3.8979952257260897
 30
0.0
 10
16.63000851159018
 20
2.9328509574958535
 30
0.0
 10
15.993820963169345
 20
2.062359177615747
 30
0.0
 10
15.200033058453164
 20
1.3327076868813972
 30
0.0
 10
14.279149621458501
 20
0.7719365828884612
 30
0.0
 10
13.266559686231677
 20
0.40159598467932867
 30
0.0
 10
12.303219329443497
 20
0.2517865874896228
 30
0.0
 10
12.229211739735085
 20
0.2632955337551408
 30
0.0
 10
11.913401443389798
 20
0.25000000000000144
 30
0.0
 10
11.866682200589551
 20
0.25000000000000144
 30
0.0
 10
11.123942188866685
 20
0.2812691670013159
 30
0.0
 10
10.076254215558512
 20
0.5359070396557453
 30
0.0
 10
9.098374657456018
 20
0.9900459010735188
 30
0.0
 10
8.22788287757591
 20
1.6262334494943564
 30
0.0
 10
8.03662172885697
 20
1.834306465753687
 30
0.0
 10
8.118662571187922
 20
2.1047588780079938
 30
0.0
 10
8.626917132336
 20
3.0556362816078124
 30
0.0
 10
9.310912703473988
 20
3.889087296526011
 30
0.0
 10
10.144363718392189
 20
4.573082867663999
 30
0.0
 10
10.79998216280234
 20
4.92351822713596
 30
0.0
  0
LWPOLYLINE
  8
OpenJsCad
  90
7
  70
1
 10
7.06811563967323
 20
3.1263460288194684
 30
0.0
 10
8.677165586402444
 20
3.9012236435578704
 30
0.0
 10
8.211182326184726
 20
3.333421398117613
 30
0.0
 10
7.656722804932279
 20
2.2961005941905395
 30
0.0
 10
7.6456605342713875
 20
2.2596331750338785
 30
0.0
 10
7.498231386841562
 20
2.4200213542105353
 30
0.0
 10
7.06811563967323
 20
3.1263460288194684
 30
0.0
  0
LWPOLYLINE
  8
OpenJsCad
  90
10
  70
1
 10
4.605077043455917
 20
1.9402091557378776
 30
0.0
 10
6.61763120572202
 20
2.909404159260688
 30
0.0
 10
7.098726144162363
 20
2.1193628085612635
 30
0.0
 10
7.477959012360852
 20
1.7067953463283474
 30
0.0
 10
7.315288317580615
 20
1.170541932096773
 30
0.0
 10
7.224622850839291
 20
0.25000000000000144
 30
0.0
 10
4.975377149160709
 20
0.25000000000000144
 30
0.0
 10
4.903926402016152
 20
0.9754516100806416
 30
0.0
 10
4.619397662556434
 20
1.913417161825449
 30
0.0
 10
4.605077043455917
 20
1.9402091557378776
 30
0.0
  0
LWPOLYLINE
  8
OpenJsCad
  90
10
  70
1
 10
-6.400689336163213
 20
-3.359888593211957
 30
0.0
 10
-4.369169892944976
 20
-2.381560391744045
 30
0.0
 10
-4.157348061512727
 20
-2.77785116509801
 30
0.0
 10
-3.5355339059327386
 20
-3.5355339059327373
 30
0.0
 10
-3.296014410786874
 20
-3.73210247558894
 30
0.0
 10
-4.699936540390905
 20
-5.492565143279379
 30
0.0
 10
-5.476174197730035
 20
-4.9895017527047
 30
0.0
 10
-5.996857518814068
 20
-4.782334288173555
 30
0.0
 10
-6.082967923578361
 20
-4.228606487348406
 30
0.0
 10
-6.400689336163213
 20
-3.359888593211957
 30
0.0
  0
LWPOLYLINE
  8
OpenJsCad
  90
7
  70
1
 10
-8.460223716843634
 20
-4.351708077509138
 30
0.0
 10
-6.851173770114422
 20
-3.576830462770738
 30
0.0
 10
-6.567119684639492
 20
-4.35349472643202
 30
0.0
 10
-6.533643726662685
 20
-4.5687598693814095
 30
0.0
 10
-6.569052315986186
 20
-4.554671636907394
 30
0.0
 10
-7.725762234959795
 20
-4.341406603872277
 30
0.0
 10
-8.460223716843634
 20
-4.351708077509138
 30
0.0
  0
LWPOLYLINE
  8
OpenJsCad
  90
29
  70
1
 10
-10.625132876538814
 20
-5.394273380842279
 30
0.0
 10
-10.583040293243435
 20
-5.374002661087183
 30
0.0
 10
-9.900287482638165
 20
-5.079912393602061
 30
0.0
 10
-8.845870003103474
 20
-4.854758414165156
 30
0.0
 10
-7.76778749742442
 20
-4.8396373509310875
 30
0.0
 10
-6.707470071698611
 20
-5.035130297879945
 30
0.0
 10
-6.444870232759525
 20
-5.139612505426065
 30
0.0
 10
-6.401441573713941
 20
-5.418877896547212
 30
0.0
 10
-6.446792866961482
 20
-6.496112223797013
 30
0.0
 10
-6.701430739615912
 20
-7.543800197105185
 30
0.0
 10
-7.155569601033686
 20
-8.521679755207678
 30
0.0
 10
-7.5942132045831325
 20
-9.121873286399204
 30
0.0
 10
-7.623342176019947
 20
-9.15839986125788
 30
0.0
 10
-7.830641541978903
 20
-9.39702066372124
 30
0.0
 10
-7.867786462901796
 20
-9.462057837923487
 30
0.0
 10
-8.585545054170701
 20
-10.121823025822135
 30
0.0
 10
-9.506428491165362
 20
-10.68259412981507
 30
0.0
 10
-10.519018426392186
 20
-11.052934728024201
 30
0.0
 10
-11.584401596507378
 20
-11.218612838949756
 30
0.0
 10
-12.661635923757181
 20
-11.173261545702218
 30
0.0
 10
-13.695679466189176
 20
-10.92193991694903
 30
0.0
 10
-13.71060360218219
 20
-9.857897681467126
 30
0.0
 10
-13.515110655233332
 20
-8.797580255741321
 30
0.0
 10
-13.116516382419082
 20
-7.795775314006534
 30
0.0
 10
-12.530138538109448
 20
-6.8909816583549555
 30
0.0
 10
-11.778511294016763
 20
-6.117970001559148
 30
0.0
 10
-10.975571484764197
 20
-5.565018682525881
 30
0.0
 10
-10.903899405809462
 20
-5.543277195067718
 30
0.0
 10
-10.625132876538814
 20
-5.394273380842279
 30
0.0
  0
LWPOLYLINE
  8
OpenJsCad
  90
20
  70
1
 10
-14
 20
0.1400136286060749
 30
0.0
 10
-14
 20
-0.14001362860606964
 30
0.0
 10
-14.49609149101728
 20
-0.32145214893724994
 30
0.0
 10
-15.500691604102366
 20
-0.933202444202271
 30
0.0
 10
-16.366642045610927
 20
-1.7291858886397415
 30
0.0
 10
-17.060664825706382
 20
-2.678813284872586
 30
0.0
 10
-17.429880064479384
 20
-3.473830107279934
 30
0.0
 10
-17.773082867663998
 20
-3.05563628160781
 30
0.0
 10
-18.281337428812076
 20
-2.1047588780079916
 30
0.0
 10
-18.594319042217766
 20
-1.0729967710887034
 30
0.0
 10
-18.7
 20
2.2900895144055505e-15
 30
0.0
 10
-18.594319042217766
 20
1.0729967710887105
 30
0.0
 10
-18.281337428812076
 20
2.1047588780079995
 30
0.0
 10
-17.773082867663998
 20
3.055636281607814
 30
0.0
 10
-17.429880064479388
 20
3.473830107279942
 30
0.0
 10
-17.060664825706386
 20
2.678813284872593
 30
0.0
 10
-16.366642045610924
 20
1.729185888639746
 30
0.0
 10
-15.500691604102364
 20
0.9332024442022746
 30
0.0
 10
-14.496091491017278
 20
0.3214521489372544
 30
0.0
 10
-14
 20
0.1400136286060749
 30
0.0
  0
LWPOLYLINE
  8
OpenJsCad
  90
20
  70
1
 10
-8.619390163203457
 20
11.03293782410954
 30
0.0
 10
-8.838324288841083
 20
10.858343684995297
 30
0.0
 10
-9.289486621606581
 20
11.133078563766283
 30
0.0
 10
-10.39413018730857
 20
11.537086489085336
 30
0.0
 10
-11.55636637288878
 20
11.717826246458667
 30
0.0
 10
-12.731531093524925
 20
11.668352108370442
 30
0.0
 10
-13.583302210440495
 20
11.461331324773004
 30
0.0
 10
-13.470328559511216
 20
11.990397666680868
 30
0.0
 10
-13.043794205033432
 20
12.980629447656806
 30
0.0
 10
-12.432270951554127
 20
13.86862147805947
 30
0.0
 10
-11.659259294758321
 20
14.620248722152153
 30
0.0
 10
-10.754465639106742
 20
15.206626566461788
 30
0.0
 10
-9.752660697371956
 20
15.605220839276038
 30
0.0
 10
-8.692343271646148
 20
15.800713786224895
 30
0.0
 10
-8.151402725206996
 20
15.793126615330747
 30
0.0
 10
-8.542769969990948
 20
15.008777636773951
 30
0.0
 10
-8.852502439332763
 20
13.87408578062849
 30
0.0
 10
-8.934916086521666
 20
12.700770903144857
 30
0.0
 10
-8.78684380131429
 20
11.533922837062185
 30
0.0
 10
-8.619390163203457
 20
11.03293782410954
 30
0.0
  0
LWPOLYLINE
  8
OpenJsCad
  90
20
  70
1
 10
-2.978789880774483
 20
13.680146733949563
 30
0.0
 10
-3.251796270002324
 20
13.617834807141493
 30
0.0
 10
-3.5390764897271074
 20
14.061114379730395
 30
0.0
 10
-4.359033483282762
 20
14.904399823507637
 30
0.0
 10
-5.327752061903849
 20
15.571516100030514
 30
0.0
 10
-6.408004913877596
 20
16.03682630491537
 30
0.0
 10
-7.265247124459295
 20
16.219876660964978
 30
0.0
 10
-6.933908099410498
 20
16.64753153399203
 30
0.0
 10
-6.1199684572122806
 20
17.354633220076
 30
0.0
 10
-5.183719741371327
 20
17.889356398637325
 30
0.0
 10
-4.161141464983078
 20
18.2311519578001
 30
0.0
 10
-3.091530737740625
 20
18.366884885906863
 30
0.0
 10
-2.0159921000472947
 20
18.291339042650367
 30
0.0
 10
-0.9758578985806272
 20
18.00741761242037
 30
0.0
 10
-0.4917792569297079
 20
17.76587650071997
 30
0.0
 10
-1.184705227986059
 20
17.229010373004236
 30
0.0
 10
-1.95608888553221
 20
16.341076217878907
 30
0.0
 10
-2.5394232621445627
 20
15.319713982416047
 30
0.0
 10
-2.9122911448675914
 20
14.204174044537957
 30
0.0
 10
-2.978789880774483
 20
13.680146733949563
 30
0.0
  0
LWPOLYLINE
  8
OpenJsCad
  90
20
  70
1
 10
3.251796270002321
 20
13.617834807141493
 30
0.0
 10
2.9787898807744835
 20
13.680146733949567
 30
0.0
 10
2.9122911448675928
 20
14.204174044537957
 30
0.0
 10
2.5394232621445645
 20
15.319713982416047
 30
0.0
 10
1.9560888855322114
 20
16.341076217878907
 30
0.0
 10
1.184705227986063
 20
17.229010373004233
 30
0.0
 10
0.4917792569297082
 20
17.765876500719973
 30
0.0
 10
0.975857898580629
 20
18.00741761242037
 30
0.0
 10
2.0159921000473005
 20
18.291339042650367
 30
0.0
 10
3.0915307377406296
 20
18.366884885906863
 30
0.0
 10
4.16114146498308
 20
18.2311519578001
 30
0.0
 10
5.183719741371332
 20
17.889356398637325
 30
0.0
 10
6.119968457212286
 20
17.354633220076
 30
0.0
 10
6.9339080994105
 20
16.64753153399203
 30
0.0
 10
7.265247124459288
 20
16.21987666096498
 30
0.0
 10
6.408004913877597
 20
16.036826304915373
 30
0.0
 10
5.327752061903845
 20
15.571516100030516
 30
0.0
 10
4.359033483282757
 20
14.904399823507637
 30
0.0
 10
3.5390764897271048
 20
14.061114379730395
 30
0.0
 10
3.251796270002321
 20
13.617834807141493
 30
0.0
  0
LWPOLYLINE
  8
OpenJsCad
  90
20
  70
1
 10
8.838324288841092
 20
10.858343684995301
 30
0.0
 10
8.61939016320346
 20
11.032937824109545
 30
0.0
 10
8.786843801314292
 20
11.533922837062185
 30
0.0
 10
8.934916086521667
 20
12.700770903144857
 30
0.0
 10
8.852502439332765
 20
13.87408578062849
 30
0.0
 10
8.542769969990951
 20
15.008777636773946
 30
0.0
 10
8.151402725206994
 20
15.793126615330749
 30
0.0
 10
8.692343271646145
 20
15.800713786224897
 30
0.0
 10
9.752660697371955
 20
15.605220839276042
 30
0.0
 10
10.75446563910674
 20
15.20662656646179
 30
0.0
 10
11.659259294758318
 20
14.620248722152157
 30
0.0
 10
12.432270951554125
 20
13.868621478059472
 30
0.0
 10
13.043794205033432
 20
12.98062944765681
 30
0.0
 10
13.470328559511213
 20
11.990397666680874
 30
0.0
 10
13.58330221044049
 20
11.461331324773006
 30
0.0
 10
12.73153109352493
 20
11.668352108370442
 30
0.0
 10
11.556366372888782
 20
11.717826246458667
 30
0.0
 10
10.394130187308571
 20
11.537086489085336
 30
0.0
 10
9.289486621606583
 20
11.133078563766283
 30
0.0
 10
8.838324288841092
 20
10.858343684995301
 30
0.0
  0
LWPOLYLINE
  8
OpenJsCad
  90
20
  70
1
 10
12.674313787340894
 20
5.948224427189694
 30
0.0
 10
12.552814513926858
 20
6.200520268101944
 30
0.0
 10
12.921054279343462
 20
6.5792367574255906
 30
0.0
 10
13.560739200408516
 20
7.566284381772766
 30
0.0
 10
13.99556931620588
 20
8.659162500028897
 30
0.0
 10
14.208834349240998
 20
9.815872419002504
 30
0.0
 10
14.196540913363169
 20
10.692354313788245
 30
0.0
 10
14.687203455167843
 20
10.464484811630015
 30
0.0
 10
15.557695235047955
 20
9.828297263209178
 30
0.0
 10
16.287346725782303
 20
9.034509358492999
 30
0.0
 10
16.848117829775237
 20
8.113625921498336
 30
0.0
 10
17.218458427984373
 20
7.101035986271512
 30
0.0
 10
17.384136538909924
 20
6.035652816156318
 30
0.0
 10
17.338785245662383
 20
4.958418488906521
 30
0.0
 10
17.211017705374704
 20
4.432728755705556
 30
0.0
 10
16.533421398117614
 20
4.988817673815271
 30
0.0
 10
15.496100594190539
 20
5.54327719506772
 30
0.0
 10
14.370541932096769
 20
5.884711682419383
 30
0.0
 10
13.2
 20
6
 30
0.0
 10
12.674313787340894
 20
5.948224427189694
 30
0.0
  0
LWPOLYLINE
  8
OpenJsCad
  90
20
  70
1
 10
14
 20
-0.1400136286060603
 30
0.0
 10
14
 20
0.14001362860607247
 30
0.0
 10
14.49609149101728
 20
0.3214521489372517
 30
0.0
 10
15.500691604102366
 20
0.9332024442022728
 30
0.0
 10
16.366642045610927
 20
1.7291858886397433
 30
0.0
 10
17.060664825706386
 20
2.6788132848725885
 30
0.0
 10
17.429880064479388
 20
3.4738301072799347
 30
0.0
 10
17.773082867663998
 20
3.0556362816078124
 30
0.0
 10
18.281337428812076
 20
2.1047588780079938
 30
0.0
 10
18.594319042217766
 20
1.0729967710887056
 30
0.0
 10
18.7
 20
0
 30
0.0
 10
18.594319042217766
 20
-1.0729967710887083
 30
0.0
 10
18.281337428812076
 20
-2.1047588780079973
 30
0.0
 10
17.773082867663998
 20
-3.055636281607812
 30
0.0
 10
17.42988006447939
 20
-3.4738301072799307
 30
0.0
 10
17.06066482570639
 20
-2.6788132848725796
 30
0.0
 10
16.366642045610927
 20
-1.7291858886397327
 30
0.0
 10
15.500691604102368
 20
-0.9332024442022622
 30
0.0
 10
14.496091491017282
 20
-0.32145214893724194
 30
0.0
 10
14
 20
-0.1400136286060603
 30
0.0
  0
LWPOLYLINE
  8
OpenJsCad
  90
7
  70
1
 10
-9.510533556583548
 20
-0.2500000000000016
 30
0.0
 10
-7.724622850839291
 20
-0.2500000000000016
 30
0.0
 10
-7.805680957782214
 20
-1.0729967710887118
 30
0.0
 10
-7.868920206946479
 20
-1.281468637048186
 30
0.0
 10
-7.894709588599907
 20
-1.2534123670527726
 30
0.0
 10
-8.844336984832752
 20
-0.5593895869573129
 30
0.0
 10
-9.510533556583548
 20
-0.2500000000000016
 30
0.0
  0
LWPOLYLINE
  8
OpenJsCad
  90
7
  70
1
 10
7.724622850839291
 20
-0.2500000000000016
 30
0.0
 10
9.510533556583535
 20
-0.2500000000000016
 30
0.0
 10
8.844336984832754
 20
-0.5593895869573067
 30
0.0
 10
7.894709588599911
 20
-1.2534123670527673
 30
0.0
 10
7.868920206946477
 20
-1.2814686370481918
 30
0.0
 10
7.805680957782232
 20
-1.0729967710887056
 30
0.0
 10
7.724622850839291
 20
-0.2500000000000016
 30
0.0
  0
LWPOLYLINE
  8
OpenJsCad
  90
29
  70
1
 10
7.203297463349133
 20
-9.4336181873286
 30
0.0
 10
7.232426434785925
 20
-9.470144762187244
 30
0.0
 10
7.418936067012944
 20
-9.725344824063784
 30
0.0
 10
7.474077100976652
 20
-9.776030577012664
 30
0.0
 10
7.957584286060602
 20
-10.622605027652094
 30
0.0
 10
8.299379845223378
 20
-11.645183304040343
 30
0.0
 10
8.435112773330138
 20
-12.714794031282795
 30
0.0
 10
8.359566930073644
 20
-13.790332668976122
 30
0.0
 10
8.075645499843647
 20
-14.830466870442795
 30
0.0
 10
7.600528694223707
 20
-15.782660458817535
 30
0.0
 10
6.559843286432397
 20
-15.560438743553924
 30
0.0
 10
5.5696115054564626
 20
-15.13390438907614
 30
0.0
 10
4.681619475053798
 20
-14.522381135596834
 30
0.0
 10
3.9299922309611155
 20
-13.749369478801029
 30
0.0
 10
3.343614386651481
 20
-12.844575823149448
 30
0.0
 10
2.9831976279137917
 20
-11.938724147363542
 30
0.0
 10
2.9779497828860735
 20
-11.864011100971652
 30
0.0
 10
2.89471319382518
 20
-11.559077362698863
 30
0.0
 10
2.8843171842835194
 20
-11.513529468856824
 30
0.0
 10
2.7495271668883747
 20
-10.782453455688854
 30
0.0
 10
2.764648230122446
 20
-9.7043709500098
 30
0.0
 10
2.989802209559352
 20
-8.649953470475111
 30
0.0
 10
3.4163365640371355
 20
-7.659721689499175
 30
0.0
 10
3.5766331459177323
 20
-7.426955255187997
 30
0.0
 10
3.858560556399399
 20
-7.446757838949774
 30
0.0
 10
4.89869475786607
 20
-7.730679269179772
 30
0.0
 10
5.863452749057699
 20
-8.21206534504451
 30
0.0
 10
6.715759421415307
 20
-8.872416669612925
 30
0.0
 10
7.203297463349133
 20
-9.4336181873286
 30
0.0
  0
LWPOLYLINE
  8
OpenJsCad
  90
7
  70
1
 10
4.6207657000861495
 20
-6.195225785442848
 30
0.0
 10
5.734262812148066
 20
-7.591507000070386
 30
0.0
 10
5.077005524197226
 20
-7.263554799032472
 30
0.0
 10
3.942313668051768
 20
-6.953822329690657
 30
0.0
 10
3.904298976431567
 20
-6.951152177420963
 30
0.0
 10
4.027859817516439
 20
-6.77172965909651
 30
0.0
 10
4.6207657000861495
 20
-6.195225785442848
 30
0.0
  0
LWPOLYLINE
  8
OpenJsCad
  90
10
  70
1
 10
2.9094711682575816
 20
-4.049330316470863
 30
0.0
 10
4.309020799156775
 20
-5.804310044208842
 30
0.0
 10
3.6458411296056346
 20
-6.449143667325467
 30
0.0
 10
3.328004847035166
 20
-6.9106732727649725
 30
0.0
 10
2.768998790568137
 20
-6.8714086825017535
 30
0.0
 10
1.8513618022964387
 20
-6.987856238780744
 30
0.0
 10
1.3497997133950443
 20
-4.790369146361036
 30
0.0
 10
1.9134171618254499
 20
-4.619397662556433
 30
0.0
 10
2.777851165098009
 20
-4.157348061512727
 30
0.0
 10
2.9094711682575816
 20
-4.049330316470863
 30
0.0
  0
LWPOLYLINE
  8
OpenJsCad
  90
7
  70
1
 10
-6.125178553382526
 20
7.279762099140663
 30
0.0
 10
-5.01168144132061
 20
5.8834808845131255
 30
0.0
 10
-5.705665129963838
 20
5.433724570694213
 30
0.0
 10
-5.90808402491092
 20
5.353186924218241
 30
0.0
 10
-5.902228166205031
 20
5.390842672928616
 30
0.0
 10
-5.951702304293256
 20
6.566007393564762
 30
0.0
 10
-6.125178553382526
 20
7.279762099140663
 30
0.0
  0
LWPOLYLINE
  8
OpenJsCad
  90
29
  70
1
 10
2.396853228192439
 20
-11.624789935834787
 30
0.0
 10
2.4072492377341947
 20
-11.670337829677244
 30
0.0
 10
2.4645614528646824
 20
-11.981188637127087
 30
0.0
 10
2.4922500838005113
 20
-12.05077972057527
 30
0.0
 10
2.560560116883449
 20
-13.023302850317348
 30
0.0
 10
2.42482718877669
 20
-14.092913577559798
 30
0.0
 10
2.0830316296139135
 20
-15.115491853948049
 30
0.0
 10
1.5483084510525926
 20
-16.051740569789
 30
0.0
 10
0.8412067649686206
 20
-16.865680211987222
 30
0.0
 10
1.9984014443252818e-15
 20
-17.517431535189186
 30
0.0
 10
-0.841206764968613
 20
-16.86568021198722
 30
0.0
 10
-1.5483084510525824
 20
-16.051740569789004
 30
0.0
 10
-2.083031629613907
 20
-15.11549185394805
 30
0.0
 10
-2.424827188776682
 20
-14.0929135775598
 30
0.0
 10
-2.560560116883443
 20
-13.023302850317346
 30
0.0
 10
-2.492250083800502
 20
-12.050779720575232
 30
0.0
 10
-2.4645614528646886
 20
-11.981188637127088
 30
0.0
 10
-2.407249237734247
 20
-11.670337829677564
 30
0.0
 10
-2.3968532281924153
 20
-11.624789935834773
 30
0.0
 10
-2.201092843396951
 20
-10.907630011157348
 30
0.0
 10
-1.7197067675322146
 20
-9.94287201996572
 30
0.0
 10
-1.0593554429637988
 20
-9.090565347608111
 30
0.0
 10
-0.2454158007655829
 20
-8.38346366152414
 30
0.0
 10
0
 20
-8.243298431031215
 30
0.0
 10
0.24541580076558756
 20
-8.38346366152414
 30
0.0
 10
1.0593554429638057
 20
-9.090565347608111
 30
0.0
 10
1.7197067675322195
 20
-9.942872019965717
 30
0.0
 10
2.2010928433969568
 20
-10.907630011157348
 30
0.0
 10
2.396853228192439
 20
-11.624789935834787
 30
0.0
  0
LWPOLYLINE
  8
OpenJsCad
  90
7
  70
1
 10
1.475158313183567
 20
-7.586580661849841
 30
0.0
 10
1.8725608313883653
 20
-9.327714857544239
 30
0.0
 10
1.4226856039808187
 20
-8.747066884590659
 30
0.0
 10
0.5347514488554908
 20
-7.97568322704451
 30
0.0
 10
0.5016599308335641
 20
-7.9567835464353776
 30
0.0
 10
0.6908329150753705
 20
-7.848740482962817
 30
0.0
 10
1.475158313183567
 20
-7.586580661849841
 30
0.0
  0
LWPOLYLINE
  8
OpenJsCad
  90
9
  70
1
 10
0.8653353989706426
 20
-4.914771902180755
 30
0.0
 10
1.3638978462054072
 20
-7.09911670575893
 30
0.0
 10
0.48661078660745627
 20
-7.392348850432306
 30
0.0
 10
4.529709940470639e-14
 20
-7.670268661839615
 30
0.0
 10
-0.4866107866073657
 20
-7.39234885043216
 30
0.0
 10
-1.3638978462054177
 20
-7.099116705758926
 30
0.0
 10
-0.8653353989706678
 20
-4.914771902180748
 30
0.0
 10
-8.881784197001252e-16
 20
-5
 30
0.0
 10
0.8653353989706426
 20
-4.914771902180755
 30
0.0
  0
LWPOLYLINE
  8
OpenJsCad
  90
7
  70
1
 10
-2.3600247874794134
 20
9.216454390566083
 30
0.0
 10
-1.9626222692746078
 20
7.475320194871655
 30
0.0
 10
-2.783021918706072
 20
7.371211995693299
 30
0.0
 10
-3.0003390165213215
 20
7.386476350532003
 30
0.0
 10
-2.9787248530827624
 20
7.417862245946553
 30
0.0
 10
-2.513414648197908
 20
8.498115097920302
 30
0.0
 10
-2.3600247874794134
 20
9.216454390566083
 30
0.0
  0
LWPOLYLINE
  8
OpenJsCad
  90
29
  70
1
 10
-2.3968532281924917
 20
11.624789935835015
 30
0.0
 10
-2.407249237734224
 20
11.670337829677369
 30
0.0
 10
-2.4645614528646886
 20
11.981188637127085
 30
0.0
 10
-2.4922500838004984
 20
12.05077972057522
 30
0.0
 10
-2.56056011688344
 20
13.02330285031735
 30
0.0
 10
-2.4248271887766792
 20
14.0929135775598
 30
0.0
 10
-2.083031629613903
 20
15.11549185394805
 30
0.0
 10
-1.5483084510525802
 20
16.051740569789004
 30
0.0
 10
-0.8412067649686077
 20
16.865680211987222
 30
0.0
 10
1.887379141862766e-15
 20
17.517431535189182
 30
0.0
 10
0.8412067649686112
 20
16.86568021198722
 30
0.0
 10
1.5483084510525806
 20
16.051740569789004
 30
0.0
 10
2.0830316296139055
 20
15.11549185394805
 30
0.0
 10
2.4248271887766806
 20
14.0929135775598
 30
0.0
 10
2.5605601168834418
 20
13.023302850317348
 30
0.0
 10
2.4922500838005006
 20
12.050779720575234
 30
0.0
 10
2.464561452864687
 20
11.98118863712709
 30
0.0
 10
2.4072492377342374
 20
11.670337829677441
 30
0.0
 10
2.3968532281924517
 20
11.624789935834855
 30
0.0
 10
2.2010928433969497
 20
10.90763001115735
 30
0.0
 10
1.7197067675322133
 20
9.94287201996572
 30
0.0
 10
1.059355442963798
 20
9.090565347608111
 30
0.0
 10
0.245415800765582
 20
8.38346366152414
 30
0.0
 10
3.9968028886505635e-15
 20
8.243298431031226
 30
0.0
 10
-0.24541580076558134
 20
8.383463661524141
 30
0.0
 10
-1.0593554429637988
 20
9.090565347608113
 30
0.0
 10
-1.719706767532212
 20
9.942872019965721
 30
0.0
 10
-2.2010928433969483
 20
10.907630011157352
 30
0.0
 10
-2.3968532281924917
 20
11.624789935835015
 30
0.0
  0
LWPOLYLINE
  8
OpenJsCad
  90
7
  70
1
 10
-1.4751583131835695
 20
7.586580661849839
 30
0.0
 10
-1.8725608313883717
 20
9.327714857544258
 30
0.0
 10
-1.422685603980812
 20
8.74706688459066
 30
0.0
 10
-0.5347514488554848
 20
7.975683227044511
 30
0.0
 10
-0.5016599308335601
 20
7.956783546435382
 30
0.0
 10
-0.6908329150753696
 20
7.848740482962817
 30
0.0
 10
-1.4751583131835695
 20
7.586580661849839
 30
0.0
  0
LWPOLYLINE
  8
OpenJsCad
  90
9
  70
1
 10
-0.8653353989706465
 20
4.914771902180753
 30
0.0
 10
-1.3638978462054099
 20
7.099116705758927
 30
0.0
 10
-0.4866107866073426
 20
7.3923488504321035
 30
0.0
 10
1.9539925233402755e-14
 20
7.670268661839512
 30
0.0
 10
0.4866107866073719
 20
7.392348850432159
 30
0.0
 10
1.3638978462054316
 20
7.099116705758925
 30
0.0
 10
0.8653353989706806
 20
4.914771902180748
 30
0.0
 10
0
 20
5
 30
0.0
 10
-0.8653353989706465
 20
4.914771902180753
 30
0.0
  0
LWPOLYLINE
  8
OpenJsCad
  90
7
  70
1
 10
2.3600247874794
 20
-9.21645439056607
 30
0.0
 10
1.962622269274598
 20
-7.475320194871656
 30
0.0
 10
2.7830219187060696
 20
-7.3712119956933035
 30
0.0
 10
3.000339016521324
 20
-7.3864763505320035
 30
0.0
 10
2.978724853082759
 20
-7.417862245946553
 30
0.0
 10
2.513414648197903
 20
-8.498115097920303
 30
0.0
 10
2.3600247874794
 20
-9.21645439056607
 30
0.0
  0
LWPOLYLINE
  8
OpenJsCad
  90
7
  70
1
 10
-1.9626222692744966
 20
-7.475320194871678
 30
0.0
 10
-2.3600247874792943
 20
-9.21645439056612
 30
0.0
 10
-2.5134146481979056
 20
-8.498115097920303
 30
0.0
 10
-2.9787248530827615
 20
-7.417862245946554
 30
0.0
 10
-3.0003390165213273
 20
-7.386476350532006
 30
0.0
 10
-2.7830219187060656
 20
-7.371211995693281
 30
0.0
 10
-1.9626222692744966
 20
-7.475320194871678
 30
0.0
  0
LWPOLYLINE
  8
OpenJsCad
  90
7
  70
1
 10
1.8725608313883777
 20
9.32771485754424
 30
0.0
 10
1.4751583131835881
 20
7.586580661849834
 30
0.0
 10
0.6908329150753758
 20
7.8487404829628264
 30
0.0
 10
0.5016599308335667
 20
7.95678354643538
 30
0.0
 10
0.5347514488554848
 20
7.9756832270445095
 30
0.0
 10
1.4226856039808118
 20
8.74706688459066
 30
0.0
 10
1.8725608313883777
 20
9.32771485754424
 30
0.0
  0
LWPOLYLINE
  8
OpenJsCad
  90
29
  70
1
 10
2.8843171842834514
 20
11.513529468857103
 30
0.0
 10
2.8947131938250457
 20
11.55907736269885
 30
0.0
 10
2.9779497828860655
 20
11.864011100971648
 30
0.0
 10
2.983197627913781
 20
11.938724147363512
 30
0.0
 10
3.3436143866514856
 20
12.84457582314945
 30
0.0
 10
3.929992230961119
 20
13.749369478801027
 30
0.0
 10
4.681619475053802
 20
14.522381135596833
 30
0.0
 10
5.569611505456463
 20
15.133904389076138
 30
0.0
 10
6.559843286432404
 20
15.560438743553924
 30
0.0
 10
7.600528694223711
 20
15.782660458817531
 30
0.0
 10
8.07564549984365
 20
14.830466870442791
 30
0.0
 10
8.359566930073647
 20
13.790332668976124
 30
0.0
 10
8.435112773330141
 20
12.714794031282793
 30
0.0
 10
8.299379845223381
 20
11.645183304040343
 30
0.0
 10
7.957584286060603
 20
10.62260502765209
 30
0.0
 10
7.474077100976675
 20
9.776030577012698
 30
0.0
 10
7.418936067012939
 20
9.725344824063791
 30
0.0
 10
7.2324264347855864
 20
9.47014476218711
 30
0.0
 10
7.203297463349033
 20
9.43361818732876
 30
0.0
 10
6.715759421415309
 20
8.872416669612923
 30
0.0
 10
5.863452749057701
 20
8.212065345044508
 30
0.0
 10
4.89869475786607
 20
7.730679269179772
 30
0.0
 10
3.8585605563994005
 20
7.446757838949774
 30
0.0
 10
3.576633145917728
 20
7.426955255187992
 30
0.0
 10
3.4163365640371373
 20
7.659721689499174
 30
0.0
 10
2.989802209559353
 20
8.649953470475111
 30
0.0
 10
2.7646482301224493
 20
9.7043709500098
 30
0.0
 10
2.7495271668883787
 20
10.782453455688856
 30
0.0
 10
2.8843171842834514
 20
11.513529468857103
 30
0.0
  0
LWPOLYLINE
  8
OpenJsCad
  90
7
  70
1
 10
1.9626222692744986
 20
7.475320194871676
 30
0.0
 10
2.3600247874792935
 20
9.216454390566113
 30
0.0
 10
2.5134146481979043
 20
8.498115097920303
 30
0.0
 10
2.97872485308276
 20
7.417862245946555
 30
0.0
 10
3.0003390165213273
 20
7.386476350532003
 30
0.0
 10
2.783021918706071
 20
7.371211995693279
 30
0.0
 10
1.9626222692744986
 20
7.475320194871676
 30
0.0
  0
LWPOLYLINE
  8
OpenJsCad
  90
10
  70
1
 10
1.349799713394962
 20
4.790369146361054
 30
0.0
 10
1.8513618022963425
 20
6.987856238780767
 30
0.0
 10
2.7689987905681392
 20
6.871408682501696
 30
0.0
 10
3.328004847035168
 20
6.910673272764942
 30
0.0
 10
3.6458411296056363
 20
6.449143667325469
 30
0.0
 10
4.309020799156747
 20
5.804310044208861
 30
0.0
 10
2.909471168257611
 20
4.04933031647084
 30
0.0
 10
2.7778511650980118
 20
4.157348061512726
 30
0.0
 10
1.913417161825449
 20
4.619397662556434
 30
0.0
 10
1.349799713394962
 20
4.790369146361054
 30
0.0
  0
LWPOLYLINE
  8
OpenJsCad
  90
7
  70
1
 10
-1.872560831388361
 20
-9.327714857544239
 30
0.0
 10
-1.475158313183574
 20
-7.586580661849837
 30
0.0
 10
-0.6908329150753567
 20
-7.848740482962804
 30
0.0
 10
-0.5016599308335583
 20
-7.956783546435385
 30
0.0
 10
-0.5347514488554856
 20
-7.9756832270445095
 30
0.0
 10
-1.4226856039808127
 20
-8.747066884590659
 30
0.0
 10
-1.872560831388361
 20
-9.327714857544239
 30
0.0
  0
LWPOLYLINE
  8
OpenJsCad
  90
20
  70
1
 10
-8.838324288841083
 20
-10.858343684995296
 30
0.0
 10
-8.619390163203446
 20
-11.032937824109547
 30
0.0
 10
-8.786843801314284
 20
-11.53392283706219
 30
0.0
 10
-8.934916086521659
 20
-12.700770903144862
 30
0.0
 10
-8.852502439332754
 20
-13.874085780628496
 30
0.0
 10
-8.542769969990939
 20
-15.008777636773953
 30
0.0
 10
-8.151402725206982
 20
-15.793126615330749
 30
0.0
 10
-8.692343271646147
 20
-15.800713786224897
 30
0.0
 10
-9.752660697371956
 20
-15.605220839276038
 30
0.0
 10
-10.754465639106742
 20
-15.206626566461788
 30
0.0
 10
-11.65925929475832
 20
-14.620248722152155
 30
0.0
 10
-12.432270951554127
 20
-13.86862147805947
 30
0.0
 10
-13.043794205033432
 20
-12.980629447656806
 30
0.0
 10
-13.470328559511215
 20
-11.99039766668087
 30
0.0
 10
-13.58330221044049
 20
-11.461331324773003
 30
0.0
 10
-12.731531093524932
 20
-11.668352108370438
 30
0.0
 10
-11.556366372888784
 20
-11.717826246458664
 30
0.0
 10
-10.394130187308571
 20
-11.537086489085334
 30
0.0
 10
-9.289486621606583
 20
-11.13307856376628
 30
0.0
 10
-8.838324288841083
 20
-10.858343684995296
 30
0.0
  0
LWPOLYLINE
  8
OpenJsCad
  90
7
  70
1
 10
-5.011681441320268
 20
-5.8834808845133955
 30
0.0
 10
-6.125178553382142
 20
-7.27976209914097
 30
0.0
 10
-5.951702304293257
 20
-6.566007393564762
 30
0.0
 10
-5.902228166205033
 20
-5.390842672928617
 30
0.0
 10
-5.9080840249109166
 20
-5.353186924218241
 30
0.0
 10
-5.705665129963826
 20
-5.433724570694195
 30
0.0
 10
-5.011681441320268
 20
-5.8834808845133955
 30
0.0
  0
LWPOLYLINE
  8
OpenJsCad
  90
7
  70
1
 10
5.734262812147985
 20
7.591507000070452
 30
0.0
 10
4.62076570008611
 20
6.195225785442878
 30
0.0
 10
4.027859817516445
 20
6.7717296590965175
 30
0.0
 10
3.904298976431575
 20
6.9511521774209575
 30
0.0
 10
3.9423136680517685
 20
6.953822329690656
 30
0.0
 10
5.077005524197227
 20
7.263554799032471
 30
0.0
 10
5.734262812147985
 20
7.591507000070452
 30
0.0
  0
LWPOLYLINE
  8
OpenJsCad
  90
20
  70
1
 10
-12.552814513926851
 20
6.2005202681019345
 30
0.0
 10
-12.674313787340889
 20
5.948224427189694
 30
0.0
 10
-13.2
 20
6.000000000000002
 30
0.0
 10
-14.370541932096769
 20
5.884711682419384
 30
0.0
 10
-15.496100594190539
 20
5.543277195067722
 30
0.0
 10
-16.53342139811761
 20
4.988817673815275
 30
0.0
 10
-17.211017705374704
 20
4.4327287557055595
 30
0.0
 10
-17.338785245662383
 20
4.9584184889065215
 30
0.0
 10
-17.38413653890992
 20
6.035652816156324
 30
0.0
 10
-17.218458427984366
 20
7.1010359862715156
 30
0.0
 10
-16.848117829775234
 20
8.113625921498338
 30
0.0
 10
-16.287346725782296
 20
9.034509358493002
 30
0.0
 10
-15.55769523504795
 20
9.828297263209183
 30
0.0
 10
-14.687203455167843
 20
10.464484811630017
 30
0.0
 10
-14.196540913363174
 20
10.692354313788247
 30
0.0
 10
-14.208834349241002
 20
9.815872419002503
 30
0.0
 10
-13.995569316205883
 20
8.659162500028891
 30
0.0
 10
-13.56073920040852
 20
7.566284381772762
 30
0.0
 10
-12.921054279343462
 20
6.579236757425588
 30
0.0
 10
-12.552814513926851
 20
6.2005202681019345
 30
0.0
  0
LWPOLYLINE
  8
OpenJsCad
  90
7
  70
1
 10
-7.724622850839291
 20
0.25000000000000144
 30
0.0
 10
-9.510533556583553
 20
0.25000000000000144
 30
0.0
 10
-8.844336984832752
 20
0.5593895869573138
 30
0.0
 10
-7.894709588599909
 20
1.253412367052774
 30
0.0
 10
-7.868920206946477
 20
1.2814686370481954
 30
0.0
 10
-7.805680957782231
 20
1.072996771088707
 30
0.0
 10
-7.724622850839291
 20
0.25000000000000144
 30
0.0
  0
LWPOLYLINE
  8
OpenJsCad
  90
7
  70
1
 10
9.510533556583555
 20
0.25000000000000144
 30
0.0
 10
7.724622850839291
 20
0.25000000000000144
 30
0.0
 10
7.805680957782217
 20
1.0729967710887127
 30
0.0
 10
7.868920206946476
 20
1.2814686370481865
 30
0.0
 10
7.894709588599907
 20
1.2534123670527735
 30
0.0
 10
8.844336984832752
 20
0.5593895869573138
 30
0.0
 10
9.510533556583555
 20
0.25000000000000144
 30
0.0
  0
LWPOLYLINE
  8
OpenJsCad
  90
9
  70
1
 10
17.883349946418836
 20
-6.063688039774906
 30
0.0
 10
17.83387580833061
 20
-4.888523319138759
 30
0.0
 10
17.623371508856707
 20
-4.022419543649825
 30
0.0
 10
18.188817673815272
 20
-3.333421398117613
 30
0.0
 10
18.74327719506772
 20
-2.296100594190542
 30
0.0
 10
18.788554626338737
 20
-2.1468409064544263
 30
0.0
 10
18.634920327661376
 20
-3.7067161183064457
 30
0.0
 10
17.844859795176117
 20
-6.311196652228898
 30
0.0
 10
17.883349946418836
 20
-6.063688039774906
 30
0.0
  0
LWPOLYLINE
  8
OpenJsCad
  90
10
  70
1
 10
14.941241127791116
 20
-10.89514112574621
 30
0.0
 10
15.890868524023961
 20
-10.201118345650752
 30
0.0
 10
16.12181853944306
 20
-9.94986780870031
 30
0.0
 10
15.797922633748357
 20
-10.555834427372442
 30
0.0
 10
13.435028842544398
 20
-13.435028842544407
 30
0.0
 10
13.2050774230744
 20
-13.623745095424377
 30
0.0
 10
13.4814059159878
 20
-13.222488891209434
 30
0.0
 10
13.946716120872658
 20
-12.142236039235685
 30
0.0
 10
14.132846645060038
 20
-11.270569108591337
 30
0.0
 10
14.941241127791116
 20
-10.89514112574621
 30
0.0
  0
LWPOLYLINE
  8
OpenJsCad
  90
9
  70
1
 10
8.734368534110764
 20
-16.29894453328371
 30
0.0
 10
9.891078453084372
 20
-16.085679500248595
 30
0.0
 10
10.38555352387653
 20
-15.888939672906684
 30
0.0
 10
7.270985214936708
 20
-17.553711117714446
 30
0.0
 10
6.212559790065631
 20
-17.87478096019478
 30
0.0
 10
6.40930410530218
 20
-17.762413654555633
 30
0.0
 10
7.297238260427509
 20
-16.991029997009484
 30
0.0
 10
7.843138175219789
 20
-16.286444237117202
 30
0.0
 10
8.734368534110764
 20
-16.29894453328371
 30
0.0
  0
LWPOLYLINE
  8
OpenJsCad
  90
9
  70
1
 10
0.7975471322494694
 20
-18.474542082567673
 30
0.0
 10
1.9322389883949245
 20
-18.784274551909487
 30
0.0
 10
2.0828719866844114
 20
-18.79485501501813
 30
0.0
 10
-3.552713678800501e-15
 20
-19
 30
0.0
 10
-2.0828719866844
 20
-18.79485501501813
 30
0.0
 10
-1.9322389883949187
 20
-18.784274551909487
 30
0.0
 10
-0.7975471322494592
 20
-18.47454208256767
 30
0.0
 10
7.105427357601002e-15
 20
-18.076589344351394
 30
0.0
 10
0.7975471322494694
 20
-18.474542082567673
 30
0.0
  0
LWPOLYLINE
  8
OpenJsCad
  90
9
  70
1
 10
-7.2972382604275
 20
-16.991029997009488
 30
0.0
 10
-6.409304105302175
 20
-17.762413654555633
 30
0.0
 10
-6.212559790065627
 20
-17.87478096019478
 30
0.0
 10
-7.270985214936716
 20
-17.553711117714446
 30
0.0
 10
-10.385553523876604
 20
-15.888939672906652
 30
0.0
 10
-9.891078453084383
 20
-16.085679500248588
 30
0.0
 10
-8.734368534110773
 20
-16.298944533283706
 30
0.0
 10
-7.8431381752197815
 20
-16.286444237117202
 30
0.0
 10
-7.2972382604275
 20
-16.991029997009488
 30
0.0
  0
LWPOLYLINE
  8
OpenJsCad
  90
10
  70
1
 10
-13.946716120872663
 20
-12.14223603923568
 30
0.0
 10
-13.48140591598781
 20
-13.222488891209426
 30
0.0
 10
-13.20507742307441
 20
-13.623745095424368
 30
0.0
 10
-13.435028842544407
 20
-13.435028842544401
 30
0.0
 10
-15.797922633748364
 20
-10.555834427372437
 30
0.0
 10
-16.12181853944307
 20
-9.949867808700299
 30
0.0
 10
-15.890868524023958
 20
-10.201118345650757
 30
0.0
 10
-14.941241127791113
 20
-10.89514112574622
 30
0.0
 10
-14.132846645060038
 20
-11.270569108591346
 30
0.0
 10
-13.946716120872663
 20
-12.14223603923568
 30
0.0
  0
LWPOLYLINE
  8
OpenJsCad
  90
9
  70
1
 10
-17.833875808330607
 20
-4.888523319138768
 30
0.0
 10
-17.883349946418836
 20
-6.063688039774911
 30
0.0
 10
-17.84485979517611
 20
-6.311196652228929
 30
0.0
 10
-18.634920327661376
 20
-3.706716118306438
 30
0.0
 10
-18.788554626338737
 20
-2.1468409064544214
 30
0.0
 10
-18.74327719506772
 20
-2.2961005941905355
 30
0.0
 10
-18.188817673815272
 20
-3.333421398117611
 30
0.0
 10
-17.6233715088567
 20
-4.022419543649832
 30
0.0
 10
-17.833875808330607
 20
-4.888523319138768
 30
0.0
  0
LWPOLYLINE
  8
OpenJsCad
  90
9
  70
1
 10
-18.188817673815272
 20
3.3334213981176153
 30
0.0
 10
-18.74327719506772
 20
2.2961005941905444
 30
0.0
 10
-18.788554626338737
 20
2.146840906454429
 30
0.0
 10
-18.634920327661376
 20
3.7067161183064417
 30
0.0
 10
-17.844859795176102
 20
6.311196652228951
 30
0.0
 10
-17.88334994641883
 20
6.063688039774921
 30
0.0
 10
-17.833875808330603
 20
4.888523319138773
 30
0.0
 10
-17.6233715088567
 20
4.022419543649835
 30
0.0
 10
-18.188817673815272
 20
3.3334213981176153
 30
0.0
  0
LWPOLYLINE
  8
OpenJsCad
  90
10
  70
1
 10
-14.941241127791107
 20
10.895141125746223
 30
0.0
 10
-15.890868524023952
 20
10.201118345650766
 30
0.0
 10
-16.12181853944306
 20
9.949867808700317
 30
0.0
 10
-15.797922633748362
 20
10.555834427372442
 30
0.0
 10
-13.435028842544401
 20
13.435028842544405
 30
0.0
 10
-13.205077423074401
 20
13.62374509542438
 30
0.0
 10
-13.481405915987809
 20
13.222488891209426
 30
0.0
 10
-13.946716120872665
 20
12.142236039235677
 30
0.0
 10
-14.13284664506004
 20
11.27056910859134
 30
0.0
 10
-14.941241127791107
 20
10.895141125746223
 30
0.0
  0
LWPOLYLINE
  8
OpenJsCad
  90
9
  70
1
 10
-8.734368534110775
 20
16.298944533283706
 30
0.0
 10
-9.891078453084381
 20
16.085679500248588
 30
0.0
 10
-10.385553523876597
 20
15.888939672906654
 30
0.0
 10
-7.270985214936704
 20
17.553711117714446
 30
0.0
 10
-6.212559790065633
 20
17.87478096019478
 30
0.0
 10
-6.409304105302183
 20
17.762413654555633
 30
0.0
 10
-7.297238260427511
 20
16.991029997009484
 30
0.0
 10
-7.843138175219799
 20
16.286444237117205
 30
0.0
 10
-8.734368534110775
 20
16.298944533283706
 30
0.0
  0
LWPOLYLINE
  8
OpenJsCad
  90
9
  70
1
 10
-0.7975471322494712
 20
18.474542082567673
 30
0.0
 10
-1.9322389883949271
 20
18.784274551909487
 30
0.0
 10
-2.0828719866843937
 20
18.794855015018125
 30
0.0
 10
0
 20
19
 30
0.0
 10
2.082871986684413
 20
18.79485501501813
 30
0.0
 10
1.932238988394933
 20
18.784274551909487
 30
0.0
 10
0.7975471322494729
 20
18.474542082567673
 30
0.0
 10
8.881784197001252e-16
 20
18.07658934435139
 30
0.0
 10
-0.7975471322494712
 20
18.474542082567673
 30
0.0
  0
LWPOLYLINE
  8
OpenJsCad
  90
9
  70
1
 10
7.297238260427513
 20
16.991029997009484
 30
0.0
 10
6.409304105302189
 20
17.762413654555633
 30
0.0
 10
6.212559790065631
 20
17.874780960194784
 30
0.0
 10
7.270985214936706
 20
17.55371111771445
 30
0.0
 10
10.385553523876561
 20
15.88893967290667
 30
0.0
 10
9.891078453084381
 20
16.085679500248588
 30
0.0
 10
8.734368534110772
 20
16.29894453328371
 30
0.0
 10
7.843138175219791
 20
16.28644423711721
 30
0.0
 10
7.297238260427513
 20
16.991029997009484
 30
0.0
  0
LWPOLYLINE
  8
OpenJsCad
  90
10
  70
1
 10
13.946716120872662
 20
12.142236039235684
 30
0.0
 10
13.481405915987809
 20
13.22248889120943
 30
0.0
 10
13.205077423074412
 20
13.623745095424367
 30
0.0
 10
13.435028842544405
 20
13.435028842544398
 30
0.0
 10
15.797922633748357
 20
10.555834427372442
 30
0.0
 10
16.121818539443062
 20
9.94986780870031
 30
0.0
 10
15.890868524023958
 20
10.20111834565076
 30
0.0
 10
14.94124112779111
 20
10.895141125746221
 30
0.0
 10
14.132846645060038
 20
11.270569108591342
 30
0.0
 10
13.946716120872662
 20
12.142236039235684
 30
0.0
  0
LWPOLYLINE
  8
OpenJsCad
  90
9
  70
1
 10
17.833875808330607
 20
4.888523319138772
 30
0.0
 10
17.883349946418836
 20
6.063688039774915
 30
0.0
 10
17.844859795176113
 20
6.311196652228928
 30
0.0
 10
18.634920327661373
 20
3.706716118306438
 30
0.0
 10
18.788554626338737
 20
2.1468409064544236
 30
0.0
 10
18.74327719506772
 20
2.2961005941905377
 30
0.0
 10
18.188817673815272
 20
3.333421398117613
 30
0.0
 10
17.6233715088567
 20
4.022419543649835
 30
0.0
 10
17.833875808330607
 20
4.888523319138772
 30
0.0
  0
LWPOLYLINE
  8
OpenJsCad
  90
33
  70
1
 10
20
 20
0
 30
0.0
 10
19.61570560806461
 20
3.9018064403225665
 30
0.0
 10
18.477590650225736
 20
7.653668647301796
 30
0.0
 10
16.629392246050905
 20
11.111404660392044
 30
0.0
 10
14.142135623730951
 20
14.142135623730951
 30
0.0
 10
11.111404660392047
 20
16.629392246050905
 30
0.0
 10
7.653668647301796
 20
18.477590650225736
 30
0.0
 10
3.9018064403225665
 20
19.61570560806461
 30
0.0
 10
0
 20
20
 30
0.0
 10
-3.901806440322563
 20
19.61570560806461
 30
0.0
 10
-7.653668647301794
 20
18.477590650225736
 30
0.0
 10
-11.11140466039204
 20
16.629392246050905
 30
0.0
 10
-14.14213562373095
 20
14.142135623730951
 30
0.0
 10
-16.629392246050905
 20
11.111404660392044
 30
0.0
 10
-18.477590650225736
 20
7.653668647301799
 30
0.0
 10
-19.61570560806461
 20
3.9018064403225736
 30
0.0
 10
-20
 20
3.552713678800501e-15
 30
0.0
 10
-19.61570560806461
 20
-3.9018064403225665
 30
0.0
 10
-18.477590650225736
 20
-7.653668647301792
 30
0.0
 10
-16.62939224605091
 20
-11.11140466039204
 30
0.0
 10
-14.142135623730955
 20
-14.14213562373095
 30
0.0
 10
-11.111404660392044
 20
-16.629392246050905
 30
0.0
 10
-7.6536686473018065
 20
-18.47759065022573
 30
0.0
 10
-3.9018064403225736
 20
-19.615705608064605
 30
0.0
 10
-3.552713678800501e-15
 20
-20
 30
0.0
 10
3.9018064403225665
 20
-19.61570560806461
 30
0.0
 10
7.653668647301799
 20
-18.477590650225732
 30
0.0
 10
11.111404660392036
 20
-16.62939224605091
 30
0.0
 10
14.142135623730951
 20
-14.142135623730955
 30
0.0
 10
16.629392246050905
 20
-11.111404660392044
 30
0.0
 10
18.47759065022573
 20
-7.653668647301808
 30
0.0
 10
19.6157056080646
 20
-3.9018064403225736
 30
0.0
 10
20
 20
0
 30
0.0
  0
LWPOLYLINE
  8
OpenJsCad
  90
33
  70
1
 10
3.191973355068363
 20
2.440018851412831
 30
0.0
 10
3.6060509600341755
 20
1.7741278962539533
 30
0.0
 10
3.7441571295469362
 20
1.40718860602099
 30
0.0
 10
3.53711832706403
 20
1.740134083600428
 30
0.0
 10
3.269103276681698
 20
2.0262908405409417
 30
0.0
 10
2.9504116464815606
 20
2.2546620331518645
 30
0.0
 10
2.593290577087884
 20
2.4164714845731994
 30
0.0
 10
2.211464030921664
 20
2.505500948330609
 30
0.0
 10
1.8196053880212744
 20
2.5183290720601956
 30
0.0
 10
1.432773556276519
 20
2.454462878161125
 30
0.0
 10
1.065834266043558
 20
2.3163567086483656
 30
0.0
 10
0.7328887884641194
 20
2.10931790616546
 30
0.0
 10
0.5320027539623771
 20
1.9211676026963591
 30
0.0
 10
0.4521054965529019
 20
2.184553562481222
 30
0.0
 10
0.2672856561354189
 20
2.5303271637902474
 30
0.0
 10
0.018559993903423555
 20
2.8334002601241384
 30
0.0
 10
-0.28451310243046746
 20
3.082125922356134
 30
0.0
 10
-0.6302867037394926
 20
3.266945762773617
 30
0.0
 10
-1.005472924437414
 20
3.3807572585575043
 30
0.0
 10
-1.3956535684696714
 20
3.4191866977510443
 30
0.0
 10
-1.785834212501928
 20
3.3807572585575048
 30
0.0
 10
-2.16102043319985
 20
3.266945762773618
 30
0.0
 10
-2.506794034508875
 20
3.082125922356135
 30
0.0
 10
-2.607529586477379
 20
2.999454391373166
 30
0.0
 10
-2.4164857221314597
 20
3.1783864965428896
 30
0.0
 10
-1.7505947669725823
 20
3.592464101508702
 30
0.0
 10
-1.0167161865066603
 20
3.8686764405342218
 30
0.0
 10
-0.24305252301714897
 20
3.9964088283323624
 30
0.0
 10
0.5406647627836294
 20
3.9707525808731905
 30
0.0
 10
1.3043178551160688
 20
3.7926936533583717
 30
0.0
 10
2.0185599939034224
 20
3.469074750515703
 30
0.0
 10
2.6559432543036987
 20
3.012332365293858
 30
0.0
 10
3.191973355068363
 20
2.440018851412831
 30
0.0
  0
LWPOLYLINE
  8
OpenJsCad
  90
35
  70
1
 10
-3.445541621234332
 20
2.0049731353779485
 30
0.0
 10
-2.988799236012486
 20
2.642356395778225
 30
0.0
 10
-2.89307234521821
 20
2.732014413060358
 30
0.0
 10
-3.0585927930747623
 20
2.5303271637902487
 30
0.0
 10
-3.243412633492245
 20
2.184553562481224
 30
0.0
 10
-3.3572241292761325
 20
1.8093673417833014
 30
0.0
 10
-3.395653568469672
 20
1.4191866977510448
 30
0.0
 10
-3.3572241292761333
 20
1.029006053718788
 30
0.0
 10
-3.2434126334922455
 20
0.653819833020865
 30
0.0
 10
-3.0585927930747627
 20
0.3080462317118401
 30
0.0
 10
-2.8098671308427674
 20
0.004973135377949411
 30
0.0
 10
-2.5067940345088773
 20
-0.24375252685404614
 30
0.0
 10
-2.1610204331998517
 20
-0.42857236727152914
 30
0.0
 10
-1.897634473414989
 20
-0.5084696246810043
 30
0.0
 10
-2.0857847768840885
 20
-0.7093556591827448
 30
0.0
 10
-2.2928235793669955
 20
-1.0423011367621837
 30
0.0
 10
-2.430929748879756
 20
-1.4092404269951446
 30
0.0
 10
-2.4947959427788255
 20
-1.7960722587399007
 30
0.0
 10
-2.4819678190492405
 20
-2.18793090164029
 30
0.0
 10
-2.3929383552918315
 20
-2.5697574478065084
 30
0.0
 10
-2.2311289038704976
 20
-2.9268785172001865
 30
0.0
 10
-2.002757711259575
 20
-3.245570147400324
 30
0.0
 10
-1.7166009543190623
 20
-3.513585197782656
 30
0.0
 10
-1.3836554767396239
 20
-3.7206240002655635
 30
0.0
 10
-1.1394669394150143
 20
-3.812530057824608
 30
0.0
 10
-1.267197867309224
 20
-3.7827473826024742
 30
0.0
 10
-1.9814400060965784
 20
-3.459128479759806
 30
0.0
 10
-2.618823266496854
 20
-3.00238609453796
 30
0.0
 10
-3.1548533672615187
 20
-2.430072580656933
 30
0.0
 10
-3.568930972227331
 20
-1.764181625498057
 30
0.0
 10
-3.8451433112528512
 20
-1.0303030450321335
 30
0.0
 10
-3.9728756990509924
 20
-0.256639381542622
 30
0.0
 10
-3.9472194515918195
 20
0.5270779042581553
 30
0.0
 10
-3.7691605240770008
 20
1.2907309965905949
 30
0.0
 10
-3.445541621234332
 20
2.0049731353779485
 30
0.0
  0
LWPOLYLINE
  8
OpenJsCad
  90
33
  70
1
 10
0.2801725108239932
 20
-3.986462557576465
 30
0.0
 10
-0.5035447749767861
 20
-3.9608063101172926
 30
0.0
 10
-0.7584596673223619
 20
-3.9013684936606423
 30
0.0
 10
-0.6298843547619069
 20
-3.922596363677394
 30
0.0
 10
-0.23802571186151789
 20
-3.909768239947808
 30
0.0
 10
0.14380083430470214
 20
-3.8207387761903986
 30
0.0
 10
0.5009219036983789
 20
-3.6589293247690655
 30
0.0
 10
0.8196135338985171
 20
-3.4305581321581426
 30
0.0
 10
1.0876285842808495
 20
-3.1444013752176296
 30
0.0
 10
1.2946673867637561
 20
-2.811455897638191
 30
0.0
 10
1.4327735562765163
 20
-2.44451660740523
 30
0.0
 10
1.496639750175587
 20
-2.057684775660475
 30
0.0
 10
1.483811626446001
 20
-1.6658261327600854
 30
0.0
 10
1.4213117011628793
 20
-1.3977785718815094
 30
0.0
 10
1.6893592620414535
 20
-1.4602784971646312
 30
0.0
 10
2.0812179049418438
 20
-1.473106620894218
 30
0.0
 10
2.468049736686599
 20
-1.4092404269951484
 30
0.0
 10
2.83498902691956
 20
-1.2711342574823878
 30
0.0
 10
3.1679345044989993
 20
-1.0640954549994817
 30
0.0
 10
3.4540912614395114
 20
-0.7960804046171507
 30
0.0
 10
3.682462454050436
 20
-0.47738877441701244
 30
0.0
 10
3.8442719054717696
 20
-0.12026770502333572
 30
0.0
 10
3.93330136922918
 20
0.26155884114288264
 30
0.0
 10
3.9461294929587662
 20
0.6534174840432723
 30
0.0
 10
4.009995686857836
 20
0.2665856522985188
 30
0.0
 10
3.984339439398664
 20
-0.5171316335022605
 30
0.0
 10
3.8062805118838456
 20
-1.2807847258346978
 30
0.0
 10
3.482661609041177
 20
-1.9950268646220524
 30
0.0
 10
3.02591922381933
 20
-2.6324101250223286
 30
0.0
 10
2.453605709938306
 20
-3.1684402257869912
 30
0.0
 10
1.7877147547794283
 20
-3.5825178307528045
 30
0.0
 10
1.0538361743135047
 20
-3.8587301697783247
 30
0.0
 10
0.2801725108239932
 20
-3.986462557576465
 30
0.0
  0
ENDSEC
  0
EOF
