<?xml version="1.0" encoding="UTF-8" standalone="no"?>
<!-- Created with Inkscape (http://www.inkscape.org/) -->

<svg
   xmlns:dc="http://purl.org/dc/elements/1.1/"
   xmlns:cc="http://creativecommons.org/ns#"
   xmlns:rdf="http://www.w3.org/1999/02/22-rdf-syntax-ns#"
   xmlns:svg="http://www.w3.org/2000/svg"
   xmlns="http://www.w3.org/2000/svg"
   xmlns:sodipodi="http://sodipodi.sourceforge.net/DTD/sodipodi-0.dtd"
   xmlns:inkscape="http://www.inkscape.org/namespaces/inkscape"
   width="297mm"
   height="210mm"
   viewBox="0 0 1052.3622 744.09448"
   id="svg2"
   version="1.1"
   inkscape:version="0.91 r13725"
   sodipodi:docname="torus.svg">
  <defs
     id="defs4">
    <style
       id="style3426"
       type="text/css"><![CDATA[
    .str0 {stroke:black;stroke-width:17.64;stroke-linecap:square}
    .fil0 {fill:none}
   ]]></style>
    <style
       id="style3449"
       type="text/css"><![CDATA[
    .str0 {stroke:black;stroke-width:17.64;stroke-linecap:square}
    .fil0 {fill:none}
   ]]></style>
  </defs>
  <sodipodi:namedview
     id="base"
     pagecolor="#ffffff"
     bordercolor="#666666"
     borderopacity="1.0"
     inkscape:pageopacity="0.0"
     inkscape:pageshadow="2"
     inkscape:zoom="0.35"
     inkscape:cx="-119.28571"
     inkscape:cy="520"
     inkscape:document-units="px"
     inkscape:current-layer="layer1"
     showgrid="false"
     inkscape:window-width="1881"
     inkscape:window-height="1155"
     inkscape:window-x="0"
     inkscape:window-y="0"
     inkscape:window-maximized="1" />
  <metadata
     id="metadata7">
    <rdf:RDF>
      <cc:Work
         rdf:about="">
        <dc:format>image/svg+xml</dc:format>
        <dc:type
           rdf:resource="http://purl.org/dc/dcmitype/StillImage" />
        <dc:title></dc:title>
      </cc:Work>
    </rdf:RDF>
  </metadata>
  <g
     inkscape:label="Layer 1"
     inkscape:groupmode="layer"
     id="layer1"
     transform="translate(0,-308.26772)">
    <g
       style="clip-rule:evenodd;fill-rule:evenodd;image-rendering:optimizeQuality;shape-rendering:geometricPrecision;text-rendering:geometricPrecision"
       id="g3439"
       transform="matrix(0.03543307,0,0,0.03543307,515.41241,363.91996)">
      <g
         id="Layer_x0020_1">
        <metadata
           id="CorelCorpID_0Corel-Layer" />
        <path
           id="path3430"
           d="m 10030,2681 c -97,-45 -274,-77 -389,-121 -70,-27 -346,-155 -390,-158 m 3125,-9 c 76,-60 207,-118 296,-177 105,-70 202,-151 305,-220 l 50,-44 77,-67 m 17,-8 -17,8 m -2286,12853 c -13,-33 -9,-31 -9,-68 30,-93 9,-1317 9,-1524 l -9,-101 m -1439,1286 660,-1380 m 3150,424 c -107,-78 -706,-600 -813,-703 m -3937,711 c 98,-66 713,-607 821,-711 m 4395,-330 -525,-186 m -5148,186 525,-186 m 3099,795 c 101,-41 266,-76 381,-115 65,-23 358,-161 389,-164 11,-14 281,-168 330,-200 123,-81 229,-177 347,-257 31,-31 38,-48 77,-59 11,-38 0,-20 33,-43 130,-108 364,-395 463,-533 55,-77 94,-162 156,-237 m -1524,2997 c -85,-212 -645,-1289 -652,-1389 -161,33 -295,60 -458,74 l -50,3 c -105,19 -150,4 -280,17 l -51,0 c -132,-21 -135,-1 -279,-19 l -449,-75 c -248,-80 -435,-124 -677,-237 -37,-19 -58,-39 -102,-42 -10,-13 -269,-165 -313,-192 -113,-70 -286,-200 -388,-292 -31,-28 -16,-22 -52,-32 -13,-45 -52,-58 -119,-127 -117,-123 -273,-307 -367,-441 -50,-71 -110,-188 -166,-245 m 2963,-26 7,-59 2,-1482 c -16,-47 -9,-108 -9,-160 m -1431,1286 652,-1371 m 3167,440 -830,-720 m -3945,720 c 262,-226 577,-491 829,-720 m 4386,-338 -516,-178 m -5140,186 517,-194 m 5283,-805 c 115,146 165,376 254,525 5,67 67,212 86,288 40,163 92,424 107,601 l 10,347 c -20,131 0,133 -19,271 -43,324 -71,472 -184,813 -67,202 -173,384 -262,576 60,45 84,163 135,228 19,90 128,323 167,441 30,92 107,404 119,499 l 44,593 c -26,168 5,126 -19,270 l -34,254 c -43,140 -61,292 -110,441 -39,116 -148,352 -167,440 -54,68 -147,269 -206,364 -61,99 -244,349 -329,439 -109,116 -230,250 -355,348 -297,202 -484,373 -820,509 -147,59 -262,103 -415,152 -138,44 -288,60 -415,102 l -263,31 c -80,6 -383,20 -440,11 -112,-18 -101,-1 -220,-19 -431,-65 -588,-102 -1041,-284 -134,-53 -281,-142 -407,-219 -129,-79 -357,-245 -465,-350 -109,-106 -259,-242 -355,-365 -185,-271 -368,-481 -490,-786 -56,-140 -101,-254 -149,-398 -43,-128 -94,-368 -113,-517 l -28,-355 c -21,-66 -8,-172 -8,-246 21,-132 -1,-112 19,-245 l 34,-246 c 55,-176 74,-366 144,-550 36,-95 202,-497 260,-542 -15,-72 -208,-432 -254,-559 -29,-77 -151,-537 -160,-610 l -35,-431 c -20,-64 -8,-166 -8,-238 20,-128 0,-120 19,-253 l 34,-246 c 53,-172 83,-358 144,-542 43,-129 179,-448 260,-550 m 2963,-17 7,-60 c 2,-517 32,-1142 -7,-1642 m 1440,1287 c -58,-97 -650,-1349 -652,-1380 m 1600,440 c -235,-194 -537,-477 -755,-651 -33,-24 -45,-33 -66,-69 m -3937,703 c 108,-79 704,-598 812,-703 m 4395,-330 -525,-186 m -3091,796 c -105,-43 -272,-76 -389,-118 -66,-25 -354,-159 -390,-162 -8,-10 -357,-223 -389,-237 l -253,-195 -52,-50 -51,-34 m 3091,4225 c 47,-28 305,-96 381,-121 72,-25 345,-158 389,-159 17,-26 267,-163 322,-200 115,-77 218,-164 330,-240 38,-37 52,-66 102,-76 11,-39 36,-54 67,-85 l 69,-58 100,-112 76,-85 c 41,-58 328,-466 348,-473 0,-11 232,-530 254,-567 5,-64 67,-213 86,-288 45,-178 91,-413 107,-601 l 10,-347 c -25,-162 5,-121 -19,-262 l -34,-254 c -43,-139 -61,-292 -110,-441 -39,-116 -149,-353 -167,-440 l -127,-229 m -4411,2989 660,-1380 204,41 59,8 68,8 68,8 59,9 76,2 c 35,11 194,13 245,17 l 51,-7 169,-1 102,-11 67,-8 60,-9 67,-8 60,-9 212,-40 c 22,-11 353,-109 372,-110 44,-26 370,-169 407,-170 18,-27 251,-156 304,-191 125,-83 278,-194 388,-293 32,-28 16,-22 53,-32 11,-40 17,-37 50,-59 l 127,-127 93,-103 50,-59 c 35,-49 328,-457 340,-465 2,-20 220,-486 251,-567 40,-104 148,-525 162,-635 l 44,-601 c -24,-152 3,-118 -19,-262 -33,-221 -35,-292 -98,-543 -20,-75 -81,-221 -86,-287 -90,-151 -136,-375 -254,-525 -23,14 -312,438 -399,532 l -261,272 516,186 m -5664,3429 533,-186 c -47,-77 -221,-219 -304,-323 -54,-78 -129,-166 -188,-244 -57,-76 -104,-180 -168,-246 m 652,-2608 51,24 58,54 c 127,122 623,410 644,439 l -829,720 m 3827,7789 -351,-735 c -27,-43 -292,-601 -301,-645 -82,0 -173,33 -297,49 l -491,36 -135,0 c -120,-19 -96,-1 -220,-20 l -246,-33 c -46,-13 -126,-32 -178,-32 -57,-33 -301,-88 -389,-122 -70,-27 -342,-157 -390,-158 -16,-25 -271,-170 -321,-201 -122,-73 -223,-169 -339,-247 -36,-36 -49,-58 -93,-76 -30,-49 -233,-238 -312,-340 -56,-79 -126,-155 -182,-236 -50,-72 -102,-176 -158,-237 -76,-190 -186,-353 -254,-559 -27,-80 -151,-542 -160,-610 l -35,-423 c -21,-65 -8,-172 -8,-246 20,-127 0,-111 19,-245 l 34,-245 c 53,-173 82,-366 144,-551 30,-91 204,-499 260,-542 -17,-79 -207,-428 -254,-559 -28,-76 -151,-546 -160,-618 l -35,-415 c -21,-65 -8,-172 -8,-245 20,-128 0,-121 19,-254 l 34,-245 c 39,-129 63,-286 104,-424 46,-152 203,-549 300,-669 113,173 245,372 382,524 67,75 256,249 270,297 l -517,178 m 2837,703 c -14,41 -4,31 -9,68 32,96 9,1407 9,1625 m 779,-1778 c 25,120 254,536 319,686 100,230 240,464 333,694 m -2871,-8 652,-1372 c 198,35 272,50 466,70 154,16 163,15 322,15 186,0 406,-12 592,-53 42,-11 141,-32 187,-32 l 261,-78 c 60,-32 439,-182 518,-210 135,155 410,371 576,516 l 245,204"
           class="fil0 str0"
           inkscape:connector-curvature="0"
           style="fill:none;stroke:#000000;stroke-width:17.63999939;stroke-linecap:square" />
        <path
           id="path3432"
           d="m 6271,15695 c 58,-34 464,-181 533,-195 m -5156,195 -533,-195 m 1287,-322 c 129,-52 255,-113 389,-167 117,-47 294,-76 390,-121 m 2345,288 c 11,-36 37,-47 100,-103 l 721,-625 m -1600,440 c 3,-34 592,-1280 652,-1380 m -1439,1296 0,-1711 m -1440,415 661,1380 c 183,-32 217,-43 398,-59 l 381,-25 127,0 c 85,13 115,6 220,19 l 440,65 c 55,32 300,90 390,124 84,33 332,152 389,164 l 77,49 c 124,35 409,274 533,358 l 50,43 85,67 93,102 c 92,91 67,49 169,169 l 93,111 c 37,53 284,409 305,422 l 124,-231 c 64,-134 178,-438 216,-590 29,-117 59,-238 73,-356 l 28,-262 c 18,-56 8,-133 8,-195 l 10,-102 c -19,-56 -10,-132 -10,-194 l -44,-347 c -57,-181 -84,-378 -150,-568 -33,-94 -252,-546 -255,-576 m -660,-812 517,-187 m -5140,187 -525,-187 m -127,999 c 53,-57 110,-167 158,-237 106,-151 195,-252 316,-381 l 118,-127 c 35,-22 49,-27 60,-67 36,-11 36,-21 68,-43 l 51,-51 230,-175 c 31,-16 398,-240 405,-248 m 779,-279 c -101,41 -274,75 -390,115 -99,35 -312,148 -389,164 -93,-93 -700,-614 -821,-711 m 3937,711 c 101,-102 700,-616 829,-720 m -1600,441 c 2,-83 574,-1193 652,-1389 m -1439,1304 0,-1710 m -1440,406 661,1389 c 124,-25 339,-64 466,-74 l 313,-11 152,0 c 120,19 96,0 220,19 l 415,66 c 84,39 278,80 381,115 99,35 312,148 390,164 5,8 273,167 313,192 122,75 215,162 330,240 l 59,59 51,26 c 16,54 126,131 187,194 64,66 282,336 311,383 21,43 126,213 162,235 97,-161 195,-381 257,-558 35,-98 146,-523 156,-619 l 28,-270 c 18,-56 8,-133 8,-195 l 10,-102 c -19,-54 -10,-126 -10,-186 -10,-181 -68,-468 -107,-635 -19,-82 -82,-225 -88,-296 -22,-37 -253,-557 -254,-568 m -660,-804 c 52,-38 437,-164 525,-195 m -5148,195 c -49,-36 -438,-165 -525,-195 m -127,1008 147,-227 201,-264 76,-76 92,-103 58,-61 78,-82 c 46,-19 65,-48 102,-85 110,-74 206,-165 322,-235 112,-67 220,-131 330,-196 m 3116,0 c 34,-57 588,-519 684,-603 l 120,-100 m -1575,423 c 1,-51 584,-1274 652,-1388 M 3181,8049 2520,6661 m 1440,1295 0,-1710 M 1606,7634 c 234,189 534,475 746,643 31,22 29,18 50,52 205,-83 558,-263 779,-280 142,-33 286,-62 432,-73 l 59,-3 c 88,-16 170,-7 288,-17 l 67,0 c 132,21 136,1 280,19 200,25 228,29 440,74 122,40 258,67 381,110 132,46 262,118 390,170 101,66 212,119 321,192 116,76 218,163 330,239 38,37 57,66 102,85 l 84,94 69,57 92,104 67,76 c 40,57 331,468 348,473 106,-175 165,-383 254,-533 6,-67 67,-212 86,-288 39,-155 86,-383 98,-551 l 3,-75 c 17,-54 8,-127 8,-187 l 10,-101 c -19,-56 -10,-133 -10,-195 l -44,-347 c -56,-179 -88,-378 -151,-567 -33,-101 -251,-545 -254,-576 m -5359,8221 c 221,192 639,544 830,728 -101,61 -203,110 -305,178 -105,70 -202,151 -305,220 l -50,43 -94,76 c -100,120 -227,219 -346,373 -103,150 -206,287 -306,439 -62,-79 -86,-181 -144,-254 -21,-103 -124,-309 -164,-440 -42,-142 -64,-309 -107,-440 l -33,-407 c -22,-66 -9,-224 -9,-304 18,-115 2,-105 19,-229 l 26,-194 c 55,-179 83,-383 147,-576 72,-217 186,-387 265,-585 -55,-42 -225,-443 -257,-533 -26,-77 -148,-532 -156,-601 l -35,-390 c -21,-64 -9,-241 -9,-321 19,-119 1,-105 19,-229 28,-185 36,-274 88,-483 113,-452 218,-534 350,-863 -78,-99 -215,-417 -256,-542 -28,-83 -147,-528 -157,-601 l -35,-398 c -22,-67 -9,-225 -9,-305 20,-126 0,-99 19,-228 l 34,-246 c 55,-176 82,-363 147,-550 72,-205 182,-372 257,-559 m 5275,-813 517,-186 m -5140,186 -516,-186 m 4386,-330 c 77,61 218,125 313,189 112,75 212,160 322,234 28,23 67,78 118,93 41,67 151,159 212,220 l 84,94 c 31,45 363,498 364,499 94,-156 197,-386 257,-559 66,-188 92,-381 150,-559 l 34,-330 c 18,-56 8,-132 8,-195 l 11,-93 c -21,-58 -11,-138 -11,-203 -10,-162 -71,-485 -107,-627 -19,-77 -83,-231 -88,-296 l -129,-304 c -51,-68 -145,-269 -204,-365 -63,-103 -233,-337 -320,-430 -106,-112 -245,-262 -363,-356 -286,-195 -476,-364 -795,-503 -135,-59 -259,-101 -398,-147 -135,-45 -375,-100 -526,-120 l -363,-27 c -65,-21 -157,-8 -229,-8 -144,22 -121,-3 -262,19 l -246,33 c -127,39 -264,55 -398,100 -142,48 -258,89 -398,147 -320,132 -519,312 -804,505 l -170,160 c -118,101 -366,397 -438,510 -10,18 -279,485 -290,498 l -116,289 c -15,51 -142,519 -153,601 l -35,389 c -21,63 -9,235 -9,313 18,114 2,104 19,228 l 34,246 c 54,172 83,359 145,542 30,89 205,500 259,542 58,-71 99,-154 150,-229 91,-134 196,-255 308,-372 l 151,-162 c 35,-22 32,-11 43,-50 43,-12 60,-47 120,-92 105,-73 203,-157 312,-230 93,-62 247,-135 322,-194 m 770,-280 c -96,40 -270,79 -381,116 -103,34 -312,147 -389,164 -101,-100 -716,-632 -830,-720 m 3175,440 c 101,42 267,76 381,116 98,34 317,148 390,164 199,-197 595,-517 829,-729 m -2387,365 186,0 c 41,13 88,8 135,8 l 68,11 59,8 68,8 59,9 212,40 c 1,-47 584,-1271 652,-1388 m -2879,-9 c 18,83 272,582 328,694 50,101 324,646 324,703 l 204,-41 68,-7 67,-9 60,-9 67,-7 110,-3 c 61,-20 145,-8 212,-8 l 0,-1711"
           class="fil0 str0"
           inkscape:connector-curvature="0"
           style="fill:none;stroke:#000000;stroke-width:17.63999939;stroke-linecap:square" />
      </g>
    </g>
    <g
       style="clip-rule:evenodd;fill-rule:evenodd;image-rendering:optimizeQuality;shape-rendering:geometricPrecision;text-rendering:geometricPrecision"
       id="g3462"
       transform="matrix(0.03543307,0,0,0.03543307,33.5604,373.18437)">
      <g
         id="Layer_x0020_1-8">
        <metadata
           id="CorelCorpID_0Corel-Layer-4" />
        <path
           id="path3453"
           d="m 6992,15025 -7,60 c -6,185 -143,457 -154,601 -89,148 -150,360 -254,533 -52,-56 -104,-161 -153,-228 -158,-216 -279,-365 -473,-551 -188,-181 -435,-346 -652,-477 -167,-100 -346,-150 -491,-234 -44,-3 -218,-69 -280,-85 -193,-53 -350,-83 -542,-101 l -76,-11 c -42,-11 -96,-6 -144,-6 -64,-21 -211,-9 -288,-9 -85,14 -115,7 -220,19 -211,25 -409,61 -618,120 -294,82 -735,276 -965,462 -122,99 -217,146 -363,281 -90,84 -266,258 -347,364 -32,44 -318,444 -323,448 -82,-64 -308,-652 -344,-822 -26,-117 -60,-251 -71,-364 m 6232,187 c 47,-28 487,-186 533,-187 l 27,-194 c 16,-54 7,-127 7,-187 20,-63 8,-165 8,-237 -21,-132 1,-112 -19,-245 l -34,-237 c -44,-144 -59,-363 -133,-491 M 752,15203 c -126,-24 -427,-176 -525,-178 l -27,-237 c -16,-53 -7,-126 -7,-186 -14,-42 -8,-96 -8,-144 22,-143 -1,-141 19,-288 l 34,-253 c 35,-116 70,-398 133,-483 m 3243,-2337 0,1702 m -2413,1346 -830,-711 c 4,-178 241,-500 271,-644 m 4411,415 660,-1372 m -3547,1372 -660,-1372 m 5071,957 140,-264 c 4,0 206,-555 207,-557 l 59,-288 9,-85 m -974,2540 c 144,-105 757,-672 830,-702 -2,-80 -184,-484 -237,-551 -12,-45 -30,-41 -34,-93 -4,-2 -324,-444 -356,-491 l -279,-288 c -47,-42 -169,-165 -229,-178 -74,-121 -595,-395 -736,-454 -255,-106 -488,-170 -754,-231 l -609,-51 -144,0 c -126,20 -109,0 -237,19 l -237,34 c -281,66 -583,137 -847,269 -104,55 -616,321 -643,414 -60,6 -209,163 -272,220 -91,81 -175,170 -252,264 l -195,254 c -19,42 -114,195 -145,219 -79,-99 -218,-424 -260,-550 -61,-185 -90,-377 -146,-551 l -9,-93 m 5783,-872 c 173,-151 689,-608 838,-719 m -6096,1778 -525,-187 -27,-228 c -16,-56 -7,-133 -7,-195 -14,-42 -8,-96 -8,-144 21,-134 0,-145 19,-288 25,-193 97,-638 167,-736 m 3243,-2337 0,1702 m -2422,1337 c -243,-188 -565,-495 -821,-702 4,-170 240,-498 271,-644 m 4411,423 660,-1380 m -3556,1372 -494,-1040 -85,-177 -72,-155 m 5071,966 c 103,-171 165,-385 254,-534 5,-62 68,-217 88,-288 23,-82 64,-280 73,-372 m -525,3607 c 37,-22 490,-184 525,-187 l 27,-194 c 15,-52 7,-121 7,-178 20,-63 8,-166 8,-237 -22,-139 2,-108 -19,-245 l -34,-246 c -43,-140 -62,-369 -133,-491 l -19,-84 c -11,-22 -252,-550 -252,-551 -11,-9 -311,-447 -382,-524 -75,-82 -389,-415 -482,-442 -72,-115 -605,-396 -745,-454 -122,-51 -254,-104 -381,-137 -88,-24 -359,-92 -440,-101 l -254,-27 c -124,-22 -141,-2 -279,-17 l -60,0 c -128,20 -144,1 -287,19 l -254,34 c -273,61 -489,109 -754,224 -148,64 -675,332 -753,459 -90,19 -471,421 -533,501 -30,41 -329,455 -331,456 -81,-63 -308,-652 -344,-821 -26,-117 -60,-252 -71,-364 m 6232,178 c 133,-26 421,-176 533,-178 l 27,-195 c 16,-54 7,-126 7,-186 20,-63 8,-166 8,-237 -21,-132 1,-113 -19,-246 l -34,-236 c -19,-104 -82,-403 -133,-492 M 760,8362 C 713,8335 272,8177 227,8176 l -27,-229 c -16,-56 -7,-132 -7,-195 -14,-44 -8,-102 -8,-152 19,-122 2,-141 19,-279 23,-195 93,-636 167,-737 M 5713,4984 5053,6355 M 1506,4984 2166,6355 m 1448,-2108 0,1694 m 3378,-1194 -7,59 -59,280 c -5,152 -263,710 -349,855 m -550,1337 c 156,-120 597,-507 760,-653 31,-28 24,-30 61,-41 -2,-100 -108,-253 -127,-356 -29,-36 -141,-248 -144,-287 0,0 -318,-440 -347,-483 l -194,-213 c -34,-35 -271,-256 -323,-261 -14,-46 -111,-97 -152,-136 -96,-40 -230,-146 -339,-200 -120,-60 -226,-107 -347,-162 -239,-107 -462,-121 -694,-196 l -381,-34 c -54,-18 -126,-9 -186,-9 l -178,0 c -106,17 -98,2 -211,19 l -195,26 c -257,55 -528,119 -771,228 -123,55 -721,352 -753,464 -61,6 -193,145 -255,202 -165,150 -322,336 -451,518 -53,73 -97,171 -158,237 M 6848,3155 c 61,106 129,446 150,610 l 28,347 c 21,65 8,156 8,228 -22,140 2,109 -19,246 l -23,161 c -47,3 -474,158 -533,186 M 1201,7295 C 983,7106 578,6743 371,6584 375,6404 612,6084 642,5941 521,5788 469,5546 379,5390 375,5330 316,5184 298,5111 273,5011 237,4847 227,4747 M 5713,1555 c 83,24 431,380 491,449 l 211,272 c 48,110 191,305 257,439 43,84 170,357 176,440 -103,68 -701,599 -838,720 M 752,4933 227,4747 200,4518 c -16,-56 -7,-132 -7,-195 -14,-42 -8,-96 -8,-143 21,-132 1,-136 19,-280 l 34,-253 c 35,-116 70,-406 133,-492 m 3243,-2337 84,0 c 130,21 124,1 263,19 l 254,34 c 134,41 281,63 423,108 118,38 342,142 432,161 139,110 549,264 643,415 l -596,1243 -64,128 M 1506,1555 2157,2926 m -956,940 C 928,3641 642,3372 371,3155 c 2,-111 210,-529 288,-652 36,-57 112,-164 135,-220 41,-69 217,-273 297,-356 55,-57 325,-353 415,-372 32,-54 97,-84 143,-127 79,-33 307,-181 398,-234 130,-76 290,-114 407,-181 70,-22 509,-138 610,-150 l 236,-28 c 56,-18 133,-8 195,-8 40,-13 74,-9 119,-9 l 0,1702"
           class="fil0 str0"
           inkscape:connector-curvature="0"
           style="fill:none;stroke:#000000;stroke-width:17.63999939;stroke-linecap:square" />
        <path
           id="path3455"
           d="m 10463,16228 170,0 c 91,-15 92,-5 194,-19 l 516,-95 c 241,-86 356,-104 610,-231 120,-60 547,-289 610,-392 m -4208,0 c 100,164 512,306 660,423 93,20 325,123 441,161 79,27 416,107 500,117 l 304,27 c 58,19 139,9 203,9 l 0,-1702 m 1448,-407 652,1372 c 96,-45 141,-102 220,-178 128,-122 200,-182 312,-322 l 187,-246 c 47,-108 180,-294 244,-422 70,-141 129,-285 180,-432 m -4699,228 -97,210 -555,1162 c -94,-25 -450,-401 -515,-483 -135,-197 -273,-343 -380,-558 -61,-122 -230,-436 -239,-559 m 5638,-720 712,617 c 34,28 100,93 135,103 15,-77 55,-179 75,-263 37,-148 79,-366 92,-525 l 2,-135 c 22,-67 9,-225 9,-305 -17,-107 -3,-101 -19,-220 l -24,-144 m -5799,889 c -246,206 -589,523 -821,703 -48,-83 -130,-449 -142,-559 l -28,-288 c -17,-54 -8,-126 -8,-186 l -11,-85 c 20,-56 11,-132 11,-195 l 34,-279 m 3386,508 85,0 c 145,-23 113,2 254,-19 l 245,-34 c 334,-78 431,-91 762,-229 153,-64 663,-333 754,-455 m 745,43 c 58,27 489,183 533,186 0,-85 -47,-252 -66,-347 -18,-86 -80,-225 -86,-296 -89,-156 -144,-400 -262,-551 m -5817,1008 c -79,32 -474,181 -533,186 l 7,-51 c 1,-228 272,-971 407,-1143 m 864,965 c 119,158 510,303 652,415 88,19 319,124 432,161 l 483,117 423,36 c 40,13 73,8 118,8 l 0,-1710 m 1440,-407 452,939 208,441 c 169,-117 133,-107 280,-236 83,-72 157,-154 227,-239 l 203,-262 c 20,-42 120,-206 154,-228 4,-41 114,-250 144,-288 21,-100 124,-258 127,-355 m -4683,228 -660,1380 -110,-76 -59,-59 -103,-92 -60,-58 -74,-79 -110,-119 c -31,-45 -344,-479 -348,-482 -30,-144 -267,-475 -270,-643 m 5647,-711 c 102,91 770,685 830,711 51,-70 132,-448 150,-593 l 27,-330 c 22,-66 9,-218 9,-296 -17,-107 -3,-143 -28,-288 l -15,-76 m -5791,872 -829,711 c -59,-102 -130,-458 -151,-619 l -19,-211 c -19,-58 -8,-138 -8,-203 l -11,-76 c 20,-56 11,-133 11,-195 l 34,-279 m 3386,499 170,0 c 100,-16 85,-2 194,-19 l 516,-95 c 241,-86 356,-103 610,-231 117,-58 549,-294 610,-392 m 745,51 533,187 c 0,-47 2,-54 -10,-102 -41,-131 -58,-273 -105,-415 -38,-115 -136,-333 -155,-423 -60,-76 -79,-183 -144,-254 m -5817,1007 -533,187 7,-51 c 1,-203 187,-714 272,-898 l 135,-254 m 864,965 c 31,49 114,93 161,136 20,9 485,277 499,288 91,19 327,123 441,161 79,26 416,107 500,116 l 304,28 c 58,19 139,8 203,8 l 0,-1702 m 3235,-635 c -235,-178 -575,-510 -822,-702 m -5655,702 c 261,-208 562,-497 829,-711 m 3853,931 660,1380 c 94,-27 457,-406 524,-491 32,-45 333,-461 340,-465 7,-100 257,-469 271,-644 56,-98 133,-465 149,-601 l 28,-322 c 22,-66 9,-224 9,-304 -19,-120 0,-96 -19,-220 l -24,-144 M 9007,7270 8355,8641 c -96,-27 -455,-406 -524,-491 -33,-47 -334,-470 -340,-474 -30,-145 -256,-450 -270,-635 -48,-82 -130,-449 -142,-559 l -28,-279 c -18,-56 -8,-132 -8,-195 l -11,-84 c 21,-59 11,-139 11,-204 l 34,-270 m 6231,-187 533,187 c 0,-79 -42,-241 -60,-331 -18,-91 -60,-194 -86,-288 -32,-114 -198,-486 -268,-575 m -5817,1007 -533,187 7,-51 c 1,-230 271,-970 407,-1143 m 2972,1702 0,-1711 m 2100,965 -461,-963 -191,-408 M 8355,5212 c 62,101 562,384 703,441 69,27 176,65 237,101 67,5 212,67 288,86 l 601,101 c 107,19 149,3 279,17 l 51,0 c 137,-22 137,0 279,-19 208,-28 320,-44 542,-99 76,-19 221,-81 288,-86 62,-37 166,-73 237,-104 154,-66 636,-328 703,-438 84,-17 447,-394 507,-466 l 202,-263 c 22,-44 118,-203 155,-227 3,-41 114,-250 144,-288 19,-103 124,-256 127,-356 m -4683,229 -660,1371 c -92,-19 -457,-407 -532,-500 l -177,-229 c -20,-40 -123,-206 -155,-227 -7,-92 -267,-486 -270,-644 m 5638,-719 372,323 c 157,134 303,270 467,396 44,-62 130,-439 142,-533 l 33,-254 c 5,-80 19,-386 11,-440 -16,-101 -5,-142 -28,-279 l -15,-77 m -5782,864 -838,719 c -50,-85 -130,-448 -142,-559 l -28,-279 c -18,-56 -8,-132 -8,-195 l -11,-84 c 20,-54 11,-127 11,-187 15,-96 3,-78 19,-177 l 15,-102 m 6240,-186 524,186 c 0,-90 -39,-243 -62,-339 -51,-216 -236,-716 -352,-863 -52,56 -104,161 -154,228 -174,238 -349,451 -575,643 l -296,229 c -211,123 -430,268 -669,356 -111,41 -214,79 -330,113 -60,18 -392,96 -491,106 -409,39 -608,49 -1007,-18 l -517,-128 c -79,-26 -161,-54 -237,-88 -47,-21 -201,-96 -237,-104 -73,-57 -229,-127 -322,-189 -399,-264 -677,-543 -954,-928 -47,-66 -96,-165 -147,-220 -102,130 -308,651 -346,838 -24,118 -57,253 -68,364 l 525,-186"
           class="fil0 str0"
           inkscape:connector-curvature="0"
           style="fill:none;stroke:#000000;stroke-width:17.63999939;stroke-linecap:square" />
      </g>
    </g>
  </g>
</svg>
